<?xml version="1.0" standalone="no"?>
<!DOCTYPE svg PUBLIC "-//W3C//DTD SVG 1.1//EN" "http://www.w3.org/Graphics/SVG/1.1/DTD/svg11.dtd" >
<svg xmlns="http://www.w3.org/2000/svg">
<metadata>
Created by FontPrep 20130207 at Thu Sep 11 15:58:05 2014
 By rosi
2013 published by Oak Studios, LLC
</metadata>
<defs>
<font id="5ea1772e63e175299e7ff4b3800409c9" horiz-adv-x='1024' >
  <font-face 
    font-family="SSGizmo"
    font-weight="400"
    font-stretch="normal"
    units-per-em="2048"
    panose-1="2 0 0 0 0 0 0 0 0 0"
    ascent="2048"
    descent="0"
    x-height="1076"
    cap-height="1479"
    bbox="-11 -472 2308 2080"
    underline-thickness="128"
    underline-position="-128"
    unicode-range="U+0020-1F6B2"
  />
<missing-glyph 
 />
    <glyph glyph-name=".notdef" unicode="DFLT" 
 />
    <glyph glyph-name="plus" unicode="Add" 
d="M1696 1120v-160h-608v-608h-160v608h-608v160h608v608h160v-608h608z" />
    <glyph glyph-name="hyphen" unicode="HYPHEN" 
d="M1729 895h-1377v162h1377v-162z" />
    <glyph glyph-name="quote" unicode="Pull&#x20;quote" 
d="M384 1024v160h544v-800h-832v768q0 246 135 379t377 133v-160q-190 0 -271 -84t-81 -268v-608h512v480h-384zM1408 1184h544v-800h-832v768q0 246 135 379t377 133v-160q-190 0 -271 -84t-81 -268v-608h512v480h-384v160z" />
    <glyph glyph-name="unquote" unicode="UNQUOTE" 
d="M1120 1664h832v-768q0 -246 -135 -379t-377 -133v160q190 0 271 84t81 268v608h-512v-480h384v-160h-544v800zM96 864v800h832v-768q0 -246 -135 -379t-377 -133v160q190 0 271 84t81 268v608h-512v-480h384v-160h-544z" />
    <glyph glyph-name="info" unicode="INFORMATION" 
d="M960 608v544h160v-544h-160zM960 1248v160h160v-160h-160zM1670 1030q0 148 -84 294t-230 230t-294 84q-284 0 -468 -184t-184 -446q0 -171 84 -316q84 -146 230 -230q145 -84 294 -84t264 48t204 136q88 88 136 204t48 264zM1041 1792q158 0 303 -62q144 -62 250 -168
t168 -250q62 -145 62 -303t-60 -301t-170 -254q-111 -110 -254 -170t-301 -60t-303 62q-144 62 -250 168t-168 250q-62 145 -62 303t60 301t170 254q111 110 254 170t301 60z" />
    <glyph glyph-name="replay" unicode="ROTATE&#x20;LEFT" 
d="M1101 1792q162 0 307 -62q144 -62 250 -168t168 -250q62 -145 62 -304t-62 -304q-62 -144 -168 -250t-250 -168q-145 -62 -324 -62t-351 93q-173 93 -281 255t-128 356h162q30 -232 206 -388t412 -156q126 0 242 50t200 132q84 84 132 200q50 116 50 242t-50 242
t-132 200q-84 84 -200 132q-116 50 -245 50q-253 0 -462 -207q-100 -102 -207 -209h304v-160h-576v576h160v-302q34 34 106 108t100 100q256 254 575 254z" />
    <glyph glyph-name="refresh" unicode="ROTATE&#x20;RIGHT" 
d="M1312 1056v160h304q-34 34 -107 108t-100 101q-209 207 -462 207q-129 0 -245 -50t-200 -132q-84 -84 -132 -200q-50 -116 -50 -242t50 -242t132 -200q84 -84 200 -132q116 -50 256 -50q142 0 277 72t221 196t106 276h161q-20 -194 -128 -356t-280 -255t-351 -93t-324 62
q-144 62 -250 168t-168 250q-62 145 -62 304t62 304q62 144 168 250t250 168q145 62 307 62q319 0 575 -254q28 -26 100 -100t106 -108v302h160v-576h-576z" />
    <glyph glyph-name="star" unicode="FAVORITE" 
d="M1024 634l389 -239l-109 441l349 291l-456 33l-173 421l-173 -421l-456 -33l349 -291l-109 -441zM1663 53l-639 393l-639 -393l180 724l-576 482l752 54l283 689l283 -689l752 -54l-576 -482z" />
    <glyph glyph-name="home" unicode="HOUSE" 
d="M1536 512v494l160 -159v-495h-544v512h-256v-512h-544v495l160 159v-494h224v512h576v-512h224zM1024 1920l915 -908l-112 -114l-803 796l-803 -796l-112 114z" />
    <glyph glyph-name="crosshair" unicode="CROSSHAIR" 
d="M1008 1120q46 0 79 -33t33 -79t-33 -79t-79 -33t-79 33t-33 79t33 79t79 33zM1344 928v160h250q-26 197 -167 339q-142 141 -339 167v-250h-160v250q-197 -26 -339 -167q-141 -142 -167 -339h250v-160h-250q26 -197 167 -339q142 -141 339 -167v250h160v-250
q197 26 339 167q141 142 167 339h-250zM1760 1008q0 -150 -57 -288t-163 -244t-244 -163t-288 -57t-288 57t-244 163t-163 244t-57 288t57 288t163 244t244 163t288 57t288 -57t244 -163t163 -244t57 -288z" />
    <glyph glyph-name="backspace" unicode="BACKSPACE" 
d="M990 669l-113 113l227 226l-227 226l113 113l227 -226l226 226l113 -113l-226 -226l226 -226l-113 -113l-226 226zM1856 480v1056h-1131l-466 -536l465 -520h1132zM2016 1696v-1376h-1364l-605 679l604 697h1365z" />
    <glyph glyph-name="print" unicode="PRINTER" 
d="M1728 1152v-160h-160v160h160zM608 704v-384h832v384h-832zM448 160v704h1152v-704h-1152zM608 1760v-320h832v320h-832zM1808 1440q86 0 147 -61t61 -147v-640q0 -86 -61 -147t-147 -61h-80v160h80q20 0 34 14t14 34v640q0 20 -14 34t-34 14h-1568q-20 0 -34 -14
t-14 -34v-640q0 -20 14 -34t34 -14h80v-160h-80q-86 0 -147 61t-61 147v640q0 86 61 147t147 61h208v480h1152v-480h208z" />
    <glyph glyph-name="eject" unicode="Eject" 
d="M1543 1047l-519 520l-519 -520l-114 114l633 632l633 -632zM544 576h960v160h-960v-160zM1664 416h-1280v480h1280v-480z" />
    <glyph glyph-name="fastforward" unicode="FAST&#x20;FORWARD" 
d="M1096 391l-113 114l520 519l-520 519l113 114l633 -633zM489 391l-114 114l520 519l-520 519l114 114l632 -633z" />
    <glyph glyph-name="rewind" unicode="REWIND" 
d="M952 391l-633 633l633 633l113 -114l-520 -519l520 -519zM1559 391l-632 633l632 633l114 -114l-520 -519l520 -519z" />
    <glyph glyph-name="skipforward" unicode="SKIP&#x20;FORWARD" 
d="M456 391l-113 114l520 519l-520 519l113 114l633 -633zM1312 544h160v960h-160v-960zM1632 384h-480v1280h480v-1280z" />
    <glyph glyph-name="skipback" unicode="SKIP&#x20;BACK" 
d="M1592 391l-633 633l633 633l113 -114l-520 -519l520 -519zM576 544h160v960h-160v-960zM896 384h-480v1280h480v-1280z" />
    <glyph glyph-name="alarmclock" unicode="ALARM&#x20;CLOCK" 
d="M622 2014l100 -125l-480 -384l-100 125zM1458 2014l480 -384l-100 -125l-480 384zM960 1472h160v-524l-406 -248l-84 136l330 202v434zM1018 378q284 0 468 184t184 446q0 171 -84 316q-84 146 -230 230q-145 84 -316 84t-316 -84q-146 -84 -230 -230q-84 -145 -84 -316
t84 -316q84 -146 230 -230t294 -84zM1040 1792q159 0 304 -62q144 -62 250 -168t168 -250q62 -145 62 -304q0 -284 -180 -499l179 -255l-131 -92l-163 233q-215 -171 -489 -171t-489 172l-166 -234l-130 92l180 256q-179 217 -179 498q0 159 62 304q62 144 168 250t250 168
q145 62 304 62z" />
    <glyph glyph-name="stopwatch" unicode="STOPWATCH" 
d="M1184 1017q0 -69 -42 -111t-102 -42t-102 42t-42 111q0 68 64 111v344h160v-344q64 -43 64 -111zM1670 1030q0 148 -84 294t-230 230q-145 84 -316 84t-316 -84q-146 -84 -230 -230q-84 -145 -84 -316t84 -316q84 -146 230 -230t294 -84t264 48t204 136t136 204t48 264z
M1824 1007q0 -156 -60 -299t-170 -254q-111 -110 -254 -170t-301 -60t-303 62q-144 62 -250 168t-168 250q-62 145 -62 299q0 153 55 291t149 241t224 171t276 82v132h-160v160h480v-160h-160v-132q199 -21 362 -133l142 172l123 -102l-143 -173q104 -108 162 -248t58 -297z
" />
    <glyph glyph-name="clock" unicode="CLOCK" 
d="M1120 1472v-434l330 -202l-84 -136l-406 248v524h160zM1670 1030q0 148 -84 294t-230 230q-145 84 -316 84t-316 -84q-146 -84 -230 -230q-84 -145 -84 -316t84 -316q84 -146 230 -230t294 -84t264 48t204 136t136 204t48 264zM1040 1792q159 0 304 -62q144 -62 250 -168
t168 -250q62 -145 62 -303t-60 -301t-170 -254q-111 -110 -254 -170t-301 -60t-303 62q-144 62 -250 168t-168 250q-62 145 -62 304t62 304q62 144 168 250t250 168q145 62 304 62z" />
    <glyph glyph-name="delete" unicode="CLOSE" 
d="M1583 1470l-430 -430l430 -430l-113 -113l-430 430l-430 -430l-113 113l430 430l-430 430l113 113l430 -430l430 430z" />
    <glyph glyph-name="stop" unicode="Stop" 
d="M480 480h1088v1088h-1088v-1088zM1728 320h-1408v1408h1408v-1408z" />
    <glyph glyph-name="play" unicode="PLAY" 
d="M512 1487v-926l925 463zM352 302v1444l1443 -722z" />
    <glyph glyph-name="navigateright" unicode="Navigate&#x20;Right" 
d="M825 316l-114 113l605 605l-605 605l114 113l718 -718z" />
    <glyph glyph-name="navigateleft" unicode="NAVIGATE&#x20;LEFT" 
d="M1255 316l-718 718l718 718l113 -113l-605 -605l605 -605z" />
    <glyph glyph-name="target" unicode="TARGET" 
d="M1008 416q120 0 230 47t189 126t126 189t47 230t-47 230t-126 189t-189 126t-230 47t-230 -47t-189 -126t-126 -189t-47 -230t47 -230t126 -189t189 -126t230 -47zM1984 1088v-160h-228q-28 -264 -216 -452t-452 -216v-228h-160v228q-264 28 -452 216t-216 452h-228v160
h228q28 264 216 452t452 216v228h160v-228q264 -28 452 -216t216 -452h228zM1008 1152q60 0 102 -42t42 -102t-42 -102t-102 -42t-102 42t-42 102t42 102t102 42z" />
    <glyph glyph-name="record" unicode="RECORD" 
d="M1024 1638q-123 0 -235 -46t-199 -134q-88 -87 -134 -199t-46 -235t46 -235t134 -199q87 -88 199 -134t235 -46t235 46t199 134q88 87 134 199t46 235t-46 235t-134 199q-87 88 -199 134t-235 46zM1024 256q-154 0 -294 58t-249 167t-167 249t-58 294t58 294t167 249
t249 167t294 58t294 -58t249 -167t167 -249t58 -294t-58 -294t-167 -249t-249 -167t-294 -58z" />
    <glyph glyph-name="sun" unicode="Sunny" 
d="M1040 765q114 1 194 81t81 194q-1 114 -81 194t-194 81q-114 -1 -194 -81t-81 -194q1 -114 81 -194t194 -81zM1040 1472q178 0 305 -127t127 -305t-127 -305t-305 -127t-305 127t-127 305t127 305t305 127zM698 1495q-67 -53 -113 -113l-314 314l113 113zM1381 585
q61 45 114 113l314 -314l-113 -113zM1040 470q34 0 80 7v-445h-160v445q46 -7 80 -7zM1040 1610q-34 0 -80 -7v445h160v-445q-46 7 -80 7zM585 698q46 -60 113 -113l-314 -314l-113 113zM1495 1382q-50 64 -114 113l315 314l113 -113zM2048 1120v-160h-445q7 46 7 80t-7 80
h445zM470 1040q0 -34 7 -80h-445v160h445q-7 -46 -7 -80z" />
    <glyph glyph-name="cloud" unicode="CLOUD" 
d="M954 1600q-210 0 -337 -137t-110 -360l5 -67l-65 -16q-105 -28 -164 -100t-59 -178t78 -184t187 -78h999q140 0 238 100t98 238t-100 233t-256 107l-63 5l-10 61q-29 164 -153 270t-288 106zM1488 320h-999q-175 0 -300 126t-125 301q0 141 74 249t207 159q2 251 156 418
q175 187 453 187q206 0 368 -126t217 -324q199 -33 322 -168t123 -323q0 -135 -66 -250t-182 -182q-114 -67 -248 -67z" />
    <glyph glyph-name="umbrella" unicode="UMBRELLA" 
d="M1344 446v66h160v-66q0 -118 -84 -202t-204 -84t-204 84t-84 202v418h160v-418q0 -52 38 -89t90 -37t90 37t38 89zM1008 1760q-173 0 -323 -80q-149 -80 -245 -220q-96 -139 -115 -308h1366q-19 169 -115 308q-96 140 -245 220q-150 80 -323 80zM1008 1920q172 0 329 -67
t271 -181t181 -271t67 -329v-80h-1696v80q0 172 67 329t181 271t271 181t329 67z" />
    <glyph glyph-name="lightning" unicode="LIGHTNING" 
d="M1192 992l-125 -288h254l-681 -672l201 512h-173l195 448h329zM2016 1043q0 -135 -66 -250t-182 -182q-114 -67 -248 -67h-180l163 160h17q140 0 238 100t98 238t-100 233t-256 107l-63 5l-10 61q-29 164 -153 270t-288 106q-208 0 -336 -137t-111 -360l5 -67l-65 -16
q-105 -26 -164 -98t-59 -179t78 -185t187 -78h76l-70 -160h-6q-177 0 -301 125t-124 302q0 141 74 249t207 159q2 251 156 418q175 187 453 187q206 0 368 -126t217 -324q199 -33 322 -168t123 -323z" />
    <glyph glyph-name="touchtonephone" unicode="TOUCHTONE&#x20;PHONE" 
d="M384 900v401q0 65 56 83l73 23q-1 60 -1 257h-187q-75 -264 -75 -560t75 -560h187q0 197 1 256l-73 24q-24 8 -40 29t-16 47zM671 464q1 -32 -23 -56t-57 -24h-320q-25 0 -47 16t-30 41q-98 325 -98 663t98 663q8 25 30 41t47 16h320q33 0 57 -24t23 -54v-186l1 -106
v-105q0 -25 -16 -47t-40 -29l-72 -23v-292l72 -23q24 -8 40 -29t16 -47v-103l-1 -107v-185zM2016 1104q0 -337 -91 -661q-7 -27 -29 -43t-48 -16h-888v-64q0 -92 -66 -158t-150 -66t-144 44t-79 116h215q26 0 45 19t19 45v224h993q69 264 69 560t-69 560h-833v-992h-160
v1072q0 32 23 56t56 24h969q26 0 48 -16t29 -42q91 -325 91 -662zM1568 704q-26 0 -45 19t-19 45t19 45t45 19t45 -19t19 -45t-19 -45t-45 -19zM1376 832q26 0 45 -19t19 -45t-19 -45t-45 -19t-45 19t-19 45t19 45t45 19zM1184 832q26 0 45 -19t19 -45t-19 -45t-45 -19
t-45 19t-19 45t19 45t45 19zM1568 896q-26 0 -45 19t-19 45t19 45t45 19t45 -19t19 -45t-19 -45t-45 -19zM1376 1024q26 0 45 -19t19 -45t-19 -45t-45 -19t-45 19t-19 45t19 45t45 19zM1184 896q-26 0 -45 19t-19 45t19 45t45 19t45 -19t19 -45t-19 -45t-45 -19zM1568 1088
q-26 0 -45 19t-19 45t19 45t45 19t45 -19t19 -45t-19 -45t-45 -19zM1376 1216q26 0 45 -19t19 -45t-19 -45t-45 -19t-45 19t-19 45t19 45t45 19zM1184 1088q-26 0 -45 19t-19 45t19 45t45 19t45 -19t19 -45t-19 -45t-45 -19zM1120 1344v160h512v-160h-512z" />
    <glyph glyph-name="rain" unicode="RAINY" 
d="M1238 424q56 62 76 56q22 -6 40 -86t6 -126q-11 -44 -45 -63t-76 -8t-62 45q-19 34 -7 78t68 104zM1334 808q56 62 76 56q22 -6 40 -86t6 -126q-11 -44 -45 -63t-76 -8t-62 45q-19 34 -7 78t68 104zM854 296q56 62 76 56q22 -6 40 -86t6 -126q-11 -44 -45 -63t-76 -8
t-62 45q-19 34 -7 78t68 104zM950 648q56 62 76 56q22 -6 39 -86t7 -125t-45 -64q-34 -19 -76 -8t-62 45q-19 34 -7 78t68 104zM1046 1032q56 60 76 56q22 -6 40 -86t6 -126q-12 -44 -46 -63t-75 -8q-42 11 -62 45q-19 34 -7 78t68 104zM534 520q56 60 76 56q22 -6 40 -86
t6 -126q-12 -44 -46 -63t-76 -8t-61 45t-7 78t68 104zM630 904q56 62 76 56q22 -6 40 -86t6 -126q-12 -44 -46 -63t-76 -8t-62 45q-40 70 62 182zM2016 1038q0 -192 -132 -335t-323 -159l46 170q109 30 179 121t70 217t-100 222q-100 95 -256 107l-63 5l-10 61
q-29 165 -153 271t-288 106q-208 0 -336 -137t-111 -361l5 -67l-65 -16q-105 -27 -164 -99t-59 -166q0 -93 48 -161t124 -98l-43 -155q-129 44 -209 155t-80 251t74 249q74 108 207 159q2 253 156 418q174 188 453 188q206 0 368 -126t217 -324q199 -32 322 -168t123 -328z
" />
    <glyph glyph-name="mug" unicode="COFFEE" 
d="M1026 478q164 0 270 64t166 261q37 120 63 317h-997q40 -338 134 -482q76 -117 219 -147q61 -13 145 -13zM1721 896q55 0 95 28t40 84t-40 84t-95 28h-36q-11 -106 -35 -224h71zM1721 1280q127 0 211 -77t84 -195t-84 -195t-211 -77h-113q-120 -366 -452 -408
q-58 -8 -130 -8t-132 8q-151 19 -271 116q-120 98 -179 290q-58 192 -85 459l-7 87h1369zM1022 190q150 0 293 17q232 28 381 77q148 49 214 82l77 -140q-52 -28 -159 -66t-209 -62t-264 -46q-162 -20 -332 -20t-331 20q-259 32 -423 89t-209 85l77 140q230 -114 590 -158
q145 -18 295 -18zM1152 1408q-86 62 -58 138q12 34 35 68l46 68t35 68q28 76 -58 138h160q86 -62 58 -138q-12 -34 -35 -68l-46 -68t-35 -68q-28 -76 58 -138h-160zM832 1408q-86 62 -58 138q12 34 35 68l46 68t35 68q28 76 -58 138h160q86 -62 58 -138q-12 -34 -35 -68
l-46 -68t-35 -68q-28 -76 58 -138h-160z" />
    <glyph glyph-name="heart" unicode="HEART" 
d="M1356 1568q-154 0 -206 -99q-36 -67 -45 -122q-1 -1 -1 -2v-2q-12 -63 -77 -63q-39 0 -59 19t-24 45q-33 224 -252 224q-115 0 -200 -71q-41 -33 -72 -93t-35 -136q-13 -187 154 -360q379 -393 485 -504q106 111 485 504q167 173 154 360q-4 76 -35 136t-72 93
q-85 71 -200 71zM692 1728q219 0 332 -157q113 157 332 157q170 0 301 -106q72 -58 116 -150t50 -195q15 -257 -199 -480q-84 -87 -170 -177t-151 -156q-64 -66 -115 -120t-78 -82l-86 -90l-86 90q-27 28 -78 82t-115 120q-65 66 -151 156t-170 177q-214 223 -199 480
q6 103 50 195t116 150q131 106 301 106z" />
    <glyph glyph-name="steam" unicode="STEAM" 
d="M1024 736h-160v640h160v-640zM1215 961l-109 704l158 25l109 -704zM1760 800q0 -148 -112 -264t-275 -125q-65 -115 -179 -183t-250 -68t-250 68t-178 183q-164 9 -276 125t-112 264t81 253q81 106 209 145l-29 -191q-101 -73 -101 -184q0 -109 74 -181t177 -72l79 6
l22 -55q38 -93 120 -147t184 -54t184 54t120 147l22 55q43 -6 79 -6q103 0 177 72t74 181q0 110 -101 184l-29 191q128 -39 209 -145t81 -253zM673 961l-158 25l109 704l158 -25z" />
    <glyph glyph-name="music" unicode="Audio" 
d="M1472 1309v270l-736 -108v-269zM286 408q0 -43 31 -81t103 -38q72 1 114 57t42 155v1108l1056 155v-1104q0 -167 -88 -270t-226 -103q-138 1 -216 85t-78 196t73 197q73 84 199 113l48 10v-163q-160 -32 -160 -159q0 -43 30 -81t102 -38q72 1 114 57t42 156v488
l-736 -108v-539q0 -166 -88 -269t-227 -103q-137 0 -215 84t-78 197t73 197t198 113l49 10v-163q-162 -32 -162 -159z" />
    <glyph glyph-name="wheelchair" unicode="WHEELCHAIR&#x20;ACCESSIBLE" 
d="M1472 576q0 -104 -40 -198t-110 -164t-164 -110t-198 -40t-198 40t-164 110t-110 164t-40 198q0 186 118 328t298 175v-161q-113 -32 -186 -126t-73 -229q0 -134 104 -238t251 -104t251 104t104 251q0 21 -1 32h156q2 -22 2 -32zM1216 1827q-41 0 -70 -29t-29 -70t29 -70
t70 -29t70 29t29 70t-29 70t-70 29zM1216 1504q-92 0 -158 66t-66 158t66 158t158 66t158 -66t66 -158t-66 -158t-158 -66zM1088 736v447q0 39 -29 65q-50 42 -169 26q-219 -30 -258 -56q-23 -18 -99 -118t-144 -201l-133 89q74 110 160 222t127 140q72 49 339 85
q177 25 281 -67q85 -73 85 -185v-287h272q66 0 116 -46t61 -117l60 -522l-159 -18l-59 511q-3 20 -13 26t-29 6h-409z" />
    <glyph glyph-name="flag" unicode="Flag" 
d="M384 96h-160v1605l60 15q94 28 258 41t281 -19q117 -31 267 -124q62 -38 98 -58q105 -58 259 -76q154 -19 304 20h1l104 30v-1163l-59 -16q-169 -51 -399 -22q-77 11 -154 39t-126 56t-146 90t-194 88t-266 8v161q296 25 500 -95q51 -30 90 -55q40 -26 47 -30
q7 -5 28 -17t30 -17t29 -15t34 -15q177 -71 426 -35v835q-140 -22 -260 -7q-120 14 -198 42t-122 52t-100 58t-105 63q-178 104 -527 40v-1479z" />
    <glyph glyph-name="alert" unicode="ALERT" 
d="M960 1216h160v-192l-32 -256h-96l-32 256v192zM960 512v160h160v-160h-160zM1040 1568l-621 -1216h1242zM1040 1920l883 -1728h-1766z" />
    <glyph glyph-name="partlycloudy" unicode="Partly&#x20;cloudy" 
d="M1065 255q89 1 152 63t63 150t-64 148q-64 59 -167 67l-63 5l-10 61q-18 107 -100 175t-206 68t-206 -89q-83 -89 -72 -233l6 -67l-66 -16q-68 -17 -104 -61t-36 -109t48 -113t116 -49h709zM1440 460q0 -144 -110 -254t-265 -110h-709q-134 0 -229 95t-95 213
q0 230 200 317q6 175 115 291q131 140 339 140q150 0 270 -88t164 -230q142 -30 231 -130t89 -244zM1377 858q101 64 101 198q0 72 -63 135t-137 63q-145 0 -205 -117q-58 52 -128 86q49 85 134 135t185 50q152 0 260 -108t108 -260q0 -88 -40 -166t-108 -129
q-45 65 -107 113zM1558 632q66 48 113 113l226 -225l-113 -114zM970 1448q-66 -48 -114 -114l-226 226l113 114zM1264 1543q-44 0 -80 -7v320h160v-320q-36 7 -80 7zM1671 1334q-46 65 -113 114l226 226l113 -114zM2080 1120v-160h-320q7 36 7 80t-7 80h320z" />
    <glyph glyph-name="thunderstorm" unicode="Thunderstorm" 
d="M1307 611q26 -11 35 -115q10 -104 -12 -158t-69 -74t-97 2t-70 67q-19 45 4 99t103 122t106 57zM1499 1059q26 -11 35 -115q10 -104 -12 -158t-69 -74t-97 2t-70 67q-19 45 4 99t103 122t106 57zM1152 704l-672 -672l192 512h-173l195 448h329l-125 -288h254zM2016 1043
q0 -188 -123 -328t-305 -166l69 185q89 40 144 124t55 185q0 137 -100 232t-256 107l-63 5l-10 61q-29 164 -153 270t-288 106q-208 0 -336 -137t-111 -360l5 -67l-65 -16q-105 -26 -164 -98t-59 -168q0 -94 50 -163t129 -96l-65 -147q-122 48 -198 156t-76 246t74 246
t207 159q2 251 156 418q175 187 453 187q206 0 368 -126t217 -324q199 -33 322 -168t123 -323z" />
    <glyph glyph-name="caution" unicode="CAUTION" 
d="M640 928v192h768v-192h-768zM1025 410q123 0 237 48t196 132q82 82 132 196q48 114 48 237q0 255 -180 435t-434 180q-124 0 -238 -48t-196 -132q-82 -82 -132 -196q-48 -114 -48 -237q0 -124 46 -236t134 -199q87 -88 199 -134t236 -46zM1792 1024q0 -210 -103 -386
t-279 -279t-386 -103q-154 0 -294 58t-249 167t-167 249t-58 294q0 210 103 386t279 279t386 103q154 0 294 -58t249 -167t167 -249t58 -294z" />
    <glyph glyph-name="mail" unicode="ENVELOPE" 
d="M1094 1053q34 0 55 16l501 371h-1113l501 -371q22 -16 56 -16zM256 1600h1632v-166l-644 -491q-62 -46 -150 -46t-151 46l-687 522v135zM1888 320h-1632v978l160 -136v-601l305 384l129 -95l-294 -370h1033l-279 350l129 95l289 -363v570l160 135v-947z" />
    <glyph glyph-name="raisedhand" unicode="RAISED&#x20;HAND" 
d="M1568 1920v-864h-160v864h160zM1248 1952v-894h-160v894h160zM1728 1760h160v-880q0 -184 -76 -342t-215 -263q-194 -147 -437 -147t-437 111t-325 250q-131 140 -168 207q-74 133 -14 242q59 109 177 118q61 2 100 -17q39 -17 73 -35t51 -26q107 -50 137 12q14 30 14 68
v894h160v-894q0 -106 -58 -178q-122 -153 -371 -22q-73 40 -99 38t-39 -25q-23 -43 -3 -77t50 -74q79 -107 225 -232t311 -170q328 -90 556 84q108 83 168 208t60 270v880z" />
    <glyph glyph-name="write" unicode="EDIT" 
d="M653 701q0 33 24 57l582 582l113 -113l-582 -582q-24 -24 -57 -24q-33 -1 -57 23t-23 57zM851 525l612 612l113 -113l-639 -639l-785 -264l265 784l638 639l113 -113l-612 -612l-111 -330l76 -75zM1759 1453q0 21 -13 34l-227 227q-14 14 -34 14t-34 -14l-79 -79
l294 -295l80 80q13 12 13 33zM1919 1454q0 -86 -60 -148l-193 -192l-520 521l192 192q61 61 147 61t147 -61l227 -226q60 -61 60 -147z" />
    <glyph glyph-name="erase" unicode="ERASER" 
d="M1218 1427q34 1 56 -23q24 -24 24 -56t-23 -58l-583 -582l-113 113l583 582q22 24 56 24zM1799 1927l-264 -784l-639 -639l-113 113l612 612l111 330l-76 75l-329 -110l-612 -613l-113 113l638 639zM192 596q0 -20 14 -35l226 -227q14 -14 34 -14t34 14l79 79l-294 295
l-79 -80q-14 -12 -14 -32zM466 160q-86 0 -147 61l-226 226q-61 63 -61 147t61 148l192 192l521 -521l-193 -192q-61 -61 -147 -61zM1072 288q60 0 102 -42t42 -102t-42 -102t-102 -42t-102 42t-42 102t42 102t102 42zM1744 256q60 0 102 42t42 102t-42 102t-102 42
t-102 -42t-42 -102t42 -102t102 -42zM1744 704q126 0 215 -89t89 -215t-89 -215t-215 -89t-215 89t-89 215t89 215t215 89z" />
    <glyph glyph-name="pen" unicode="PEN" 
d="M1568 1984v-160h-1056v160h1056zM960 819q-96 49 -96 169q0 62 52 112q52 52 124 52t124 -52t52 -112q0 -119 -96 -169v-521l336 673l-176 423v302h160v-270l192 -461l-450 -901h-284l-450 901l192 461v270h160v-302l-176 -423l336 -672v520z" />
    <glyph glyph-name="check" unicode="CHECKMARK" 
d="M936 345l-608 774l126 99l466 -595l676 1083l136 -84z" />
    <glyph glyph-name="snowflake" unicode="Snowflake" 
d="M1120 160h-160v282l-255 -255l-113 113l358 358l-89 89l-170 -169l-113 113l283 283l179 -180l179 180l283 -283l-114 -113l-169 169l-89 -89l357 -358l-113 -113l-254 254v-281zM960 1920h160v-281l254 254l113 -113l-357 -358l89 -89l169 169l114 -113l-283 -283
l-179 180l-179 -180l-283 283l113 113l170 -169l89 89l-358 358l113 113l255 -255v282zM1920 1120v-160h-282l254 -254l-113 -114l-448 448l448 448l113 -113l-254 -255h282zM160 960v160h281l-254 255l113 113l448 -448l-448 -448l-113 114l254 254h-281z" />
    <glyph glyph-name="snowcrystal" unicode="SNOW&#x20;CRYSTAL" 
d="M384 832v160h576v-576h-160v301l-128 -128v-365h-160v320h-320v160h368l128 128h-304zM1888 704v-160h-320v-320h-160v371l-128 128v-307h-160v576h576v-160h-299l128 -128h363zM800 1728h160v-576h-576v160h304l-128 128h-368v160h320v320h160v-366l128 -128v302z
M1568 1600h320v-160h-363l-128 -128h299v-160h-576v576h160v-307l128 128v371h160v-320z" />
    <glyph glyph-name="help" unicode="HELP" 
d="M1056 1440q110 0 183 -64t73 -155t-68 -157q-28 -28 -56 -53q-68 -61 -68 -115v-32h-160v52q0 90 64 150q26 26 54 46q67 53 73 99q5 45 -21 73t-72 28t-72 -38t-26 -90h-160q0 116 72 186q74 70 184 70zM960 608v160h160v-160h-160zM1670 1030q0 148 -84 294t-230 230
t-294 84q-284 0 -468 -184t-184 -446q0 -171 84 -316q84 -146 230 -230q145 -84 294 -84t264 48t204 136q88 88 136 204t48 264zM1041 1792q158 0 303 -62q144 -62 250 -168t168 -250q62 -145 62 -303t-60 -301t-170 -254q-111 -110 -254 -170t-301 -60t-303 62
q-144 62 -250 168t-168 250q-62 145 -62 303t60 301t170 254q111 110 254 170t301 60z" />
    <glyph glyph-name="right" unicode="FORWARD" 
d="M192 928v160h1347l-644 644l114 113l837 -837l-837 -837l-114 113l644 644h-1347z" />
    <glyph glyph-name="expand" unicode="Expand" 
d="M1056 1792h736v-736h-160v463l-503 -504l-114 114l504 503h-463v160zM992 416v-160h-736v736h160v-463l503 504l114 -113l-504 -504h463z" />
    <glyph glyph-name="left" unicode="BACK" 
d="M1856 1088v-160h-1347l644 -644l-114 -113l-837 837l837 837l114 -113l-644 -644h1347z" />
    <glyph glyph-name="up" unicode="UP" 
d="M1088 192h-160v1345l-642 -642l-113 114l837 837l838 -837l-114 -114l-646 647v-1350z" />
    <glyph glyph-name="down" unicode="Down" 
d="M928 1856h160v-1350l646 647l114 -114l-838 -837l-837 837l113 114l642 -642v1345z" />
    <glyph glyph-name="upright" unicode="UP&#x20;RIGHT" 
d="M448 1632h1184v-1184h-160v909l-950 -950l-113 113l952 952h-913v160z" />
    <glyph glyph-name="upleft" unicode="UP&#x20;LEFT" 
d="M576 448h-160v1184h1184v-160h-910l952 -952l-113 -113l-953 953v-912z" />
    <glyph glyph-name="downright" unicode="Down&#x20;Right" 
d="M1472 1600h160v-1184h-1184v160h911l-953 953l113 113l953 -953v911z" />
    <glyph glyph-name="downleft" unicode="DOWN&#x20;LEFT" 
d="M1600 576v-160h-1184v1184h160v-910l953 953l113 -113l-953 -954h911z" />
    <glyph glyph-name="cursor" unicode="CURSOR" 
d="M911 659l153 322l324 155l-836 359zM1784 376l-113 -114l-523 523l-245 -514l-655 1528l1527 -654l-513 -247z" />
    <glyph glyph-name="zoomin" unicode="ZOOM&#x20;IN" 
d="M960 1472v-224h224v-160h-224v-224h-160v224h-224v160h224v224h160zM881 673q205 1 349 145t145 348q0 204 -144 351q-146 144 -350 144t-350 -144q-144 -147 -144 -351q1 -204 145 -348t349 -145zM881 514q-271 0 -462 191t-191 462t191 462q193 191 463 191t462 -190
t191 -463q0 -224 -139 -402l421 -421l-113 -113l-421 421q-177 -138 -402 -138z" />
    <glyph glyph-name="zoomout" unicode="ZOOM&#x20;OUT" 
d="M576 1088v160h608v-160h-608zM1376 1168q0 206 -145 350q-145 145 -351 145t-350 -146q-145 -145 -145 -349t145 -350q144 -146 350 -146t351 145t145 351zM881 512q-272 0 -464 192t-192 462t192 464q191 193 463 193t464 -192t192 -464q0 -225 -139 -403l422 -422
l-113 -113l-422 422q-180 -139 -403 -139z" />
    <glyph glyph-name="unlink" unicode="UNLINK" 
d="M1222 712l114 114l295 -296l-113 -113zM794 1365l-113 -114l-296 296l113 113zM1823 1374q0 -138 -97 -236l-110 -110q-95 -97 -234 -97q-95 0 -177 51l119 118q30 -10 58 -10q72 0 123 51l109 109q51 52 51 124t-51 123l-148 149q-51 51 -123 51t-123 -51l-109 -110
q-51 -51 -51 -123q0 -31 11 -61l-118 -118q-51 82 -51 179q0 140 97 235l109 110q97 97 235 97t235 -97l148 -148q97 -98 97 -236zM1117 666q0 -140 -97 -235l-109 -110q-95 -97 -233 -97t-236 97l-147 148q-97 97 -97 235t97 236l109 109q95 97 234 97q96 0 178 -51
l-118 -118q-30 11 -60 11q-73 0 -122 -51l-109 -109q-51 -52 -51 -124t51 -123l147 -148q51 -51 123 -51t123 51l108 110q36 36 47 86t-6 95l117 119q51 -82 51 -177z" />
    <glyph glyph-name="move" unicode="MOVE" 
d="M1120 928v-527l207 207l113 -113l-399 -399l-400 400l113 113l206 -206v525h-527l207 -207l-113 -113l-399 399l400 400l113 -113l-206 -206h525v525l-206 -206l-113 113l400 400l399 -399l-113 -113l-207 207v-527h525l-206 206l113 113l400 -400l-399 -399l-113 113
l207 207h-527z" />
    <glyph glyph-name="writingdisabled" unicode="PENCIL&#x20;DISABLED" 
d="M1410 858l618 -617l-114 -113l-1760 1760l113 113l623 -622l165 165l113 -113l-165 -166l91 -90l165 165l113 -113l-165 -165l90 -91l166 166l113 -113zM653 701q0 33 24 57l208 208l113 -113l-208 -208q-24 -24 -57 -24q-33 -1 -57 23t-23 57zM851 525l237 237l113 -113
l-264 -264l-785 -264l265 784l264 265l113 -114l-238 -237l-111 -330l76 -75zM1759 1453q0 21 -13 34l-227 227q-14 14 -34 14t-34 -14l-79 -79l294 -295l80 80q13 12 13 33zM1485 1888q86 0 147 -61l227 -226q60 -61 60 -147t-60 -148l-193 -192l-520 521l192 192
q61 61 147 61z" />
    <glyph glyph-name="trash" unicode="Trashcan" 
d="M785 1696h414l-43 128h-328zM1696 1696v-160h-1408v160h328l97 288h558l97 -288h328zM1088 1408h160v-800h-160v800zM736 1408h160v-800h-160v800zM1440 448v960h160v-1120h-1216v1120h160v-960h896z" />
    <glyph glyph-name="tag" unicode="KEYWORDS" 
d="M1456 1600q60 0 102 -42t42 -102t-42 -102t-102 -42t-102 42t-42 102t42 102t102 42zM858 754l415 415l114 -113l-416 -415zM1059 1384l113 -113l-416 -416l-113 113zM1034 285l789 788l-52 710l-698 41l-790 -789zM1920 1934l68 -922l-954 -954l-977 977l953 953z" />
    <glyph glyph-name="sample" unicode="EYEDROPPER" 
d="M1456 1661h-2q-162 0 -321 -258q-59 -96 -77 -160l219 -219q63 17 159 76q256 157 260 322q0 88 -76 164t-162 75zM1456 1821q152 1 276 -123t122 -284q-3 -226 -290 -421q-84 -57 -165 -93l153 -153l-113 -113l-773 772l113 114l153 -153q36 81 93 165q196 287 428 289
h3zM498 194q-112 0 -192 80t-80 192q0 114 80 192q57 58 140 74l10 56q5 26 22 42l292 292l113 -113l-274 -274l-17 -93q-6 -30 -30 -49t-55 -16h-10q-47 -1 -79 -33t-32 -78t32 -78t80 -33q48 1 82 35t30 75t16 65q18 24 49 30l92 17l274 274l113 -114l-291 -291
q-19 -19 -43 -22l-56 -11q-16 -81 -73 -140q-81 -79 -193 -79z" />
    <glyph glyph-name="crop" unicode="CROP" 
d="M1440 704v768h-768v160h928v-928h-160zM1888 576v-160h-288v-288h-160v288h-1056v1056h-288v160h288v288h160v-1344h1344z" />
    <glyph glyph-name="layers" unicode="LAYERS" 
d="M335 1303l694 -443l693 443l-693 402zM1029 671l-1001 639l1001 580l1001 -580zM1562 859l151 97l317 -184l-1001 -639l-1001 639l316 184l152 -97l-161 -93l694 -443l693 443z" />
    <glyph glyph-name="gridlines" unicode="GRID&#x20;LINES" 
d="M1280 768v512h-512v-512h512zM1792 1280h-352v-512h352v-160h-352v-352h-160v352h-512v-352h-160v352h-352v160h352v512h-352v160h352v352h160v-352h512v352h160v-352h352v-160z" />
    <glyph glyph-name="layergroup" unicode="LAYER&#x20;GROUP" 
d="M346 1361l693 -442l693 442l-693 403zM1039 729l-1001 639l1001 580l1001 -580zM1039 576l845 540l156 -91l-1001 -639l-1001 639l157 91zM1039 234l845 540l156 -91l-1001 -639l-1001 639l157 91z" />
    <glyph glyph-name="bezier" unicode="BEZIER" 
d="M1728 672h-224v-224h224v224zM1120 1280v224h-224v-224h224zM512 672h-224v-224h224v224zM1800 1248q-68 0 -112 64h-197q198 -170 204 -480h193v-544h-544v544h191q-6 313 -255 426v-138h-544v138q-248 -113 -256 -426h192v-544h-544v544h193q6 309 205 480h-198
q-44 -64 -112 -64t-110 42t-42 102t42 102t110 42t112 -64h408v192h544v-192h408q44 64 112 64t110 -42t42 -102t-42 -102t-110 -42z" />
    <glyph glyph-name="pixels" unicode="PIXELS" 
d="M1632 416v320h-320v-320h320zM1152 896v320h-320v-320h320zM1152 416v320h-320v-320h320zM672 1376v320h-320v-320h320zM672 896v320h-320v-320h320zM672 416v320h-320v-320h320zM1312 896h480v-640h-1600v1600h640v-480h480v-480z" />
    <glyph glyph-name="phonedisabled" unicode="CALL&#x20;DISABLED" 
d="M497 288h1q124 0 339 106t411 294l-128 128q-141 -134 -291 -209l-51 -25l-174 174q-48 -24 -146 -66q-104 -49 -230 -104v-2q34 -116 111 -206t158 -90zM497 128q-150 0 -263 127q-114 127 -159 285q-21 73 -1 117q20 45 90 75t188 84t174 79t98 25t95 -53l89 -89
q110 65 199 150l-891 892l113 113l1745 -1745l-113 -113l-500 500q-214 -205 -456 -325t-405 -122h-3zM1462 1903q139 -40 267 -154q129 -115 127 -254q-2 -138 -77 -320t-210 -363l-114 114q115 159 177 313q62 155 64 241t-88 164t-209 111h-1q-140 -315 -170 -375
q0 -1 2 -3l171 -171l-24 -51q-31 -58 -55 -96l-205 206q-87 85 -32 187q21 44 79 171t78 171q27 60 52 93q26 33 67 33t101 -17z" />
    <glyph glyph-name="usergroup" unicode="USER&#x20;GROUP" 
d="M1008 1414q-50 0 -84 -32t-34 -90t34 -102t84 -44t84 44t34 102t-34 90t-84 32zM1008 992q-116 0 -194 88t-78 212q0 122 78 199t194 77t194 -77t78 -199t-78 -212q-78 -88 -194 -88zM1700 1189q0 97 -101 97q-41 0 -71 -24t-30 -78t28 -94t73 -40t73 40t28 99zM1600 896
q-110 0 -183 84t-73 200t72 188t183 72q109 0 183 -72t74 -189q0 -115 -73 -199t-183 -84zM416 1286q-42 0 -72 -24t-29 -78t29 -94t72 -40t72 40t29 94t-29 78t-72 24zM416 896q-110 0 -183 84t-73 200t72 188t184 72t184 -72t72 -188t-73 -200t-183 -84zM1024 927
q205 -1 325 -83t135 -232l18 -228h-149l-18 217q-16 169 -311 169t-311 -170l-18 -216h-149l18 227q15 151 135 233t325 83zM1602 831q178 0 283 -78t118 -221l11 -148h-149l-10 135q-7 107 -139 142q-49 13 -114 13l-10 -1q-16 83 -63 154q31 4 73 4zM446 831q42 0 74 -4
q-46 -67 -64 -154l-10 1q-174 0 -228 -86q-22 -35 -25 -70l-10 -134h-148l10 147q13 143 117 221t284 79z" />
    <glyph glyph-name="businessuser" unicode="BUSINESS&#x20;USER" 
d="M1802 550q52 -62 60 -134t26 -352h-160q-15 259 -22 314q-10 80 -73 96t-272 57l-44 9l-84 239q75 33 139 87l65 -187q149 -28 231 -48q82 -19 134 -81zM611 679l65 187q63 -54 138 -87l-83 -239l-44 -9q-209 -41 -272 -57t-73 -96q-4 -34 -23 -314h-159q13 236 24 330
q10 94 62 156t134 81q82 20 231 48zM1170 470l-81 -75l85 -331h-300l85 331l-81 75l146 231zM1024 1699q-116 0 -204 -89t-87 -207q0 -163 83 -273t208 -109q125 -1 208 109t83 273q1 118 -87 207t-204 89zM1024 864q-192 0 -320 154t-128 384q0 121 61 226q61 104 165 166
t222 62t222 -62t165 -166q61 -105 61 -226q0 -230 -128 -384t-320 -154z" />
    <glyph glyph-name="hand" unicode="HAND" 
d="M1056 544v160h864v-160h-864zM1056 864v160h896v-160h-896zM1059 1344h893v-160h-893q-107 0 -179 57q-155 123 -20 372q38 71 37 97t-34 44t-67 -2t-75 -49q-109 -81 -232 -226q-124 -144 -169 -310q-91 -329 82 -556q83 -107 208 -167t271 -60h879v-160h-879
q-184 0 -342 76q-159 76 -265 215q-106 141 -135 317q-48 292 111 574q97 172 237 305q141 133 209 170q134 74 244 14t116 -178q4 -57 -15 -98t-37 -74t-26 -51q-50 -107 13 -136q30 -14 68 -14z" />
    <glyph glyph-name="male" unicode="MALE" 
d="M1024 1923q-41 0 -70 -29t-29 -70t29 -70t70 -29t70 29t29 70t-29 70t-70 29zM1024 1600q-92 0 -158 66t-66 158t66 158t158 66t158 -66t66 -158t-66 -158t-158 -66zM1568 736h-160v560q0 32 -24 56t-56 24h-608q-32 0 -56 -24t-24 -56v-560h-160v560q0 100 70 170
t170 70h608q100 0 170 -70t70 -170v-560zM736 1216h159q0 -519 70 -1056h116q72 552 72 1056h159q0 -270 -27 -632t-56 -516l-11 -68h-391l-10 68q-28 148 -55 513q-26 365 -26 635z" />
    <glyph glyph-name="female" unicode="FEMALE" 
d="M1024 1923q-41 0 -70 -29t-29 -70t29 -70t70 -29t70 29t29 70t-29 70t-70 29zM1024 1600q-92 0 -158 66t-66 158t66 158t158 66t158 -66t66 -158t-66 -158t-158 -66zM799 1536h450q78 0 149 -50t97 -124l180 -515l-151 -53l-180 515q-9 27 -38 47t-57 20h-450
q-28 0 -57 -20t-38 -47l-181 -519l-151 53l181 518q26 75 97 125t149 50zM1236 1234l257 -754h-218l-51 -480h-400l-51 480h-218l256 755l108 -180l-141 -415h139l51 -480h112l51 480h139l-142 415z" />
    <glyph glyph-name="cart" unicode="CART" 
d="M576 1536v-831q0 -45 28 -71t78 -26h1078v-160h-1078q-114 0 -190 74t-76 183v913q0 44 -36 77t-82 33h-298v160h298q90 0 164 -54t101 -138h1325l-7 -86q-2 -42 -20 -260t-27 -274q-14 -98 -90 -164t-189 -82q-2 0 -787 -94v161q82 10 394 46t372 45q59 8 97 38t47 88
t37 422h-1139zM1600 352q66 0 113 -47t47 -113t-47 -113t-113 -47t-113 47t-47 113t47 113t113 47zM576 352q66 0 113 -47t47 -113t-47 -113t-113 -47t-113 47t-47 113t47 113t113 47z" />
    <glyph glyph-name="calculator" unicode="CALCULATOR" 
d="M1312 1280q40 0 68 -28t28 -68t-28 -68t-68 -28t-68 28t-28 68t28 68t68 28zM1024 1280q40 0 68 -28t28 -68t-28 -68t-68 -28t-68 28t-28 68t28 68t68 28zM736 1280q40 0 68 -28t28 -68t-28 -68t-68 -28t-68 28t-28 68t28 68t68 28zM1312 992q40 0 68 -28t28 -68t-28 -68
t-68 -28t-68 28t-28 68t28 68t68 28zM1024 992q40 0 68 -28t28 -68t-28 -68t-68 -28t-68 28t-28 68t28 68t68 28zM736 992q40 0 68 -28t28 -68t-28 -68t-68 -28t-68 28t-28 68t28 68t68 28zM1312 704q40 0 68 -28t28 -68t-28 -68t-68 -28t-68 28t-28 68t28 68t68 28z
M1024 704q40 0 68 -28t28 -68t-28 -68t-68 -28t-68 28t-28 68t28 68t68 28zM736 704q40 0 68 -28t28 -68t-28 -68t-68 -28t-68 28t-28 68t28 68t68 28zM640 1440v160h768v-160h-768zM1600 368v1376q0 20 -14 34t-34 14h-1056q-20 0 -34 -14t-14 -34v-1376q0 -20 14 -34
t34 -14h1056q20 0 34 14t14 34zM1552 1952q86 0 147 -61t61 -147v-1376q0 -86 -61 -147t-147 -61h-1056q-86 0 -147 61t-61 147v1376q0 86 61 147t147 61h1056z" />
    <glyph glyph-name="piechart" unicode="Pie&#x20;chart" 
d="M832 1216v506q-197 -27 -338 -168t-168 -338h506zM912 1888q28 0 80 -4v-828h-828q-4 52 -4 80t4 80q19 173 111 319t238 238t319 111q52 4 80 4zM1136 1664q153 0 292 -60t240 -160q100 -101 160 -240t60 -292t-60 -292t-160 -240q-101 -100 -240 -160t-292 -60t-292 60
t-240 160q-100 101 -160 240t-60 292v16h160v-16q0 -120 47 -230t126 -189t189 -126t230 -47t230 47t189 126t126 189t47 230t-47 230t-126 189t-189 126t-230 47h-16v160h16z" />
    <glyph glyph-name="navigate" unicode="LOCATE" 
d="M537 1401l358 -835l154 322l324 155zM887 178l-655 1528l1528 -655l-591 -283z" />
    <glyph glyph-name="compass" unicode="COMPASS" 
d="M1026 950q30 0 52 22t22 52t-22 52t-52 22t-52 -22t-22 -52t22 -52t52 -22zM912 1137l378 209l57 -56l-210 -379l-378 -209l-57 56zM1640 1025q0 123 -49 237t-131 196t-196 132q-114 48 -238 48t-238 -48t-196 -132q-82 -82 -132 -196q-48 -114 -48 -238t48 -238
t132 -196q82 -82 196 -132q114 -48 237 -48q124 0 236 46t199 134q88 87 134 199t46 236zM1026 1792q208 0 385 -103t280 -280t103 -385q0 -154 -58 -294t-167 -249t-249 -167t-294 -58q-208 0 -385 103t-280 280t-103 385t103 386q103 176 279 279q178 103 386 103z" />
    <glyph glyph-name="signpost" unicode="DIRECTIONS" 
d="M480 1248v-160h-142l-337 347l337 357h494v192h160v-192h480v-416h-160v256h-905l-184 -195l183 -189h74zM768 1088v-384h906l183 189l-184 195h-905zM992 544v-352h-160v352h-224v704h1134l337 -357l-337 -347h-750z" />
    <glyph glyph-name="location" unicode="LOCATION" 
d="M1509 1254q0 146 -67 262q-66 116 -182 184t-252 67q-136 1 -252 -67t-182 -184q-67 -116 -67 -262q-1 -146 65 -284q66 -140 208 -325q62 -82 228 -296q166 214 228 296q142 185 208 325q66 138 65 284zM1008 1920q132 0 254 -52t210 -140t140 -210t52 -241
q0 -223 -88 -392t-215 -334l-353 -455l-63 81q-346 444 -397 522q-52 79 -100 171q-96 184 -96 392q0 134 52 256t140 210t210 140t254 52zM1008 1536q86 0 147 -61t61 -147t-61 -147t-147 -61t-147 61t-61 147t61 147t147 61z" />
    <glyph glyph-name="database" unicode="DATABASE" 
d="M1216 480v160h160v-160h-160zM1376 1152v-160h-160v160h160zM1376 1664v-160h-160v160h160zM1552 384q20 0 34 14t14 34v304h-1088v160h1088v352h-1088v160h1088v304q0 20 -14 34t-34 14h-1120q-20 0 -34 -14t-14 -34v-1280q0 -20 14 -34t34 -14h1120zM1552 1920
q86 0 147 -61t61 -147v-1280q0 -86 -61 -147t-147 -61h-1120q-86 0 -147 61t-61 147v1280q0 86 61 147t147 61h1120z" />
    <glyph glyph-name="hdd" unicode="HARD&#x20;DRIVE" 
d="M1696 464v256q0 10 -4 18v1q-12 29 -44 29h-1180q11 28 61 160h1094q-136 368 -161 408q-45 72 -118 72h-672q-75 0 -112 -63q-18 -31 -102 -247t-112 -290q-26 -73 -26 -119v-225q0 -20 14 -34t34 -14h1280q20 0 34 14t14 34zM1856 720v-256q0 -86 -61 -147t-147 -61
h-1280q-86 0 -147 61t-61 147v256q0 38 17 83q186 521 236 608q92 157 259 157h672q163 0 258 -155q42 -67 228 -582q26 -73 26 -111zM1312 512v160h160v-160h-160z" />
    <glyph glyph-name="microchip" unicode="MICROCHIP" 
d="M1312 800v448h-608v-448h608zM1472 1408v-768h-928v768h928zM992 416h320v-160h-160v-160h-160v320zM1648 1792q86 0 147 -61t61 -147v-1120q0 -86 -61 -147t-147 -61h-48v-160h-160v320h208q20 0 34 14t14 34v1120q0 20 -14 34t-34 14h-208v320h160v-160h48zM544 416
h320v-160h-160v-160h-160v320zM1312 1632h-320v320h160v-160h160v-160zM864 1632h-320v320h160v-160h160v-160zM160 1584q0 86 61 147t147 61h48v-160h-48q-20 0 -34 -14t-14 -34v-1120q0 -20 14 -34t34 -14h48v-160h-48q-86 0 -147 61t-61 147v1120z" />
    <glyph glyph-name="airplay" unicode="AIRPLAY" 
d="M811 384h394l-197 280zM502 224l506 718l505 -718h-1011zM224 1696h1568v-1152h-348l-112 160h300v832h-1248v-832h300l-113 -160h-347v1152z" />
    <glyph glyph-name="mediumvolume" unicode="MEDIUM&#x20;VOLUME" 
d="M1726 1023q0 -358 -185 -662l-131 93q156 262 156 570t-162 570l131 93q191 -306 191 -664zM1437 1022q0 -268 -133 -493l-130 94q103 185 103 399t-109 404l131 93q138 -229 138 -497zM864 1418l-195 -164l-221 -21v-402l223 -34l193 -163v784zM288 1378l316 31l420 352
v-1470l-422 355l-314 48v684z" />
    <glyph glyph-name="pause" unicode="PAUSE" 
d="M1312 544h160v960h-160v-960zM1632 384h-480v1280h480v-1280zM576 544h160v960h-160v-960zM896 384h-480v1280h480v-1280z" />
    <glyph glyph-name="playvideo" unicode="PLAY&#x20;VIDEO" 
d="M1312 832v416l288 -208zM1776 1600q86 0 147 -61t61 -147v-704q0 -86 -61 -147t-147 -61h-672q-86 0 -147 61t-61 147v144h160v-144q0 -20 14 -34t34 -14h672q20 0 34 14t14 34v704q0 20 -14 34t-34 14h-672q-20 0 -34 -14t-14 -34v-144h-160v144q0 86 61 147t147 61h672
zM416 1307q94 -1 162 67t67 162q1 94 -67 162t-162 67q-94 0 -161 -67t-67 -162t67 -162t161 -67zM640 688v537q-100 -73 -224 -73t-224 73v-537q0 -20 14 -34t34 -14h352q20 0 34 14t14 34zM414 1920q154 0 270 -109t116 -270v-853q0 -86 -61 -147t-147 -61h-352
q-86 0 -147 61t-61 147v853l1 6q3 155 115 264t266 109z" />
    <glyph glyph-name="film" unicode="FILM" 
d="M1888 1760v-160h-960v89q0 29 -21 50t-50 21h-498q-29 0 -50 -21t-21 -50v-1298q0 -29 21 -50t50 -21h498q29 0 50 21t21 50v1081h160v-992h800v-160h-811q-23 -72 -83 -116t-137 -44h-498q-95 0 -163 68t-68 163v1298q0 95 68 163t163 68h498q77 0 137 -44t83 -116h811z
M1728 608v864h160v-864h-160zM1600 1472v-160h-128v160h128zM1344 1472v-160h-128v160h128zM1472 608v160h128v-160h-128zM1216 608v160h128v-160h-128z" />
    <glyph glyph-name="storagebox" unicode="STORAGE&#x20;BOX" 
d="M1760 1152v160h-1440v-160h1440zM1280 912v80h-448v-80q0 -20 14 -34t34 -14h352q20 0 34 14t14 34zM574 1760l-211 -288h1354l-211 288h-932zM1920 992h-480v-80q0 -86 -61 -147t-147 -61h-352q-86 0 -147 61t-61 147v80h-512v474l333 454h1094l333 -454v-474zM1728 384
v480h160v-640h-1664v640h160v-480h1344z" />
    <glyph glyph-name="index" unicode="INDEX" 
d="M1312 1728v-160h-608v160h608zM1408 1440v-160h-800v160h800zM512 992v160h992v-160h-992zM288 352h1440v352h-428q-32 -80 -104 -136t-188 -56t-188 56t-104 136h-428v-352zM1888 192h-1760v658l246 718h169l-241 -704h545l9 -70q4 -27 24 -59q39 -63 137 -63
q97 0 134 91q6 15 9 30v1l9 70h545l-241 704h169l246 -718v-658z" />
    <glyph glyph-name="rows" unicode="Rows" 
d="M320 448h1376v288h-1376v-288zM1696 1184h-1376v-288h1376v288zM1696 1632h-1376v-288h1376v288zM160 1792h1696v-1504h-1696v1504z" />
    <glyph glyph-name="columns" unicode="COLUMNS" 
d="M1696 448v1184h-352v-1184h352zM320 1632v-1184h352v1184h-352zM1184 1632h-352v-1184h352v1184zM160 1792h1696v-1504h-1696v1504z" />
    <glyph glyph-name="thumbnails" unicode="Thumbnails" 
d="M1088 448h512v512h-512v-512zM416 960v-512h512v512h-512zM928 1632h-512v-512h512v512zM1600 1120v512h-512v-512h512zM256 1792h1504v-1504h-1504v1504z" />
    <glyph glyph-name="laptop" unicode="LAPTOP" 
d="M214 448h1620l-113 128h-1394zM2048 288h-2048v160l255 288h1538l255 -288v-160zM608 1536l559 -208l-155 -83l188 -188l-114 -113l-188 188l-81 -155zM416 1664v-800h-160v960h1536v-960h-160v800h-1216z" />
    <glyph glyph-name="tablet" unicode="IPAD" 
d="M1712 1120q32 0 56 -24t24 -56t-24 -56t-56 -24t-56 24t-24 56t24 56t56 24zM1856 496v1088q0 20 -14 34t-34 14h-240v-1184h240q20 0 34 14t14 34zM192 496q0 -20 14 -34t34 -14h1168v1184h-1168q-20 0 -34 -14t-14 -34v-1088zM1808 1792q86 0 147 -61t61 -147v-1088
q0 -86 -61 -147t-147 -61h-1568q-86 0 -147 61t-61 147v1088q0 86 61 147t147 61h1568z" />
    <glyph glyph-name="smartphone" unicode="IPHONE" 
d="M1040 512q32 0 56 -24t24 -56t-24 -56t-56 -24t-56 24t-24 56t24 56t56 24zM1424 288q20 0 34 14t14 34v240h-864v-240q0 -20 14 -34t34 -14h768zM1472 1376h-864v-640h864v640zM656 1760q-20 0 -34 -14t-14 -34v-176h864v176q0 20 -14 34t-34 14h-768zM1424 1920
q86 0 147 -61t61 -147v-1376q0 -86 -61 -147t-147 -61h-768q-86 0 -147 61t-61 147v1376q0 86 61 147t147 61h768z" />
    <glyph glyph-name="highbattery" unicode="HIGH&#x20;BATTERY" 
d="M960 768v512h160v-512h-160zM672 768v512h160v-512h-160zM384 768v512h160v-512h-160zM1824 908v228q0 20 -13 34t-32 14h-83v-320h83q21 0 33 12t12 32zM1536 688v672q0 20 -14 34t-34 14h-1184q-20 0 -34 -14t-14 -34v-672q0 -20 14 -34t34 -14h1184q20 0 34 14t14 34z
M1779 1344q85 0 145 -60t60 -148v-228q0 -86 -60 -145t-145 -59h-83v-16q0 -86 -61 -147t-147 -61h-1184q-86 0 -147 61t-61 147v672q0 86 61 147t147 61h1184q86 0 147 -61t61 -147v-16h83z" />
    <glyph glyph-name="mediumbattery" unicode="MEDIUM&#x20;BATTERY" 
d="M672 768v512h160v-512h-160zM384 768v512h160v-512h-160zM1824 908v228q0 20 -13 34t-32 14h-83v-320h83q21 0 33 12t12 32zM1536 688v672q0 20 -14 34t-34 14h-1184q-20 0 -34 -14t-14 -34v-672q0 -20 14 -34t34 -14h1184q20 0 34 14t14 34zM1779 1344q85 0 145 -60
t60 -148v-228q0 -86 -60 -145t-145 -59h-83v-16q0 -86 -61 -147t-147 -61h-1184q-86 0 -147 61t-61 147v672q0 86 61 147t147 61h1184q86 0 147 -61t61 -147v-16h83z" />
    <glyph glyph-name="lowbattery" unicode="LOW&#x20;BATTERY" 
d="M384 768v512h160v-512h-160zM1824 908v228q0 20 -13 34t-32 14h-83v-320h83q21 0 33 12t12 32zM1536 688v672q0 20 -14 34t-34 14h-1184q-20 0 -34 -14t-14 -34v-672q0 -20 14 -34t34 -14h1184q20 0 34 14t14 34zM1779 1344q85 0 145 -60t60 -148v-228q0 -86 -60 -145
t-145 -59h-83v-16q0 -86 -61 -147t-147 -61h-1184q-86 0 -147 61t-61 147v672q0 86 61 147t147 61h1184q86 0 147 -61t61 -147v-16h83z" />
    <glyph glyph-name="chargingbattery" unicode="CHARGING&#x20;BATTERY" 
d="M992 1024h416l-608 -256v256h-416l608 256v-256zM1824 908v228q0 20 -13 34t-32 14h-83v-320h83q21 0 33 12t12 32zM1536 688v672q0 20 -14 34t-34 14h-1184q-20 0 -34 -14t-14 -34v-672q0 -20 14 -34t34 -14h1184q20 0 34 14t14 34zM1779 1344q85 0 145 -60t60 -148
v-228q0 -86 -60 -145t-145 -59h-83v-16q0 -86 -61 -147t-147 -61h-1184q-86 0 -147 61t-61 147v672q0 86 61 147t147 61h1184q86 0 147 -61t61 -147v-16h83z" />
    <glyph glyph-name="mouse" unicode="COMPUTER&#x20;MOUSE" 
d="M1376 1106q0 67 -18 87q-41 45 -110 65q-69 21 -192 25v-483h-160v483q-280 -8 -312 -115q-8 -27 -8 -62v-528q0 -192 98 -308t302 -116t302 116t98 307v529zM417 1106q1 274 339 323q62 9 140 11v113q0 99 70 169t169 70h417q32 0 56 22t24 50v152h160v-152
q0 -96 -70 -164t-170 -68h-417q-31 0 -55 -23t-24 -56v-113q441 -15 475 -269q4 -30 4 -65l1 -315v-208q0 -249 -133 -405q-149 -178 -426 -178t-429 178q-132 157 -132 406v296l1 87v139z" />
    <glyph glyph-name="webcam" unicode="WEBCAM" 
d="M889 1136q1 -62 45 -106t106 -45q62 1 106 45t45 106q-1 62 -45 106t-106 45q-62 -1 -106 -45t-45 -106zM1344 1136q0 -126 -89 -215t-215 -89t-215 89t-89 215t89 215t215 89t215 -89t89 -215zM1046 416q-99 0 -188 23l-92 -151h573l-96 157q-98 -29 -197 -29zM474 1136
q0 -154 76 -284t206 -206t284 -76t284 76t206 206t76 284t-76 284t-206 206t-284 76t-284 -76t-206 -206t-76 -284zM1696 288v-160h-1280v160h162l128 210q-174 92 -280 263t-106 375q0 146 57 280t153 230t230 153t280 57t280 -57t230 -153t153 -230t57 -280
q0 -198 -100 -366t-268 -262l135 -220h169z" />
    <glyph glyph-name="discdrive" unicode="DISC&#x20;DRIVE" 
d="M416 928v160h1184v-160h-135q105 -92 126 -197t-15 -195t-114 -160q-78 -68 -196 -110q-120 -42 -258 -42t-258 42t-196 110q-78 68 -114 160q-36 90 -17 184q6 35 27 80h167q-34 -47 -43 -97q-20 -128 108 -225t326 -97t326 97t108 225q-12 73 -74 132t-156 93h-796z
M1008 608q-48 0 -81 24t-31 58q1 34 34 56t78 22t78 -22q32 -22 34 -56t-31 -58t-81 -24zM1351 1760h-685q-77 0 -125 -76q-16 -26 -157 -308h1249q-137 278 -161 314q-46 70 -121 70zM1888 1168v-352q0 -74 -46 -130t-114 -72v554q0 20 -14 34t-34 14h-1344q-20 0 -34 -14
t-14 -34v-554q-68 16 -114 72t-46 130v352q0 55 26 101q28 58 124 253t127 246q93 152 261 152h685q163 0 261 -151q26 -39 122 -233t130 -269h-1q25 -47 25 -99z" />
    <glyph glyph-name="washer" unicode="LAUNDRY" 
d="M1250 784q0 100 -71 171t-171 71t-171 -71t-71 -171t71 -171t171 -71t171 71t71 171zM608 784q0 166 117 283t283 117t283 -117t117 -283t-117 -283t-283 -117t-283 117t-117 283zM384 1680v-208h1248v208q0 32 -24 56t-56 24h-1088q-32 0 -56 -24t-24 -56zM1792 1312
h-1408v-976q0 -32 24 -56t56 -24h1088q32 0 56 24t24 56v848h160v-848q0 -100 -70 -170t-170 -70h-1088q-100 0 -170 70t-70 170v1344q0 100 70 170t170 70h1088q100 0 170 -70t70 -170v-368zM1424 1696q32 0 56 -24t24 -56t-24 -56t-56 -24t-56 24t-24 56t24 56t56 24z
M1104 1696q32 0 56 -24t24 -56t-24 -56t-56 -24t-56 24t-24 56t24 56t56 24z" />
    <glyph glyph-name="downloadcloud" unicode="DOWNLOAD&#x20;CLOUD" 
d="M928 1152h160v-510l209 219l116 -110l-405 -425l-405 425l116 110l209 -219v510zM1984 819q0 -135 -66 -250t-182 -182q-114 -67 -248 -67h-176v160h176q140 0 238 100t98 238t-100 233t-256 107l-63 5l-10 61q-29 164 -153 270t-288 106q-210 0 -337 -137t-110 -360
l5 -67l-65 -16q-105 -28 -164 -100t-59 -178t78 -184t187 -78h215v-160h-215q-175 0 -300 126t-125 301q0 141 74 249t207 159q2 251 156 418q175 187 453 187q206 0 368 -126t217 -324q199 -33 322 -168t123 -323z" />
    <glyph glyph-name="download" unicode="Download" 
d="M928 1600h160v-648l276 276l113 -113l-469 -469l-469 469l113 113l276 -276v648zM1632 832h160v-480h-1568v480h160v-320h1248v320z" />
    <glyph glyph-name="downloadbox" unicode="Download&#x20;box" 
d="M1760 448v864h-512v160h469l-211 288h-386v-448h-160v448h-386l-211 -288h469v-160h-512v-864h1440zM1920 288h-1760v1178l333 454h1094l333 -454v-1178zM1120 1152v-295l151 151l114 -113l-345 -344l-344 344l113 113l151 -151v295h160z" />
    <glyph glyph-name="uploadcloud" unicode="UPLOAD&#x20;CLOUD" 
d="M1088 320h-160v510l-209 -219l-116 110l405 425l405 -425l-116 -110l-209 219v-510zM1984 819q0 -135 -66 -250t-182 -182q-114 -67 -248 -67h-176v160h176q140 0 238 100t98 238t-100 233t-256 107l-63 5l-10 61q-29 164 -153 270t-288 106q-210 0 -337 -137t-110 -360
l5 -67l-65 -16q-105 -28 -164 -100t-59 -178t78 -184t187 -78h215v-160h-215q-175 0 -300 126t-125 301q0 141 74 249t207 159q2 251 156 418q175 187 453 187q206 0 368 -126t217 -324q199 -33 322 -168t123 -323z" />
    <glyph glyph-name="upload" unicode="UPLOAD" 
d="M1088 707h-160v648l-276 -276l-113 114l469 469l469 -469l-113 -113l-276 276v-649zM1632 832h160v-480h-1568v480h160v-320h1248v320z" />
    <glyph glyph-name="uploadbox" unicode="Upload&#x20;box" 
d="M1760 448v864h-512v160h469l-211 288h-386v-448h-160v448h-386l-211 -288h469v-160h-512v-864h1440zM1920 288h-1760v1178l333 454h1094l333 -454v-1178zM1120 608h-160v295l-151 -151l-113 113l344 345l345 -345l-114 -113l-151 151v-295z" />
    <glyph glyph-name="fork" unicode="FORK" 
d="M1252 416q-229 0 -353 220q-136 244 -196 324h-575v160h575q60 80 196 324q124 220 353 220h391l-214 214l113 113l407 -407l-407 -407l-113 113l214 214h-391q-136 0 -214 -138q-62 -112 -196 -326q148 -242 192 -320t96 -111t122 -33h391l-214 214l113 113l407 -407
l-407 -408l-113 114l214 214h-391z" />
    <glyph glyph-name="merge" unicode="Merge" 
d="M553 384h-425v160h425q135 0 213 138q26 48 199 358q-173 310 -199 358q-78 138 -213 138h-425v160h425q230 0 352 -220q164 -288 198 -356h539l-213 213l113 113l407 -407l-407 -407l-113 113l215 215h-541q-34 -68 -198 -356q-122 -220 -352 -220z" />
    <glyph glyph-name="sync" unicode="Syncing" 
d="M1098 192q-316 0 -572 254q-60 60 -206 208v-302h-160v576h576v-160h-304q34 -34 107 -108t100 -101q209 -207 461 -207t429 167q82 77 135 183t62 226h160q-8 -152 -74 -288t-170 -234t-244 -156t-300 -58zM1728 1632h160v-576h-576v160h304q-34 34 -107 108t-100 101
q-209 207 -459 207q-253 0 -431 -167q-82 -77 -135 -183t-62 -226h-160q8 152 74 288t170 234t244 156t300 58q316 0 572 -254q28 -26 100 -100t106 -108v302z" />
    <glyph glyph-name="loading" unicode="LOADING" 
d="M1719 1574l-294 -294l-113 113l294 294zM768 623l-294 -294l-113 113l294 294zM1920 1088v-160h-416v160h416zM576 1088v-160h-416v160h416zM1719 442l-113 -113l-294 294l113 113zM768 1393l-113 -113l-294 294l113 113zM1120 544v-416h-160v416h160zM1120 1888v-416
h-160v416h160z" />
    <glyph glyph-name="usb" unicode="USB" 
d="M1632 304v688h-448v160h288v672h-736v-672h288v-160h-448v-688q0 -20 14 -34t34 -14h960q20 0 34 14t14 34zM1632 1152h160v-848q0 -86 -61 -147t-147 -61h-960q-86 0 -147 61t-61 147v848h160v832h1056v-832zM1344 1568v-160h-160v160h160zM864 1408v160h160v-160h-160z
" />
    <glyph glyph-name="files" unicode="DOCUMENTS" 
d="M1472 2048v-160h-1152v-1440h-160v1600h1312zM1152 768v-320h-160v480h480v-160h-320zM1600 1600h-992v-1280h561l431 433v847zM448 1760h1312v-1073l-524 -527h-788v1600z" />
    <glyph glyph-name="addfile" unicode="Add&#x20;file" 
d="M960 1056v192h-192v160h192v192h160v-192h192v-160h-192v-192h-160zM992 448v480h480v-160h-320v-320h-160zM1600 1728h-1120v-1408h689l431 433v975zM320 1888h1440v-1201l-524 -527h-916v1728z" />
    <glyph glyph-name="removefile" unicode="REMOVE&#x20;FILE" 
d="M1312 1408v-160h-544v160h544zM992 448v480h480v-160h-320v-320h-160zM1600 1728h-1120v-1408h689l431 433v975zM320 1888h1440v-1201l-524 -527h-916v1728z" />
    <glyph glyph-name="checkfile" unicode="CHECK&#x20;FILE" 
d="M1375 1486l-363 -451l-288 317l118 108l163 -179l246 305zM992 448v480h480v-160h-320v-320h-160zM1600 1728h-1120v-1408h689l431 433v975zM320 1888h1440v-1201l-524 -527h-916v1728z" />
    <glyph glyph-name="deletefile" unicode="DELETE&#x20;FILE" 
d="M904 1079l-113 113l136 136l-136 136l113 113l136 -136l136 136l113 -113l-136 -136l136 -136l-113 -113l-136 136zM992 448v480h480v-160h-320v-320h-160zM1600 1728h-1120v-1408h689l431 433v975zM320 1888h1440v-1201l-524 -527h-916v1728z" />
    <glyph glyph-name="exe" unicode="EXE" 
d="M320 1888h1440v-1201l-524 -527h-916v832h160v-672h689l431 433v975h-1280v160zM992 448v480h480v-160h-320v-320h-160zM1408 1472h-192v-64h160v-96h-160v-64h192v-96h-320v416h320v-96zM781 1152h-128l131 222l-119 194h131l55 -117l54 117h125l-117 -195l130 -221
h-135l-62 128zM608 1248v-96h-288v416h288v-96h-192v-64h160v-96h-160v-64h192z" />
    <glyph glyph-name="zip" unicode="ZIP" 
d="M736 1568h128v-416h-128v416zM1113 1344q23 0 41 18t18 45q0 29 -16 47t-37 18h-63v-128h57zM1145 1568q66 0 100 -53t34 -115t-40 -108q-40 -44 -103 -44h-80v-96h-96v416h185zM640 1248v-96h-320v101l170 219h-170v96h320v-91l-173 -229h173zM320 1888h1440v-1201
l-524 -527h-916v832h160v-672h689l431 433v975h-1280v160zM992 448v480h480v-160h-320v-320h-160z" />
    <glyph glyph-name="doc" unicode="DOC" 
d="M1302 1472q-70 0 -70 -107q0 -47 17 -81t53 -35q48 0 60 58h110q0 -57 -46 -106t-126 -49t-130 60t-50 152t50 148t135 56q151 -1 165 -157h-109q-3 29 -15 45t-44 16zM890 1251q28 0 50 25t23 84q-1 59 -23 84t-50 25t-50 -25t-22 -84t22 -84t50 -25zM890 1568
q82 0 134 -58t52 -150t-52 -150t-134 -58q-83 0 -134 58t-51 150t51 150t134 58zM554 1363q0 109 -88 109h-50v-224h58q32 0 56 26q24 27 24 89zM667 1361q0 -209 -187 -209h-160v416h182q86 0 126 -58t39 -149zM320 1888h1440v-1201l-524 -527h-916v832h160v-672h689
l431 433v975h-1280v160zM992 448v480h480v-160h-320v-320h-160z" />
    <glyph glyph-name="pdf" unicode="Pdf" 
d="M1376 1472h-192v-64h160v-96h-160v-160h-96v416h288v-96zM830 1248q32 0 56 26t24 92q0 64 -40 92q-20 14 -48 14h-54v-224h62zM855 1568q57 0 95 -32q68 -58 69 -165q0 -219 -186 -219h-161v416h183zM384 1472v-128h57q23 0 41 18t18 45q0 29 -16 47t-37 18h-63z
M384 1248v-96h-96v416h185q66 0 100 -53t34 -115t-40 -108q-40 -44 -103 -44h-80zM288 1888h1440v-1201l-524 -527h-916v832h160v-672h689l431 433v975h-1280v160zM960 448v480h480v-160h-320v-320h-160z" />
    <glyph glyph-name="jpg" unicode="JPG" 
d="M768 1472v-128h57q23 0 41 18t18 45q0 29 -16 47t-37 18h-63zM848 1248h-80v-96h-96v416h185q66 0 100 -53t34 -115t-40 -108q-40 -44 -103 -44zM1202 1468q-76 0 -76 -112q0 -56 26 -84t58 -28q61 0 68 36h-62v64h160v-192h-70l-3 49q-35 -47 -109 -47t-122 60t-48 156
t54 147q54 50 124 50q70 -1 114 -43t57 -116h-104q-9 60 -67 60zM462 1152q-142 0 -142 143v17h96v-6q0 -25 13 -42t35 -17t36 19q12 19 12 37v265h96v-263q0 -81 -34 -117t-112 -36zM320 1888h1440v-1201l-524 -527h-916v832h160v-672h689l431 433v975h-1280v160zM992 448
v480h480v-160h-320v-320h-160z" />
    <glyph glyph-name="png" unicode="PNG" 
d="M416 1472v-128h57q23 0 41 18t18 45q0 29 -16 47t-37 18h-63zM416 1248v-96h-96v416h185q66 0 100 -53t34 -115t-40 -108q-40 -44 -103 -44h-80zM928 1568h96v-416h-103l-121 224v-224h-96v416h113l111 -224v224zM1266 1468q-75 0 -75 -112q-1 -57 25 -85q26 -27 58 -27
q61 0 67 36h-61v64h160v-192h-70l-3 49q-35 -47 -109 -47t-122 60t-48 156t54 147q54 50 124 50q70 -1 114 -43t57 -116h-104q-7 60 -67 60zM320 1888h1440v-1201l-524 -527h-916v832h160v-672h689l431 433v975h-1280v160zM992 448v480h480v-160h-320v-320h-160z" />
    <glyph glyph-name="mpthree" unicode="Mpthree" 
d="M1312 1244q50 0 50 44t-50 44q-7 0 -31 -3v79l31 -2q51 0 51 36q-1 36 -47 37q-46 0 -52 -39h-100q6 60 47 94t109 34t104 -35t36 -64q0 -52 -13 -68t-36 -25v-1q1 -1 7 -3q17 -4 35 -23q19 -20 19 -68q0 -49 -37 -89t-101 -40t-98 14q-84 36 -84 145h102q-2 -67 58 -67z
M953 1344q23 0 41 18t18 45q0 29 -16 47t-37 18h-63v-128h57zM985 1568q66 0 100 -53t34 -115t-40 -108q-40 -44 -103 -44h-80v-96h-96v416h185zM416 1408v-256h-96v416h157l52 -224h1l52 224h154v-416h-96v256h-5l-63 -256h-84l-64 256h-8zM320 1888h1440v-1201l-524 -527
h-916v832h160v-672h689l431 433v975h-1280v160zM992 448v480h480v-160h-320v-320h-160z" />
    <glyph glyph-name="rar" unicode="RAR" 
d="M848 1280h95l-45 160h-1zM841 1568h112l135 -416h-119l-15 64h-118l-17 -64h-115zM1314 1376q17 0 31 12t14 36q0 48 -50 48h-93v-96h98zM1462 1452q0 -101 -50 -122q44 -20 48 -84t12 -94h-102q-2 12 -5 27t-4 34t-3 31t-14 24q-10 12 -29 12h-99v-128h-96v416h234
q44 0 76 -36t32 -80zM416 1472v-96h98q18 0 32 12t14 36q0 48 -51 48h-93zM416 1280v-128h-96v416h233q45 0 77 -36t32 -80q0 -101 -50 -122q44 -20 48 -84t12 -94h-102q-2 12 -5 27t-4 34t-3 31t-14 24q-10 12 -29 12h-99zM320 1888h1440v-1201l-524 -527h-916v832h160
v-672h689l431 433v975h-1280v160zM992 448v480h480v-160h-320v-320h-160z" />
    <glyph glyph-name="gif" unicode="GIF" 
d="M1280 1472h-192v-64h160v-96h-160v-160h-96v416h288v-96zM768 1568h128v-416h-128v416zM498 1469q-75 0 -75 -112q-1 -57 25 -85q26 -27 58 -27q62 0 67 35h-61v64h160v-192h-70l-3 49q-35 -47 -109 -47t-122 60t-48 158q0 96 54 146t124 50t114 -42t57 -117h-104
q-7 60 -67 60zM320 1888h1440v-1201l-524 -527h-916v832h160v-672h689l431 433v975h-1280v160zM992 448v480h480v-160h-320v-320h-160z" />
    <glyph glyph-name="downloadfolder" unicode="DOWNLOAD&#x20;FOLDER" 
d="M1472 2016h160v-511l210 210l113 -113l-403 -403l-403 403l113 113l210 -210v511zM1453 320q21 0 31 7t24 40l236 561h-852l-269 -608h830zM1453 160h-1037q-128 0 -190 114q-34 62 -34 156v1106h642l64 -160h296l160 -160h-564l-65 160h-373v-992q0 -51 40 -60
q20 -5 42 5t32 31l322 728h1196l-46 -111q-4 -9 -138 -329t-154 -364t-66 -84q-45 -40 -127 -40z" />
    <glyph glyph-name="uploadfolder" unicode="UPLOAD&#x20;FOLDER" 
d="M1632 1216h-160v518l-210 -210l-113 113l403 403l403 -403l-113 -113l-210 210v-518zM1453 320q21 0 31 7t24 40l236 561h-852l-269 -608h830zM1453 160h-1037q-128 0 -190 114q-34 62 -34 156v1106h642l64 -160h446v-160h-554l-65 160h-373v-992q0 -51 40 -60
q20 -5 42 5t32 31l322 728h1196l-46 -111q-4 -9 -138 -329t-154 -364t-66 -84q-45 -40 -127 -40z" />
    <glyph glyph-name="shredder" unicode="SHREDDER" 
d="M1728 1152v-160h-160v160h160zM1376 224v640h160v-640h-160zM1088 0v864h160v-864h-160zM800 0v864h160v-864h-160zM512 224v640h160v-640h-160zM608 1760v-320h832v320h-832zM1808 1440q86 0 147 -61t61 -147v-640q0 -86 -61 -147t-147 -61h-144v160h144q20 0 34 14
t14 34v640q0 20 -14 34t-34 14h-1568q-20 0 -34 -14t-14 -34v-640q0 -20 14 -34t34 -14h144v-160h-144q-86 0 -147 61t-61 147v640q0 86 61 147t147 61h208v480h1152v-480h208z" />
    <glyph glyph-name="copier" unicode="COPIER" 
d="M1824 400q0 -86 -61 -147t-147 -61h-1120q-86 0 -147 61t-61 147v1312q0 86 61 147t147 61h480q86 0 146 -60t62 -145l-160 -80v77q0 20 -14 34t-34 14h-480q-20 0 -34 -14t-14 -34v-1312q0 -20 14 -34t34 -14h1120q20 0 34 14t14 34v377l572 286l72 -143l-484 -241v-279
zM1024 1344v148l636 317l72 -143l-325 -162h209q86 0 147 -61t61 -147v-119l412 207l72 -144l-644 -320v376q0 20 -14 34t-34 14h-592zM1504 1120v-160h-896v160h896zM608 608v160h896v-160h-896z" />
    <glyph glyph-name="scanner" unicode="SCANNER" 
d="M1728 960v-160h-160v160h160zM1978 1434l-40 -154l-1758 453l40 155zM1856 704v352h-1600v-352h1600zM96 1216h1920v-672h-1920v672z" />
    <glyph glyph-name="printregistration" unicode="PRINT&#x20;REGISTRATION" 
d="M1024 672v64h64v-64h-64zM1056 573q54 1 92 39t39 92q-1 54 -39 92t-92 39q-54 -1 -92 -39t-39 -92q1 -54 39 -92t92 -39zM1376 768v-128h-72q-18 -68 -68 -117t-116 -67v-72h-128v72q-68 18 -117 67t-67 117h-72v128h72q18 68 67 117t117 67v72h128v-72q66 -18 116 -67
t68 -117h72zM1760 1568v-160h-160v160h160zM640 1120v-832h832v832h-832zM480 128v1152h1152v-1152h-1152zM1840 1856q86 0 147 -61t61 -147v-640q0 -86 -61 -147t-147 -61h-80v160h80q20 0 34 14t14 34v640q0 20 -14 34t-34 14h-1568q-20 0 -34 -14t-14 -34v-640
q0 -20 14 -34t34 -14h80v-160h-80q-86 0 -147 61t-61 147v640q0 86 61 147t147 61h1568z" />
    <glyph glyph-name="contract" unicode="CONTRACT" 
d="M256 832v160h736v-736h-160v463l-504 -504l-113 113l504 504h-463zM1792 1216v-160h-736v736h160v-463l504 504l113 -113l-504 -504h463z" />
    <glyph glyph-name="logout" unicode="EXIT" 
d="M576 928v160h648l-276 276l113 113l469 -469l-469 -469l-113 113l276 276h-648zM384 1600v-1184h736v-160h-896v1504h896v-160h-736z" />
    <glyph glyph-name="login" unicode="ENTER" 
d="M288 928v160h648l-276 276l113 113l469 -469l-469 -469l-113 113l276 276h-648zM800 1760h896v-1504h-896v160h736v1184h-736v160z" />
    <glyph glyph-name="scaleup" unicode="SCALE&#x20;UP" 
d="M1600 928h160v-640h-640v160h367l-360 360l113 113l360 -360v367zM1120 1760h640v-640h-160v367l-360 -360l-113 113l360 360h-367v160zM928 448v-160h-640v640h160v-367l360 360l113 -113l-360 -360h367zM288 1760h640v-160h-367l360 -360l-113 -113l-360 360v-367h-160
v640z" />
    <glyph glyph-name="scaledown" unicode="SCALE&#x20;DOWN" 
d="M1120 928h640v-160h-367l359 -359l-113 -113l-359 359v-367h-160v640zM768 1760h160v-640h-640v160h367l-359 359l113 113l359 -359v367zM288 928h640v-640h-160v367l-359 -359l-113 113l359 359h-367v160zM1760 1280v-160h-640v640h160v-367l359 359l113 -113l-359 -359
h367z" />
    <glyph glyph-name="pizzapie" unicode="Pi&#x7a;&#x7a;a&#x20;pie" 
d="M768 1051q42 -1 72 29t29 72q1 42 -29 72t-72 29q-42 1 -72 -29t-29 -72q-1 -42 29 -72t72 -29zM992 1152q0 -92 -66 -158t-158 -66t-158 66t-66 158t66 158t158 66t158 -66t66 -158zM912 768q46 0 79 -33t33 -79t-33 -79t-79 -33t-79 33t-33 79t33 79t79 33zM1376 1392
q0 -46 -33 -79t-79 -33t-79 33t-33 79t33 79t79 33t79 -33t33 -79zM1464 1118q84 -48 106 -138t-33 -170q-54 -80 -151 -104l-32 134l-101 -24l-40 169l101 24l-32 134q98 23 182 -25zM1056 313q192 -1 356 95t260 260t95 356q1 192 -95 356t-260 260t-356 95
q-192 1 -356 -95t-260 -260t-95 -356q-1 -192 95 -356t260 -260t356 -95zM1056 1888q175 0 335 -68t276 -185q117 -116 185 -276t68 -335t-68 -335t-185 -276q-116 -117 -276 -185t-335 -68t-335 68t-276 185q-117 116 -185 276t-68 335t68 335t185 276q116 117 276 185
t335 68z" />
    <glyph glyph-name="cheesepizza" unicode="CHEESE&#x20;PIZZA" 
d="M1504 416q0 -92 -66 -158t-158 -66t-158 66t-66 158h-128v-160q0 -92 -66 -158t-158 -66t-158 66t-66 158v161h-430l975 1384q315 -248 498 -601q121 -233 173 -495h-164q-48 225 -151 421q-129 249 -328 439l-695 -989h282v-320q0 -26 19 -45t45 -19t45 19t19 45v320
h448v-160q0 -26 19 -45t45 -19t45 19t19 45v160h501q-41 363 -208 683q-200 385 -539 647l92 131q371 -285 592 -711t235 -910h-513zM672 800q0 40 28 68t68 28t68 -28t28 -68t-28 -68t-68 -28t-68 28t-28 68zM1117 808l-136 84l50 82l-109 67q49 79 135 103q85 24 159 -21
t92 -133t-32 -167l-109 67z" />
    <glyph glyph-name="espresso" unicode="ESPRESSO" 
d="M1026 478q98 0 152 36t80 117q26 82 40 169h-544q35 -232 120 -286q55 -36 152 -36zM1514 608q46 0 82 24t36 72t-36 72t-82 24h-54q-18 -122 -41 -192h95zM1514 960q122 0 200 -72t78 -184t-78 -184t-200 -72h-176q-102 -128 -312 -128q-168 0 -262 75q-118 94 -156 312
q-4 25 -10 49q-4 24 -6 45t-6 43q-3 22 -3 29l-7 87h938zM1152 1088q-86 62 -58 138q12 34 35 68l46 68t35 68q28 76 -58 138h160q86 -62 58 -138q-12 -34 -35 -68l-46 -68t-35 -68q-28 -76 58 -138h-160zM832 1088q-86 62 -58 138q12 34 35 68l46 68t35 68q28 76 -58 138
h160q86 -62 58 -138q-12 -34 -35 -68l-46 -68t-35 -68q-28 -76 58 -138h-160zM1023 32q-170 0 -331 20q-259 32 -423 89t-209 85l77 140q230 -114 590 -158q145 -18 295 -18t293 17q232 28 381 77q148 49 214 82l77 -140q-52 -28 -159 -66t-209 -62t-264 -46
q-162 -20 -332 -20z" />
    <glyph glyph-name="macchiato" unicode="Macchiato" 
d="M1360 864l28 224h-760l111 -896h538l64 512h-517l-19 160h555zM448 1248h1120l-150 -1216h-820zM1008 1824q-46 0 -79 33t-33 79t33 79t79 33t79 -33t33 -79t-33 -79t-79 -33zM1296 1600q-46 0 -79 33t-33 79t33 79t79 33t79 -33t33 -79t-33 -79t-79 -33zM720 1600
q-46 0 -79 33t-33 79t33 79t79 33t79 -33t33 -79t-33 -79t-79 -33zM1008 1376q-46 0 -79 33t-33 79t33 79t79 33t79 -33t33 -79t-33 -79t-79 -33z" />
    <glyph glyph-name="cappucino" unicode="Cappucino" 
d="M1721 608q55 0 95 28t40 84t-40 84t-95 28h-36q-11 -106 -35 -224h71zM1325 276q91 86 133 224q41 137 67 332h-997q51 -418 191 -548q100 -93 307 -94q208 0 299 86zM1721 992q127 0 211 -77t84 -195t-84 -195t-211 -77h-113q-120 -366 -452 -408q-58 -8 -130 -8t-132 8
q-151 19 -271 116q-120 98 -179 290q-58 192 -85 459l-7 87h1369zM710 1188q-45 -22 -72 -68h-174q41 121 122 177t198 84q116 28 158 52t61 84l23 75l76 -22q57 -15 138 -58t143 -90q62 -48 124 -128t92 -174h-172q-33 70 -108 144t-198 128q-50 -81 -122 -111
q-73 -30 -159 -51q-85 -20 -130 -42z" />
    <glyph glyph-name="latte" unicode="Latte" 
d="M696 1376h-169q53 184 227 245q23 7 84 25t93 41t47 83l22 83l81 -28q46 -15 117 -59t122 -90t104 -126t79 -174h-168q-64 169 -237 265q-42 -74 -103 -104q-61 -29 -130 -49q-69 -21 -106 -40q-36 -18 -63 -72zM1277 192l111 896h-760l111 -896h538zM448 1248h1120
l-150 -1216h-820zM1008 416q-32 0 -56 24t-24 56t24 56t56 24t56 -24t24 -56t-24 -56t-56 -24zM1200 576q-32 0 -56 24t-24 56t24 56t56 24t56 -24t24 -56t-24 -56t-56 -24zM816 576q-32 0 -56 24t-24 56t24 56t56 24t56 -24t24 -56t-24 -56t-56 -24zM1008 736q-32 0 -56 24
t-24 56t24 56t56 24t56 -24t24 -56t-24 -56t-56 -24z" />
    <glyph glyph-name="icedcoffee" unicode="ICED&#x20;COFFEE" 
d="M928 1664v59l-153 153l113 113l120 -120l120 120l113 -113l-153 -153v-59h59l153 153l114 -113l-120 -120l120 -120l-114 -113l-153 153h-59v-59l153 -153l-113 -113l-120 119l-120 -119l-113 113l153 152v60h-59l-153 -153l-113 113l120 120l-120 120l113 113l153 -153
h59zM1407 1248h161l-150 -1216h-820l-150 1216h161l130 -1056h538l63 512h-514l-19 160h553z" />
    <glyph glyph-name="coffeebean" unicode="COFFEE&#x20;BEAN" 
d="M970 318q-23 40 -44 117q-21 78 -27 147t10 164q15 95 53 171q38 77 50 147q30 172 -42 332l-1 1l142 74q97 -195 59 -430q-16 -96 -52 -172q-38 -76 -50 -146q-20 -113 1 -201t41 -128zM1040 1607q-247 0 -390 -191t-143 -520t143 -520t390 -191t390 191t143 520
t-143 520t-390 191zM1040 32q-207 0 -363 106q-157 106 -241 302t-84 456t84 456t241 302q156 106 363 106t363 -106q157 -106 241 -302t84 -456t-84 -456t-241 -302q-156 -106 -363 -106z" />
    <glyph glyph-name="coffeemilk" unicode="COFFEE&#x20;MILK" 
d="M1008 1664q-46 0 -79 33t-33 79t33 79t79 33t79 -33t33 -79t-33 -79t-79 -33zM1296 1440q-46 0 -79 33t-33 79t33 79t79 33t79 -33t33 -79t-33 -79t-79 -33zM720 1440q-46 0 -79 33t-33 79t33 79t79 33t79 -33t33 -79t-33 -79t-79 -33zM1008 1216q-46 0 -79 33t-33 79
t33 79t79 33t79 -33t33 -79t-33 -79t-79 -33zM1721 608q55 0 95 28t40 84t-40 84t-95 28h-36q-11 -106 -35 -224h71zM1325 276q91 86 133 224q41 137 67 332h-997q51 -418 191 -548q100 -93 307 -94q208 0 299 86zM1721 992q127 0 211 -77t84 -195t-84 -195t-211 -77h-113
q-120 -366 -452 -408q-58 -8 -130 -8t-132 8q-151 19 -271 116q-120 98 -179 290q-58 192 -85 459l-7 87h1369z" />
    <glyph glyph-name="coffeefoam" unicode="Coffee&#x20;Foam" 
d="M1311 1607q-40 0 -88 -11l-26 53q-24 51 -71 81t-102 30t-102 -30t-71 -81l-26 -53q-44 11 -88 11q-79 -1 -136 -59t-57 -140h-160v1q0 147 102 251t248 107q50 73 126 113t164 40t164 -40t126 -113q146 -3 248 -107t102 -251v-1h-160q0 82 -57 140t-136 59zM1026 478
q164 0 270 64t166 261q37 120 63 317h-997q40 -338 134 -482q76 -117 219 -147q61 -13 145 -13zM1721 896q55 0 95 28t40 84t-40 84t-95 28h-36q-11 -106 -35 -224h71zM1721 1280q127 0 211 -77t84 -195t-84 -195t-211 -77h-113q-120 -366 -452 -408q-58 -8 -130 -8t-132 8
q-151 19 -271 116q-120 98 -179 290q-58 192 -85 459l-7 87h1369zM1022 190q150 0 293 17q232 28 381 77q148 49 214 82l77 -140q-52 -28 -159 -66t-209 -62t-264 -46q-162 -20 -332 -20t-331 20q-259 32 -423 89t-209 85l77 140q230 -114 590 -158q145 -18 295 -18z" />
    <glyph glyph-name="coffeesugar" unicode="COFFEE&#x20;SUGAR" 
d="M1008 1733l-181 -181l181 -181l181 181zM1415 1552l-407 -407l-407 407l407 407zM1721 608q55 0 95 28t40 84t-40 84t-95 28h-36q-11 -106 -35 -224h71zM1325 276q91 86 133 224q41 137 67 332h-997q51 -418 191 -548q100 -93 307 -94q208 0 299 86zM1721 992
q127 0 211 -77t84 -195t-84 -195t-211 -77h-113q-120 -366 -452 -408q-58 -8 -130 -8t-132 8q-151 19 -271 116q-120 98 -179 290q-58 192 -85 459l-7 87h1369z" />
    <glyph glyph-name="capsule" unicode="Capsule" 
d="M1184 1448q-72 0 -144 34t-98 40q-61 19 -118 -22l-73 105q117 81 250 33q25 -9 69 -29q44 -19 67 -27q59 -18 119 23l73 -105q-73 -52 -145 -52zM1040 1827q-176 0 -274 -73t-98 -201t100 -202t272 -74t272 74t100 202t-98 201t-274 73zM1040 1120q-102 0 -194 26
t-168 78t-121 136t-45 192t45 192t121 136t168 78t194 26t194 -26t168 -78t121 -136t45 -192t-45 -192t-121 -136t-168 -78t-194 -26zM1285 256l181 608h-852l181 -608h490zM1824 1024v-160h-192l-228 -768h-728l-229 768h-191v160h1568z" />
    <glyph glyph-name="capsulerecycling" unicode="CAPSULE&#x20;RECYCLING" 
d="M1952 992q0 -173 -66 -331t-187 -280q-122 -121 -280 -187t-336 -66q-353 0 -632 279q-24 24 -227 229v-220h-160v512h512v-160h-257q221 -225 245 -248q232 -232 519 -232q297 0 503 206t206 498t-206 498t-498 206q-176 0 -327 -78t-249 -217t-121 -313h-162
q19 154 93 295t187 245t265 166t319 62q168 0 326 -66t280 -187q121 -122 187 -280t66 -331zM1330 1120h-484l99 -320h286zM576 1120v160h1024v-160h-103l-148 -480h-522l-148 480h-103z" />
    <glyph glyph-name="insertcapsule" unicode="INSERT&#x20;CAPSULE" 
d="M960 800h160v-383l210 210l113 -113l-403 -403l-403 403l113 113l210 -210v383zM1285 1088l181 608h-852l181 -608h490zM256 1856h1568v-160h-192l-228 -768h-728l-229 768h-191v160z" />
    <glyph glyph-name="teabag" unicode="Tea&#x20;Bag" 
d="M192 1664v-352h288v352h-288zM1472 1440q0 106 -75 181t-181 75t-181 -75t-75 -181v-608q0 -146 -103 -249t-249 -103t-249 103t-103 249v320h-224v672h608v-672h-224v-320q0 -80 56 -136t136 -56t136 56t56 136v608q0 172 122 294t294 122t294 -122t122 -294h-160z
M1824 384v564l-160 204h-224l-160 -204v-564h544zM1984 224h-864v780l242 308h380l242 -308v-780z" />
    <glyph glyph-name="egg" unicode="Egg" 
d="M480 1265q0 142 49 272q49 129 127 219t174 143q98 53 194 53t194 -53t174 -143q78 -90 127 -219q49 -130 49 -272q0 -41 -6 -81h-157q7 46 7 80q0 120 -52 243t-144 207t-192 83q-100 1 -192 -83t-144 -207t-52 -243q0 -34 7 -80h-157q-6 40 -6 81zM1368 160
q-17 43 -74 80q-57 38 -95 68q-83 67 -80 168q4 101 89 158q27 18 76 42q50 24 68 34q63 34 98 77q35 42 47 109h-946q19 -102 99 -156q40 -28 101 -58q62 -30 89 -48q85 -57 89 -159t-81 -168q-37 -29 -94 -67t-73 -80h687zM1280 469q0 -21 24 -41t62 -44q39 -26 57 -40
q57 -42 85 -102t28 -162v-80h-1024v80q0 135 51 201q27 35 49 53t64 46t67 48t25 41t-18 33t-60 33q-44 21 -64 31t-56 34q-36 23 -57 44q-129 123 -129 332v80h1280v-80q0 -174 -73 -266q-73 -94 -169 -144q-20 -10 -64 -31t-60 -33q-18 -12 -18 -33z" />
    <glyph glyph-name="cheese" unicode="CHEESE" 
d="M1568 1664h-1184v-664q72 -33 116 -100t44 -148t-44 -148t-116 -100v-280h1184v667q-86 37 -139 117t-53 176t53 176t139 117v187zM224 1824h1504v-478q-15 3 -32 3q-68 -1 -116 -49t-49 -116q1 -68 49 -116t116 -49q17 0 32 3v-958h-1504v579q26 -10 62 -10q36 1 70 35
t35 84q-1 50 -35 84t-70 35q-36 0 -62 -10v963zM1088 416q-66 0 -113 47t-47 113t47 113t113 47t113 -47t47 -113t-47 -113t-113 -47zM800 1216q-52 0 -90 38t-38 90t38 90t90 38t90 -38t38 -90t-38 -90t-90 -38z" />
    <glyph glyph-name="eggs" unicode="EGGS" 
d="M1818 1696l230 -704l-230 -704h-672l-122 147l-122 -147h-672l-209 640h168l156 -480h482l197 237l197 -237h482l177 544l-177 544h-1358l-156 -480h-168l209 640h1588zM1244 972q0 -90 44 -150q44 -61 104 -61t104 61q44 60 44 150t-48 170t-100 81q-52 -1 -100 -81
t-48 -170zM1696 966q0 -148 -89 -253t-215 -105t-215 105t-89 253q0 98 39 192t110 156t155 62t155 -62t110 -156t39 -192zM508 972q0 -90 44 -150q44 -61 104 -61t104 61q44 60 44 150t-48 170t-100 81q-52 -1 -100 -81t-48 -170zM960 966q0 -148 -89 -253t-215 -105
t-215 105t-89 253q0 98 39 192t110 156t155 62t155 -62t110 -156t39 -192z" />
    <glyph glyph-name="carrot" unicode="CARROT" 
d="M1474 1473q-20 0 -47 28q-28 28 -17 71l97 416l156 -36l-68 -291l291 68l36 -156l-416 -98q-12 -2 -32 -2zM399 224q-97 0 -164 67t-75 163t45 187q136 241 337 519t397 474q126 126 274 126q50 0 106 -17l-34 -142q-1 -3 -1 -7t-1 -7q-37 14 -70 14q-81 0 -169 -88
l202 -201l-113 -114l-198 199q-181 -205 -374 -486l142 -142l-113 -114l-119 119q-75 -120 -113 -188t-39 -110q0 -44 25 -68t68 -25q43 0 87 25q258 144 533 348l-171 171l113 113l186 -186q177 141 293 257t71 238q4 2 11 2l144 33q64 -209 -109 -381q-196 -196 -474 -397
t-519 -337q-81 -45 -178 -45z" />
    <glyph glyph-name="peas" unicode="PEAS" 
d="M816 1280q60 0 102 -42t42 -102t-42 -102t-102 -42t-102 42t-42 102t42 102t102 42zM1040 640q-60 0 -102 42t-42 102t42 102t102 42t102 -42t42 -102t-42 -102t-102 -42zM1392 416q-60 0 -102 42t-42 102t42 102t102 42t102 -42t42 -102t-42 -102t-102 -42zM1243 190
q-299 115 -508 337q-208 222 -273 410t-36 381q-73 70 -156 190t-145 293l150 55q80 -222 215 -374q57 -65 70 -69l43 -34l-15 -53v-1q-16 -64 -12 -157q6 -92 38 -186t127 -220t238 -240t296 -173q223 -85 421 -51q9 366 -156 482q-41 29 -100 59q-59 31 -90 49
q-93 54 -152 123q-58 67 -129 187t-109 162q-94 104 -251 79q-67 46 -134 124q112 36 206 34q94 -3 153 -25q60 -22 118 -81t84 -99t82 -130q54 -90 84 -126t75 -71q44 -35 106 -67q61 -32 79 -42q66 -37 108 -76q179 -166 185 -526q2 -102 -4 -130l-5 -52l-49 -16
q-75 -28 -234 -28q-160 0 -320 62z" />
    <glyph glyph-name="bellpepper" unicode="Bell&#x20;Pepper" 
d="M1728 831q0 -71 -2 -105t-8 -90q-8 -56 -21 -98q-34 -112 -106 -183q-72 -72 -204 -94q-30 -5 -53 -5q-90 0 -180 48q55 56 101 129q83 -35 165 -1q82 35 115 118q33 84 33 227t55 355q44 152 41 242t-64 132t-125 16q-63 -26 -127 -72q-64 -45 -82 -57t-51 -31
q-45 -26 -112 -35q-67 -8 -122 36q-56 43 -85 121t-32 159q-11 289 285 327q129 16 355 13l-2 -159q-88 4 -244 -4q-155 -7 -196 -44q-42 -37 -40 -109t20 -117q16 -46 32 -58t48 2t86 52t66 48q12 8 54 34t66 34q93 34 139 30q139 -12 221 -114q55 -69 62 -132q8 -64 8 -99
t-10 -87q-8 -52 -16 -84t-38 -153q-32 -121 -32 -192zM777 256q-53 0 -93 10t-80 27q-96 44 -157 144q-62 100 -62 246q0 147 -48 348t-48 255q-2 120 24 189t92 131q140 130 330 71q-2 -96 22 -185q-144 88 -244 -3q-78 -71 -65 -197q7 -70 32 -174q24 -104 44 -194
t20 -192q0 -181 60 -243q138 -143 320 -13q52 38 98 110q46 74 72 171l154 -40q-30 -119 -87 -211t-125 -145t-138 -79t-121 -26z" />
    <glyph glyph-name="onion" unicode="Onion" 
d="M1056 580q42 0 66 -35l260 -385h-193l-133 197l-133 -197h-193l260 385q24 35 66 35zM1363 1446q-166 160 -231 378h-152q-56 -188 -177 -321q-32 -36 -128 -127t-138 -145q-106 -137 -89 -289q25 -233 388 -396l-93 -138q-305 142 -409 364q-164 348 212 702
q38 36 71 68q35 32 71 71q36 41 66 87q45 71 61 129q17 58 17 78l3 77h442l3 -77q0 -83 79 -208q29 -45 63 -83t106 -106t113 -112q40 -44 95 -122q107 -151 84 -360q-23 -210 -230 -374q-96 -77 -221 -134l-94 138q364 163 389 396q8 80 -16 152t-62 122t-99 112
q-255 -117 -399 -275q-70 -76 -129 -172l-136 84q120 196 261 304q141 109 279 177z" />
    <glyph glyph-name="cucumber" unicode="Cucumber" 
d="M1145 64q-219 0 -366 159q-130 145 -139 358q63 -11 122 -11l33 1q12 -147 99 -244q112 -123 296 -105t334 182q152 164 173 378q25 255 -145 389q29 82 42 156q68 -39 134 -112t102 -192t20 -275q-15 -156 -109 -312t-239 -256t-305 -114q-36 -2 -52 -2zM918 1474
q-5 -9 -14 -23t-22 -14q-13 1 -16 13t-13 62q-10 51 -2 91q8 39 32 63t47 22t35 -26t8 -48q-5 -24 -9 -37q-4 -14 -10 -28l-12 -28t-12 -26t-12 -21zM931 1384q0 16 10 25q123 123 179 93q44 -24 12 -88q-16 -30 -60 -47t-126 -2q-15 3 -15 19zM913 1302q72 -48 88 -84
t9 -67t-28 -49t-48 -12q-26 6 -42 40t-16 144q1 16 14 26t23 2zM768 1291q20 13 28 17q10 4 20 -5t4 -29q-53 -159 -114 -182q-29 -11 -47 5q-17 16 -15 48q2 33 22 59t51 50t51 37zM702 1362q-26 0 -50 9t-32 39t6 54q22 45 68 45q54 -1 118 -95q6 -10 0 -25
q-7 -16 -26 -20q-19 -3 -39 -5q-19 -2 -45 -2zM971 1861q-149 1 -272 -85t-197 -210t-88 -263q-20 -207 94 -333t291 -109q125 11 239 90t188 203t88 263q20 208 -97 336q-97 108 -246 108zM762 704q-219 0 -367 160q-162 179 -135 456q17 174 111 328q95 154 239 252
t285 112q274 25 438 -156t135 -456q-17 -174 -111 -328q-95 -154 -239 -253q-144 -98 -304 -113q-34 -2 -52 -2zM1314 751q0 17 14 31q28 26 56 49q78 65 116 44t26 -71q-12 -48 -73 -71q-36 -14 -124 -1q-15 2 -15 19zM1259 640q1 17 15 27t24 2q11 -9 19 -15
q91 -68 80 -120q-11 -50 -32 -68t-48 -12t-43 40q-16 35 -15 146zM1150 657q20 11 29 17t20 -4t5 -27t-10 -29q-33 -87 -57 -118q-23 -31 -51 -41q-28 -9 -45 7t-15 48t22 60q20 26 52 50q30 24 50 37z" />
    <glyph glyph-name="broccoli" unicode="BROCCOLI" 
d="M1952 1184q0 -143 -68 -265q-68 -123 -188 -197q-119 -74 -260 -81q-78 -247 -102 -504l-6 -73h-608l-6 73q-17 184 -65 376q8 -1 47 -1t114 15q36 -147 55 -303h318q26 221 90 433q-70 19 -128 52q57 57 101 127q78 -36 162 -36q160 0 272 112t112 268q0 155 -104 266
t-256 121l-41 2l-22 36q-53 87 -140 137t-189 50t-189 -50t-140 -137l-22 -36l-41 -2q-152 -10 -256 -121t-104 -266q0 -156 112 -268t272 -112q90 0 170 40t134 111l64 83q52 -76 101 -125q-50 -84 -124 -144v-1q-151 -124 -345 -124q-148 0 -273 73t-198 198t-73 273
q0 202 134 356t334 182q78 110 194 170t250 60t250 -60t194 -170q200 -28 334 -182t134 -356z" />
    <glyph glyph-name="jug" unicode="JUG" 
d="M1568 304v640q0 156 -104 263l-128 129q-107 104 -264 104h-240v160h160v192h-288v-352h-144q-40 0 -76 -36t-36 -76v-1024q0 -38 37 -75t75 -37h896q40 0 76 36t36 76zM1728 944v-640q0 -104 -84 -188t-188 -84h-896q-104 0 -188 84t-84 188v1024q0 100 78 182t178 89
v353h608v-358q176 -25 297 -145l128 -129q121 -121 146 -306q5 -37 5 -70zM1214 867q28 0 45 18q18 17 18 45t-19 46l-154 155q-18 18 -46 18t-45 -18q-18 -17 -18 -45t18 -46l155 -155q18 -18 46 -18zM1437 931q0 -93 -65 -159q-64 -66 -158 -65q-94 0 -159 65l-155 155
q-65 65 -65 159t65 158q64 65 158 65t159 -65l155 -155q65 -65 65 -158z" />
    <glyph glyph-name="cups" unicode="CUPS" 
d="M1776 736q32 0 56 24t24 56t-24 56t-56 24h-35l-20 -160h55zM1507 288l73 608h-376l74 -608h229zM1776 1056q100 0 170 -70t70 -170t-70 -170t-170 -70h-74l-54 -448h-512l-112 928h752zM496 832q56 0 101 20q135 60 163 265q20 144 -12 483h-377q9 115 16 160h504l8 -70
q30 -200 29 -368q-1 -167 -9 -226q-24 -176 -114 -284t-229 -133v-391h192v-160h-544v160h192v391q-140 25 -230 133q-120 146 -121 412q-2 266 28 466l8 70h157q-18 -144 -33 -415v-3q-9 -330 85 -428q77 -82 186 -82z" />
    <glyph glyph-name="mugs" unicode="MUGS" 
d="M1784 864q41 0 72 34t31 78t-31 78t-72 34h-65q-4 -82 -19 -224h84zM540 191q40 1 66 5t60 18q56 26 112 122q101 174 143 752h-754q45 -607 163 -788q56 -86 139 -102q31 -6 71 -7zM1139 864q41 0 71 34t31 78q-1 44 -31 78t-71 34h-60q-4 -82 -19 -224h79zM1784 1248
q107 0 185 -80t78 -192q0 -110 -78 -191t-185 -81h-103q-2 -14 -8 -50t-9 -55q-55 -299 -169 -433t-314 -134t-317 146q-115 -146 -316 -146t-315 134q-186 219 -229 998l-4 84h1139q107 0 185 -80t78 -192q0 -110 -78 -191t-185 -81h-98q-32 -227 -90 -371q48 -91 107 -116
q59 -26 114 -26q54 1 86 7q84 16 140 102q108 167 152 651q18 201 21 297h213z" />
    <glyph glyph-name="sugar" unicode="Sugar" 
d="M1040 512q32 0 56 -24t24 -56t-24 -56t-56 -24t-56 24t-24 56t24 56t56 24zM1152 592q0 32 24 56t56 24t56 -24t24 -56t-24 -56t-56 -24t-56 24t-24 56zM768 592q0 32 24 56t56 24t56 -24t24 -56t-24 -56t-56 -24t-56 24t-24 56zM1040 832q32 0 56 -24t24 -56t-24 -56
t-56 -24t-56 24t-24 56t24 56t56 24zM1448 64h-816q-144 0 -226 103t-50 244l119 517h165l-128 -553q-15 -63 19 -107t101 -44h816q67 0 101 44t19 107l-128 553h165l119 -517q32 -141 -50 -244t-226 -103zM1408 1216v192h-736v-192h736zM1568 1568v-512h-1056v512h448v416
h160v-416h448z" />
    <glyph glyph-name="sugarpackets" unicode="SUGAR&#x20;PACKETS" 
d="M247 1042l362 -362l363 362l-363 362zM2012 1042l-588 -589l-204 204l-203 -204l-204 204l-204 -204l-588 589l588 588l589 -588l-272 -272l91 -90l362 362l-475 475l113 113l588 -588l-271 -272l90 -90l362 362l-475 475l113 113z" />
    <glyph glyph-name="oven" unicode="Oven" 
d="M384 1472h1280v208q0 32 -24 56t-56 24h-1120q-32 0 -56 -24t-24 -56v-208zM1824 1312h-1440v-976q0 -32 24 -56t56 -24h1120q32 0 56 24t24 56v848h160v-848q0 -100 -70 -170t-170 -70h-1120q-100 0 -170 70t-70 170v1344q0 100 70 170t170 70h1120q100 0 170 -70
t70 -170v-368zM1456 1696q32 0 56 -24t24 -56t-24 -56t-56 -24t-56 24t-24 56t24 56t56 24zM1168 1696q32 0 56 -24t24 -56t-24 -56t-56 -24t-56 24t-24 56t24 56t56 24zM880 1696q32 0 56 -24t24 -56t-24 -56t-56 -24t-56 24t-24 56t24 56t56 24zM592 1696q32 0 56 -24
t24 -56t-24 -56t-56 -24t-56 24t-24 56t24 56t56 24zM1408 1024v-160h-768v160h768zM640 576v160h768v-160h-768z" />
    <glyph glyph-name="stove" unicode="STOVE" 
d="M400 446q74 0 126 52t52 126t-52 126t-126 52t-126 -52t-52 -126t52 -126t126 -52zM400 960q140 0 238 -98t98 -238t-98 -238t-238 -98t-238 98t-98 238t98 238t238 98zM400 1214q74 0 126 52t52 126t-52 126t-126 52t-126 -52t-52 -126t52 -126t126 -52zM400 1728
q140 0 238 -98t98 -238t-98 -238t-238 -98t-238 98t-98 238t98 238t238 98zM1168 446q74 0 126 52t52 126t-52 126t-126 52t-126 -52t-52 -126t52 -126t126 -52zM1168 960q140 0 238 -98t98 -238t-98 -238t-238 -98t-238 98t-98 238t98 238t238 98zM1168 1214q74 0 126 52
t52 126t-52 126t-126 52t-126 -52t-52 -126t52 -126t126 -52zM1168 1728q140 0 238 -98t98 -238t-98 -238t-238 -98t-238 98t-98 238t98 238t238 98zM1696 576q40 0 68 -28t28 -68t-28 -68t-68 -28t-68 28t-28 68t28 68t68 28zM1696 928q40 0 68 -28t28 -68t-28 -68t-68 -28
t-68 28t-28 68t28 68t68 28zM1696 1280q40 0 68 -28t28 -68t-28 -68t-68 -28t-68 28t-28 68t28 68t68 28zM1696 1440q-40 0 -68 28t-28 68t28 68t68 28t68 -28t28 -68t-28 -68t-68 -28z" />
    <glyph glyph-name="vent" unicode="VENT" 
d="M1088 64h-160v522l-210 -210l-113 113l403 404l403 -404l-113 -113l-210 210v-522zM1920 704h-542l-160 160h542v232l-576 357v499h160v-410l576 -357v-481zM96 704v481l576 357v410h160v-499l-576 -357v-232h542l-160 -160h-542z" />
    <glyph glyph-name="exhaust" unicode="EXHAUST" 
d="M1504 576q86 -62 58 -138q-12 -34 -35 -68l-46 -68t-35 -68q-28 -76 58 -138h-160q-86 62 -58 138q12 34 35 68l46 68t35 68q28 76 -58 138h160zM672 576q86 -62 58 -138q-12 -34 -35 -68l-46 -68t-35 -68q-28 -76 58 -138h-160q-86 62 -58 138q12 34 35 68l46 68t35 68
q28 76 -58 138h160zM1088 576q86 -62 58 -138q-12 -34 -35 -68l-46 -68t-35 -68q-28 -76 58 -138h-160q-86 62 -58 138q12 34 35 68l46 68t35 68q28 76 -58 138h160zM1920 704h-1824v481l576 357v410h160v-499l-576 -357v-232h1504v232l-576 357v499h160v-410l576 -357v-481
z" />
    <glyph glyph-name="cookingutensils" unicode="COOKING&#x20;UTENSILS" 
d="M1680 1056q100 0 170 -70t70 -170v-480q0 -100 -70 -170t-170 -70h-304v672h160v-512h144q32 0 56 24t24 56v480q0 32 -24 56t-56 24h-448q-32 0 -56 -24t-24 -56v-480q0 -32 24 -56t56 -24h16v-160h-16q-100 0 -170 70t-70 170v480q0 100 70 170t170 70h144v896h160
v-896h144zM736 1264v688h160v-688q0 -130 -82 -230t-206 -129v-809h-160v809q-124 29 -206 129t-82 230v688h160v-688q0 -86 61 -147t147 -61t147 61t61 147z" />
    <glyph glyph-name="whisk" unicode="WHISK" 
d="M1888 256v-160h-512v512h160v-262q26 21 48 45q116 121 158 281t0 320t-158 281l115 111q145 -150 197 -351t-3 -412q-54 -211 -206 -353l-12 -12h213zM573 159q-189 0 -348 161q-29 27 -53 60l743 743l113 -113l-629 -629q88 -62 174 -62q153 0 313 193q193 234 349 818
q-582 -155 -811 -345q-230 -190 -194 -366l-127 -127q-44 95 -38 196q9 217 262 426t853 368q68 18 125 31l515 515l113 -113l-515 -515q-104 -456 -279 -788q-64 -122 -130 -202q-206 -251 -436 -251z" />
    <glyph glyph-name="pizzacutter" unicode="PIZZA&#x20;CUTTER" 
d="M301 301q-173 175 -173 420q0 243 174 417t418 174q127 0 245 -53l-121 -121q-60 18 -124 18q-180 0 -308 -128t-128 -308t128 -308t308 -128t309 127q87 87 115 205t-6 228l121 121q75 -162 43 -347t-163 -317q-175 -173 -419 -173t-419 173zM1762 1682q0 34 -23 57
t-57 23t-56 -23l-344 -344q63 -50 113 -113l344 344q23 22 23 56zM1922 1682q0 -100 -70 -169l-365 -365q96 -173 110 -369l-160 -11q-15 224 -156 400l-517 -517l-113 113l517 517q-176 141 -400 156l10 160q197 -14 370 -110l365 365q69 70 169 70t170 -70t70 -170z" />
    <glyph glyph-name="measuringcup" unicode="MEASURING&#x20;CUP" 
d="M1344 1280v-128h-352v128h352zM992 896v128h352v-128h-352zM992 640v128h352v-128h-352zM562 1760h1431l-265 -624v-672q0 -86 -61 -147t-147 -61h-704q-86 0 -147 61t-61 147v1008h160v-1008q0 -20 14 -34t34 -14h704q20 0 34 14t14 34v704l183 432h-1189q-59 0 -93 -28
t-49 -108l-134 -659l-156 32l133 658q30 157 117 211t182 54z" />
    <glyph glyph-name="colander" unicode="COLANDER" 
d="M1360 1088q-32 0 -56 24t-24 56t24 56t56 24t56 -24t24 -56t-24 -56t-56 -24zM1200 800q-32 0 -56 24t-24 56t24 56t56 24t56 -24t24 -56t-24 -56t-56 -24zM880 800q-32 0 -56 24t-24 56t24 56t56 24t56 -24t24 -56t-24 -56t-56 -24zM1040 1088q-32 0 -56 24t-24 56
t24 56t56 24t56 -24t24 -56t-24 -56t-56 -24zM720 1088q-32 0 -56 24t-24 56t24 56t56 24t56 -24t24 -56t-24 -56t-56 -24zM1632 1157v411h-1184v-411q0 -165 88 -303t232 -213v-257h512v242q158 69 255 213t97 318zM2048 1472v-160h-256v-155q0 -195 -96 -361t-256 -266
v-306h-832v328q-148 103 -234 262t-86 343v155h-256v160h256v256h1504v-256h256z" />
    <glyph glyph-name="eggtimer" unicode="Egg&#x20;Timer" 
d="M1248 832v352h160v-352h-160zM1120 1184v-352h-160v352h160zM1040 216q160 0 298 82t225 222q87 141 104 312h-131v160h129q-14 134 -69 266t-136 239q-81 106 -192 172t-228 66t-228 -66t-192 -172q-81 -107 -136 -239t-69 -266h417v-160h-419q17 -171 104 -312
q87 -140 225 -222t298 -82zM1040 1888q108 0 212 -42t188 -112q178 -148 281 -375q103 -226 103 -425t-62 -355q-62 -157 -168 -269t-250 -179q-145 -67 -304 -67t-304 67q-144 67 -250 179t-168 269q-62 155 -62 297t28 260t76 226q50 108 122 205q72 96 158 167
q84 70 188 112t212 42zM864 512l176 256l176 -256h-352z" />
    <glyph glyph-name="platter" unicode="PLATTER" 
d="M1248 1152q86 -72 58 -156q-12 -38 -35 -76l-46 -80t-35 -76q-28 -84 58 -156h-160q-86 72 -58 156q12 38 35 76l46 80t35 76q28 84 -58 156h160zM928 1152q86 -72 58 -156q-12 -38 -35 -76l-46 -80t-35 -76q-28 -84 58 -156h-160q-86 72 -58 156q12 38 35 76l46 80
t35 76q28 84 -58 156h160zM64 480h1888v-160h-1888v160zM1008 1444q-187 0 -338 -108t-236 -300t-85 -428h-157q0 200 56 376t152 306q98 128 234 208t294 98v164h160v-164q158 -18 294 -98t234 -208t152 -306q56 -176 56 -376h-157q0 236 -85 428t-236 300t-338 108z" />
    <glyph glyph-name="plates" unicode="PLATES" 
d="M448 1284q0 56 79 108t215 82t298 30t298 -30t215 -82t79 -108q0 -57 -66 -106q2 6 2 9q0 45 -70 81t-192 58t-266 21q-144 1 -266 -21t-192 -58t-70 -81q0 -3 2 -9q-66 49 -66 106zM1040 1636q-169 0 -320 -32q-150 -32 -252 -83t-161 -115t-59 -126t59 -126t161 -115
t252 -83q151 -32 320 -32t320 32q150 32 252 83t161 115t59 126t-59 126t-161 115t-252 83q-151 32 -320 32zM1040 768q-260 0 -477 68t-342 185q-125 118 -125 259t125 259q125 117 342 185t477 68t477 -68t342 -185q125 -118 125 -259t-125 -259q-125 -117 -342 -185
t-477 -68zM1040 605q232 0 434 57t333 156t166 220q11 -39 11 -78q0 -139 -126 -257q-126 -119 -344 -187t-474 -68t-474 68t-344 187q-126 118 -126 257q0 39 11 78q35 -121 166 -220t333 -156t434 -57zM1040 285q232 0 434 57t333 156t166 220q11 -39 11 -78
q0 -139 -126 -257q-126 -119 -344 -187t-474 -68t-474 68t-344 187q-126 118 -126 257q0 39 11 78q35 -121 166 -220t333 -156t434 -57z" />
    <glyph glyph-name="pot" unicode="Pot" 
d="M1600 1120h416v-160h-256v-496q0 -112 -80 -192t-192 -80h-960q-112 0 -192 80t-80 192v496h-256v160h416v-656q0 -46 33 -79t79 -33h960q46 0 79 33t33 79v656zM1008 1570q-176 0 -321 -48t-220 -114h1082q-75 66 -220 114t-321 48zM1760 1328v-80h-1504v80
q0 106 100 194t250 140q152 52 322 63v131h160v-131q169 -11 321 -63q151 -52 251 -140t100 -194z" />
    <glyph glyph-name="chef" unicode="CHEF" 
d="M1109 891l128 352l150 -54l-128 -352zM693 1189l150 54l128 -352l-150 -54zM1590 1693q-64 0 -136 -18l-43 -14l-34 31l-2 2q-160 130 -321 130q-160 0 -312 -103q-30 -20 -39 -29l-34 -31l-44 14q-61 18 -135 18q-196 0 -248 -166q-35 -111 -2 -218t82 -169
q90 -114 156 -171q65 -58 128 -102l34 -24v-491h800v491l34 24q122 85 178 149q58 62 92 106q63 79 96 187q33 107 -2 218q-52 166 -248 166zM1600 192h-1120v568q-318 227 -398 514q-41 147 4 291q91 288 404 288q69 0 140 -15q197 146 410 146t410 -146q71 15 140 15
q152 1 255 -71t146 -207q105 -335 -209 -659q-84 -87 -182 -156v-568z" />
    <glyph glyph-name="dishwasher" unicode="DISHWASHER" 
d="M1632 1472v208q0 32 -24 56t-56 24h-1088q-32 0 -56 -24t-24 -56v-208h1248zM1792 1680v-368h-1408v-976q0 -32 24 -56t56 -24h1088q32 0 56 24t24 56v848h160v-848q0 -100 -70 -170t-170 -70h-1088q-100 0 -170 70t-70 170v1344q0 100 70 170t170 70h1088q100 0 170 -70
t70 -170zM864 956q0 -52 42 -89t102 -37t102 37t42 89v68h-288v-68zM1312 958q0 -98 -63 -174t-161 -102v-138h128v-160h-416v160h128v138q-98 26 -161 102t-63 174v226h608v-226zM1424 1696q32 0 56 -24t24 -56t-24 -56t-56 -24t-56 24t-24 56t24 56t56 24zM1104 1696
q32 0 56 -24t24 -56t-24 -56t-56 -24t-56 24t-24 56t24 56t56 24z" />
    <glyph glyph-name="toaster" unicode="TOASTER" 
d="M320 1600q0 114 80 210t220 151t308 55t308 -55t220 -151t80 -210q0 -146 -128 -257v-95h-160v173l32 24q96 73 96 149t-61 135t-165 94t-222 35t-222 -35t-165 -94t-61 -135t95 -149l33 -24v-173h-160v95q-128 111 -128 257zM1536 304v576q0 32 -24 56t-56 24h-1056
q-32 0 -56 -24t-24 -56v-576q0 -32 24 -56t56 -24h1056q32 0 56 24t24 56zM2016 960v-160h-320v-496q0 -100 -70 -170t-170 -70h-1056q-100 0 -170 70t-70 170v576q0 100 70 170t170 70h1056q77 0 139 -44t87 -116h334zM960 1456q0 32 24 56t56 24t56 -24t24 -56t-24 -56
t-56 -24t-56 24t-24 56zM672 1616q0 32 24 56t56 24t56 -24t24 -56t-24 -56t-56 -24t-56 24t-24 56z" />
    <glyph glyph-name="microwave" unicode="MICROWAVE" 
d="M416 864q94 -80 202 -54q50 12 100 32l100 44t100 32q108 25 202 -54v-128q-94 80 -202 54q-50 -12 -100 -32l-100 -44t-100 -32q-108 -25 -202 54v128zM416 1120q94 -80 202 -54q50 12 100 32l100 44t100 32q108 25 202 -54v-128q-94 80 -202 54q-50 -12 -100 -32
l-100 -44t-100 -32q-108 -25 -202 54v128zM416 1376q94 -80 202 -54q50 12 100 32l100 44t100 32q108 25 202 -54v-128q-94 80 -202 54q-50 -12 -100 -32l-100 -44t-100 -32q-108 -25 -202 54v128zM1584 1024q32 0 56 -24t24 -56t-24 -56t-56 -24t-56 24t-24 56t24 56t56 24
zM1584 768q32 0 56 -24t24 -56t-24 -56t-56 -24t-56 24t-24 56t24 56t56 24zM1760 560v960q0 32 -24 56t-56 24h-1312q-32 0 -56 -24t-24 -56v-960q0 -32 24 -56t56 -24h880v992h160v-992h272q32 0 56 24t24 56zM1680 1760q100 0 170 -70t70 -170v-960q0 -100 -70 -170
t-170 -70h-1312q-100 0 -170 70t-70 170v960q0 100 70 170t170 70h1312z" />
    <glyph glyph-name="electrickettle" unicode="ELECTRIC&#x20;KETTLE" 
d="M288 1580v-556q0 -36 30 -66t66 -30h128v710q70 16 160 24v-1118h800v536l267 565q-310 118 -741 144t-617 -61q-93 -43 -93 -148zM1632 384h-1120v384h-128q-104 0 -180 76t-76 180v552q0 98 50 176t136 118q227 104 674 76h3q305 -19 505 -64t382 -121l77 -32
l-323 -685v-660zM17 521l55 150l312 -114v-170zM512 96v160h1120v-160h-1120zM896 1280v128h256v-128h-256zM896 1024v128h256v-128h-256zM896 768v128h256v-128h-256z" />
    <glyph glyph-name="refrigerator" unicode="Fridge" 
d="M1504 512h-448v160h448v-160zM1056 1248h448v-160h-448v160zM1792 800h-1312v-496q0 -32 24 -56t56 -24h992q32 0 56 24t24 56v368h160v-368q0 -100 -70 -170t-170 -70h-992q-100 0 -170 70t-70 170v656h1312v816q0 32 -24 56t-56 24h-992q-32 0 -56 -24t-24 -56v-688
h-160v688q0 100 70 170t170 70h992q100 0 170 -70t70 -170v-976z" />
    <glyph glyph-name="freezer" unicode="FREEZER" 
d="M1088 704v-58l154 -154l-113 -113l-120 120l-120 -120l-113 113l152 152v60h-58l-153 -153l-114 113l120 120l-120 120l114 113l153 -153h58v60l-152 152l113 113l120 -120l120 120l113 -113l-154 -154v-58h59l154 153l113 -113l-120 -120l120 -120l-113 -113l-153 153
h-60zM1424 1696q32 0 56 -24t24 -56t-24 -56t-56 -24t-56 24t-24 56t24 56t56 24zM1632 1472v208q0 32 -24 56t-56 24h-1088q-32 0 -56 -24t-24 -56v-208h1248zM1792 1680v-368h-1408v-976q0 -32 24 -56t56 -24h1088q32 0 56 24t24 56v848h160v-848q0 -100 -70 -170
t-170 -70h-1088q-100 0 -170 70t-70 170v1344q0 100 70 170t170 70h1088q100 0 170 -70t70 -170z" />
    <glyph glyph-name="steamplate" unicode="STEAM&#x20;PLATE" 
d="M1008 832q162 0 298 -30t215 -82t79 -109q0 -58 -66 -105q2 6 2 10q0 66 -154 113t-374 47t-374 -47t-154 -113q0 -4 2 -10q-66 47 -66 105q0 57 79 109t215 82t298 30zM1008 253q169 0 320 32q150 33 252 83t161 114t59 126t-59 126t-161 115t-252 83q-151 32 -320 32
t-320 -32q-150 -32 -252 -83t-161 -115t-59 -126t59 -126t161 -114t252 -83q151 -32 320 -32zM1008 1120q260 0 477 -68t342 -185q125 -118 125 -259t-125 -259q-125 -117 -342 -185t-477 -68t-477 68t-342 185q-125 118 -125 259t125 259q125 117 342 185t477 68z
M1584 1312q-46 0 -79 33t-33 79t33 79t79 33t79 -33t33 -79t-33 -79t-79 -33zM432 1312q-46 0 -79 33t-33 79t33 79t79 33t79 -33t33 -79t-33 -79t-79 -33zM1296 1568q-46 0 -79 33t-33 79t33 79t79 33t79 -33t33 -79t-33 -79t-79 -33zM720 1568q-46 0 -79 33t-33 79t33 79
t79 33t79 -33t33 -79t-33 -79t-79 -33zM1008 1312q-46 0 -79 33t-33 79t33 79t79 33t79 -33t33 -79t-33 -79t-79 -33zM1008 1824q-46 0 -79 33t-33 79t33 79t79 33t79 -33t33 -79t-33 -79t-79 -33z" />
    <glyph glyph-name="steamglass" unicode="STEAM&#x20;GLASS" 
d="M1584 1536q46 0 79 -33t33 -79t-33 -79t-79 -33t-79 33t-33 79t33 79t79 33zM432 1536q46 0 79 -33t33 -79t-33 -79t-79 -33t-79 33t-33 79t33 79t79 33zM1296 1792q46 0 79 -33t33 -79t-33 -79t-79 -33t-79 33t-33 79t33 79t79 33zM720 1568q-46 0 -79 33t-33 79t33 79
t79 33t79 -33t33 -79t-33 -79t-79 -33zM1008 1312q-46 0 -79 33t-33 79t33 79t79 33t79 -33t33 -79t-33 -79t-79 -33zM1008 1824q-46 0 -79 33t-33 79t33 79t79 33t79 -33t33 -79t-33 -79t-79 -33zM1008 574q174 0 202 165q14 84 -7 285h-390q-21 -201 -7 -285
q28 -165 202 -165zM1088 160h192v-160h-544v160h192v264q-112 20 -186 96t-94 185t6 335q6 58 10 76l10 68h668l10 -68q12 -55 21 -196q8 -140 -5 -205q-20 -119 -94 -195t-186 -96v-264z" />
    <glyph glyph-name="steampot" unicode="STEAM&#x20;POT" 
d="M1584 1120q-46 0 -79 33t-33 79t33 79t79 33t79 -33t33 -79t-33 -79t-79 -33zM432 1120q-46 0 -79 33t-33 79t33 79t79 33t79 -33t33 -79t-33 -79t-79 -33zM1296 1376q-46 0 -79 33t-33 79t33 79t79 33t79 -33t33 -79t-33 -79t-79 -33zM720 1376q-46 0 -79 33t-33 79
t33 79t79 33t79 -33t33 -79t-33 -79t-79 -33zM1008 1120q-46 0 -79 33t-33 79t33 79t79 33t79 -33t33 -79t-33 -79t-79 -33zM1008 1632q-46 0 -79 33t-33 79t33 79t79 33t79 -33t33 -79t-33 -79t-79 -33zM1920 576v-160h-256v-144q0 -112 -80 -192t-192 -80h-768
q-112 0 -192 80t-80 192v144h-256v160h416v-304q0 -46 33 -79t79 -33h768q46 0 79 33t33 79v304h416zM928 992h160v-128h576v-160h-1312v160h576v128z" />
    <glyph glyph-name="pitcher" unicode="PITCHER" 
d="M448 384h864v821q-123 27 -317 -37t-314 -40q-55 11 -105 40v160q99 -58 208 -46t186 38q219 72 342 45v299h-989l125 -338v-942zM1616 1824q140 0 238 -97t98 -235v-321q0 -139 -99 -239t-237 -100h-16v160h16q72 0 124 53t52 126v321q0 72 -52 122t-124 50h-144v-1440
h-1184v1074l-195 526h1523z" />
    <glyph glyph-name="kettle" unicode="KETTLE" 
d="M1823 1408q1 -66 -31 -172t-75 -178t-92 -128t-69 -96t-14 -100l42 -414h-161q-19 200 -33 329t-5 176q17 88 114 204t125 219h-258l-14 64q-7 41 -39 98q-31 56 -69 94t-107 69q-69 30 -154 30q-320 0 -371 -355h-208q-98 0 -160 -66t-52 -211q12 -187 193 -368l52 517
h161l-90 -928h1091l20 -160h-1291l38 376q-222 176 -300 399q-26 76 -32 153q-15 212 94 330t276 118h81q51 152 157 240t262 107q-40 35 -40 83t33 81t79 33t79 -33t33 -81t-38 -82q252 -25 386 -234q34 -54 55 -114h332zM1632 1568q-86 62 -58 138q12 34 35 68l46 68
t35 68q28 76 -58 138h160q86 -62 58 -138q-12 -34 -35 -68l-46 -68t-35 -68q-28 -76 58 -138h-160z" />
    <glyph glyph-name="hanger" unicode="HANGER" 
d="M1720 256h-1359q-91 0 -159 48t-94 128t3 160t102 132l685 461l-52 36q-142 102 -142 265q0 130 86 218t198 88t194 -62t111 -159l-154 -44q-15 47 -53 76t-92 29t-92 -42t-38 -114t74 -124l245 -168l-879 -592q-34 -22 -44 -56t-2 -52t15 -30t31 -25t57 -13h1359
q46 0 69 20t30 44q11 22 1 56t-45 57l-620 417l143 97l568 -382q74 -52 103 -132q29 -81 3 -161t-94 -128q-69 -48 -158 -48z" />
    <glyph glyph-name="comb" unicode="Comb" 
d="M1024 1504v160h480v-160h-480zM1024 1216v160h480v-160h-480zM1024 928v160h480v-160h-480zM1024 640v160h480v-160h-480zM1024 352v160h480v-160h-480zM848 1952h656v-160h-656q-62 0 -103 -37t-41 -94v-1291q0 -58 43 -102t101 -44h656v-160h-656q-126 0 -215 90
t-89 216v1291q0 123 88 207t216 84z" />
    <glyph glyph-name="weathervane" unicode="Weather&#x20;Vane" 
d="M416 1824l1600 -218v-652l-1600 -218v798l160 -22v-593l320 43v506l160 -22v-462l320 44v375l160 -22v-331l320 43v374l-1440 195v162zM288 192h-160v1632h160v-1632z" />
    <glyph glyph-name="thermometer" unicode="TEMPERATURE" 
d="M1280 484q0 -74 -61 -135t-147 -61t-147 61t-61 135t38 126q38 53 90 78v656h160v-656q52 -25 90 -78q38 -52 38 -126zM1072 160q140 0 238 98t98 240q0 140 -103 240l-25 24v918q0 86 -61 147t-147 61t-147 -61t-61 -147v-918l-25 -24q-103 -100 -103 -240t98 -240
q98 -98 238 -98zM1440 1680v-852q128 -121 128 -332q0 -135 -66 -249q-66 -115 -181 -181t-249 -66t-248 66t-182 181q-66 114 -66 249q0 211 128 332v852q0 152 108 260t260 108t260 -108t108 -260z" />
    <glyph glyph-name="thermometerup" unicode="THERMOMETER&#x20;UP" 
d="M1632 800h-160v582l-266 -266l-113 113l459 459l459 -459l-113 -113l-266 266v-582zM736 485q0 -75 -61 -136t-147 -61t-147 61t-61 136t36 127t92 76v368h160v-368q56 -24 92 -76t36 -127zM528 160q140 0 238 98t98 240q0 140 -103 240l-25 24v918q0 86 -61 147t-147 61
t-147 -61t-61 -147v-918l-25 -24q-103 -100 -103 -240t98 -240q98 -98 238 -98zM896 1680v-852q128 -121 128 -332q0 -135 -66 -249q-66 -115 -182 -181q-114 -66 -248 -66t-249 66t-181 181q-66 114 -66 249q0 211 128 332v852q0 152 108 260t260 108t260 -108t108 -260z
" />
    <glyph glyph-name="thermometerdown" unicode="Thermometer&#x20;down" 
d="M1472 1568h160v-575l266 266l113 -113l-459 -459l-459 459l113 113l266 -266v575zM736 485q0 -75 -61 -136t-147 -61t-147 61t-61 136t36 127t92 76v880h160v-880q56 -24 92 -76t36 -127zM528 160q140 0 238 98t98 240q0 140 -103 240l-25 24v918q0 86 -61 147t-147 61
t-147 -61t-61 -147v-918l-25 -24q-103 -100 -103 -240t98 -240q98 -98 238 -98zM896 1680v-852q128 -121 128 -332q0 -135 -66 -249q-66 -115 -182 -181q-114 -66 -248 -66t-249 66t-181 181q-66 114 -66 249q0 211 128 332v852q0 152 108 260t260 108t260 -108t108 -260z
" />
    <glyph glyph-name="fog" unicode="Fog" 
d="M1152 256v188q-32 6 -96 20t-96 20v-228h192zM1595 388q-129 0 -283 26v-318h-512v418q-160 27 -284 27q-212 0 -388 -77v160q177 77 393 77q215 0 535 -77t536 -77t392 77v-160q-174 -76 -389 -76zM1984 752q-176 -77 -392 -77t-536 77t-535 77q-216 0 -393 -77v160
q177 77 393 77q215 0 535 -77t536 -77t392 77v-160zM1087 1981q185 0 311 -106t152 -278q212 -83 252 -322q-74 -17 -159 -22q0 75 -54 131t-133 75l-60 14l-2 61q-4 140 -94 214t-202 73t-194 -59q-80 -58 -105 -151l-14 -59h-57q-85 -6 -151 -46t-100 -102
q-95 -3 -179 -19q32 124 130 210t235 110q51 124 167 200t257 76zM525 1117q-217 0 -397 -77v160q180 77 397 77t532 -77q316 -77 531 -77q216 0 396 77v-160q-180 -77 -396 -77t-531 77t-532 77z" />
    <glyph glyph-name="wind" unicode="WIND" 
d="M1728 992q146 0 249 -103t103 -249h-160q0 80 -56 136t-136 56h-1346q-146 0 -248 102t-102 231t58 215t162 130q5 191 125 322q142 152 368 152q165 0 295 -98t177 -253q134 -25 227 -112t117 -209h103q65 0 112 47t47 113t-47 113t-112 47v160q132 0 225 -94t93 -226
t-93 -226t-225 -94h-768v160h499q-24 70 -91 116t-159 53l-62 5l-10 61q-21 121 -113 199t-232 78q-139 0 -233 -101t-82 -265l5 -67l-65 -16q-77 -19 -119 -70t-42 -127t56 -130q56 -56 134 -56h1346zM1475 672q119 0 203 -84t85 -204q-1 -120 -85 -204t-203 -85v160
q53 0 91 38t37 91q1 52 -37 90t-91 38h-995v160h995z" />
    <glyph glyph-name="tornado" unicode="TORNADO" 
d="M944 1536q126 0 238 13q185 21 300 69t118 78q-3 30 -81 63q-77 31 -151 51t-186 33t-238 13t-238 -13q-185 -21 -300 -69t-118 -78q3 -30 81 -63q77 -31 151 -51t186 -33t238 -13zM998 1248q380 0 569 145q5 -51 -47 -133t-136 -115q-85 -33 -170 -45q-84 -12 -252 -12
t-322 35q-49 -25 -31 -63q19 -38 122 -69t278 -31t290 34t168 77q-20 -91 -58 -141q-37 -50 -93 -79t-124 -40t-196 -11t-245 22q-27 -12 -41 -36t4 -48t82 -45t174 -21t204 20t138 45q-19 -101 -105 -163t-243 -62q-32 0 -61 3q-3 -32 15 -52t56 -43q38 -24 50 -32
q13 -8 35 -26q21 -18 35 -34q78 -92 43 -229l-154 41q13 51 -2 74q-15 24 -61 52t-62 39t-44 37q-83 79 -70 201q-114 37 -168 116q-70 101 7 219q-81 44 -114 108q-47 97 7 193q-106 52 -140 133t2 161q-210 86 -210 223q0 79 72 142t190 101q118 37 260 57t294 20t294 -20
t260 -57q118 -38 190 -101t72 -142t-72 -142t-190 -101q-240 -77 -520 -77t-485 48q-61 -62 115 -128q129 -48 390 -48z" />
    <glyph glyph-name="rainbowclouds" unicode="RAINBOW&#x20;CLOUDS" 
d="M1696 224q80 0 136 56t56 136t-58 132q-58 53 -150 61l-62 5l-11 61q-17 97 -91 159t-184 62q-112 0 -187 -81t-64 -212l5 -67l-65 -16q-125 -30 -125 -152q0 -58 42 -102q42 -42 104 -42h654zM672 928q28 0 46 20t18 47q0 56 -58 72l-65 16l5 67q6 74 -34 118t-100 44
q-58 0 -97 -34t-48 -87l-11 -62l-62 -5q-44 -2 -75 -28t-31 -68t28 -72q28 -28 66 -28h418zM2048 406q0 -136 -103 -239t-249 -103h-654q-126 0 -216 90t-90 200q0 220 184 300q8 163 109 270q74 82 188 114q-75 146 -175 146t-161 -107q15 -38 15 -82q0 -95 -66 -161
t-158 -66h-418q-106 0 -180 76t-74 172q0 98 54 166t142 92q33 90 110 144t171 54q136 0 223 -93q65 -70 76 -172q104 137 264 137q79 0 147 -40q125 -73 198 -250q127 -12 227 -92t139 -202q133 -27 215 -122q82 -96 82 -232zM1040 1632q208 0 376 -150t263 -409
q-102 76 -221 99q-79 142 -187 221t-222 79t-213 -61q-51 75 -115 116q148 105 319 105zM477 1603q-56 0 -115 -16q134 161 308 247t370 86q262 0 480 -152t358 -423q140 -270 175 -612q-75 81 -180 123q-49 266 -167 470t-292 320q-174 114 -374 114q-253 0 -453 -171
q-54 14 -110 14z" />
    <glyph glyph-name="clouds" unicode="Cloudy" 
d="M1106 512q98 0 168 78t70 188t-70 182q-70 74 -185 84l-63 5l-10 62q-20 129 -110 213t-220 84t-227 -104t-83 -291l4 -66l-63 -17q-75 -20 -116 -76t-41 -138t54 -144q54 -60 129 -60h763zM1504 766q0 -166 -116 -290t-282 -124h-763q-143 0 -243 108t-100 241
q0 134 57 225t157 137q5 217 139 361t346 144q162 0 290 -104t173 -270q152 -32 247 -147t95 -281zM2048 1004q0 -118 -84 -209t-200 -91h-129q6 48 6 80t-7 80h130q52 0 88 44t36 106t-38 104t-100 47l-63 6l-9 62q-12 75 -62 125t-120 50t-111 -43q-40 -43 -54 -95
q-36 18 -69 29q-21 53 -50 100q20 36 48 66q97 103 242 103q110 0 198 -70t123 -184q101 -28 163 -110t62 -200z" />
    <glyph glyph-name="rainheavy" unicode="RAIN&#x20;HEAVY" 
d="M1134 85l249 928l154 -42l-248 -928zM1044 1122l155 -41l-278 -1038l-155 42zM647 1013l154 -42l-248 -928l-155 42zM2016 1038q0 -192 -132 -335t-323 -159l46 170q109 30 179 121t70 217t-100 222q-100 95 -256 107l-63 5l-10 61q-29 165 -153 271t-288 106
q-208 0 -336 -137t-111 -361l5 -67l-65 -16q-105 -27 -164 -99t-59 -166q0 -93 48 -161t124 -98l-42 -155q-130 44 -210 155t-80 251t74 249q74 108 207 159q2 253 156 418q174 188 453 188q206 0 368 -126t217 -324q199 -32 322 -168t123 -328z" />
    <glyph glyph-name="lightsnow" unicode="LIGHT&#x20;SNOW" 
d="M1104 352q60 0 102 -42t42 -102t-42 -102t-102 -42t-102 42t-42 102t42 102t102 42zM592 352q60 0 102 -42t42 -102t-42 -102t-102 -42t-102 42t-42 102t42 102t102 42zM1296 736q60 0 102 -42t42 -102t-42 -102t-102 -42t-102 42t-42 102t42 102t102 42zM784 736
q60 0 102 -42t42 -102t-42 -102t-102 -42t-102 42t-42 102t42 102t102 42zM1120 976q0 -60 -42 -102t-102 -42t-102 42t-42 102t42 102t102 42t102 -42t42 -102zM2016 1044q0 -188 -122 -328t-301 -166l48 177q95 37 155 123t60 208t-100 217t-256 107l-63 5l-10 61
q-29 164 -153 270t-288 106q-208 0 -336 -137t-111 -360l5 -67l-65 -16q-105 -26 -164 -98t-59 -174t64 -176t161 -89l-42 -155q-147 28 -245 146t-98 266t74 256t207 159q2 251 156 418q175 187 453 187q206 0 368 -126t217 -324q199 -33 322 -168t123 -322z" />
    <glyph glyph-name="snow" unicode="Medium&#x20;Snow" 
d="M1120 416v-160h-198l94 -163l-138 -80l-94 163l-94 -163l-139 80l94 163h-197v160h197l-94 162l139 80l94 -162l94 162l138 -80l-94 -162h198zM1536 1024v-160h-147l72 -126l-138 -80l-73 127l-74 -127l-138 80l73 126h-151v160h152l-74 128l138 80l74 -127l73 127
l138 -80l-73 -128h148zM2016 1044q0 -186 -120 -326t-298 -167l48 178q94 37 152 123t58 207t-100 216t-256 107l-63 5l-10 61q-29 164 -153 270t-288 106q-208 0 -336 -137t-111 -360l5 -67l-65 -16q-105 -26 -164 -98t-59 -162q0 -88 38 -152t102 -97l-42 -156
q-116 49 -187 155t-71 242t74 244t207 159q2 251 156 418q175 187 453 187q206 0 368 -126t217 -324q199 -33 322 -168q123 -136 123 -322z" />
    <glyph glyph-name="heavysnow" unicode="Heavy&#x20;snow" 
d="M1056 449v-90l186 -186l-113 -113l-152 152l-153 -152l-113 113l186 186v90h-91l-185 -185l-114 113l153 152l-153 153l114 113l186 -187h90v92l-186 185l113 114l153 -153l152 153l113 -114l-186 -186v-91h90l187 187l113 -113l-152 -153l152 -152l-113 -113l-186 185
h-91zM2016 1044q0 -186 -120 -326t-298 -167l48 178q94 37 152 123t58 207t-100 216t-256 107l-63 5l-10 61q-29 164 -153 270t-288 106q-210 0 -337 -137t-110 -360l5 -67l-65 -16q-105 -26 -164 -98t-59 -162q0 -88 38 -152t102 -97l-42 -157q-116 50 -187 156t-71 242
t74 244t207 159q2 251 156 418q175 187 453 187q206 0 368 -126t217 -324q199 -33 322 -168q123 -136 123 -322z" />
    <glyph glyph-name="hail" unicode="Hail" 
d="M651 328l84 134l-102 120l-146 -59l11 -158zM878 1187l-132 -491l186 -220l-206 -331l-379 93l-28 389l273 111l131 490zM1396 748l-126 55l-91 -102l69 -118l134 29zM983 720l245 276l338 -148l-36 -368l-361 -79zM1984 1124q0 -172 -86 -298t-223 -181l19 195
q130 102 130 253t-100 246t-256 107l-63 5l-10 61q-29 164 -153 270t-288 106q-210 0 -337 -137t-110 -360l5 -67l-65 -16q-105 -28 -164 -100t-59 -163t44 -157t114 -97l-177 -73q-141 130 -141 317q0 141 74 249t207 159q2 251 156 418q175 187 453 187q206 0 368 -126
t217 -324q199 -33 322 -168q123 -134 123 -306z" />
    <glyph glyph-name="rainumbrella" unicode="RAIN&#x20;UMBRELLA" 
d="M1856 912v-80h-1696v80q0 260 144 472t377 310q26 -87 95 -135q-183 -66 -306 -219t-145 -348h1366q-27 231 -191 400q93 6 155 67q201 -237 201 -547zM1442 1524q-52 14 -78 56t-10 99q16 55 86 133t98 70q27 -8 49 -109q22 -102 8 -158q-14 -57 -57 -81t-96 -10z
M1085 1196q-53 14 -78 57t-9 99t86 133q70 78 98 70q28 -7 49 -109q22 -102 8 -158q-13 -56 -57 -82q-44 -24 -97 -10zM894 1642q-53 14 -78 57t-12 89q12 46 50 96q38 52 78 87t64 29q22 -6 44 -109q22 -102 8 -158q-14 -57 -58 -81t-96 -10zM1344 286v66h160v-66
q0 -118 -84 -202t-204 -84t-204 84t-84 202v418h160v-418q0 -52 38 -89t90 -37t90 37t38 89z" />
    <glyph glyph-name="fan" unicode="Fan" 
d="M1056 698q56 0 96 40t39 94q1 54 -39 94t-96 40t-95 -39t-39 -95t39 -95t95 -39zM1635 129q-67 -1 -135 29t-138 113q-68 83 -109 196q77 40 132 112q27 -99 79 -177t110 -102t112 11t90 104t45 149q13 132 -47 192t-137 82q-141 42 -293 -12q-3 -118 -87 -200t-201 -82
h-1q-29 -156 -127 -278t-245 -160q-43 -10 -80 -10q-125 0 -235 78t-170 177q-60 98 -69 199q-12 148 105 237q72 55 180 71t227 -8q-1 -6 -1 -18q0 -81 31 -155q-99 29 -195 25t-144 -41q-49 -37 -44 -99t49 -132q44 -68 110 -115q105 -75 203 -51t165 118t84 209
q-59 39 -95 103t-36 141q0 78 42 146q-118 101 -172 247t-13 293q45 164 245 255q98 45 213 48q114 3 191 -34q146 -70 164 -213q11 -91 -31 -197t-125 -200q-73 48 -163 63q79 74 123 161t38 148q-8 61 -62 88q-58 28 -136 24t-153 -37q-123 -57 -151 -157t17 -205
q46 -104 134 -175q60 30 132 30t137 -38t104 -100q208 72 403 4q101 -36 167 -102q129 -130 108 -336q-11 -116 -66 -216q-56 -100 -134 -151q-78 -52 -145 -52z" />
    <glyph glyph-name="medicalcross" unicode="MEDICAL&#x20;CROSS" 
d="M1696 800v448h-448v448h-448v-448h-448v-448h448v-448h448v448h448zM1408 1408h448v-768h-448v-448h-768v448h-448v768h448v448h768v-448z" />
    <glyph glyph-name="navigateup" unicode="Navigate&#x20;up" 
d="M1639 690l-605 605l-605 -605l-113 113l718 718l718 -718z" />
    <glyph glyph-name="navigatedown" unicode="Navigate&#x20;down" 
d="M1034 505l-718 718l113 114l605 -605l605 605l113 -114z" />
    <glyph glyph-name="pointupright" unicode="Point&#x20;Up&#x20;Right" 
d="M448 1403q-20 -1 -42 -19t-30 -50t-16 -106t-9 -182t27 -235t84 -228q88 -156 223 -242t271 -86q260 0 442 184q37 35 76 85q38 50 48 76q16 46 10 71q-7 25 -34 73q-26 48 -35 135q-7 87 -23 115t-46 52q-30 22 -41 34q-41 39 -59 101l-14 46l298 300q23 23 23 57
q-1 34 -23 57t-56 23t-56 -23l-33 -34q-399 -403 -478 -483t-169 -80q-190 0 -264 251q-23 79 -39 93q-15 14 -35 15zM450 1563q77 0 128 -46t68 -90q16 -45 27 -81t22 -69t39 -56q50 -43 116 24l503 508q69 71 169 71t169 -70t69 -170q0 -99 -69 -169l-222 -225q2 -2 8 -6
q125 -94 141 -246q8 -74 11 -89t19 -45q27 -51 42 -109q16 -58 -18 -150q-32 -91 -152 -211q-237 -238 -543 -238q-201 0 -373 107t-281 302q-141 253 -130 623q5 166 29 249q24 82 88 134t140 52z" />
    <glyph glyph-name="pointdownright" unicode="POINT&#x20;DOWN&#x20;RIGHT" 
d="M1403 1600q-1 20 -19 42t-50 30t-106 16t-182 9t-235 -27t-228 -84q-156 -88 -242 -223t-86 -271q0 -260 184 -442q35 -37 85 -76q50 -38 76 -48q46 -16 71 -10q25 7 73 34q48 26 135 35q87 7 115 23t52 46q22 30 34 41q39 41 101 59l46 14l300 -298q23 -23 57 -23
q34 1 57 23t23 56t-23 56l-34 33q-403 399 -483 478t-80 169q0 190 251 264q79 23 93 39q14 15 15 35zM96 1071q0 201 107 373t302 281q253 141 623 130q166 -5 249 -29q82 -24 134 -88t52 -140q0 -77 -46 -128t-90 -68q-45 -16 -81 -27t-69 -22t-56 -39q-43 -50 24 -116
l508 -503q71 -69 71 -169t-70 -169t-170 -69q-99 0 -169 69l-225 222q-2 -2 -6 -8q-94 -125 -246 -141q-74 -8 -89 -11t-45 -19q-51 -27 -109 -42q-58 -16 -150 18q-91 32 -211 152q-238 238 -238 543z" />
    <glyph glyph-name="pointdownleft" unicode="POINT&#x20;DOWN&#x20;LEFT" 
d="M1004 1262q0 -90 -89 -177l-508 -503q-23 -22 -23 -56t23 -56t57 -23q34 0 57 23l300 298l46 -14q63 -18 101 -59q12 -11 34 -41t52 -46q28 -16 91 -22t95 -12t66 -26q44 -24 70 -32q56 -16 148 58q50 39 85 76q184 182 184 421q0 157 -86 292t-242 223q-101 56 -228 84
t-285 27q-242 -1 -288 -55q-18 -22 -19 -42q1 -20 15 -35q14 -16 93 -39q251 -74 251 -264zM464 288q-100 0 -170 69t-70 169t71 169l34 34q402 399 453 449q87 86 54 125t-65 50q-33 11 -69 22t-59 19q-67 24 -112 76q-46 51 -46 128q0 76 52 140t134 88t214 28
q131 4 231 -4q237 -19 429 -126q193 -108 300 -280t107 -373q0 -305 -238 -543q-210 -210 -370 -167q-46 12 -88 34q-42 21 -57 24t-89 11q-152 15 -246 141q-4 6 -6 8l-225 -222q-70 -69 -169 -69z" />
    <glyph glyph-name="pointupleft" unicode="POINT&#x20;UP&#x20;LEFT" 
d="M1262 1044q-90 0 -177 89l-503 508q-22 23 -56 23t-56 -23t-23 -57q0 -34 23 -57l298 -300l-14 -46q-18 -63 -59 -101q-11 -12 -41 -34t-46 -52q-16 -28 -22 -91t-12 -95t-26 -66q-24 -44 -32 -70q-16 -56 58 -148q39 -50 76 -85q182 -184 421 -184q157 0 292 86t223 242
q56 101 84 228t27 285q-1 242 -55 288q-22 18 -42 19q-20 -1 -35 -15q-16 -14 -39 -93q-74 -251 -264 -251zM288 1584q0 100 69 170t169 70t169 -71l34 -34q399 -402 449 -453q86 -87 125 -54t50 65q11 33 22 69t19 59q24 67 76 112q51 46 128 46q76 0 140 -52t88 -134
t28 -214q4 -131 -4 -231q-19 -237 -126 -429q-108 -193 -280 -300t-373 -107q-305 0 -543 238q-210 210 -167 370q12 46 34 88q21 42 24 57t11 89q15 152 141 246q6 4 8 6l-222 225q-69 70 -69 169z" />
    <glyph glyph-name="retweet" unicode="Retweet" 
d="M1504 1360q0 72 -52 124t-124 52h-461l-157 157q21 3 42 3h576q140 0 238 -98t98 -238v-676l214 215l114 -114l-408 -407l-407 407l113 114l214 -214v675zM752 544h461l157 -157q-21 -3 -42 -3h-576q-140 0 -238 98t-98 238v676l-214 -215l-113 113l407 408l407 -408
l-113 -113l-214 214v-675q0 -72 52 -124t124 -52z" />
    <glyph glyph-name="share" unicode="SHARE" 
d="M1616 190q100 0 171 71t71 171t-71 171t-171 71t-171 -71t-71 -171t71 -171t171 -71zM400 190q100 0 171 71t71 171t-71 171t-171 71t-171 -71t-71 -171t71 -171t171 -71zM766 1616q0 -100 71 -171t171 -71t171 71t71 171t-71 171t-171 71t-171 -71t-71 -171zM1616 832
q166 0 283 -118t117 -282t-117 -282t-283 -118t-282 118q-118 118 -118 282q0 112 58 206l-266 205l-266 -205q58 -94 58 -206q0 -164 -117 -282t-283 -118t-283 118t-117 282t117 282t283 118q130 0 234 -76l294 227v241q-138 28 -229 138t-91 265t117 272t283 117
t283 -117t117 -272t-91 -265t-229 -138v-241l294 -227q104 76 234 76z" />
    <glyph glyph-name="picture" unicode="IMAGES" 
d="M800 1072q0 -60 -42 -102t-102 -42t-102 42t-42 102t42 102t102 42t102 -42t42 -102zM763 512h-195l287 384l130 -84l215 329l352 -629h-179l-183 328l-159 -244l-138 90zM384 384h1344v960h-1344v-960zM1888 224h-1664v1280h1664v-1280z" />
    <glyph glyph-name="sunrise" unicode="SUNRISE" 
d="M483 992q-3 0 -3 48q0 152 75 281t204 204t281 75t281 -75t204 -204t75 -281q0 -48 -2 -48h-158q3 0 3 48q-1 166 -119 284t-284 119q-166 -1 -284 -119t-119 -284q0 -48 3 -48h-157zM609 1584q-63 -50 -113 -113l-225 225l113 113zM1040 1735q-37 0 -80 -5v318h160v-318
q-43 5 -80 5zM1584 1471q-50 63 -113 113l225 225l113 -113zM2048 1152v-160h-315q2 32 2 69t-9 91h322zM345 1061q0 -37 2 -69h-315v160h322q-9 -54 -9 -91zM1120 64h-160v522l-210 -210l-113 113l403 404l403 -404l-113 -113l-210 210v-522zM2048 864v-160h-638l-161 160
h799zM32 704v160h798l-160 -160h-638z" />
    <glyph glyph-name="sunset" unicode="Sunset" 
d="M960 864h160v-522l210 210l113 -113l-403 -404l-403 404l113 113l210 -210v522zM1248 704v160h800v-160h-800zM832 864v-160h-800v160h800zM483 992q-3 0 -3 48q0 152 75 281t204 204t281 75t281 -75t204 -204t75 -281q0 -48 -2 -48h-158q3 0 3 48q-1 166 -119 284
t-284 119q-166 -1 -284 -119t-119 -284q0 -48 3 -48h-157zM609 1584q-63 -50 -113 -113l-225 225l113 113zM1040 1735q-37 0 -80 -5v318h160v-318q-43 5 -80 5zM1584 1471q-50 63 -113 113l225 225l113 -113zM2048 1152v-160h-315q2 32 2 69t-9 91h322zM345 1061
q0 -37 2 -69h-315v160h322q-9 -54 -9 -91z" />
    <glyph glyph-name="rainbow" unicode="RAINBOW" 
d="M1024 992q120 0 224 -73t164 -198t60 -273h-160q0 159 -84 272t-204 113t-204 -113t-84 -272h-160q0 148 60 273t164 198t224 73zM1024 1280q152 0 288 -65t235 -176q97 -111 155 -265t58 -326h-160q0 140 -45 264t-121 214t-184 142q-107 52 -226 52t-226 -52
q-108 -52 -184 -142t-121 -214t-45 -264h-160q0 172 58 326t155 265q99 111 235 176t288 65zM1024 1568q212 0 402 -88t326 -236t216 -356t80 -440h-160q0 198 -68 376t-182 306q-115 128 -275 203t-339 75t-339 -75t-275 -203q-114 -128 -182 -306t-68 -376h-160
q0 232 80 440t216 356t326 236t402 88z" />
    <glyph glyph-name="globe" unicode="Earth" 
d="M1486 562q151 151 179 366h-259q-13 -312 -110 -495q104 45 190 129zM784 433q-97 183 -110 495h-259q28 -215 179 -366q86 -84 190 -129zM594 1454q-151 -151 -179 -366h259q11 258 88 448q12 30 22 48q-108 -49 -190 -130zM1040 378q26 0 62 38t68 120q65 161 76 392
h-412q11 -227 76 -392q32 -82 68 -120t62 -38zM1040 1638h-2q-27 -2 -61 -40t-67 -118q-65 -165 -76 -392h412q-13 265 -83 406q111 -27 201 -102q34 -139 42 -304h259q-28 215 -179 366q-184 184 -446 184zM1824 1008q0 -157 -60 -300t-170 -254q-111 -110 -254 -170
t-300 -60t-300 60t-254 170q-110 111 -170 254t-60 300t60 300t170 254q111 110 254 170t300 60t300 -60t254 -170q110 -111 170 -254t60 -300z" />
    <glyph glyph-name="waxingcrescentmoon" unicode="WAXING&#x20;CRESCENT&#x20;MOON" 
d="M416 1008q0 -144 63 -272t172 -215q-45 -9 -103 -9t-132 21q-160 211 -160 475t160 475q74 21 132 21t103 -9q-109 -87 -172 -215t-63 -272zM1040 384q170 0 314 84t226 226q84 144 84 314t-84 314t-226 226q-144 84 -314 84h-5q145 -110 227 -274t82 -350
q0 -188 -82 -352t-227 -272h5zM1040 1792q160 0 305 -62t250 -167t167 -250t62 -305t-62 -305t-167 -250t-250 -167t-287 -62q-280 0 -493 160q123 1 235 48q172 72 278 228t106 348t-106 348t-278 228q-112 47 -235 48q211 160 475 160z" />
    <glyph glyph-name="firstquartermoon" unicode="FIRST&#x20;QUARTER&#x20;MOON" 
d="M416 1008q0 -156 72 -290t195 -221q-60 -59 -130 -103q-139 110 -218 270t-79 344t79 344t218 270q70 -44 130 -103q-123 -87 -195 -221t-72 -290zM1040 384q170 0 314 84t228 226q84 144 84 314t-84 314t-228 226q-144 84 -314 84q-25 0 -69 -4q213 -274 213 -620
t-213 -620q29 -4 69 -4zM1021 1792q179 0 324 -62t250 -167t167 -250t62 -305t-62 -305t-167 -250t-250 -167t-276 -62q-228 0 -401 94q67 46 131 115q107 116 166 264t59 311q0 330 -225 576q-66 69 -131 114q174 94 353 94z" />
    <glyph glyph-name="waxinggibbousmoon" unicode="WAXING&#x20;GIBBOUS&#x20;MOON" 
d="M704 1008q0 -180 72 -341t198 -280q33 -3 82 -3t114 14q140 30 252 117t178 217q64 130 64 276q0 223 -140 394t-354 216q-65 14 -116 14t-80 -4q-126 -118 -198 -278q-72 -162 -72 -342zM544 1008q0 276 140 512q87 148 220 260q66 12 140 12q183 0 346 -83
q196 -98 315 -286t119 -415q0 -228 -119 -416q-180 -285 -511 -353q-76 -15 -150 -15t-140 12q-133 112 -220 260q-140 236 -140 512zM411 1008q0 -365 225 -672q-174 106 -277 284t-103 388t103 388t277 284q-225 -307 -225 -672z" />
    <glyph glyph-name="waninggibbousmoon" unicode="WANING&#x20;GIBBOUS&#x20;MOON" 
d="M1376 1008q0 180 -72 342q-72 160 -198 278q-29 4 -80 4t-116 -14q-214 -45 -354 -216t-140 -394q0 -146 64 -276t178 -217q169 -131 382 -131q33 0 66 3q126 119 198 280t72 341zM1536 1008q0 -276 -140 -512q-87 -148 -220 -260q-66 -12 -140 -12q-178 0 -360 90
t-301 278t-119 416q0 227 119 415t315 286q162 83 350 83q70 0 136 -12q133 -112 220 -260q140 -236 140 -512zM1824 1008q0 -210 -103 -388t-277 -284q225 307 225 672t-225 672q174 -106 277 -284t103 -388z" />
    <glyph glyph-name="lastquartermoon" unicode="LAST&#x20;QUARTER&#x20;MOON" 
d="M1824 1008q0 -184 -79 -344t-217 -270q-71 43 -131 103q123 87 195 221t72 290t-72 290t-195 221q59 59 130 103q139 -110 218 -270t79 -344zM1040 384q40 0 69 4q-213 274 -213 620t213 620q-46 4 -69 4q-170 0 -314 -84t-228 -226q-84 -144 -84 -314t84 -314t228 -226
q144 -84 314 -84zM256 1008q0 160 62 305t167 250t250 167t276 62q226 0 401 -94q-65 -45 -131 -114q-225 -246 -225 -576q0 -163 59 -311q93 -234 297 -379q-175 -94 -354 -94q-178 0 -323 62t-250 167t-167 250t-62 305z" />
    <glyph glyph-name="waningcrescentmoon" unicode="WANING&#x20;CRESCENT&#x20;MOON" 
d="M1532 1504q58 0 132 -21q160 -211 160 -475t-160 -475q-74 -21 -132 -21t-103 9q109 87 172 215t63 272t-63 272t-172 215q45 9 103 9zM1040 384h5q-145 108 -227 272t-82 352t82 350q82 164 227 274h-5q-170 0 -314 -84t-226 -226q-84 -144 -84 -314t84 -314t226 -226
q144 -84 314 -84zM256 1008q0 160 62 305t167 250t250 167t287 62q283 0 493 -160q-123 -1 -235 -48q-172 -72 -278 -228t-106 -348t106 -348t278 -228q112 -47 235 -48q-213 -160 -475 -160q-160 0 -305 62t-250 167t-167 250t-62 305z" />
    <glyph glyph-name="crescentmoon" unicode="CRESCENT&#x20;MOON" 
d="M1351 486q1 0 5 2q-177 33 -324 141q-147 107 -230 277t-82 350t81 341q-3 0 -5 -2q-112 -57 -194 -153t-120 -207q-38 -113 -30 -237t64 -237t152 -193t207 -118q111 -36 237 -28t239 64zM1545 636q119 8 231 63q-116 -236 -354 -356q-143 -71 -300 -81
q-158 -10 -298 36t-260 148q-120 101 -191 243t-80 299t38 297q47 141 149 261t230 184q254 125 511 77q-111 -56 -189 -148q-122 -140 -147 -324t60 -357q85 -172 249 -264t351 -78z" />
    <glyph glyph-name="grapes" unicode="Grapes" 
d="M1600 1177q43 0 73 30t30 73t-30 73t-73 30t-73 -30t-30 -73t30 -73t73 -30zM1600 1536q106 0 181 -75t75 -181t-75 -181t-181 -75t-181 75t-75 181t75 181t181 75zM1312 665q43 0 73 30t30 73t-30 73t-73 30t-73 -30t-30 -73t30 -73t73 -30zM1312 1024q106 0 181 -75
t75 -181t-75 -181t-181 -75t-181 75t-75 181t75 181t181 75zM736 665q43 0 73 30t30 73t-30 73t-73 30t-73 -30t-30 -73t30 -73t73 -30zM992 768q0 -106 -75 -181t-181 -75t-181 75t-75 181t75 181t181 75t181 -75t75 -181zM1024 153q43 0 73 30t30 73t-30 73t-73 30
t-73 -30t-30 -73t30 -73t73 -30zM1024 512q106 0 181 -75t75 -181t-75 -181t-181 -75t-181 75t-75 181t75 181t181 75zM448 1177q43 0 73 30t30 73t-30 73t-73 30t-73 -30t-30 -73t30 -73t73 -30zM704 1280q0 -106 -75 -181t-181 -75t-181 75t-75 181t75 181t181 75t181 -75
t75 -181zM1024 1383q-43 0 -73 -30t-30 -73t30 -73t73 -30t73 30t30 73t-30 73t-73 30zM1280 1269q0 -95 -75 -170t-181 -75t-181 75t-75 170t49 161t126 93q-8 147 -158 257q-99 72 -229 110l39 156q212 -65 341 -180l200 150l96 -128l-193 -145q60 -103 64 -220
q77 -25 127 -92t50 -162z" />
    <glyph glyph-name="orange" unicode="Orange" 
d="M1792 832q0 -154 -58 -294t-167 -249t-249 -167t-294 -58t-294 58t-249 167t-167 249t-58 310t82 331q82 162 227 269q144 107 321 139q14 -69 13 -154q-211 -45 -350 -213t-139 -405t180 -417t434 -180t434 180t180 434t-179 433t-432 181q0 245 -123 442l136 84
q46 -73 76 -151q129 189 340 161q88 -12 133 -30l20 -8q-3 -8 -8 -22q-20 -54 -67 -119q-132 -184 -369 -140q7 -34 13 -78q225 -46 389 -210q109 -109 167 -249t58 -294zM1408 1008q0 -32 -24 -56t-56 -24t-56 24t-24 56t24 56t56 24t56 -24t24 -56zM1072 768q-32 0 -56 24
t-24 56t24 56t56 24t56 -24t24 -56t-24 -56t-56 -24zM1072 1088q-32 0 -56 24t-24 56t24 56t56 24t56 -24t24 -56t-24 -56t-56 -24z" />
    <glyph glyph-name="lemon" unicode="Lemon" 
d="M1328 1184q32 0 56 -24t24 -56t-24 -56t-56 -24t-56 24t-24 56t24 56t56 24zM1072 1024q32 0 56 -24t24 -56t-24 -56t-56 -24t-56 24t-24 56t24 56t56 24zM1072 1344q32 0 56 -24t24 -56t-24 -56t-56 -24t-56 24t-24 56t24 56t56 24zM1056 1767q-50 1 -72 -19t-48 -75
t-40 -79q-45 -80 -102 -118q-56 -38 -90 -70q-183 -172 -163 -559q13 -275 195 -423q81 -67 159 -84l28 -6l18 -23q50 -63 115 -63t115 63l18 23l29 6q77 17 142 70q65 54 105 108q96 131 106 329q21 387 -163 559q-34 32 -74 59q-42 29 -78 73t-71 117t-57 93t-72 19z
M1056 96q-129 0 -221 101q-121 35 -229 138q-203 194 -219 486q-15 291 59 473t247 300q44 29 97 137q52 108 113 149q61 40 132 40t113 -14q75 -24 110 -71q36 -47 58 -94q28 -59 49 -92q20 -33 54 -55q173 -118 247 -300t59 -473t-219 -486q-108 -103 -229 -138
q-92 -101 -221 -101z" />
    <glyph glyph-name="apple" unicode="APPLE" 
d="M1232 256q-34 0 -78 12q-43 12 -96 45q-52 33 -80 39t-46 -2q-20 -8 -58 -28q-63 -35 -134 -58q-70 -22 -162 12t-164 146q-141 218 -156 536q-12 219 55 376t201 223q158 78 337 16q13 -63 7 -176q-148 77 -274 17q-95 -49 -133 -166q-37 -117 -35 -182t1 -100
q9 -190 77 -352t136 -186q60 -30 159 27q100 57 174 57t180 -66q35 -22 59 -28t67 0q64 10 132 118t110 279q42 172 18 333q-33 224 -189 256q-117 24 -231 -32l-122 -60q45 318 -113 573l136 85q41 -68 75 -149q125 189 334 161q86 -12 129 -30l20 -7q-46 -123 -132 -201
q-116 -105 -305 -71q12 -53 20 -121q216 51 363 -55q74 -53 118 -141t56 -192q35 -297 -86 -587q-120 -289 -311 -317q-25 -4 -59 -4z" />
    <glyph glyph-name="strawberry" unicode="Strawberry" 
d="M1424 1088q-32 0 -56 33t-24 79t24 79t56 33t56 -33t24 -79t-24 -79t-56 -33zM1296 992q32 0 56 -33t24 -79t-24 -79t-56 -33t-56 33t-24 79t24 79t56 33zM784 768q-32 0 -56 33t-24 79t24 79t56 33t56 -33t24 -79t-24 -79t-56 -33zM1040 704q32 0 56 -33t24 -79t-24 -79
t-56 -33t-56 33t-24 79t24 79t56 33zM1040 1312q32 0 56 -33t24 -79t-24 -79t-56 -33t-56 33t-24 79t24 79t56 33zM656 1312q32 0 56 -33t24 -79t-24 -79t-56 -33t-56 33t-24 79t24 79t56 33zM960 1952h160v-205q200 155 461 235l47 -153q-260 -80 -442 -235
q-66 -57 -83 -81q-24 -30 -63 -30t-59 26t-76 75q-197 168 -453 245l47 153q261 -80 461 -235v205zM1040 128q-105 0 -246 94q-235 157 -410 450q-205 342 -148 656q50 263 279 343q121 -48 228 -123q-11 1 -57 1t-102 -16q-100 -29 -141 -92q-42 -63 -56 -138
q-31 -162 37 -355t218 -374q108 -132 222 -212t176 -80t176 80t222 212q150 180 218 374q84 241 20 421t-308 180q-22 0 -32 -1q103 73 228 123q230 -80 280 -343q56 -309 -148 -656q-63 -107 -138 -197q-131 -159 -272 -253t-246 -94z" />
    <glyph glyph-name="pizza" unicode="Pi&#x7a;&#x7a;a" 
d="M1016 1984q479 0 916 -211l-907 -1746l-780 1503q34 14 89 36l60 24q300 106 588 106t545 -75l-75 -145q-234 63 -474 63t-510 -92l557 -1073l685 1320q-349 133 -702 133q-425 0 -822 -183l-74 142q425 198 904 198zM704 1328q0 32 24 56t56 24t56 -24t24 -56t-24 -56
t-56 -24t-56 24t-24 56zM896 864q0 40 28 68t68 28t68 -28t28 -68t-28 -68t-68 -28t-68 28t-28 68zM1186 1149l-43 -71l-119 72l44 71l-95 59q43 68 117 89t139 -19q63 -40 79 -115q16 -76 -27 -145z" />
    <glyph glyph-name="chickenleg" unicode="Chicken&#x20;leg" 
d="M1366 1632q-208 0 -376 -217q-86 -111 -127 -254q-42 -143 -31 -248q12 -105 64 -157t181 -53q261 0 480 170q190 146 203 341q12 166 -114 292t-280 126zM1089 544q-26 0 -74 4l-231 -230q2 -128 -70 -206t-162 -78q-91 0 -146 52q-56 52 -82 111q-126 54 -156 175
t57 202q86 82 219 82l122 123q22 -85 69 -157l-130 -131l-39 4q-82 9 -126 -32q-24 -23 -17 -55q13 -50 85 -71l44 -12l12 -44q21 -72 71 -85q33 -8 56 18q42 46 32 122l-6 40l224 225q-41 24 -64 47q-77 79 -99 222t28 322t158 320q216 280 502 280q219 0 393 -174
t160 -414q-17 -267 -267 -460q-122 -94 -271 -147q-148 -53 -292 -53z" />
    <glyph glyph-name="bread" unicode="BREAD" 
d="M496 1472q32 0 56 -24t24 -56t-24 -56t-56 -24t-56 24t-24 56t24 56t56 24zM784 1344q32 0 56 -24t24 -56t-24 -56t-56 -24t-56 24t-24 56t24 56t56 24zM1280 1376q0 -108 -51 -204t-141 -168v-460h-160v543q88 49 140 125t52 168t-60 172q-60 82 -164 129t-224 47
t-224 -47t-164 -129t-60 -172q0 -92 52 -168t140 -125v-671h1184v671q88 49 140 125t52 168t-60 172q-60 82 -164 129t-224 47h-232q168 -147 168 -352zM256 1004q-192 151 -192 385q0 121 77 236t209 185t290 77v1h736v-1q158 -7 290 -77t209 -185t77 -236
q0 -234 -192 -385v-748h-1504v748z" />
    <glyph glyph-name="frenchfries" unicode="FRENCH&#x20;FRIES" 
d="M1008 864q-106 0 -196 43t-150 117h-146l132 -640h720l132 640h-146q-60 -74 -150 -117t-196 -43zM928 1952h160v-919q106 28 154 111l23 40h183l105 604l158 -28l-100 -576h85l-198 -960h-980l-198 960h91l-91 646l158 26l94 -672h179l23 -40q48 -83 154 -111v919z
M1424 2001l-78 -689h-161l79 704zM831 1312h-159l-48 694l160 5z" />
    <glyph glyph-name="utensils" unicode="Utensils" 
d="M736 1824v-512h-160v512h160zM896 1326v498h160v-498q0 -208 -160 -306v-892h-480v892q-160 98 -160 306v498h160v-498q0 -137 103 -180q0 -1 1 -1l56 -17v-840h160v840l56 17q68 25 94 109q10 33 10 72zM1450 1760q-30 0 -52 -22t-22 -51v-1399h160v589l12 20
q10 10 35 64q82 177 82 334q0 156 -50 274t-117 175q-19 16 -48 16zM1824 1282q0 -208 -128 -452v-702h-480v1559q0 101 69 167t161 66t155 -55q91 -79 157 -227t66 -356z" />
    <glyph glyph-name="tea" unicode="Tea" 
d="M985 666l32 190l-189 32l-32 -190zM1520 1440q142 0 264 -71t193 -193t71 -264q0 -188 -118 -332t-298 -184v162q114 36 187 134t73 235t-109 245t-263 108h-16v-1120h-1184v1280h486l-27 -160h-299v-960h864v960h-272l-44 -264l174 -29l-85 -505l-505 85l85 505l173 -29
l67 397h583zM992 1568q-86 62 -58 138q12 34 35 68l46 68t35 68q28 76 -58 138h160q86 -62 58 -138q-12 -34 -35 -68l-46 -68t-35 -68q-28 -76 58 -138h-160zM672 1568q-86 62 -58 138q12 34 35 68l46 68t35 68q28 76 -58 138h160q86 -62 58 -138q-12 -34 -35 -68l-46 -68
t-35 -68q-28 -76 58 -138h-160z" />
    <glyph glyph-name="wineglass" unicode="WINE&#x20;GLASS&#x20;SPARKLE" 
d="M810 732q286 0 353 251l135 -98q-50 -129 -154 -208t-248 -96v-293h288v-160h-736v160h288v293q-178 22 -292 134t-144 294q-30 153 9 500q10 89 16 119l10 68h566l-53 -160h-375q-39 -360 -15 -504t116 -222q94 -78 236 -78zM1312 1888h160v-300l287 93l49 -152
l-284 -92l176 -242l-130 -94l-176 242l-175 -242l-129 94l175 242l-284 92l49 152l282 -91v298zM816 864q-97 0 -158 55q-62 55 -76 150t5 275h149q-16 -181 -1 -302t95 -178h-14z" />
    <glyph glyph-name="headphones" unicode="HEADPHONES" 
d="M1392 1606q-88 0 -151 -63t-63 -151t63 -151t151 -63t152 62q62 64 62 152t-62 152q-64 62 -152 62zM1024 1403q0 141 108 249t261 108t260 -107t107 -261t-108 -260q-76 -76 -180 -99v-425h-160v425q-124 29 -206 129t-82 241zM282 1392q0 -88 63 -151t151 -63t152 62
q62 64 62 152t-62 152q-64 62 -152 62t-151 -63t-63 -151zM576 720q0 -100 70 -170t170 -70h944v-160h-944q-166 0 -283 118t-117 282v313q-124 29 -206 129t-82 241t108 249t261 108t260 -107t107 -261t-108 -260q-76 -76 -180 -99v-313z" />
    <glyph glyph-name="videogame" unicode="Gaming" 
d="M1408 1376v160h-736v-160h736zM512 1696h1056v-480h-1056v480zM1328 832q32 0 56 -24t24 -56t-24 -56t-56 -24t-56 24t-24 56t24 56t56 24zM1328 352q-32 0 -56 24t-24 56t24 56t56 24t56 -24t24 -56t-24 -56t-56 -24zM1488 512q-32 0 -56 24t-24 56t24 56t56 24t56 -24
t24 -56t-24 -56t-56 -24zM1168 672q32 0 56 -24t24 -56t-24 -56t-56 -24t-56 24t-24 56t24 56t56 24zM768 384h-128v128h-128v128h128v128h128v-128h128v-128h-128v-128zM1856 928h-1472v-688q0 -20 14 -34t34 -14h1216q20 0 34 14t14 34v560h160v-560q0 -86 -61 -147
t-147 -61h-1216q-86 0 -147 61t-61 147v848h1472v688q0 20 -14 34t-34 14h-1216q-20 0 -34 -14t-14 -34v-560h-160v560q0 86 61 147t147 61h1216q86 0 147 -61t61 -147v-848z" />
    <glyph glyph-name="view" unicode="Eye" 
d="M1408 1024q0 -160 -112 -272t-272 -112t-272 112t-112 272t112 272t272 112v-160q-92 0 -158 -66t-66 -158t66 -158t158 -66t158 66t66 158q0 52 -24 100l143 72q41 -82 41 -172zM1024 512q99 0 198 30q100 30 178 80q78 48 147 107t115 116t72 105t26 74t-26 74t-72 105
t-115 116t-147 107t-178 80q-99 30 -198 30t-198 -30q-100 -30 -178 -80q-78 -48 -147 -107t-115 -116t-72 -105t-26 -74t26 -74t72 -105t115 -116t147 -107t178 -80q99 -30 198 -30zM1024 1696q116 0 233 -34t213 -91q96 -56 182 -128q85 -73 143 -147q57 -74 91 -146
t34 -126t-34 -126t-91 -146q-58 -74 -143 -147q-86 -72 -182 -128q-96 -57 -213 -91t-233 -34t-233 34t-213 91q-96 56 -182 128q-85 73 -143 147q-57 74 -91 146t-34 126t34 126t91 146q58 74 143 147q86 72 182 128q96 57 213 91t233 34z" />
    <glyph glyph-name="pointup" unicode="POINT&#x20;UP" 
d="M290 822q0 -18 12 -40t44 -63q85 -112 228 -233t307 -167q326 -90 556 84q107 83 167 207t60 269v10q0 223 -84 257q-14 6 -68 23q-54 18 -115 69q-63 52 -95 61t-78 4q-91 -12 -158 25l-42 23v425q0 32 -24 56t-56 24t-56 -24t-24 -56v-719q0 -107 -57 -179
q-123 -155 -372 -20q-71 38 -94 37t-35 -17t-14 -26q-2 -12 -2 -30zM130 842q0 80 56 144q110 124 302 24q49 -25 66 -33q106 -49 136 13q14 30 14 67v719q0 100 70 170t170 70t170 -70t70 -170v-317l3 1l17 1q76 11 142 -9t148 -86q30 -24 42 -32t45 -20q63 -20 112 -49
t90 -117q41 -87 41 -259l-1 -12q1 -182 -75 -339q-76 -158 -216 -264t-316 -136q-292 -49 -574 111q-169 96 -304 238q-134 142 -171 208q-37 67 -37 147z" />
    <glyph glyph-name="pointdown" unicode="POINT&#x20;DOWN" 
d="M1758 1226q0 18 -12 40t-44 63q-85 112 -228 233t-307 167q-326 90 -556 -84q-107 -83 -167 -207t-60 -269v-10q0 -223 84 -257q14 -6 68 -23q54 -18 115 -69q63 -52 95 -61t78 -4q91 12 158 -25l42 -23v-425q0 -32 24 -56t56 -24t56 24t24 56v719q0 107 57 179
q123 155 372 20q71 -38 94 -37t35 17t14 26q2 12 2 30zM1918 1206q0 -80 -56 -144q-110 -124 -302 -24q-49 25 -66 33q-106 49 -136 -13q-14 -30 -14 -67v-719q0 -100 -70 -170t-170 -70t-170 70t-70 170v317l-3 -1l-17 -1q-76 -11 -142 9t-148 86q-30 24 -42 32t-45 20
q-63 20 -112 49t-90 117q-41 87 -41 259l1 12q-1 182 75 339q76 158 216 264t316 136q292 49 574 -111q169 -96 304 -238q134 -142 171 -208q37 -67 37 -147z" />
    <glyph glyph-name="pointleft" unicode="POINT&#x20;LEFT" 
d="M991 1184h-719q-32 0 -56 -24t-24 -56t24 -56t56 -24h425l23 -42q37 -67 25 -158q-5 -46 4 -78t47 -78q38 -44 54 -70q17 -26 32 -71q14 -45 20 -59q14 -35 68 -59q53 -25 189 -25h10q145 0 269 60t208 168q84 110 106 250t-12 262t-85 212q-86 150 -207 262
q-121 113 -163 137q-42 23 -60 23t-29 -2q-10 -2 -26 -14t-17 -35t28 -77t40 -78q36 -83 29 -168q-8 -86 -80 -143t-179 -57zM272 864q-100 0 -170 70t-70 170t70 170t170 70h719q160 0 61 187q-24 47 -42 87t-15 113q3 75 67 131t144 56t124 -25t93 -61q48 -36 118 -103
q162 -153 258 -323q159 -282 111 -574q-30 -176 -136 -316t-264 -216q-157 -76 -339 -75l-12 -1q-299 0 -383 142q-24 40 -38 87q-16 47 -24 59t-54 68q-95 117 -73 264l1 17l1 3h-317z" />
    <glyph glyph-name="pointright" unicode="POINT&#x20;RIGHT" 
d="M822 1758q-18 0 -40 -12t-63 -44q-112 -85 -233 -228t-167 -307q-90 -326 84 -556q83 -107 207 -167t269 -60h10q223 0 257 84q6 14 23 68q18 54 69 115q52 63 61 95t4 78q-12 91 25 158l23 42h425q32 0 56 24t24 56t-24 56t-56 24h-719q-107 0 -179 57q-155 123 -20 372
q38 71 37 94t-17 35t-26 14q-12 2 -30 2zM842 1918q80 0 144 -56q124 -110 24 -302q-25 -49 -33 -66q-49 -106 13 -136q30 -14 67 -14h719q100 0 170 -70t70 -170t-70 -170t-170 -70h-317l1 -3l1 -17q11 -76 -9 -142t-86 -148q-24 -30 -32 -42t-20 -45q-20 -63 -49 -112
t-117 -90q-87 -41 -259 -41l-12 1q-182 -1 -339 75q-158 76 -264 216t-136 316q-49 292 111 574q96 169 238 304q142 134 208 171q67 37 147 37z" />
    <glyph glyph-name="like" unicode="Approve" 
d="M1187 224h-10q-221 0 -423 117q-79 47 -435 44h-31v158h30q389 12 517 -63q163 -95 344 -95q103 -3 155 21t65 41q13 16 31 68q18 53 114 157q33 37 25 139q-8 103 28 166q35 63 35 89q0 38 -15 63t-89 25h-176q-108 0 -180 57t-80 153t57 224q36 65 35 91q-1 25 -33 43
q-33 18 -63 0q-61 -36 -231 -247l-64 -79q-74 -90 -107 -119t-70 -61q-51 -44 -137 -84t-191 -46v160q122 12 209 80q89 70 171 170l55 67l9 13q196 239 260 275q128 71 236 13q109 -59 115 -177q4 -56 -16 -98q-19 -43 -49 -101t-28 -102q6 -76 102 -76h176q124 0 194 -62
t70 -155t-49 -184q-14 -25 -18 -39q-5 -14 1 -76q13 -144 -89 -258q-31 -36 -41 -50t-20 -42q-18 -48 -48 -93t-117 -86t-224 -41z" />
    <glyph glyph-name="dislike" unicode="DISAPPROVE" 
d="M1792 955q0 -93 -70 -155t-194 -62h-176q-38 0 -68 -16q-73 -38 6 -187q57 -105 54 -167q-7 -124 -116 -183t-229 8q-72 40 -267 279q-29 42 -90 111t-84 89q-77 67 -137 95t-133 35v160q105 -6 164 -34t93 -46t71 -50q78 -66 122 -116l119 -143q77 -93 139 -161t92 -86
t63 0q32 18 33 42t-35 92q-65 128 -57 224t80 153t180 57h176q91 0 102 54q2 10 2 34q0 26 -22 66q-49 90 -41 191t-25 137q-63 70 -84 101q-20 31 -32 65t-18 44q-14 27 -71 53q-57 27 -160 24q-181 0 -344 -95q-128 -75 -517 -63h-30v158h31q356 -3 435 44
q202 117 423 117h10q191 0 300 -86q44 -34 61 -70q17 -35 30 -70t42 -67q30 -33 41 -47q77 -95 64 -254q-4 -38 0 -52t18 -39q49 -91 49 -184z" />
    <glyph glyph-name="user" unicode="AVATAR" 
d="M1024 800q370 0 580 -130t237 -377l14 -165h-160l-14 150q-9 86 -53 152t-109 106q-65 39 -151 64t-168 34t-176 9t-176 -9t-168 -34q-86 -24 -151 -64t-109 -106t-53 -153l-14 -149h-160l14 164q27 246 237 377t580 131zM1024 1765q-116 1 -204 -89t-88 -209
q0 -164 84 -274t208 -110t208 110t84 274q0 119 -88 209t-204 89zM1024 928q-192 0 -320 154t-128 385q0 120 61 225q61 104 165 166t222 62t222 -62t165 -166q61 -105 61 -225q0 -231 -128 -385t-320 -154z" />
    <glyph glyph-name="users" unicode="AVATARS" 
d="M473 1440q-1 -104 51 -168t132 -64t132 64t51 168q0 103 -61 135q-61 33 -122 33q-62 0 -122 -33q-61 -32 -61 -135zM656 1056q-144 0 -240 108t-96 263q0 153 92 243t244 90t244 -90t92 -243q0 -155 -96 -263t-240 -108zM1420 1447q-179 0 -179 -162q-1 -85 47 -145
t120 -59q72 -1 120 59t47 160q1 100 -91 134q-36 14 -64 13zM1408 928q-136 0 -228 104t-92 250t90 232t230 86t230 -86t90 -232t-92 -250t-228 -104zM656 960q134 0 240 -27q183 -47 269 -162q66 -88 77 -199l6 -188h-155l-4 177q-12 119 -123 181q-112 62 -310 61
q-198 1 -309 -61t-123 -183l-5 -175h-152l4 187q11 110 65 183q52 72 114 112t167 67t239 27zM1410 675q-43 0 -79 -3q-23 82 -69 149q72 11 148 11q238 0 378 -96t157 -271l7 -81h-154l-6 70q-21 221 -382 221z" />
    <glyph glyph-name="man" unicode="MAN" 
d="M555 797h7q40 -225 184 -382t310 -157q110 0 214 72t178 195q74 124 102 272h8q49 0 88 34q48 49 50 107q3 116 -84 147q33 106 47 227q28 234 -85 342q-89 84 -223 72q-45 -4 -70 -14l-36 -14l-34 19l-3 2q-159 90 -317 100q-159 9 -277 -87q-151 -121 -197 -308
q-75 34 -142 83q86 246 268 372q290 201 715 -7q74 21 157 14q161 -14 269 -117q60 -57 94 -137q56 -130 43 -298q-8 -103 -31 -188q69 -86 65 -214t-102 -218q-34 -30 -65 -46q-74 -248 -250 -410t-382 -162t-382 162t-250 410q-33 17 -65 46q-98 90 -102 219t68 217
q-86 35 -192 106l97 128q16 -16 84 -52q223 -117 408 -75q186 43 378 193q60 47 91 78l55 55l283 -264q-8 -83 -20 -127q-11 -44 -13 -50t-3 -8l-246 229q-238 -203 -494 -261q-63 -14 -133 -14l-92 5q-50 -6 -82 -47t-31 -104q2 -63 51 -111q39 -34 89 -34zM1152 880
q0 46 33 79t79 33t79 -33t33 -79t-33 -79t-79 -33t-79 33t-33 79zM736 880q0 46 33 79t79 33t79 -33t33 -79t-33 -79t-79 -33t-79 33t-33 79z" />
    <glyph glyph-name="woman" unicode="WOMAN" 
d="M1088 96q-214 0 -395 192h-536l-18 54q-117 337 -105 661t148 562q188 327 543 400q319 64 620 -78q104 41 248 28t261 -146q227 -258 224 -665q-3 -408 -162 -816h-167q93 219 137 433q44 215 36 389q-16 362 -178 545q-44 50 -98 76q-86 41 -179 23q-52 -10 -85 -26
l-39 -21l-38 22q-70 43 -168 66q-99 22 -149 27q-282 28 -484 -123q-112 -84 -186 -213q-114 -198 -126 -474t77 -564h308q-57 100 -87 207q55 80 123 158q23 -153 95 -283t172 -205t208 -75t210 77t174 209q107 198 100 422q-190 171 -333 422q-231 -60 -423 -202
t-394 -396l-118 109q245 310 473 456t486 203l61 13l27 -55l1 -3q106 -199 254 -356q58 -62 117 -109q2 -20 4 -62l1 -45q-6 -273 -128 -487q-92 -162 -228 -256t-284 -94zM1408 880q0 -46 -33 -79t-79 -33t-79 33t-33 79t33 79t79 33t79 -33t33 -79zM992 880q0 -46 -33 -79
t-79 -33t-79 33t-33 79t33 79t79 33t79 -33t33 -79z" />
    <glyph glyph-name="lightbulb" unicode="IDEA" 
d="M832 32v160h416v-160h-416zM672 320v160h736v-160h-736zM1408 780v-172h-160v172q0 60 18 114t37 81q19 28 62 83q43 54 70 112t35 153q7 21 -2 87q-16 119 -86 195q-112 123 -342 123q-300 0 -396 -206q-28 -61 -33 -124t-1 -75q9 -95 32 -145t94 -149q28 -35 44 -60
t34 -77t18 -112v-172h-160v172q0 63 -17 88q-17 26 -69 93q-52 69 -88 147t-47 195t23 224t106 186q160 175 460 175t460 -175q72 -79 106 -186t23 -224t-46 -193t-85 -141t-70 -95q-20 -29 -20 -94zM1120 608h-160v479l-180 180l113 113l147 -147l147 147l113 -113
l-180 -180v-479z" />
    <glyph glyph-name="droplet" unicode="DROPLET" 
d="M768 864q0 -122 88 -207l-112 -114q-136 131 -136 321q0 128 64 232t326 384l116 -110q-246 -262 -296 -342t-50 -164zM1056 288q118 0 224 46t184 122q78 78 122 184q46 106 46 224q0 166 -90 308t-486 553q-396 -411 -486 -553t-90 -308q0 -118 46 -224t122 -184
q78 -78 184 -122q106 -46 224 -46zM1792 864q0 -150 -58 -286t-158 -234q-98 -98 -234 -158q-136 -58 -286 -58t-286 58t-234 158q-98 98 -158 234q-58 136 -58 286q0 211 112 391q53 85 227 279t340 361l57 57l57 -57q166 -166 340 -361q174 -194 227 -279
q112 -180 112 -391z" />
    <glyph glyph-name="chat" unicode="COMMENT" 
d="M1696 976v416q0 86 -61 147t-147 61h-928q-86 0 -147 -61t-61 -147v-416q0 -86 61 -147t147 -61h240v-286l297 286h391q86 0 147 61t61 147zM1488 1760q152 0 260 -108t108 -260v-416q0 -152 -108 -260t-260 -108h-327l-385 -362q-24 -22 -48 -22t-42 8t-32 28t-14 44
v304h-80q-152 0 -260 108t-108 260v416q0 152 108 260t260 108h928z" />
    <glyph glyph-name="creditcard" unicode="CREDIT&#x20;CARD" 
d="M480 768v160h288v-160h-288zM1648 576q46 0 79 33t33 79v432h-1472v-432q0 -46 33 -79t79 -33h1248zM400 1504q-46 0 -79 -33t-33 -79v-112h1472v112q0 46 -33 79t-79 33h-1248zM1648 1664q112 0 192 -80t80 -192v-704q0 -112 -80 -192t-192 -80h-1248q-112 0 -192 80
t-80 192v704q0 112 80 192t192 80h1248z" />
    <glyph glyph-name="desktop" unicode="Computer" 
d="M1728 672v960h-1408v-960h1408zM889 352h270l-55 160h-160zM1888 1792v-1280h-585l54 -160h211v-160h-1088v160h211l54 160h-585v1280h1728zM900 1067l-94 -179l-230 616l616 -230l-179 -94l209 -209l-113 -113z" />
    <glyph glyph-name="briefcase" unicode="BRIEFCASE" 
d="M1728 352v864h-832v160h384v192h-512v-352h-448v-864h1408zM1440 1376h448v-1184h-1728v1184h448v208q0 60 42 102t102 42h544q60 0 102 -42t42 -102v-208z" />
    <glyph glyph-name="floppydisk" unicode="FLOPPY&#x20;DISK" 
d="M1376 1152v480h-704v-480h416v352h160v-352h128zM1856 160h-1664v1632h160v-1472h1344v1144l-160 159v-631h-1024v800h1082l262 -261v-1371z" />
    <glyph glyph-name="folder" unicode="Folder" 
d="M352 449h1407v991h-887l-73 159h-447v-1150zM1919 289h-1726v1470h709l73 -160h944v-1310z" />
    <glyph glyph-name="openfolder" unicode="OPEN&#x20;FOLDER" 
d="M1429 416q21 0 31 7t20 33q12 26 240 568h-860q-244 -551 -269 -608h838zM376 256q-101 0 -158 76q-58 76 -58 195v1105h642l64 -160h766v-160h-874l-65 160h-373v-945q0 -94 39 -108q19 -8 41 1t34 36l322 728h1204q-308 -738 -333 -794q-61 -134 -198 -134h-1053z" />
    <glyph glyph-name="file" unicode="FILE" 
d="M1344 1248v-160h-672v160h672zM1344 1536v-160h-672v160h672zM960 448v480h480v-160h-320v-320h-160zM1568 1728h-1120v-1408h689l431 433v975zM288 1888h1440v-1201l-524 -527h-916v1728z" />
    <glyph glyph-name="barchart" unicode="BAR&#x20;CHART" 
d="M928 1632v-1376h192v1376h-192zM768 96v1696h512v-1696h-512zM1824 256v704h-192v-704h192zM1472 1120h512v-1024h-512v1024zM224 1184v-928h192v928h-192zM64 96v1248h512v-1248h-512z" />
    <glyph glyph-name="attach" unicode="Attachment" 
d="M751 128q-171 0 -303 132t-123 313q9 182 160 333q248 248 387 386q90 92 210 86t204 -89t88 -202q5 -119 -87 -209l-365 -364l-114 114l365 363q42 42 40 94q-3 52 -42 91q-39 40 -91 42t-94 -40l-387 -386q-104 -104 -113 -219t77 -201q87 -86 201 -83t225 114l552 549
q142 142 148 308q5 166 -133 304t-300 132t-309 -152l-529 -528l-114 114l529 527q191 191 421 199t418 -180t179 -420q-10 -232 -197 -417l-551 -549q-154 -156 -340 -162h-12z" />
    <glyph glyph-name="notebook" unicode="Notebook" 
d="M384 1888h1536v-1696h-1536v288h-192v160h480v-160h-128v-128h1216v1376h-1216v-128h-160v288zM384 1184v128h-192v160h480v-160h-128v-128h-160zM384 768v128h-192v160h480v-160h-128v-128h-160zM1344 1056v256h-352v-256h352zM832 1472h672v-576h-672v576z" />
    <glyph glyph-name="book" unicode="BOOK" 
d="M480 605q0 -24 12 -34q12 -11 80 -39q66 -28 644 -226v864q-375 138 -736 281v-846zM320 605v1055q0 116 84 180q64 48 158 48h1166v-1472h-160v1312h-1006q-64 0 -76 -31t0 -56t48 -40q38 -15 238 -91t375 -142q176 -66 178 -68l51 -19v-1200q-864 301 -920 327
q-136 62 -136 197z" />
    <glyph glyph-name="compose" unicode="Compose" 
d="M1824 1700q0 20 -13 34l-76 77q-13 13 -34 13t-34 -13l-89 -90l144 -144l89 90q13 13 13 33zM1122 977l487 487l-144 144l-487 -487l-49 -157l36 -35zM1984 1700q0 -86 -61 -146l-259 -259v-1071h-1408v1664h1065l-20 -19l-130 -141h-755v-1344h1088v751l-298 -298
l-534 -165l166 534l717 717q59 61 146 61t146 -61l76 -76q61 -61 61 -147z" />
    <glyph glyph-name="phone" unicode="CALL" 
d="M497 288h1q186 2 496 197q309 195 505 505q196 311 198 495q1 81 -89 159t-209 111h-1q-140 -315 -170 -375q0 -1 2 -3l171 -171l-24 -51q-83 -166 -231 -315t-317 -233l-51 -25l-174 174q-48 -24 -146 -66q-104 -49 -230 -104v-2q34 -116 111 -206t158 -90zM497 128
q-150 0 -263 127q-114 127 -159 285q-21 73 -1 117q20 45 90 75t188 84t174 79t98 25t95 -53l89 -89q251 150 398 397l-89 90q-87 85 -32 187q21 44 79 171t78 171q27 60 52 93q26 33 67 33t101 -17q139 -40 267 -154q129 -115 127 -275q-2 -159 -128 -409t-343 -467
q-217 -216 -467 -342t-418 -128h-3z" />
    <glyph glyph-name="fax" unicode="Fax" 
d="M1164 868q6 2 38 -6q34 -10 72 -44t38 -82q0 -46 -43 -130t-117 -158t-158 -117q-84 -42 -131 -43q-47 0 -81 38t-44 71t-8 39t22 14t80 36t66 28t17 -11l47 -47q108 52 182 182l-47 47q-14 14 -8 29q6 14 29 64q24 50 32 69t14 21zM1728 1440v-160h-160v160h160z
M608 992v-832h832v832h-832zM448 0v1152h1152v-1152h-1152zM1808 1728q86 0 147 -61t61 -147v-640q0 -86 -61 -147t-147 -61h-80v160h80q20 0 34 14t14 34v640q0 20 -14 34t-34 14h-1568q-20 0 -34 -14t-14 -34v-640q0 -20 14 -34t34 -14h80v-160h-80q-86 0 -147 61t-61 147
v640q0 86 61 147t147 61h1568z" />
    <glyph glyph-name="outbox" unicode="Outbox" 
d="M1088 1024h-160v519l-210 -210l-113 113l403 404l403 -404l-113 -113l-210 210v-519zM288 352h1440v352h-428q-32 -80 -104 -136t-188 -56t-188 56t-104 136h-428v-352zM1888 192h-1760v658l202 590h169l-197 -576h545l9 -70q4 -27 24 -59q39 -63 137 -63q97 0 134 91
q6 15 9 30v1l9 70h545l-197 576h169l202 -590v-658z" />
    <glyph glyph-name="inbox" unicode="INBOX" 
d="M960 1856h160v-519l210 210l113 -113l-403 -404l-403 404l113 113l210 -210v519zM320 352h1440v352h-428q-32 -80 -104 -136t-188 -56t-188 56t-104 136h-428v-352zM1920 192h-1760v658l202 590h169l-197 -576h545l9 -70q4 -27 24 -59q39 -63 137 -63q97 0 134 91
q6 15 9 30v1l9 70h545l-197 576h169l202 -590v-658z" />
    <glyph glyph-name="box" unicode="BOX" 
d="M1760 448v864h-512v160h469l-211 288h-386v-448h-160v448h-386l-211 -288h469v-160h-512v-864h1440zM1920 288h-1760v1178l333 454h1094l333 -454v-1178z" />
    <glyph glyph-name="newspaper" unicode="Newspaper" 
d="M1120 1344v-288h384v288h-384zM1664 1504v-608h-704v608h704zM1664 768v-160h-704v160h704zM1792 624v1008h-960v-1008q0 -114 -65 -208h817q86 0 147 61t61 147zM672 1792h1280v-1168q0 -152 -108 -260t-260 -108h-1120q-152 0 -260 108t-108 260v944q0 92 66 158
t158 66t158 -66t66 -158v-800h-160v800q0 26 -19 45t-45 19t-45 -19t-19 -45v-944q0 -86 61 -147t147 -61t147 61t61 147v1168z" />
    <glyph glyph-name="cell" unicode="Cell&#x20;phone" 
d="M896 1248v-160h288v160h-288zM736 928v480h608v-480h-608zM1472 336v1184q0 20 -14 34t-34 14h-592v208q0 20 -14 34t-34 14h-128q-20 0 -34 -14t-14 -34v-1440q0 -20 14 -34t34 -14h768q20 0 34 14t14 34zM1424 1728q86 0 147 -61t61 -147v-1184q0 -86 -61 -147
t-147 -61h-768q-86 0 -147 61t-61 147v1440q0 86 61 147t147 61h128q86 0 147 -61t61 -147v-48h432z" />
    <glyph glyph-name="camera" unicode="CAMERA" 
d="M1024 1158q-134 0 -230 -96t-96 -230t96 -230t230 -96t230 96t96 230t-96 230t-230 96zM1024 352q-130 0 -240 64t-176 176q-64 110 -64 240t64 240t176 176q110 64 240 64t240 -64t176 -176q64 -110 64 -240t-64 -240t-176 -176q-110 -64 -240 -64zM1645 1504
q101 0 172 -72t71 -173v-658q0 -101 -72 -175t-171 -74h-249q74 41 144 160h105q35 0 59 26t24 63v658q0 37 -24 61t-59 24h-238l-111 192h-538l-113 -192h-242q-35 0 -59 -24t-24 -61v-658q0 -37 24 -63t59 -26h105q71 -119 144 -160h-249q-99 0 -171 74t-72 175v658
q0 101 71 173t172 72h151l113 192h720l112 -192h146z" />
    <glyph glyph-name="video" unicode="VIDEOCAMERA" 
d="M1248 640h-736v160h736v-160zM1824 668v392l-192 -79v-234zM1896 1248q30 0 59 -29t29 -72v-566q0 -43 -29 -72t-59 -29t-52 8l-212 87v-47q0 -100 -70 -170t-170 -70h-1024q-100 0 -170 70t-70 170v640q0 100 70 170t170 70h603l54 -160h-657q-32 0 -56 -24t-24 -56
v-640q0 -32 24 -56t56 -24h1024q32 0 56 24t24 56v640q0 32 -24 56t-56 24h-198l-108 320h-734v160h791q26 0 47 -15t29 -39l90 -266h83q100 0 170 -70t70 -170v-15l212 87q22 8 52 8z" />
    <glyph glyph-name="shuffle" unicode="SHUFFLE" 
d="M419 1472h-355v160h355q228 0 351 -221q15 -26 66 -111q-26 -44 -94 -155q-92 153 -122 207q-68 120 -201 120zM1420 384q-229 0 -351 220q-26 46 -149 250q-90 -147 -150 -250q-122 -220 -351 -220h-355v160h355q135 0 212 138q39 72 126 213l105 171q10 16 26 42t34 57
q20 31 42 67t40 69q20 33 38 63t27 47q123 221 351 221h306l-212 213l114 113l405 -407l-405 -407l-114 112l215 216h-309q-134 0 -211 -139q-46 -82 -195 -326q155 -253 195 -325q77 -138 211 -138h306l-212 213l114 113l405 -407l-405 -407l-114 113l215 215h-309z" />
    <glyph glyph-name="repeat" unicode="REPEAT" 
d="M1888 1056q0 -150 -66 -264t-182 -182q-114 -66 -248 -66h-708l215 -214l-113 -114l-408 408l408 407l113 -113l-214 -214h707q140 0 238 98t98 238q0 99 -54 182l114 115q100 -131 100 -281zM352 1040q0 -99 54 -183l-114 -114q-100 132 -100 282t66 264q66 115 182 181
q114 66 248 66h708l-215 214l114 113l407 -407l-407 -407l-114 113l215 214h-708q-140 0 -238 -98t-98 -238z" />
    <glyph glyph-name="volume" unicode="Speaker" 
d="M832 831l223 -34l193 -163v784l-195 -164l-221 -21v-402zM1408 291l-422 355l-314 48v684l316 31l420 352v-1470z" />
    <glyph glyph-name="lowvolume" unicode="LOW&#x20;VOLUME" 
d="M1597 1022q0 -268 -132 -493l-131 94q103 185 103 399t-109 404l131 93q138 -229 138 -497zM1024 1418l-195 -164l-221 -21v-402l223 -34l193 -163v784zM448 1378l316 31l420 352v-1470l-422 355l-314 48v684z" />
    <glyph glyph-name="highvolume" unicode="HIGH&#x20;VOLUME" 
d="M1920 1022q0 -452 -240 -831l-130 93q210 336 210 738t-216 742l130 93q246 -383 246 -835zM1630 1023q0 -358 -185 -662l-131 93q156 262 156 570t-162 570l131 93q191 -306 191 -664zM1341 1022q0 -268 -132 -493l-131 94q103 185 103 399t-109 404l131 93
q138 -229 138 -497zM768 1418l-195 -164l-221 -21v-402l223 -34l193 -163v784zM192 1378l316 31l420 352v-1470l-422 355l-314 48v684z" />
    <glyph glyph-name="battery" unicode="BATTERY" 
d="M1248 768v512h160v-512h-160zM960 768v512h160v-512h-160zM672 768v512h160v-512h-160zM384 768v512h160v-512h-160zM1824 908v228q0 20 -13 34t-32 14h-83v-320h83q21 0 33 12t12 32zM1536 688v672q0 20 -14 34t-34 14h-1184q-20 0 -34 -14t-14 -34v-672q0 -20 14 -34
t34 -14h1184q20 0 34 14t14 34zM1779 1344q85 0 145 -60t60 -148v-228q0 -86 -60 -145t-145 -59h-83v-16q0 -86 -61 -147t-147 -61h-1184q-86 0 -147 61t-61 147v672q0 86 61 147t147 61h1184q86 0 147 -61t61 -147v-16h83z" />
    <glyph glyph-name="search" unicode="SEARCH" 
d="M881 673q205 1 349 145t145 348q0 204 -144 351q-147 144 -351 144q-204 -1 -348 -145t-145 -349q1 -205 145 -349t349 -145zM881 514q-269 0 -462 191q-191 191 -191 462t191 462q193 191 463 191t462 -190t191 -463q0 -224 -139 -402l421 -421l-113 -113l-421 421
q-177 -138 -402 -138z" />
    <glyph glyph-name="key" unicode="KEY" 
d="M1746 1280h-776q-56 102 -157 163t-221 61q-178 0 -305 -127t-127 -305t127 -305t305 -127q120 0 221 61t157 163h209l175 195l148 -141l145 137l133 -129q32 42 67 92q72 104 24 194q-36 68 -125 68zM601 480q-129 0 -239 47t-188 126q-80 79 -127 189t-47 250t80 276
t216 216t285 80t269 -60t205 -164h691q187 0 269 -157q39 -77 31 -173t-64 -178q-88 -126 -132 -176l-55 -66l-149 144l-145 -137l-138 132l-113 -125h-195q-85 -104 -205 -164t-249 -60zM464 1216q60 0 102 -42t42 -102t-42 -102t-102 -42t-102 42t-42 102t42 102t102 42z
" />
    <glyph glyph-name="lock" unicode="Locked" 
d="M1504 304v576q0 20 -14 34t-34 14h-752v160h608v144q0 152 -108 260t-260 108t-260 -108t-108 -260v-304h-144q-20 0 -34 -14t-14 -34v-576q0 -20 14 -34t34 -14h1024q20 0 34 14t14 34zM1664 880v-576q0 -86 -61 -147t-147 -61h-1024q-86 0 -147 61t-61 147v576
q0 81 56 141t136 66v145q0 142 71 264t193 193t264 71t264 -71t193 -193t71 -264v-145q80 -6 136 -66t56 -141zM944 768q60 0 102 -42t42 -111q0 -68 -64 -111v-120h-160v120q-64 43 -64 111q0 69 42 111t102 42z" />
    <glyph glyph-name="unlock" unicode="INSECURE" 
d="M1456 1088q86 0 147 -61t61 -147v-576q0 -86 -61 -147t-147 -61h-1024q-86 0 -147 61t-61 147v576q0 79 52 138t131 68l-23 61q-75 197 18 404q41 91 119 163t178 110q206 75 404 -18t273 -298l34 -93l-150 -55l-34 93q-52 142 -190 208q-139 65 -281 13
q-141 -52 -207 -190t-14 -282l100 -274h-202q-20 0 -34 -14t-14 -34v-576q0 -20 14 -34t34 -14h1024q20 0 34 14t14 34v576q0 20 -14 34t-34 14h-685l-59 160h744zM1024 384h-160v120q-64 43 -64 111q0 69 42 111t102 42t102 -42t42 -111q0 -68 -64 -111v-120z" />
    <glyph glyph-name="notifications" unicode="Bell" 
d="M1024 157q50 -1 90 27t58 72h166q-22 -112 -110 -184t-204 -72t-204 72t-110 184h166q18 -44 58 -72t90 -27zM1032 1635h-12q-156 0 -290 -55l-19 -265q-20 -264 -128 -457t-214 -314h1311q-305 348 -338 771l-19 265q-134 55 -291 55zM1888 384h-1728v178l27 24
q34 23 104 114q69 92 119 176t91 206t50 244l26 351l36 21q57 37 178 65q120 29 229 29h12q239 0 408 -94l36 -21l26 -351q23 -313 238 -601q54 -72 122 -140l26 -24v-177z" />
    <glyph glyph-name="notificationsdisabled" unicode="BELL&#x20;DISABLED" 
d="M1020 1635q-94 0 -181 -21l550 -549q-37 124 -47 250l-19 265q-134 55 -291 55h-12zM1020 1792h12q239 0 408 -94l36 -21l26 -351q22 -280 198 -544q40 -60 84 -112l297 -297l-114 -113l-1668 1668l113 113l300 -300q145 51 308 51zM160 384v178l27 24q34 23 104 114
q69 92 119 176t91 206t50 244l12 157l149 -150q-15 -271 -141 -497q-96 -172 -202 -292h1132l160 -160h-1501zM1024 157q50 -1 90 27t58 72h166q-21 -111 -109 -182t-205 -71t-205 71t-109 182h166q18 -44 58 -72t90 -27z" />
    <glyph glyph-name="bookmark" unicode="BOOKMARK" 
d="M871 1792q-79 0 -117 -26t-94 -108q-116 -174 -255 -474h918l298 608h-750zM1248 448v-386l-352 224l-352 -224v386h-136q-280 0 -280 363q0 134 34 215q196 466 365 719q51 74 93 116q92 91 251 91h1007l-455 -928h-1015q-69 0 -95 -50q-25 -50 -25 -135t8 -126
q15 -74 45 -89q29 -16 67 -16h136v224h160v-478l192 122l192 -122v478h160v-224h171l298 672h175l-368 -832h-276z" />
    <glyph glyph-name="link" unicode="LINK" 
d="M783 702l-113 113l554 554l113 -113zM1824 1374q0 -138 -98 -236l-109 -109q-98 -98 -236 -98q-97 0 -177 51l118 118q32 -10 59 -10q72 0 123 51l110 110q51 51 51 123t-51 124l-148 148q-50 51 -124 51t-123 -51l-110 -110q-51 -49 -51 -123q0 -30 11 -60l-118 -118
q-52 80 -52 178q0 137 97 236l110 110q99 97 236 97t236 -97l148 -149q98 -98 98 -236zM1119 667q0 -137 -97 -236l-111 -110q-99 -97 -236 -97t-237 98l-148 148q-98 98 -98 236t98 236l110 110q99 97 236 97q98 0 179 -52l-118 -118q-31 11 -61 11q-73 0 -124 -51
l-110 -110q-51 -51 -51 -123t51 -124l149 -148q51 -51 124 -51t124 51l110 110q37 36 47 86t-7 96l119 118q51 -80 51 -177z" />
    <glyph glyph-name="ban" unicode="BAN" 
d="M1021 416q179 0 315 80t216 216t80 315t-121 339l-829 -829q160 -121 339 -121zM448 1008q0 -198 121 -358l829 829q-160 121 -358 121q-120 0 -230 -47t-189 -126t-126 -189t-47 -230zM1040 1760q153 0 292 -60t240 -160q100 -101 160 -240t60 -292t-60 -292t-160 -240
q-101 -100 -240 -160t-291 -60q-151 0 -289 57t-244 163t-163 244t-57 289q0 152 60 291t160 240q101 100 240 160t292 60z" />
    <glyph glyph-name="smoking" unicode="Cigarette" 
d="M352 1665q0 52 22 100q44 93 124 157t155 94l62 -148q-64 -21 -126 -79q-62 -57 -72 -102q-9 -45 1 -71t26 -44t42 -31t53 -25q26 -12 67 -21t72 -16q30 -7 82 -13t83 -10t87 -8t83 -6t113 -7q153 -9 288 -26q136 -17 204 -65t90 -122q38 -124 -23 -294h-173
q52 114 52 187q-1 72 -32 94q-32 23 -112 37t-148 19t-186 12q-119 7 -181 12q-61 5 -165 17t-164 30t-130 46q-127 52 -174 171q-20 60 -20 112zM0 320v480h1312v-160h-1152v-160h1152v-160h-1312zM1728 800h160v-480h-160v480zM1440 320v480h160v-480h-160z" />
    <glyph glyph-name="nosmoking" unicode="NO&#x20;SMOKING" 
d="M0 320v480h772l-112 -160h-500v-160h389l-111 -160h-438zM1312 800v-160h-318l-111 -160h429v-160h-540l-209 -302l-132 92l1195 1719l131 -91l-230 -331q133 -21 188 -61q104 -75 108 -189q4 -115 -38 -229h-173q52 114 52 187q-1 72 -39 99t-200 46l-319 -460h206z
M352 1665q0 52 22 100q44 93 123 157t155 94l62 -148q-66 -22 -127 -79t-70 -102t1 -71t26 -44t42 -31t53 -25q26 -12 67 -21t72 -16q30 -7 82 -13t83 -10t87 -8t83 -6q25 -2 55 -4t36 -2h9l-106 -154q-269 16 -363 38q-175 40 -257 94q-83 54 -109 127q-26 72 -26 124z
M1728 800h160v-480h-160v480zM1440 320v480h160v-480h-160z" />
    <glyph glyph-name="bike" unicode="BICYCLE" 
d="M416 1280v160h416v-160h-128l130 -342l448 445l-48 121h-178v160h287l363 -914l-148 -60l-211 531l-451 -446l52 -138l-149 -57l-267 700h-116zM2048 695q0 -163 -122 -285t-294 -122t-294 122t-122 282t94 275l75 -188q-12 -36 -12 -75q0 -107 76 -183t183 -76t183 76
t76 183q0 137 -114 214l-78 196q149 -24 249 -140t100 -279zM421 288q-177 0 -299 122t-122 294t122 294t294 122q13 0 41 -2l67 -180q-52 25 -108 25q-107 0 -183 -76t-76 -183t76 -183q77 -76 169 -76q92 1 156 43t94 111l68 -178q-122 -133 -299 -133z" />
    <glyph glyph-name=".null" horiz-adv-x="0" 
 />
    <glyph glyph-name="nonmarkingreturn" horiz-adv-x="682" 
 />
    <glyph glyph-name="space" unicode=" " horiz-adv-x="512" 
 />
    <glyph glyph-name="A" unicode="A" horiz-adv-x="1375" 
d="M905 607l-218 654l-237 -654h455zM1344 0h-218l-145 429h-595l-154 -429h-204l555 1479h230z" />
    <glyph glyph-name="B" unicode="B" horiz-adv-x="1375" 
d="M351 687v-519h462q193 0 257 163q37 93 4 197q-14 46 -50 83q-73 74 -277 76h-396zM351 1306v-455h389q139 1 206 61t71 150q-1 122 -63 181t-219 63h-384zM1287 440q-1 -130 -65 -232t-168 -155t-227 -53h-680v1479h668q165 0 280 -99t119 -275q0 -140 -86 -236
q-44 -50 -106 -73q117 -42 191 -134t74 -222z" />
    <glyph glyph-name="C" unicode="C" horiz-adv-x="1489" 
d="M178 320q-94 192 -93 431q0 239 113 438q112 197 322 281q220 88 484 12q130 -38 243 -149q112 -110 140 -300h-195q-30 147 -138 225t-262 79q-304 1 -424 -243q-70 -142 -74 -343q8 -307 160 -483q114 -132 302 -131q188 0 305 107t146 299h196q-35 -301 -261 -469
q-154 -113 -390 -114q-128 0 -250 49q-120 49 -196 127t-128 184z" />
    <glyph glyph-name="D" unicode="D" horiz-adv-x="1489" 
d="M1178 775q0 279 -138 423q-104 109 -284 108h-389v-1138h413q118 0 210 81t140 218t48 308zM164 0v1479h621q168 -1 313 -97q170 -112 242 -324q40 -120 42 -256t-22 -250q-50 -236 -197 -392q-146 -156 -371 -160h-628z" />
    <glyph glyph-name="E" unicode="E" horiz-adv-x="1375" 
d="M1266 0h-1093v1479h1081v-180h-879v-450h810v-178h-810v-493h891v-178z" />
    <glyph glyph-name="F" unicode="F" horiz-adv-x="1256" 
d="M1197 1299h-822v-450h725v-178h-725v-671h-202v1479h1024v-180z" />
    <glyph glyph-name="G" unicode="G" horiz-adv-x="1598" 
d="M1446 0h-128l-47 197q-70 -97 -200 -161t-286 -69q-421 0 -589 316q-100 188 -99 446q0 258 116 456q117 197 329 279q116 44 242 46q126 0 230 -31t190 -90t144 -152t74 -208h-192q-27 109 -95 180q-123 128 -341 128q-219 1 -356 -161t-137 -446t134 -444t352 -160
q173 0 310 106q91 74 125 158t39 226h-460v171h645v-787z" />
    <glyph glyph-name="H" unicode="H" horiz-adv-x="1489" 
d="M1332 0h-201v687h-773v-687h-202v1479h202v-614h773v614h201v-1479z" />
    <glyph glyph-name="I" unicode="I" horiz-adv-x="569" 
d="M386 0h-201v1479h201v-1479z" />
    <glyph glyph-name="J" unicode="J" horiz-adv-x="1029" 
d="M882 398q0 -330 -262 -412q-74 -24 -166 -25t-166 22q-133 41 -194 139q-61 97 -61 207v145h187v-104q0 -124 54 -182t173 -58q117 0 173 62t58 194v1093h204v-1081z" />
    <glyph glyph-name="K" unicode="K" horiz-adv-x="1375" 
d="M353 0h-201v1479h201v-720l718 720h275l-616 -597l633 -882h-258l-520 740l-232 -221v-519z" />
    <glyph glyph-name="L" unicode="L" horiz-adv-x="1147" 
d="M1105 0h-953v1479h201v-1301h752v-178z" />
    <glyph glyph-name="M" unicode="M" horiz-adv-x="1711" 
d="M1567 0h-197v1242l-412 -1242h-199l-422 1240v-1240h-190v1479h287l426 -1254l422 1254h285v-1479z" />
    <glyph glyph-name="N" unicode="N" horiz-adv-x="1489" 
d="M1332 0h-227l-754 1192v-1192h-195v1479h237l745 -1197v1197h194v-1479z" />
    <glyph glyph-name="O" unicode="O" horiz-adv-x="1598" 
d="M1318 738q0 266 -136 428t-372 164t-378 -158t-143 -430q0 -269 138 -430t378 -163q241 -1 377 161t136 428zM1519 748q0 -332 -162 -540q-182 -234 -553 -239q-416 0 -608 332q-110 190 -111 439q-1 396 253 614q178 153 466 156q320 0 510 -200q103 -109 154 -261
q51 -153 51 -301z" />
    <glyph glyph-name="P" unicode="P" horiz-adv-x="1375" 
d="M780 1306h-405v-514h398q295 0 298 270q0 244 -291 244zM375 623v-623h-202v1479h666q188 0 311 -109t128 -308q0 -220 -144 -342q-110 -93 -295 -97h-464z" />
    <glyph glyph-name="Q" unicode="Q" horiz-adv-x="1598" 
d="M1313 730q1 274 -135 436t-372 164t-378 -158t-141 -430q0 -270 137 -430t377 -165q119 0 216 47l-154 117l102 125l189 -144q159 164 159 438zM801 -31q-417 0 -609 332q-110 190 -111 439q-1 396 253 614q178 152 467 156q320 0 519 -209t199 -564t-215 -566l201 -157
l-97 -121l-228 178q-155 -102 -379 -102z" />
    <glyph glyph-name="R" unicode="R" horiz-adv-x="1489" 
d="M1124 1053q0 111 -58 180t-187 73h-523v-502h507q113 0 187 69t74 180zM356 631v-631h-202v1479h709q182 1 315 -95q66 -48 106 -128t43 -185q0 -230 -215 -343q79 -25 126 -87q46 -61 54 -135t18 -228q15 -227 74 -278h-225q-43 94 -53 336q-4 94 -6 114
q-26 178 -242 181h-502z" />
    <glyph glyph-name="S" unicode="S" horiz-adv-x="1375" 
d="M1273 415q-1 -145 -77 -247q-148 -199 -501 -199q-284 0 -438 127t-155 392h185q0 -218 180 -300q149 -68 340 -40q119 17 197 74q77 58 77 169q1 112 -77 164q-84 56 -396 123q-128 26 -180 44q-127 42 -202 121t-77 192q-4 207 122 341q125 134 388 134q381 0 517 -234
q22 -37 40 -106q19 -69 19 -129h-185q0 179 -164 255q-137 64 -304 40q-105 -15 -173 -76q-68 -60 -68 -179q0 -141 178 -180l422 -97q332 -74 332 -389z" />
    <glyph glyph-name="T" unicode="T" horiz-adv-x="1256" 
d="M1230 1299h-502v-1299h-202v1299h-498v180h1202v-180z" />
    <glyph glyph-name="U" unicode="U" horiz-adv-x="1489" 
d="M1327 486q0 -214 -147 -363t-439 -150q-293 -1 -435 129t-145 374v1003h202v-965q0 -171 95 -269q96 -98 274 -98q178 1 284 95t110 268v969h201v-993z" />
    <glyph glyph-name="V" unicode="V" horiz-adv-x="1375" 
d="M1330 1479l-538 -1479h-214l-538 1479h233l419 -1263l436 1263h202z" />
    <glyph glyph-name="W" unicode="W" horiz-adv-x="1941" 
d="M1911 1479l-392 -1479h-208l-337 1225l-346 -1225h-211l-384 1479h216l272 -1206l339 1206h216l339 -1206l273 1206h223z" />
    <glyph glyph-name="X" unicode="X" horiz-adv-x="1375" 
d="M1332 0h-249l-396 607l-410 -607h-239l529 759l-498 720h251l375 -566l376 566h240l-496 -723z" />
    <glyph glyph-name="Y" unicode="Y" horiz-adv-x="1375" 
d="M785 0h-200v590l-554 889h242l422 -711l424 711h223l-557 -889v-590z" />
    <glyph glyph-name="Z" unicode="Z" horiz-adv-x="1256" 
d="M1209 0h-1162v164l906 1137h-839v178h1095v-173l-910 -1126h910v-180z" />
    <glyph glyph-name="a" unicode="a" horiz-adv-x="1147" 
d="M787 358v194q-56 -36 -154 -51t-159 -31t-108 -38q-48 -21 -78 -62t-30 -108q0 -68 52 -108t122 -40t127 17t109 47t86 78t33 102zM974 -21q-168 0 -173 161q-154 -166 -389 -173q-151 0 -246 89t-95 214q0 172 119 252q96 65 249 91q153 25 218 37t100 48t35 79
q0 83 -64 133t-179 50q-117 0 -183 -53t-70 -160h-168q0 147 112 251t327 107q231 0 346 -139q61 -74 61 -179v-576q0 -60 22 -82t97 4v-133q-57 -21 -119 -21z" />
    <glyph glyph-name="b" unicode="b" horiz-adv-x="1147" 
d="M898 544q0 192 -79 296t-222 103q-81 -1 -143 -39t-96 -100q-64 -119 -64 -264q0 -404 313 -414q139 0 215 112q76 114 76 306zM613 -33q-105 1 -189 43t-130 123l-14 -133h-164v1479h185v-538q118 156 330 164q197 1 323 -149t134 -387q6 -178 -63 -338t-222 -227
q-85 -37 -190 -37z" />
    <glyph glyph-name="c" unicode="c" horiz-adv-x="1029" 
d="M550 133q223 0 265 246h176q-12 -111 -57 -194t-111 -129q-128 -89 -287 -89q-203 1 -340 159t-137 412q-1 140 39 251t108 179q138 139 342 139q206 0 330 -123q98 -97 113 -268h-173q-10 106 -84 166t-192 61q-119 0 -205 -91t-86 -288q0 -196 85 -314t214 -117z" />
    <glyph glyph-name="d" unicode="d" horiz-adv-x="1147" 
d="M254 544q0 -192 76 -306q76 -112 215 -112q313 10 313 414q0 144 -64 264q-32 62 -94 100t-145 39q-143 1 -222 -103t-79 -296zM851 1479h185v-1479h-164v152q-48 -82 -140 -134t-194 -51q-104 0 -189 37q-153 67 -222 227t-63 338q8 237 134 387t323 149
q210 -7 330 -164v538z" />
    <glyph glyph-name="e" unicode="e" horiz-adv-x="1147" 
d="M884 623q0 145 -87 235t-213 90t-218 -96q-91 -96 -96 -229h614zM270 476q0 -150 92 -246t226 -97q135 0 211 72t76 132h185q-30 -172 -161 -270t-321 -98q-114 1 -209 43t-157 116q-130 154 -134 379q0 270 140 436t365 166q159 1 273 -81q228 -164 218 -552h-804z" />
    <glyph glyph-name="f" unicode="f" horiz-adv-x="569" 
d="M458 1349q-50 0 -72 -25t-23 -84v-164h175v-163h-175v-913h-185v913h-150v163h150v199q0 98 74 164t191 66q55 0 95 -12v-149q-30 5 -80 5z" />
    <glyph glyph-name="g" unicode="g" horiz-adv-x="1228" 
d="M292 552q0 -302 197 -396q54 -26 113 -26q132 0 216 108t86 292q2 186 -82 289q-82 103 -212 103t-224 -94t-94 -276zM602 1105q98 0 180 -42t123 -110v130h181v-1036q0 -263 -128 -391t-368 -128t-348 142q-60 78 -62 197h180q0 -80 68 -125t160 -45q150 0 234 83
t83 253v64q-119 -128 -329 -128q-174 -1 -318 139q-68 66 -112 172q-44 105 -46 230q0 277 140 436t362 159z" />
    <glyph glyph-name="h" unicode="h" horiz-adv-x="1147" 
d="M1012 0h-185v704q0 117 -50 178t-166 61t-207 -86t-91 -272v-585h-185v1479h185v-547q55 85 147 128t167 45q75 1 124 -9q113 -24 187 -114q74 -91 74 -266v-716z" />
    <glyph glyph-name="i" unicode="i" horiz-adv-x="460" 
d="M318 0h-185v1076h185v-1076zM318 1271h-185v203h185v-203z" />
    <glyph glyph-name="j" unicode="j" horiz-adv-x="543" 
d="M405 1271h-185v208h185v-208zM405 -185q0 -106 -70 -175t-200 -69q-59 0 -92 7v157q41 -10 87 -10t68 29t22 101v1221h185v-1261z" />
    <glyph glyph-name="k" unicode="k" horiz-adv-x="1029" 
d="M313 0h-185v1479h185v-860l460 457h232l-429 -412l453 -664h-230l-356 526l-130 -128v-398z" />
    <glyph glyph-name="l" unicode="l" horiz-adv-x="460" 
d="M320 0h-187v1479h187v-1479z" />
    <glyph glyph-name="m" unicode="m" horiz-adv-x="1711" 
d="M301 924q116 181 337 181q190 0 282 -173q46 72 131 122t198 51q159 0 248 -98t89 -265v-742h-185v695q0 248 -199 248q-108 0 -177 -78t-74 -211v-654h-185v742q0 84 -42 142t-141 59q-99 0 -181 -81q-83 -81 -87 -277v-585h-185v1076h171v-152z" />
    <glyph glyph-name="n" unicode="n" horiz-adv-x="1147" 
d="M1012 0h-185v673q-1 199 -109 250q-42 20 -102 20q-130 -1 -216 -89t-87 -240v-614h-185v1076h175v-156q33 53 96 98q120 87 267 87q146 0 246 -96t100 -293v-716z" />
    <glyph glyph-name="o" unicode="o" horiz-adv-x="1147" 
d="M338 251q75 -122 238 -123q228 0 294 257q60 233 -49 419q-36 62 -100 100q-65 40 -145 41t-143 -38t-99 -101q-72 -126 -71 -280q0 -153 75 -275zM1081 560q-1 -134 -35 -235t-97 -179t-159 -126t-202 -50t-187 30q-152 57 -240 205t-88 318t58 298t174 207t271 79
q156 0 272 -79t174 -207q58 -127 59 -261z" />
    <glyph glyph-name="p" unicode="p" horiz-adv-x="1147" 
d="M296 536q0 -142 64 -264q33 -62 95 -100t145 -39q143 -1 222 103t79 296t-76 306q-76 113 -216 113q-313 -12 -313 -415zM303 -427h-187v1503h166v-152q48 82 140 134t194 51q104 0 189 -37q152 -66 222 -225t63 -340q-7 -237 -134 -386t-325 -149q-207 6 -328 163v-562z
" />
    <glyph glyph-name="q" unicode="q" horiz-adv-x="1147" 
d="M235 532q0 -192 80 -296t223 -103q185 1 261 189q40 99 40 214q0 404 -313 415q-140 0 -216 -113q-76 -114 -75 -306zM520 1109q104 -1 187 -43t130 -123l16 133h166v-1503h-185v562q-125 -157 -329 -163q-201 0 -328 144t-132 391q0 182 68 339q68 158 218 226
q85 38 189 37z" />
    <glyph glyph-name="r" unicode="r" horiz-adv-x="683" 
d="M609 913q-154 1 -250 -71t-96 -197v-645h-185v1076h178v-182q94 206 353 206v-187z" />
    <glyph glyph-name="s" unicode="s" horiz-adv-x="1029" 
d="M751 768q0 180 -253 180q-75 0 -109 -16q-35 -16 -57 -31q-46 -33 -48 -102t60 -99t177 -56q113 -27 147 -36t74 -24q104 -38 160 -99q56 -60 58 -160q0 -155 -114 -257t-310 -101q-316 -1 -420 203q-38 74 -45 176h178q0 -220 287 -220q100 0 172 43t72 125q0 44 -23 70
q-46 52 -349 124q-168 42 -234 106q-65 64 -65 169q1 163 115 253t293 91q99 0 175 -26t119 -63q108 -95 116 -250h-176z" />
    <glyph glyph-name="t" unicode="t" horiz-adv-x="569" 
d="M363 232q1 -111 89 -111q44 0 86 7v-152q-57 -12 -95 -12q-117 0 -191 67t-74 163v719h-140v163h140v304h185v-304h175v-163h-175v-681z" />
    <glyph glyph-name="u" unicode="u" horiz-adv-x="1147" 
d="M116 1076h187v-673q1 -199 109 -250q42 -20 102 -20q128 0 216 89t88 240v614h185v-1076h-178v156q-29 -50 -94 -97q-121 -87 -268 -87t-247 96t-100 292v716z" />
    <glyph glyph-name="v" unicode="v" horiz-adv-x="1029" 
d="M988 1076l-410 -1076h-194l-391 1076h206l294 -882l301 882h194z" />
    <glyph glyph-name="w" unicode="w" horiz-adv-x="1489" 
d="M1458 1076l-311 -1076h-189l-216 832l-216 -832h-189l-309 1076h197l204 -848l220 848h202l211 -848l216 848h180z" />
    <glyph glyph-name="x" unicode="x" horiz-adv-x="1029" 
d="M1007 0h-232l-265 405l-261 -405h-228l380 555l-361 521h233l248 -381l252 381h218l-363 -524z" />
    <glyph glyph-name="y" unicode="y" horiz-adv-x="1029" 
d="M1007 1076q-167 -472 -315 -866t-182 -461q-66 -133 -149 -171t-235 -5v166q120 -45 182 1q26 20 45 56l74 171l-403 1109h204l293 -879l292 879h194z" />
    <glyph glyph-name="z" unicode="z" horiz-adv-x="1029" 
d="M965 0h-901v140l647 784h-597v152h829v-149l-642 -780h664v-147z" />
  </font>
</defs>
</svg>
