<?xml version="1.0" encoding="utf-8"?>
<!DOCTYPE svg PUBLIC "-//W3C//DTD SVG 1.1//EN" "http://www.w3.org/Graphics/SVG/1.1/DTD/svg11.dtd">
<svg version="1.1" baseProfile="full"
 xmlns="http://www.w3.org/2000/svg"
 xmlns:xlink="http://www.w3.org/1999/xlink"
 xmlns:ev="http://www.w3.org/2001/xml-events" 
  height="172px" 
  width="174px" 
>
<defs>
<linearGradient id="PSgrad_0" x1="78.801%" x2="0%" y1="61.566%" y2="0%">
  <stop offset="0%" stop-color="rgb(0,158,219)" stop-opacity="1" />
  <stop offset="100%" stop-color="rgb(226,0,126)" stop-opacity="1" />
</linearGradient>

</defs><path fill="rgb( 240, 90, 0 )"
 d="M19.369,14.801 C19.369,14.801 0.93899999999996,120.76 0.93899999999996,120.76 C0.93899999999996,120.76 96.198,171.448 96.198,171.448 C96.198,171.448 173.498,96.822 173.498,96.822 C173.498,96.822 126.017,0.01099999999997 126.017,0.01099999999997 C126.017,0.01099999999997 19.369,14.801 19.369,14.801 Z "/>
<path fill="url(#PSgrad_0)"
 d="M19.369,14.801 C19.369,14.801 0.93899999999996,120.76 0.93899999999996,120.76 C0.93899999999996,120.76 96.198,171.448 96.198,171.448 C96.198,171.448 173.498,96.822 173.498,96.822 C173.498,96.822 126.017,0.01099999999997 126.017,0.01099999999997 C126.017,0.01099999999997 19.369,14.801 19.369,14.801 Z "/>
</svg>
