<?xml version="1.0" encoding="utf-8"?>
<!DOCTYPE svg PUBLIC "-//W3C//DTD SVG 1.1//EN" "http://www.w3.org/Graphics/SVG/1.1/DTD/svg11.dtd">
<svg version="1.1" baseProfile="full"
 xmlns="http://www.w3.org/2000/svg"
 xmlns:xlink="http://www.w3.org/1999/xlink"
 xmlns:ev="http://www.w3.org/2001/xml-events" 
  height="172px" 
  width="174px" 
>
<defs>
<linearGradient id="PSgrad_0" x1="78.801%" x2="0%" y1="61.566%" y2="0%">
  <stop offset="0%" stop-color="rgb(240,107,0)" stop-opacity="1" />
  <stop offset="100%" stop-color="rgb(255,217,2)" stop-opacity="1" />
</linearGradient>

</defs><path fill="rgb( 240, 90, 0 )"
 d="M0.83500000000004,74.511 C0.83500000000004,74.511 47.131,171.586 47.131,171.586 C47.131,171.586 154.151,157.788 154.151,157.788 C154.151,157.788 173.996,52.192 173.996,52.192 C173.996,52.192 79.244,0.72500000000002 79.244,0.72500000000002 C79.244,0.72500000000002 0.83500000000004,74.511 0.83500000000004,74.511 Z "/>
<path fill="url(#PSgrad_0)"
 d="M0.83500000000004,74.511 C0.83500000000004,74.511 47.131,171.586 47.131,171.586 C47.131,171.586 154.151,157.788 154.151,157.788 C154.151,157.788 173.996,52.192 173.996,52.192 C173.996,52.192 79.244,0.72500000000002 79.244,0.72500000000002 C79.244,0.72500000000002 0.83500000000004,74.511 0.83500000000004,74.511 Z "/>
</svg>
