<?xml version="1.0" encoding="utf-8"?>
<!DOCTYPE svg PUBLIC "-//W3C//DTD SVG 1.1//EN" "http://www.w3.org/Graphics/SVG/1.1/DTD/svg11.dtd">
<svg version="1.1" baseProfile="full"
 xmlns="http://www.w3.org/2000/svg"
 xmlns:xlink="http://www.w3.org/1999/xlink"
 xmlns:ev="http://www.w3.org/2001/xml-events" 
  height="172px" 
  width="174px" 
>
<defs>
<linearGradient id="PSgrad_0" x1="78.801%" x2="0%" y1="61.566%" y2="0%">
  <stop offset="0%" stop-color="rgb(173,200,41)" stop-opacity="1" />
  <stop offset="48%" stop-color="rgb(114,179,68)" stop-opacity="1" />
  <stop offset="100%" stop-color="rgb(54,157,94)" stop-opacity="1" />
</linearGradient>

</defs><path fill="rgb( 240, 90, 0 )"
 d="M20.7560000000001,13.984 C20.7560000000001,13.984 0.88999999999999,119.683 0.88999999999999,119.683 C0.88999999999999,119.683 95.452,171.659 95.452,171.659 C95.452,171.659 173.758,98.088 173.758,98.088 C173.758,98.088 127.594,0.64200000000005 127.594,0.64200000000005 C127.594,0.64200000000005 20.7560000000001,13.984 20.7560000000001,13.984 Z "/>
<path fill="url(#PSgrad_0)"
 d="M20.7560000000001,13.984 C20.7560000000001,13.984 0.88999999999999,119.683 0.88999999999999,119.683 C0.88999999999999,119.683 95.452,171.659 95.452,171.659 C95.452,171.659 173.758,98.088 173.758,98.088 C173.758,98.088 127.594,0.64200000000005 127.594,0.64200000000005 C127.594,0.64200000000005 20.7560000000001,13.984 20.7560000000001,13.984 Z "/>
</svg>
