<?xml version="1.0" encoding="iso-8859-1"?>
<!-- Generator: Adobe Illustrator 16.0.4, SVG Export Plug-In . SVG Version: 6.00 Build 0)  -->
<!DOCTYPE svg PUBLIC "-//W3C//DTD SVG 1.1//EN" "http://www.w3.org/Graphics/SVG/1.1/DTD/svg11.dtd">
<svg version="1.1" id="Layer_3" xmlns="http://www.w3.org/2000/svg" xmlns:xlink="http://www.w3.org/1999/xlink" x="0px" y="0px"
	 width="608.299px" height="438.146px" viewBox="0 0 608.299 438.146" style="enable-background:new 0 0 608.299 438.146;"
	 xml:space="preserve">
<g>
	<path style="fill:#231F20;" d="M13.77,52.783C13.77,22.409,36.719,0,67.902,0c19.305,0,31.724,10.8,37.124,22.274l-17.55,7.56
		c-3.104-7.425-12.015-12.825-22.273-12.825c-16.739,0-31.319,14.85-31.319,34.559c0,13.635,9.45,24.569,25.244,24.569
		c7.56,0,13.499-2.97,17.954-6.885l2.43-10.8H55.618l3.78-16.874h43.062l-7.829,34.963c-8.775,10.395-21.734,16.604-36.584,16.604
		C33.479,93.146,13.77,77.622,13.77,52.783z"/>
	<path style="fill:#231F20;" d="M108.538,91.526l19.845-90.042h19.304l-16.199,73.167h38.068l-3.645,16.875H108.538z"/>
	<path style="fill:#231F20;" d="M182.248,52.783C182.248,23.354,204.928,0,234.626,0c24.839,0,44.278,15.524,44.278,40.229
		c0,29.429-22.679,52.918-52.378,52.918C201.553,93.146,182.248,77.487,182.248,52.783z M258.79,41.579
		c0-15.12-10.935-24.569-25.379-24.569c-17.414,0-31.049,15.254-31.049,34.559c0,15.12,10.8,24.569,25.244,24.569
		C245.021,76.137,258.79,60.883,258.79,41.579z"/>
	<path style="fill:#231F20;" d="M283.904,91.526l19.844-90.042h43.738c15.659,0,24.435,10.125,24.435,21.599
		c0,12.015-9.585,22.409-20.52,23.489c8.37,2.16,12.96,10.26,12.96,18.089c0,12.689-8.775,26.864-31.319,26.864H283.904z
		 M345.191,62.908c0-5.13-3.779-8.775-9.854-8.775h-24.029l-4.454,20.519h24.839C340.332,74.652,345.191,69.252,345.191,62.908z
		 M351.401,26.459c0-4.59-4.05-8.1-9.045-8.1h-23.084l-4.185,18.899h24.164C348.566,37.259,351.401,31.724,351.401,26.459z"/>
	<path style="fill:#231F20;" d="M439.285,91.526l-2.294-15.254h-38.609l-8.909,15.254h-22.814l54.538-90.042h24.029l14.85,90.042
		H439.285z M429.971,20.654l-22.544,38.743h28.079L429.971,20.654z"/>
	<path style="fill:#231F20;" d="M470.337,91.526l19.845-90.042h19.304l-16.199,73.167h38.068l-3.645,16.875H470.337z"/>
	<path style="fill:#231F20;" d="M7.695,191.272l11.879-14.174c6.21,8.37,17.955,14.04,30.374,14.04
		c9.72,0,13.635-5.535,13.635-10.125c0-12.689-43.873-10.259-43.873-36.583c0-14.849,13.094-29.293,35.233-29.293
		c14.31,0,27.809,5.265,35.908,14.579l-12.015,13.77c-6.749-7.83-17.684-11.475-26.863-11.475c-6.885,0-12.015,4.05-12.015,8.91
		c0,11.745,44.008,10.26,44.008,36.313c0,16.469-13.229,30.914-35.503,30.914C30.779,208.146,15.255,201.262,7.695,191.272z"/>
	<path style="fill:#231F20;" d="M108.134,206.526l16.199-73.167H98.009l3.646-16.875h71.816l-3.645,16.875h-26.324l-16.064,73.167
		H108.134z"/>
	<path style="fill:#231F20;" d="M224.5,206.526l-2.294-15.254h-38.609l-8.909,15.254h-22.814l54.538-90.042h24.029l14.85,90.042
		H224.5z M215.186,135.654l-22.544,38.743h28.079L215.186,135.654z"/>
	<path style="fill:#231F20;" d="M308.065,206.526L297.4,174.533h-14.85l-7.02,31.994h-19.169l19.844-90.042h38.474
		c14.579,0,27.809,9.72,27.809,25.379c0,16.2-11.069,28.619-25.648,31.319l12.555,33.344H308.065z M306.445,157.658
		c9.989,0,16.064-5.805,16.064-13.904c0-6.075-5.535-10.395-11.475-10.395H291.73l-5.399,24.299h19.979H306.445z"/>
	<path style="fill:#231F20;" d="M362.605,206.526l16.199-73.167H352.48l3.646-16.875h71.816l-3.645,16.875h-26.324l-16.064,73.167
		H362.605z"/>
	<path style="fill:#231F20;" d="M430.373,176.692c0-1.755,0.405-4.725,0.676-6.209l11.879-53.998h19.439l-11.744,53.593
		c-0.271,0.81-0.54,2.565-0.54,4.455c0.135,9.044,6.749,16.739,19.438,16.739c13.77,0,20.52-8.64,23.354-21.194l11.744-53.593
		h19.574l-12.015,53.998c-4.725,21.869-16.063,37.664-42.658,37.664C443.738,208.146,430.373,195.457,430.373,176.692z"/>
	<path style="fill:#231F20;" d="M522.173,206.526l19.844-90.042h41.174c14.444,0,25.108,11.34,25.108,24.974
		c0,13.364-9.044,32.938-37.258,32.938h-22.544l-7.155,32.129H522.173z M572.256,157.523c9.584,0,16.064-6.075,16.064-14.04
		c0-5.94-4.59-10.125-11.205-10.125h-19.574l-5.399,24.164h19.979H572.256z"/>
	<path style="fill:#231F20;" d="M72.627,321.527l-2.294-15.255H31.724l-8.909,15.255H0l54.538-90.042h24.029l14.85,90.042H72.627z
		 M63.312,250.655l-22.544,38.743h28.079L63.312,250.655z"/>
	<path style="fill:#231F20;" d="M163.888,321.527l-2.159-61.828l-29.294,61.828H112.05l-5.939-90.042h21.06l1.35,65.067
		l31.454-65.067h14.984l2.699,65.067l30.104-65.067h22.004l-45.493,90.042H163.888z"/>
	<path style="fill:#231F20;" d="M277.154,321.527l-2.294-15.255h-38.609l-8.909,15.255h-22.814l54.538-90.042h24.029l14.85,90.042
		H277.154z M267.84,250.655l-22.544,38.743h28.079L267.84,250.655z"/>
	<path style="fill:#231F20;" d="M360.72,321.527l-10.665-31.994h-14.85l-7.02,31.994h-19.169l19.844-90.042h38.474
		c14.579,0,27.809,9.72,27.809,25.379c0,16.2-11.069,28.619-25.648,31.319l12.555,33.344H360.72z M359.1,272.659
		c9.989,0,16.064-5.805,16.064-13.904c0-6.075-5.535-10.395-11.475-10.395h-19.305l-5.399,24.299h19.979H359.1z"/>
	<path style="fill:#231F20;" d="M395.82,321.527l19.844-90.042h34.829c19.979,0,39.013,15.39,39.013,38.608
		c0,23.759-15.929,51.434-58.317,51.434H395.82z M418.77,304.652h15.929c21.734,0,34.964-15.254,34.964-33.208
		c0-13.094-9.449-23.084-22.679-23.084h-15.795L418.77,304.652z"/>
	<path style="fill:#231F20;" d="M493.694,306.272l11.879-14.174c6.21,8.37,17.955,14.04,30.374,14.04
		c9.72,0,13.635-5.535,13.635-10.125c0-12.689-43.873-10.259-43.873-36.583c0-14.849,13.094-29.293,35.233-29.293
		c14.31,0,27.809,5.265,35.908,14.579l-12.015,13.77c-6.749-7.83-17.684-11.475-26.863-11.475c-6.885,0-12.015,4.05-12.015,8.91
		c0,11.745,44.008,10.26,44.008,36.313c0,16.469-13.229,30.914-35.503,30.914C516.778,323.146,501.254,316.262,493.694,306.272z"/>
	<path style="fill:#231F20;" d="M7.695,421.273l11.879-14.176c6.21,8.369,17.955,14.039,30.374,14.039
		c9.72,0,13.635-5.533,13.635-10.123c0-12.689-43.873-10.26-43.873-36.584c0-14.85,13.094-29.295,35.233-29.295
		c14.31,0,27.809,5.266,35.908,14.58l-12.015,13.77c-6.749-7.83-17.684-11.475-26.863-11.475c-6.885,0-12.015,4.051-12.015,8.91
		c0,11.744,44.008,10.26,44.008,36.312c0,16.471-13.229,30.914-35.503,30.914C30.779,438.146,15.255,431.262,7.695,421.273z"/>
	<path style="fill:#231F20;" d="M158.486,436.527l-2.294-15.254h-38.609l-8.909,15.254H85.859l54.538-90.041h24.029l14.85,90.041
		H158.486z M149.172,365.654l-22.544,38.744h28.079L149.172,365.654z"/>
	<path style="fill:#231F20;" d="M258.926,436.527l-2.295-15.254h-38.609l-8.909,15.254h-22.814l54.538-90.041h24.029l14.85,90.041
		H258.926z M249.61,365.654l-22.544,38.744h28.079L249.61,365.654z"/>
	<path style="fill:#231F20;" d="M342.49,436.527l-10.665-31.994h-14.85l-7.02,31.994h-19.169l19.844-90.041h38.474
		c14.579,0,27.809,9.719,27.809,25.379c0,16.199-11.069,28.617-25.648,31.318l12.555,33.344H342.49z M340.87,387.658
		c9.989,0,16.064-5.805,16.064-13.904c0-6.074-5.535-10.395-11.475-10.395h-19.305l-5.399,24.299h19.979H340.87z"/>
	<path style="fill:#231F20;" d="M384.61,397.783c0-31.859,24.435-52.783,52.378-52.783c22.004,0,34.693,11.881,39.959,25.514
		l-18.359,6.211c-3.51-9.584-12.149-14.715-22.544-14.715c-17.01,0-31.319,14.715-31.319,34.559c0,14.039,9.72,24.568,25.244,24.568
		c7.694,0,16.064-4.049,21.194-10.395l14.85,9.99c-10.395,13.23-25.379,17.414-37.124,17.414
		C404.05,438.146,384.61,422.352,384.61,397.783z"/>
</g>
</svg>
