<?xml version="1.0" encoding="iso-8859-1"?>
<!-- Generator: Adobe Illustrator 16.0.0, SVG Export Plug-In . SVG Version: 6.00 Build 0)  -->
<!DOCTYPE svg PUBLIC "-//W3C//DTD SVG 1.1//EN" "http://www.w3.org/Graphics/SVG/1.1/DTD/svg11.dtd">
<svg version="1.1" id="Layer_1" xmlns="http://www.w3.org/2000/svg" xmlns:xlink="http://www.w3.org/1999/xlink" x="0px" y="0px"
	 width="61px" height="22px" viewBox="0 0 61 22" style="enable-background:new 0 0 61 22;" xml:space="preserve">
<path style="fill:#FFFFFF;" d="M11,14c-2.206,0-4,1.795-4,4s1.794,4,4,4s4-1.795,4-4S13.206,14,11,14z M11,20c-1.103,0-2-0.896-2-2
	s0.897-2,2-2s2,0.896,2,2S12.103,20,11,20z M41,6c0-0.552,0.447-1,1-1h4c0.553,0,1,0.448,1,1s-0.447,1-1,1h-4
	C41.447,7,41,6.552,41,6z M39,6c0,0.552-0.447,1-1,1h-4c-0.553,0-1-0.448-1-1s0.447-1,1-1h4C38.553,5,39,5.448,39,6z M18,7
	c-0.552,0-1-0.448-1-1s0.448-1,1-1h4c0.552,0,1,0.448,1,1s-0.448,1-1,1H18z M10,7C9.448,7,9,6.552,9,6s0.448-1,1-1h4
	c0.552,0,1,0.448,1,1s-0.448,1-1,1H10z M52,16c-0.553,0-1-0.447-1-1V4c0-0.552,0.447-1,1-1s1,0.448,1,1v11
	C53,15.553,52.553,16,52,16z M28,16c-0.552,0-1-0.447-1-1V4c0-0.552,0.448-1,1-1s1,0.448,1,1v11C29,15.553,28.552,16,28,16z
	 M60.965,11.737l-3-11C57.846,0.302,57.451,0,57,0H5C2.243,0,0,2.243,0,5v10c0,0.379,0.214,0.725,0.553,0.895l4,2
	c0.496,0.248,1.095,0.047,1.342-0.447c0.247-0.494,0.047-1.095-0.447-1.342L2,14.382V5c0-1.654,1.346-3,3-3h51.236L59,12.134V18H48
	c0-2.205-1.795-4-4-4s-4,1.795-4,4s1.795,4,4,4c1.474,0,2.75-0.811,3.443-2H60c0.553,0,1-0.447,1-1v-7
	C61,11.911,60.988,11.823,60.965,11.737z M44,20c-1.104,0-2-0.896-2-2s0.896-2,2-2s2,0.896,2,2S45.104,20,44,20z M36,18H23
	c0-2.205-1.794-4-4-4s-4,1.795-4,4s1.794,4,4,4c1.474,0,2.75-0.811,3.443-2H36c0.553,0,1-0.447,1-1S36.553,18,36,18z M19,20
	c-1.103,0-2-0.896-2-2s0.897-2,2-2s2,0.896,2,2S20.103,20,19,20z"/>
</svg>
