<?xml version="1.0" encoding="iso-8859-1"?>
<!-- Generator: Adobe Illustrator 16.0.0, SVG Export Plug-In . SVG Version: 6.00 Build 0)  -->
<!DOCTYPE svg PUBLIC "-//W3C//DTD SVG 1.1//EN" "http://www.w3.org/Graphics/SVG/1.1/DTD/svg11.dtd">
<svg version="1.1" id="Layer_1" xmlns="http://www.w3.org/2000/svg" xmlns:xlink="http://www.w3.org/1999/xlink" x="0px" y="0px"
	 width="59px" height="26px" viewBox="0 0 59 26" style="enable-background:new 0 0 59 26;" xml:space="preserve">
<path style="fill:#FFFFFF;" d="M10,16c-1.654,0-3,1.346-3,3s1.346,3,3,3s3-1.346,3-3S11.654,16,10,16z M10,20c-0.552,0-1-0.449-1-1
	s0.448-1,1-1c0.551,0,1,0.449,1,1S10.551,20,10,20z M48,16c-1.654,0-3,1.346-3,3s1.346,3,3,3s3-1.346,3-3S49.654,16,48,16z M48,20
	c-0.552,0-1-0.449-1-1s0.448-1,1-1c0.551,0,1,0.449,1,1S48.551,20,48,20z M38,8c0,0.553-0.448,1-1,1H8C7.447,9,7,8.553,7,8
	c0-0.552,0.447-1,1-1h9V5c0-0.552,0.447-1,1-1c0.552,0,1,0.448,1,1v2h18C37.552,7,38,7.448,38,8z M5.857,5.515l-2.911,4.851L2,15.1
	V20c0,0.553-0.448,1-1,1c-0.553,0-1-0.447-1-1v-5c0-0.066,0.006-0.132,0.02-0.196l1-5c0.022-0.112,0.063-0.22,0.123-0.318l3-5
	C4.427,4.012,5.04,3.858,5.515,4.143C5.988,4.427,6.142,5.041,5.857,5.515z M57.535,13.122l-3.045-3.045
	c-0.64-0.641-1.443-1.096-2.322-1.316l-6.721-1.68L36.613,0.21C36.438,0.074,36.222,0,36,0H5C4.447,0,4,0.448,4,1s0.447,1,1,1
	h30.656l8.729,6.79c0.11,0.085,0.236,0.147,0.371,0.181l6.926,1.731c0.527,0.132,1.009,0.405,1.394,0.789l3.045,3.045
	C56.688,15.102,57,15.855,57,16.656V21h-2.295C54.895,20.365,55,19.695,55,19c0-3.859-3.141-7-7-7c-3.86,0-7,3.141-7,7
	c0,3.86,3.14,7,7,7c2.373,0,4.47-1.189,5.736-3H58c0.552,0,1-0.447,1-1v-5.344C59,15.321,58.479,14.066,57.535,13.122z M48,24
	c-2.757,0-5-2.243-5-5s2.243-5,5-5s5,2.243,5,5S50.757,24,48,24z M37,21H16.705C16.895,20.365,17,19.695,17,19c0-3.859-3.141-7-7-7
	c-3.86,0-7,3.141-7,7c0,3.86,3.14,7,7,7c2.373,0,4.47-1.189,5.736-3H37c0.552,0,1-0.447,1-1S37.552,21,37,21z M10,24
	c-2.757,0-5-2.243-5-5s2.243-5,5-5s5,2.243,5,5S12.757,24,10,24z"/>
</svg>
