<?xml version="1.0" encoding="iso-8859-1"?>
<!-- Generator: Adobe Illustrator 16.0.0, SVG Export Plug-In . SVG Version: 6.00 Build 0)  -->
<!DOCTYPE svg PUBLIC "-//W3C//DTD SVG 1.1//EN" "http://www.w3.org/Graphics/SVG/1.1/DTD/svg11.dtd">
<svg version="1.1" id="Layer_1" xmlns="http://www.w3.org/2000/svg" xmlns:xlink="http://www.w3.org/1999/xlink" x="0px" y="0px"
	 width="48px" height="41.942px" viewBox="0 0 48 41.942" style="enable-background:new 0 0 48 41.942;" xml:space="preserve">
<path style="fill:#FFFFFF;" d="M13.427,8.807l10,6.99c0.172,0.12,0.372,0.181,0.573,0.181c0.2,0,0.401-0.061,0.573-0.181l10-6.99
	C34.841,8.619,35,8.313,35,7.988c0-0.326-0.159-0.631-0.427-0.818l-10-6.99c-0.344-0.24-0.803-0.24-1.146,0l-10,6.99
	C13.159,7.357,13,7.662,13,7.988C13,8.313,13.159,8.619,13.427,8.807z M24,2.217l8.256,5.771L24,13.76l-8.257-5.771L24,2.217z
	 M47.958,27.675l-3-9.987c-0.127-0.422-0.517-0.712-0.958-0.712H4c-0.441,0-0.831,0.29-0.958,0.712l-3,9.987
	C0.014,27.767,0,27.863,0,27.961v7.989c0,0.266,0.105,0.519,0.293,0.706l2,1.997C2.48,38.841,2.734,38.946,3,38.946h1.142
	c0.447,1.719,2,2.996,3.858,2.996c1.2,0,2.267-0.542,3-1.381c0.733,0.839,1.8,1.381,3,1.381c1.858,0,3.411-1.277,3.858-2.996h12.283
	c0.447,1.719,2,2.996,3.858,2.996c1.2,0,2.267-0.542,3-1.381c0.733,0.839,1.8,1.381,3,1.381c1.858,0,3.411-1.277,3.858-2.996H45
	c0.265,0,0.52-0.105,0.707-0.293l2-1.997C47.895,36.469,48,36.216,48,35.95v-7.989C48,27.863,47.985,27.767,47.958,27.675z
	 M8,39.944c-0.737,0-1.375-0.404-1.722-0.998h3.443C9.375,39.54,8.737,39.944,8,39.944z M14,39.944
	c-0.737,0-1.375-0.404-1.722-0.998h3.443C15.375,39.54,14.737,39.944,14,39.944z M34,39.944c-0.737,0-1.375-0.404-1.722-0.998h3.443
	C35.375,39.54,34.737,39.944,34,39.944z M40,39.944c-0.737,0-1.375-0.404-1.722-0.998h3.443C41.375,39.54,40.737,39.944,40,39.944z
	 M46,35.536l-1.414,1.412H3.414L2,35.536v-7.429l2.744-9.134h38.512L46,28.107V35.536z M36,21.969v12.983
	c0,0.552-0.448,0.998-1,0.998c-0.553,0-1-0.446-1-0.998V22.968h-4v11.984c0,0.552-0.448,0.998-1,0.998c-0.553,0-1-0.446-1-0.998
	V21.969c0-0.552,0.447-0.998,1-0.998h6C35.552,20.971,36,21.417,36,21.969z M43,26.962c0.552,0,1,0.447,1,0.999
	s-0.448,0.999-1,0.999h-4c-0.553,0-1-0.447-1-0.999v-5.992c0-0.552,0.447-0.998,1-0.998c0.552,0,1,0.446,1,0.998v4.993H43z
	 M10,27.961c0,0.552-0.448,0.999-1,0.999H5c-0.553,0-1-0.447-1-0.999s0.447-0.999,1-0.999h4C9.552,26.962,10,27.409,10,27.961z
	 M18,27.961c0,0.552-0.448,0.999-1,0.999h-4c-0.553,0-1-0.447-1-0.999s0.447-0.999,1-0.999h4C17.552,26.962,18,27.409,18,27.961z
	 M26,27.961c0,0.552-0.448,0.999-1,0.999h-4c-0.553,0-1-0.447-1-0.999s0.447-0.999,1-0.999h4C25.552,26.962,26,27.409,26,27.961z"/>
</svg>
