<?xml version="1.0" encoding="iso-8859-1"?>
<!-- Generator: Adobe Illustrator 16.0.0, SVG Export Plug-In . SVG Version: 6.00 Build 0)  -->
<!DOCTYPE svg PUBLIC "-//W3C//DTD SVG 1.1//EN" "http://www.w3.org/Graphics/SVG/1.1/DTD/svg11.dtd">
<svg version="1.1" id="Layer_1" xmlns="http://www.w3.org/2000/svg" xmlns:xlink="http://www.w3.org/1999/xlink" x="0px" y="0px"
	 width="66.918px" height="27.525px" viewBox="0 0 66.918 27.525" style="enable-background:new 0 0 66.918 27.525;"
	 xml:space="preserve">
<path style="fill:#FFFFFF;" d="M45.943,22.525H17.978c0-2.757-2.241-5-4.994-5s-4.994,2.243-4.994,5s2.24,5,4.994,5
	c2.042,0,3.798-1.237,4.571-3h28.389c0.552,0,0.999-0.447,0.999-1S46.495,22.525,45.943,22.525z M12.984,25.525
	c-1.652,0-2.996-1.346-2.996-3s1.344-3,2.996-3s2.997,1.346,2.997,3S14.636,25.525,12.984,25.525z M66.611,17.687l-2.996-2.883
	c-0.15-0.146-0.344-0.239-0.551-0.27l-13.842-1.979l-10.856-4.94c-0.13-0.06-0.271-0.09-0.413-0.09H19.976
	c-0.208,0-0.411,0.065-0.581,0.187l-6.775,4.845L2.896,13.53c-0.39,0.039-0.721,0.304-0.846,0.675l-1.998,5.925
	c-0.137,0.406,0,0.854,0.339,1.114l3.995,3.063c0.438,0.335,1.065,0.253,1.4-0.186c0.335-0.438,0.252-1.066-0.186-1.402
	l-3.428-2.628l1.563-4.636l9.347-0.936c0.173-0.018,0.339-0.08,0.481-0.182l6.731-4.813h17.441l10.791,4.91
	c0.086,0.04,0.178,0.066,0.271,0.08l13.664,1.954l2.457,2.364v3.691h-5.992c0-2.757-2.24-5-4.994-5s-4.994,2.243-4.994,5
	s2.24,5,4.994,5c2.043,0,3.798-1.237,4.57-3h7.415c0.552,0,0.999-0.447,0.999-1v-5.117C66.918,18.135,66.807,17.875,66.611,17.687z
	 M53.934,25.525c-1.652,0-2.996-1.346-2.996-3s1.344-3,2.996-3s2.996,1.346,2.996,3S55.586,25.525,53.934,25.525z M29.963,14.525
	c-0.552,0-0.999-0.447-0.999-1s0.447-1,0.999-1h9.988c0.551,0,0.998,0.447,0.998,1s-0.447,1-0.998,1H29.963z"/>
<g>
	<path style="fill:#FFFFFF;" d="M23.373,1.24h-2.06V6.9h-1.53V1.24h-2.06V0h5.65V1.24z"/>
	<path style="fill:#FFFFFF;" d="M27.413,5.09h-2.37l-0.5,1.81h-1.56l1.99-6.5c0.026-0.12,0.09-0.217,0.19-0.29S25.376,0,25.503,0
		h1.44c0.286,0,0.463,0.133,0.53,0.4l1.99,6.5h-1.55L27.413,5.09z M27.083,3.91l-0.58-2.11c-0.08-0.333-0.126-0.55-0.14-0.65h-0.27
		c-0.014,0.067-0.037,0.173-0.07,0.32c-0.033,0.147-0.06,0.257-0.08,0.33l-0.58,2.11H27.083z"/>
	<path style="fill:#FFFFFF;" d="M32.732,3.83h-0.12l-1.47,3.07h-1.57l1.8-3.54L29.713,0h1.56l1.33,2.85h0.15L34.083,0h1.56
		l-1.66,3.36l1.8,3.54h-1.579L32.732,3.83z"/>
	<path style="fill:#FFFFFF;" d="M38.103,6.9h-1.52V0h1.52V6.9z"/>
</g>
</svg>
