<?xml version="1.0" standalone="no"?>
<!DOCTYPE svg PUBLIC "-//W3C//DTD SVG 1.1//EN" "http://www.w3.org/Graphics/SVG/1.1/DTD/svg11.dtd" >
<svg xmlns="http://www.w3.org/2000/svg">
<metadata>
Created by FontPrep 20130207 at Mon Dec  8 14:42:56 2014
 By rosi
Copyright (c) 2013, Natanael Gama (www.ndiscovered.com . info(at)ndiscovered.com), with Reserved Font Name Exo. This Font Software is licensed under the SIL Open Font License, Version 1.1.
</metadata>
<defs>
<font id="ee7e2be01403194263e3d399097ce60a" horiz-adv-x='1024' >
  <font-face 
    font-family="Exo2-Italic"
    font-weight="400"
    font-style="italic"
    font-stretch="normal"
    units-per-em="2048"
    panose-1="0 0 5 0 0 0 0 0 0 0"
    ascent="1638"
    descent="-410"
    x-height="997"
    cap-height="1413"
    bbox="-444 -565 2479.67 1917"
    underline-thickness="102"
    underline-position="-102"
    slope="-8"
    unicode-range="U+0020-FB02"
  />
<missing-glyph horiz-adv-x="1228" 
 />
    <glyph glyph-name=".notdef" horiz-adv-x="1228" 
 />
    <glyph glyph-name=".null" horiz-adv-x="0" 
 />
    <glyph glyph-name="nonmarkingreturn" horiz-adv-x="681" 
 />
    <glyph glyph-name="space" unicode=" " horiz-adv-x="456" 
 />
    <glyph glyph-name="exclam" unicode="!" horiz-adv-x="555" 
d="M201 242h47q70 0 57 -68l-14 -113q-8 -61 -68 -61h-47q-70 0 -61 68l16 114q9 60 70 60zM391 797l-67 -365h-138l33 365l88 626h172z" />
    <glyph glyph-name="quotedbl" unicode="&#x22;" horiz-adv-x="716" 
d="M618 973h-120l51 440h141zM322 973h-119l51 440h141z" />
    <glyph glyph-name="numbersign" unicode="#" horiz-adv-x="1396" 
d="M969 918h-377l-117 -369h377zM1106 918l-117 -369h225l-34 -113h-226l-137 -436h-137l137 436h-377l-137 -436h-137l137 436h-240l37 113h238l117 369h-238l39 112h233l121 383h138l-119 -383h375l120 383h138l-119 -383h227l-39 -112h-225z" />
    <glyph glyph-name="dollar" unicode="$" horiz-adv-x="1155" 
d="M623 612l-103 -475q166 4 232 45.5t82 161.5t-12.5 162.5t-127.5 79.5zM678 1276q-126 0 -175.5 -11.5t-86.5 -50.5t-51 -146t14.5 -148t126.5 -78l86 -33l100 467h-14zM489 -25h-4l-51 -235h-86l51 237q-160 4 -340 37l23 133q313 -10 352 -10l109 506l-131 47
q-145 53 -197.5 147.5t-30.5 245.5q34 263 176.5 309t323.5 46h41l43 198h86l-43 -202q150 -6 291 -37l-21 -131q-109 6 -303 10l-106 -496l110 -41q156 -57 206 -146t28 -251q-31 -221 -146.5 -294t-380.5 -73z" />
    <glyph glyph-name="percent" unicode="%" horiz-adv-x="1830" 
d="M1427 709q-116 0 -165.5 -69t-73.5 -245t5 -241.5t143 -65.5t165 69t76 245t-4.5 241.5t-145.5 65.5zM1434 819q182 0 244.5 -99.5t30.5 -325.5t-116 -320t-265 -94t-243.5 99t-30.5 325t115 320.5t265 94.5zM523 1329q-116 0 -165.5 -67.5t-73.5 -243.5t5.5 -241.5
t144.5 -65.5t165 68.5t75 243.5t-5 240.5t-146 65.5zM438 0h-135l1114 1413h135zM530 1440q180 0 244 -98.5t32 -325.5t-115 -321.5t-264 -94.5t-244.5 99.5t-31 326.5t115.5 320.5t263 93.5z" />
    <glyph glyph-name="ampersand" unicode="&#x26;" horiz-adv-x="1546" 
d="M500 133q324 0 475 223q83 118 112 308h-438q-180 -2 -261.5 -60t-105.5 -212t25 -206.5t193 -52.5zM742 1434q218 0 382 -43l-30 -136q-132 31 -316 31t-259 -48t-99 -194t31 -194.5t217 -48.5h434q6 82 6 264h160q2 -141 -6 -264h227l-23 -137h-219q-35 -229 -127 -375
q-190 -307 -633 -312q-236 -2 -330 87.5t-69 281.5t111 283.5t243 99.5l2 10q-256 18 -200 334q37 217 158.5 289t339.5 72z" />
    <glyph glyph-name="quotesingle" unicode="'" horiz-adv-x="421" 
d="M322 973h-119l51 440h141z" />
    <glyph glyph-name="parenleft" unicode="(" horiz-adv-x="729" 
d="M784 1620l21 -86q-219 -100 -345 -318.5t-175 -573.5t11 -574.5t247 -323.5l-23 -80q-262 106 -361.5 349t-44 636t216 629t453.5 342z" />
    <glyph glyph-name="parenright" unicode=")" horiz-adv-x="729" 
d="M199 1536l22 80q262 -104 363.5 -346t44.5 -637t-218 -629.5t-454 -343.5l-18 86q422 205 520 901q49 352 -12.5 571.5t-247.5 317.5z" />
    <glyph glyph-name="asterisk" unicode="*" horiz-adv-x="917" 
d="M885 1124l-264 -61l-17 29v45l258 94zM461 1137l-6 -45l-27 -29l-248 70l41 98zM561 1085l172 -264l-88 -61l-125 252l-192 -250l-82 63l243 260l29 330h109z" />
    <glyph glyph-name="plus" unicode="+" horiz-adv-x="1120" 
d="M1001 547h-380l-52 -363h-133l49 363h-381l19 131h381l51 360h135l-51 -360h381z" />
    <glyph glyph-name="comma" unicode="," horiz-adv-x="464" 
d="M160 242h53q35 0 48 -15.5t7 -52.5l-18 -131q-18 -145 -115 -315l-86 30q51 156 68 246q-29 -2 -43.5 13.5t-10.5 41.5l17 121q8 37 23.5 49.5t56.5 12.5z" />
    <glyph glyph-name="hyphen" unicode="-" horiz-adv-x="915" 
d="M750 451h-625l18 133h623z" />
    <glyph glyph-name="period" unicode="." horiz-adv-x="460" 
d="M150 242h57q68 0 59 -68l-14 -113q-10 -61 -70 -61h-57q-72 0 -62 68l17 114q9 60 70 60z" />
    <glyph glyph-name="slash" unicode="/" horiz-adv-x="1073" 
d="M106 -135h-149l1022 1548h149z" />
    <glyph glyph-name="zero" unicode="0" horiz-adv-x="1230" 
d="M717 1282q-176 0 -265.5 -132t-133.5 -448t3.5 -443.5t221.5 -127.5t264 130.5t135 448.5t-2 445t-223 127zM727 1440q266 0 355 -175t34 -564.5t-186 -558.5t-395 -169t-354.5 174.5t-35 565.5t185.5 559t396 168z" />
    <glyph glyph-name="one" unicode="1" horiz-adv-x="808" 
d="M496 0h-179l158 1124q6 61 25 123l-361 -112l-4 133l379 145h180z" />
    <glyph glyph-name="two" unicode="2" horiz-adv-x="1140" 
d="M498 174h481l-25 -174h-927l16 117q6 51 31 76l477 462q160 154 238.5 264.5t88.5 208.5t-44 124t-226 26t-379 -33l-2 139q235 54 441 54t309.5 -65.5t83.5 -246.5q-16 -129 -87 -241.5t-233 -270.5l-462 -448q92 8 219 8z" />
    <glyph glyph-name="three" unicode="3" horiz-adv-x="1126" 
d="M633 1440q233 0 325 -81t76 -233t-78.5 -258t-177.5 -120l-2 -9q121 -20 171 -111t28 -241q-83 -538 -946 -377l22 140q283 -20 377 -15q326 23 369 285q45 250 -238 252l-266 4l18 137h258q152 2 214.5 73.5t75.5 192.5t-37 161t-214 40t-364 -16l-6 139q223 37 395 37z
" />
    <glyph glyph-name="four" unicode="4" horiz-adv-x="1249" 
d="M225 346q-102 0 -144 77t11 159l512 831h182l-512 -840q-49 -80 33 -79h488l59 415l66 234h137l-90 -649h182l-19 -129l-184 -19l-49 -346h-170l47 346h-549z" />
    <glyph glyph-name="five" unicode="5" horiz-adv-x="1091" 
d="M1024 1260h-594l-74 -386l146 -12q254 -18 366.5 -114.5t85.5 -317.5q-21 -165 -129.5 -303t-384.5 -152q-193 -10 -407 52l33 145q186 -47 335 -37q342 18 379 309q20 154 -62.5 208.5t-324.5 64.5l-133 10q-37 4 -57.5 29.5t-12.5 62.5l115 594h750z" />
    <glyph glyph-name="six" unicode="6" horiz-adv-x="1165" 
d="M525 129q171 0 243 83t96 257q27 174 -12 241.5t-186 65.5q-88 -2 -172 -42t-187 -140q-39 -270 4 -367.5t214 -97.5zM800 1284q-161 0 -241 -40t-133 -151.5t-92 -334.5q156 160 363 164t291.5 -103.5t48.5 -357.5t-150.5 -368t-366.5 -118q-195 0 -289 75t-107.5 234.5
t22.5 405.5t87.5 394.5t132 225t173 102.5t231.5 26t305 -33l-24 -129q-90 8 -251 8z" />
    <glyph glyph-name="seven" unicode="7" horiz-adv-x="1044" 
d="M985 1413q63 0 85 -35t-7 -92l-621 -1286h-180l559 1159q41 76 60 101h-709l12 153h801z" />
    <glyph glyph-name="eight" unicode="8" horiz-adv-x="1241" 
d="M554 133q185 0 256 56.5t89 207.5q25 164 -26 214.5t-243 49.5t-259.5 -52t-89.5 -211t33 -212.5t240 -52.5zM715 1288q-176 0 -237.5 -52t-81.5 -196t29.5 -189.5t225.5 -45.5t235.5 48.5t79.5 192.5t-27.5 193t-223.5 49zM387 733l4 8q-199 25 -155 326q29 201 132 285
t362 83t344 -89.5t59 -290.5q-43 -297 -246 -320l-4 -8q233 -25 180 -381q-27 -201 -135.5 -282.5t-378.5 -83.5t-371.5 89t-75.5 278t90 280.5t195 105.5z" />
    <glyph glyph-name="nine" unicode="9" horiz-adv-x="1165" 
d="M673 1284q-173 0 -245 -78t-96 -254t22 -247.5t183 -69.5q96 2 173.5 42t180.5 144q39 268 -3 365.5t-215 97.5zM699 1438q257 0 335 -158t15 -563q-37 -233 -85.5 -376.5t-127 -225.5t-175 -111t-259.5 -29t-306 33l27 131q111 -10 280 -10q223 6 312.5 111.5
t148.5 423.5q-84 -92 -168 -131t-194 -41q-215 -2 -291 120t-46 362t153.5 352t380.5 112z" />
    <glyph glyph-name="colon" unicode=":" horiz-adv-x="481" 
d="M158 242h57q68 0 59 -68l-14 -113q-10 -61 -70 -61h-57q-72 0 -61 68l16 114q9 60 70 60zM250 901h59q70 0 58 -67l-15 -113q-8 -61 -67 -62h-60q-70 0 -61 70l18 113q7 59 68 59z" />
    <glyph glyph-name="semicolon" unicode=";" horiz-adv-x="489" 
d="M174 242h51q35 0 48.5 -15.5t7.5 -52.5l-17 -131q-20 -145 -114 -315l-87 30q45 141 66 246q-27 -2 -41 13.5t-10 41.5l16 121q8 37 23.5 49.5t56.5 12.5zM252 901h59q70 0 60 -67l-17 -113q-6 -61 -67 -62h-60q-70 0 -61 70l18 113q7 59 68 59z" />
    <glyph glyph-name="less" unicode="&#x3c;" horiz-adv-x="1077" 
d="M977 887l-721 -281l641 -282l-18 -136l-783 353l19 139l882 352z" />
    <glyph glyph-name="equal" unicode="=" horiz-adv-x="1200" 
d="M1010 317h-897l18 132h897zM1069 752h-897l18 129h897z" />
    <glyph glyph-name="greater" unicode="&#x3e;" horiz-adv-x="1077" 
d="M985 680l-20 -139l-881 -351l18 148l721 280l-641 283l21 135z" />
    <glyph glyph-name="question" unicode="?" horiz-adv-x="1021" 
d="M410 242h45q70 0 61 -68l-16 -113q-6 -61 -68 -61h-47q-70 0 -61 68l16 112q9 62 70 62zM631 1458q203 0 302 -81t79 -236t-126 -248.5t-168.5 -149t-113.5 -136.5t-67 -177h-148q12 104 58.5 192.5t105.5 147.5t157.5 150.5t112.5 199.5q14 107 -37 148.5t-213 41.5
t-391 -20l-2 125q12 2 64.5 11.5t66 11.5t57.5 8t74.5 7t80.5 3t108 2z" />
    <glyph glyph-name="at" unicode="@" horiz-adv-x="1581" 
d="M664 782q-209 0 -275.5 -57t-100.5 -257t-9 -272.5t125 -72.5t188 55t201 176l65 422q-141 6 -194 6zM1004 -16q-223 0 -230 211q-182 -219 -403 -220q-174 0 -235.5 120t-18.5 374q25 145 63.5 235.5t101 138.5t134.5 64.5t216 16.5t412 -47l-98 -644q-6 -55 10.5 -78.5
t61.5 -23.5q117 0 172.5 122.5t85 402.5t19 348.5t-38 96t-69.5 48t-310 20.5h-650l15 129q246 12 514 16t358 -5t165 -35.5t110.5 -69.5t55 -123t14.5 -182t-31 -312t-74.5 -349.5t-129.5 -196.5t-220 -57z" />
    <glyph glyph-name="A" unicode="A" horiz-adv-x="1267" 
d="M885 598l-99 557q-10 89 -16 121h-61l-308 -678h484zM655 1413h189q25 0 42 -15.5t19 -37.5l264 -1360h-180l-76 440h-583l-201 -440h-190l647 1366q14 47 69 47z" />
    <glyph glyph-name="B" unicode="B" horiz-adv-x="1265" 
d="M572 137q202 0 274 51.5t94 205.5t-34 209.5t-232 60.5h-312l-73 -525q81 -2 283 -2zM735 1276h-286l-66 -475h299q158 2 225.5 52.5t86.5 192.5t-35 186t-224 44zM625 -16q-349 0 -533 16l199 1413q164 17 438 17t372.5 -81t67.5 -294q-23 -154 -88 -230.5t-194 -89.5
l-2 -8q283 -25 229 -381q-33 -215 -138.5 -288.5t-350.5 -73.5z" />
    <glyph glyph-name="C" unicode="C" horiz-adv-x="1159" 
d="M600 -25q-303 0 -409.5 173.5t-50.5 570.5t198.5 558t445.5 161q227 0 385 -43l-28 -135q-182 18 -377 18t-293 -120t-143 -448.5t14 -450.5t269.5 -123t394.5 22l10 -138q-168 -45 -416 -45z" />
    <glyph glyph-name="D" unicode="D" horiz-adv-x="1355" 
d="M581.5 139q104.5 0 182.5 21.5t138.5 86t95 174t58 271.5t24.5 257t-14 161t-58 101.5t-103.5 50t-154.5 14.5t-299 -4l-158 -1129q184 -4 288.5 -4zM545.5 -18q-185.5 0 -453.5 18l199 1413q250 18 463 19q328 0 438.5 -162t52.5 -570q-33 -229 -82 -370.5t-135 -218
t-191.5 -103t-291 -26.5z" />
    <glyph glyph-name="E" unicode="E" horiz-adv-x="1142" 
d="M563 1262q-70 0 -102.5 -33t-42.5 -107l-43 -307h608l-18 -139h-609l-53 -391q-10 -70 16.5 -101.5t96.5 -31.5h553l-4 -142q-180 -12 -572 -12q-154 0 -223.5 74.5t-50.5 208.5l125 893q16 115 92 178t205 63q422 0 610 -12l-25 -141h-563z" />
    <glyph glyph-name="F" unicode="F" horiz-adv-x="1099" 
d="M588 1262q-80 0 -116 -30t-46 -110l-47 -329h592l-21 -140h-590l-92 -653h-180l162 1165q18 121 95 185.5t204 64.5q410 0 590 -14l-25 -139h-526z" />
    <glyph glyph-name="G" unicode="G" horiz-adv-x="1277" 
d="M859 1278q-157 0 -236.5 -22.5t-141 -88t-96.5 -176t-57 -291.5q-35 -315 12 -441t207 -126q102 0 188 50t199 161l65 475h175l-117 -819h-129l4 195q-193 -221 -445 -222q-223 0 -307 177.5t-41 562.5q59 435 223 585q88 80 191.5 111t296 31t364.5 -45l-26 -133
q-172 16 -329 16z" />
    <glyph glyph-name="H" unicode="H" horiz-adv-x="1363" 
d="M1303 1413l-199 -1413h-178l94 676h-651l-95 -676h-182l199 1413h182l-82 -582h651l82 582h179z" />
    <glyph glyph-name="I" unicode="I" horiz-adv-x="534" 
d="M274 0h-182l199 1413h182z" />
    <glyph glyph-name="J" unicode="J" horiz-adv-x="694" 
d="M184 -18q-118 0 -202 26l34 127h97q166 0 188 158l156 1120h182l-160 -1120q-20 -154 -98.5 -232.5t-196.5 -78.5z" />
    <glyph glyph-name="K" unicode="K" horiz-adv-x="1214" 
d="M352 664q0 -92 -10 -154l-70 -510h-180l199 1413h180l-63 -444q-12 -82 -33 -160h166l506 604h219l-492 -586q-55 -63 -96 -90v-8q35 -41 67 -102l349 -627h-205l-363 664h-174z" />
    <glyph glyph-name="L" unicode="L" horiz-adv-x="1042" 
d="M422 152h512l-4 -142q-178 -12 -547 -12q-135 0 -203.5 76t-48.5 217l154 1122h182l-158 -1128q-20 -133 113 -133z" />
    <glyph glyph-name="M" unicode="M" horiz-adv-x="1794" 
d="M1620 1413q76 0 70 -80l-129 -1333h-181l131 1264h-41l-460 -1045q-25 -59 -84 -59h-162q-63 0 -76 65l-178 1039h-41l-225 -1264h-178l243 1341q12 72 80 72h199q57 0 67 -65l152 -861q6 -31 27 -192h38q27 68 80 190l383 869q25 57 84 59h201z" />
    <glyph glyph-name="N" unicode="N" horiz-adv-x="1439" 
d="M1116 0h-164q-51 0 -73 61l-355 1002q-41 111 -55 182h-35q-2 -84 -16 -186l-146 -1059h-180l189 1346q12 68 75 67h160q51 0 74 -61l344 -975q47 -135 65 -205h39q6 113 21 207l141 1034h178l-190 -1345q-8 -68 -72 -68z" />
    <glyph glyph-name="O" unicode="O" horiz-adv-x="1363" 
d="M780 1278q-213 0 -310 -123t-142 -450t15 -448.5t270 -121.5t308.5 125t145.5 452.5t-13.5 446.5t-273.5 119zM787 1440q303 0 413.5 -169t54 -574t-200 -564.5t-444.5 -159.5t-413.5 167t-57.5 570.5t200 566.5t448 163z" />
    <glyph glyph-name="P" unicode="P" horiz-adv-x="1204" 
d="M664 702q168 0 234 60.5t92 229.5t-24.5 226.5t-201.5 57.5q-231 0 -313 -2l-80 -572h293zM670 547q-170 0 -318 20l-80 -567h-180l199 1413q176 18 479 19q248 0 341 -101.5t57 -355.5t-142 -341t-356 -87z" />
    <glyph glyph-name="Q" unicode="Q" horiz-adv-x="1363" 
d="M426 -197l70 107q223 -111 526 -158l-72 -180q-293 67 -524 231zM780 1278q-213 0 -310 -123t-142 -450t15 -448.5t270 -121.5t308.5 125t145.5 452.5t-13.5 446.5t-273.5 119zM787 1440q303 0 413 -169t54 -574t-199.5 -564.5t-444.5 -159.5t-413.5 166.5t-57.5 570.5
t200 567t448 163z" />
    <glyph glyph-name="R" unicode="R" horiz-adv-x="1265" 
d="M766 1276q-236 0 -317 -2l-74 -529h301q158 2 228.5 60.5t91.5 211t-27.5 206t-202.5 53.5zM92 0l199 1413q176 18 479 19q233 0 336.5 -93.5t73.5 -322.5q-25 -166 -98.5 -252t-217.5 -105l-2 -10q117 -33 150 -207l90 -442h-184l-84 446q-14 78 -52.5 111t-107.5 33
l-322 2l-84 -592h-176z" />
    <glyph glyph-name="S" unicode="S" horiz-adv-x="1146" 
d="M725 1276q-121 0 -155 -1q-107 -3 -151.5 -51.5t-59.5 -154.5t13.5 -148t127.5 -79l276 -103q156 -57 206 -146t28 -251q-31 -221 -146.5 -294t-357.5 -73t-453 39l23 133q344 -12 409 -10q184 0 255 41t87 164.5t-12.5 165t-126.5 78.5l-280 104q-145 53 -197.5 146.5
t-32.5 246.5q34 263 216 321q104 33 284 34q254 -4 418 -41l-19 -131q-231 10 -352 10z" />
    <glyph glyph-name="T" unicode="T" 
d="M1225 1253h-457l-176 -1253h-180l176 1253h-455l23 160h1089z" />
    <glyph glyph-name="U" unicode="U" horiz-adv-x="1359" 
d="M606.5 -27q-272.5 0 -381 134.5t-65.5 439.5l119 866h182l-123 -874q-33 -227 26.5 -315.5t244.5 -88.5t275.5 92t123.5 320l118 866h183l-123 -874q-45 -307 -176 -436.5t-403.5 -129.5z" />
    <glyph glyph-name="V" unicode="V" horiz-adv-x="1239" 
d="M627 0h-181q-53 0 -61 55l-244 1358h183l178 -1122q16 -100 20 -156h53q35 96 64 162l491 1116h191l-625 -1366q-18 -47 -69 -47z" />
    <glyph glyph-name="W" unicode="W" horiz-adv-x="1931" 
d="M539 0h-199q-27 0 -46.5 16.5t-21.5 40.5l-102 1356h184l66 -1104q0 -10 6 -176h49l60 182l362 1041q16 57 74 57h194q25 0 42.5 -18.5t19.5 -44.5l84 -1043q8 -115 8 -174h51l55 178l371 1102h189l-482 -1364q-16 -49 -73 -49h-201q-27 0 -45.5 16.5t-20.5 42.5
l-73 1063l-13 156h-43l-422 -1227q-16 -51 -73 -51z" />
    <glyph glyph-name="X" unicode="X" horiz-adv-x="1247" 
d="M819 731l297 -731h-184l-260 664h-56l-444 -664h-209l504 731l-274 682h184l237 -610h58l420 610h198z" />
    <glyph glyph-name="Y" unicode="Y" horiz-adv-x="1157" 
d="M649 494l-69 -494h-183l72 502l-338 911h184l213 -600q31 -92 41 -160h17q31 82 84 166l381 594h196z" />
    <glyph glyph-name="Z" unicode="Z" horiz-adv-x="1150" 
d="M231 154h766l-22 -154h-963l21 154l905 1106h-739l22 153h940l-22 -153z" />
    <glyph glyph-name="bracketleft" unicode="[" horiz-adv-x="665" 
d="M504 1458q-14 0 -26.5 -11t-14.5 -26l-227 -1616q-4 -29 20 -28h213l-16 -115h-287q-51 0 -79 28.5t-19 84.5l237 1691q6 49 39 78t82 29h295l-16 -115h-201z" />
    <glyph glyph-name="backslash" unicode="\" horiz-adv-x="1040" 
d="M891 -135h-137l-592 1548h137z" />
    <glyph glyph-name="bracketright" unicode="]" horiz-adv-x="665" 
d="M502 1573q49 0 78.5 -33t21.5 -80l-237 -1691q-6 -47 -40 -77t-81 -30h-295l14 115h201q35 0 43 37l227 1616q4 29 -22 28h-211l16 115h285z" />
    <glyph glyph-name="asciicircum" unicode="^" horiz-adv-x="872" 
d="M854 797l-76 -43l-239 356h-17l-350 -356l-70 45l373 432h127z" />
    <glyph glyph-name="underscore" unicode="_" horiz-adv-x="1189" 
d="M942 -133h-895l19 133h897z" />
    <glyph glyph-name="grave" unicode="`" horiz-adv-x="643" 
d="M604 1180l-63 -78l-379 256l94 123z" />
    <glyph glyph-name="a" unicode="a" 
d="M399 127q179 0 408 223l74 520q-147 6 -226 7q-207 0 -273.5 -67t-100 -303t-10 -308t127.5 -72zM655 1022q170 0 416 -47l-137 -975h-137l12 201q-193 -225 -444 -226q-180 0 -242 120t-18 431q43 311 167 409q66 52 139.5 69.5t243.5 17.5z" />
    <glyph glyph-name="b" unicode="b" 
d="M500 119q201 0 265 67.5t96 305.5t6.5 308t-130.5 70q-151 0 -405 -225l-72 -516q131 -10 240 -10zM778 1022q178 0 240.5 -114.5t19.5 -431.5t-136 -392.5t-161.5 -93t-177.5 -17.5q-246 0 -487 74l194 1387h172l-55 -414q-23 -154 -53 -244q100 104 220 175t224 71z
" />
    <glyph glyph-name="c" unicode="c" horiz-adv-x="991" 
d="M631 1022q197 0 319 -49l-28 -109q-111 10 -281 10t-253 -77.5t-112 -303.5t25.5 -298t229 -72t303.5 20l12 -118q-158 -49 -342 -50q-262 0 -356.5 122t-53.5 408t161 401.5t376 115.5z" />
    <glyph glyph-name="d" unicode="d" horiz-adv-x="1171" 
d="M391 127q98 0 194.5 54t223.5 175l70 518q-197 4 -268 4t-128 -11t-101 -55t-65 -114.5t-45 -243.5t-1.5 -250t120.5 -77zM344 -25q-158 0 -220.5 123t-21.5 412q25 164 64 267.5t103.5 156.5t135 70.5t195.5 17.5t307 -25q4 100 17 191l34 246h175l-201 -1434h-137
l14 217q-221 -242 -465 -242z" />
    <glyph glyph-name="e" unicode="e" horiz-adv-x="1099" 
d="M606.5 877q-153.5 0 -223 -69t-104.5 -288l354 35q102 8 148 42t61.5 129t-33.5 123t-202.5 28zM622.5 1022q247.5 0 332.5 -79t59.5 -230.5t-112.5 -213t-267 -75.5l-369 -33q-4 -158 60 -213q107 -92 573 -31l12 -116q-141 -55 -402 -55.5t-355.5 131t-54.5 419
t158 392t365.5 104.5z" />
    <glyph glyph-name="f" unicode="f" horiz-adv-x="772" 
d="M694 1325q-100 0 -146 -36t-61 -136l-22 -156h319l-20 -137h-318l-139 -983q-39 -289 -315 -289q-106 0 -238 15l27 131h156q98 0 142 34.5t58 135.5l133 956h-178l17 127l182 8l24 185q41 289 324 288q174 0 283 -14l-27 -129h-201z" />
    <glyph glyph-name="g" unicode="g" horiz-adv-x="1177" 
d="M401 127q177 0 408 225l78 518q-152 6 -236 7q-201 0 -267.5 -67t-100 -302t-10 -308t127.5 -73zM346 -25q-154 0 -219.5 120t-18.5 431q46 311 166 409q64 52 133.5 69.5t243 17.5t422.5 -47h4l-139 -957q-53 -438 -567 -450q-197 -8 -340 33l18 116q143 -6 324 -2
q340 10 389 269q41 195 82 258q-90 -119 -217 -193t-281 -74z" />
    <glyph glyph-name="h" unicode="h" horiz-adv-x="1183" 
d="M819 1022q127 0 190.5 -70.5t45.5 -206.5l-107 -745h-174l100 702q12 96 -12 134t-105 38t-175.5 -53t-245.5 -174l-90 -647h-174l202 1434h175l-56 -402q-16 -133 -47 -246q270 236 473 236z" />
    <glyph glyph-name="i" unicode="i" horiz-adv-x="503" 
d="M254 0h-172l139 997h172zM322 1421h81q27 0 40.5 -16t9.5 -41l-15 -117q-8 -49 -57 -49h-80q-57 0 -51 57l16 115q7 51 56 51z" />
    <glyph glyph-name="j" unicode="j" horiz-adv-x="503" 
d="M393 997l-143 -1026q-14 -119 -79 -220t-161 -169l-94 80q137 143 162 318l143 1017h172zM322 1421h81q27 0 40.5 -16t9.5 -41l-15 -117q-8 -49 -57 -49h-80q-57 0 -51 57l16 115q7 51 56 51z" />
    <glyph glyph-name="k" unicode="k" horiz-adv-x="1067" 
d="M840 997h178q-88 -270 -338 -444q31 -51 59 -115l197 -438h-186l-203 471q-102 -55 -248 -115l-53 -356h-172l200 1434h175l-93 -693q-18 -121 -61 -237q203 90 350.5 216.5t194.5 276.5z" />
    <glyph glyph-name="l" unicode="l" horiz-adv-x="600" 
d="M399 141h101l6 -135q-59 -25 -178 -24.5t-177.5 69t-41.5 189.5l167 1194h175l-164 -1164q-10 -70 15.5 -99.5t96.5 -29.5z" />
    <glyph glyph-name="m" unicode="m" horiz-adv-x="1785" 
d="M770 1022q117 0 178.5 -60.5t57.5 -166.5q229 227 417 227q131 0 191.5 -74t42.5 -203l-105 -745h-172l99 702q12 94 -17.5 133t-103.5 39t-151 -48t-220 -179l-90 -647h-168l98 702q12 92 -14.5 132t-104.5 40t-153.5 -48t-218.5 -175l-90 -651h-174l141 997h133
l-12 -217q242 242 436 242z" />
    <glyph glyph-name="n" unicode="n" horiz-adv-x="1183" 
d="M819 1022q127 0 190.5 -70.5t45.5 -206.5l-107 -745h-174l100 702q12 96 -12 134t-105 38t-176.5 -53t-244.5 -172l-90 -649h-174l141 997h139l-14 -219q274 244 481 244z" />
    <glyph glyph-name="o" unicode="o" horiz-adv-x="1155" 
d="M625 874q-164 0 -241 -79.5t-108 -299t17.5 -297t212.5 -77.5t240.5 82t107.5 299t-17 294.5t-212 77.5zM629 1022q254 0 349 -123t55 -408t-160.5 -401.5t-371.5 -116.5t-348.5 123t-57.5 407t160 401.5t374 117.5z" />
    <glyph glyph-name="p" unicode="p" horiz-adv-x="1177" 
d="M492 117q207 0 273 66.5t99 304.5t9.5 310t-125.5 72q-74 0 -185.5 -60.5t-224.5 -166.5l-72 -520q150 -6 226 -6zM786 1022q180 0 239.5 -115.5t15.5 -429.5t-137 -391.5t-164.5 -95t-198.5 -17.5t-301 27q-4 -100 -17 -190l-35 -226h-176l203 1413h137l-14 -221
q96 102 221 174t227 72z" />
    <glyph glyph-name="q" unicode="q" horiz-adv-x="1167" 
d="M398 127q101 0 188.5 51t222.5 176l70 514q-127 10 -242 11q-195 0 -260 -68t-97 -301t-7.5 -308t125.5 -75zM352 -25q-160 0 -225.5 119t-22.5 430t134.5 387t159 93.5t171.5 17.5q252 0 496 -70l-195 -1368h-174l58 391q23 145 61 250q-217 -250 -463 -250z" />
    <glyph glyph-name="r" unicode="r" horiz-adv-x="815" 
d="M748 858q-82 0 -172.5 -49t-239.5 -164l-90 -645h-174l141 997h133l-14 -231q260 256 459 256h51l-43 -164h-51z" />
    <glyph glyph-name="s" unicode="s" horiz-adv-x="1036" 
d="M43 6l20 127q123 -10 316.5 -9t261.5 23.5t79 90.5t-40 99q-18 11 -49 24.5t-39 17.5l-279 123q-111 51 -156.5 114.5t-30.5 186t113.5 173t313.5 46.5t408 -31l-23 -125q-252 8 -394 9.5t-192.5 -15t-58.5 -80t18.5 -90t102.5 -61.5l278 -123q123 -53 168 -112.5
t31 -170.5q-21 -183 -193 -223q-208 -48 -655 6z" />
    <glyph glyph-name="t" unicode="t" horiz-adv-x="772" 
d="M469 141h156l6 -133q-94 -27 -223 -26.5t-186.5 72t-39.5 200.5l86 606h-182l16 127l187 8l41 297h172l-41 -295h317l-20 -137h-318l-82 -590q-10 -72 14.5 -100.5t96.5 -28.5z" />
    <glyph glyph-name="u" unicode="u" horiz-adv-x="1161" 
d="M340 -27q-135 0 -196.5 74t-41.5 205l105 745h174l-100 -702q-14 -92 13.5 -131t110 -39t168.5 53t226 178l88 641h174l-139 -997h-136l15 217q-250 -244 -461 -244z" />
    <glyph glyph-name="v" unicode="v" horiz-adv-x="1087" 
d="M498 0h-154q-47 0 -57 47l-195 950h182l152 -860h33q39 0 89 26.5t177 325.5q105 229 154 508h180q-59 -289 -199 -599t-215.5 -354t-146.5 -44z" />
    <glyph glyph-name="w" unicode="w" horiz-adv-x="1740" 
d="M440 137q55 0 97 72q61 109 112 280q57 174 107 465q6 43 49 43h190q41 0 45 -41l101 -819h24q45 0 84 64q90 141 160 321t119 475h182q-76 -338 -177 -568q-148 -337 -261 -405q-39 -24 -96 -24h-115q-47 0 -55 47l-95 836h-26q-23 -205 -89 -420.5t-143 -333.5
q-74 -129 -219 -129h-102q-45 0 -56 47l-184 950h180l142 -860h26z" />
    <glyph glyph-name="x" unicode="x" horiz-adv-x="1077" 
d="M688 514l260 -514h-176l-221 451h-47l-348 -451h-195l408 516l-240 481h174l197 -411h57l320 411h188z" />
    <glyph glyph-name="y" unicode="y" horiz-adv-x="1103" 
d="M399 0q-45 0 -75.5 25.5t-40.5 66.5l-193 905h182l158 -821q10 -39 47 -39h98l19 39q14 27 22 41q193 377 275 780h180q-109 -481 -303 -831q-158 -293 -308.5 -422t-355.5 -166l-32 125q125 29 224 96.5t193 200.5h-90z" />
    <glyph glyph-name="z" unicode="z" horiz-adv-x="1032" 
d="M967 854l-734 -713h639l-20 -141h-840l19 141l733 713h-623l19 143h825z" />
    <glyph glyph-name="braceleft" unicode="{" horiz-adv-x="651" 
d="M696 1573l-6 -111q-104 0 -153.5 -42t-61.5 -136l-51 -366q-16 -127 -58 -177.5t-157 -70.5q104 -35 136 -86.5t17 -157.5l-67 -483q-14 -96 18.5 -133t137.5 -37l-7 -111q-180 -14 -259 57.5t-56 217.5l74 524q10 72 -10.5 95.5t-58.5 37.5t-42 16l17 127q51 14 65 20.5
t36.5 24t31 43t14.5 74.5l57 406q18 150 107.5 216t275.5 52z" />
    <glyph glyph-name="bar" unicode="|" horiz-adv-x="501" 
d="M182 -346h-129l273 1945h129z" />
    <glyph glyph-name="braceright" unicode="}" horiz-adv-x="653" 
d="M211 1462l8 111q182 14 258 -59.5t58 -215.5l-58 -407q-12 -92 4.5 -112.5t98.5 -45.5l-17 -127q-75 -27 -103 -46t-37 -42.5t-15 -64.5l-72 -523q-20 -150 -107.5 -216t-277.5 -52l6 111q104 0 152.5 41t60.5 135l70 485q16 109 59 156t164 84q-102 20 -134 72.5
t-14 179.5l54 366q12 94 -20 132t-138 38z" />
    <glyph glyph-name="asciitilde" unicode="~" horiz-adv-x="1069" 
d="M225 463l-90 8q2 121 54.5 183.5t130.5 58.5t213 -59.5t190 -61.5t81.5 20.5t37.5 92.5l88 -7q-2 -119 -53 -180t-135 -57t-218.5 60.5t-185.5 61.5t-78 -23.5t-35 -96.5z" />
    <glyph glyph-name="uni00A0" unicode="&#xa0;" horiz-adv-x="456" 
 />
    <glyph glyph-name="exclamdown" unicode="&#xa1;" horiz-adv-x="522" 
d="M293 213l-86 -614h-172l86 614l69 365h138zM293 1010h47q70 0 57 -68l-14 -113q-10 -61 -70 -61h-45q-72 0 -59 68l14 112q9 62 70 62z" />
    <glyph glyph-name="cent" unicode="&#xa2;" horiz-adv-x="1034" 
d="M481 340l166 747q-164 -6 -238.5 -85.5t-101.5 -286.5t11 -285t163 -90zM662 1235h22l41 178h86l-43 -182q127 -10 211 -45l-27 -109q-119 10 -219 10l-166 -751q156 0 297 22l13 -120q-156 -49 -345 -50h-4l-43 -188h-86l45 193q-209 18 -282.5 140.5t-34.5 396.5
t159 389.5t376 115.5z" />
    <glyph glyph-name="sterling" unicode="&#xa3;" horiz-adv-x="1163" 
d="M757 1282q-134 0 -191.5 -48t-67.5 -173l-21 -262h436l-20 -107h-424l-12 -155q-12 -143 -58.5 -233.5t-144.5 -158.5q43 8 133 9h612l-20 -154h-940l20 156q197 92 222 385l12 151h-162l14 107h156l23 272q20 223 121.5 295t287.5 72t391 -21l-20 -143q-213 8 -347 8z
" />
    <glyph glyph-name="currency" unicode="&#xa4;" horiz-adv-x="1220" 
d="M661 1024q-136 0 -225.5 -84t-104.5 -221t53.5 -217t202.5 -82t227.5 82t107.5 222t-55.5 219t-205.5 81zM585 319q-148 0 -247 80l-158 -141l-74 84l160 141q-59 104 -41 251t109 249l-139 158l81 76l140 -162q109 69 254 69t241 -77l160 143l72 -86l-160 -139
q63 -104 45 -252t-106 -248l141 -158l-80 -74l-141 160q-109 -74 -257 -74z" />
    <glyph glyph-name="yen" unicode="&#xa5;" horiz-adv-x="1259" 
d="M801 662h284l-14 -107h-340l-31 -45l-10 -80h365l-17 -104h-362l-47 -326h-180l47 326h-357l13 104h358l12 88l-14 37h-336l12 107h283l-285 751h183l215 -584q31 -92 41 -159h18q27 76 86 166l377 577h196z" />
    <glyph glyph-name="brokenbar" unicode="&#xa6;" horiz-adv-x="501" 
d="M182 -346h-129l115 819h129zM340 780h-129l117 819h127z" />
    <glyph glyph-name="section" unicode="&#xa7;" horiz-adv-x="1114" 
d="M186 791h127q-33 -129 -16.5 -207t104.5 -131l328 -203q96 -61 139 -132t27 -190q-25 -162 -125 -211t-330 -47t-424 23l23 137q349 -22 479 -12t158.5 47t36.5 93q14 102 -103 173l-307 186q-135 78 -159 193t42 281zM700 662l-325 202q-98 61 -140 132t-26 188
q20 154 120.5 205t307.5 51q266 -4 450 -25l-22 -135q-107 8 -321 10t-277.5 -20.5t-74.5 -96.5t15.5 -114.5t86.5 -77.5l311 -190q131 -80 153.5 -197t-40.5 -283h-127q33 129 14 213.5t-105 137.5z" />
    <glyph glyph-name="dieresis" unicode="&#xa8;" horiz-adv-x="841" 
d="M698 1421h54q55 0 45 -49l-17 -112q-6 -49 -55 -50h-57q-49 0 -43 47l16 115q10 49 57 49zM352 1421h54q53 0 45 -49l-17 -112q-6 -49 -55 -50h-57q-49 0 -43 47l16 115q8 49 57 49z" />
    <glyph glyph-name="copyright" unicode="&#xa9;" horiz-adv-x="1708" 
d="M842 260q-238 0 -317 100.5t-44 355.5t138.5 351t332.5 96q131 0 258 -28l-20 -99q-115 8 -225 8q-178 0 -249 -65.5t-99 -262.5t16.5 -267t187.5 -70q191 0 293 12l8 -100q-131 -31 -280 -31zM950 1350q-287 0 -485.5 -182.5t-234.5 -468.5t120 -461t440 -175t485 182.5
t235 464.5t-119.5 461t-440.5 179zM947 1440q329 0 514.5 -206t143.5 -530t-265.5 -527.5t-554.5 -203.5t-511 208.5t-140 528.5t262 525t551 205z" />
    <glyph glyph-name="ordfeminine" unicode="&#xaa;" horiz-adv-x="913" 
d="M387 659q111 0 268 136l47 335l-151 3q-139 0 -185.5 -40.5t-67.5 -192.5t-2 -196.5t91 -44.5zM360 541q-125 0 -175 79.5t-23 289.5t99.5 261.5t120.5 61.5t173 10t289 -35l-90 -653h-109l4 119q-123 -133 -289 -133z" />
    <glyph glyph-name="guillemotleft" unicode="&#xab;" horiz-adv-x="976" 
d="M903 874l-313 -362l223 -373l-86 -59l-281 424l5 39l380 397zM532 874l-313 -362l223 -373l-88 -59l-278 424l2 39l383 397z" />
    <glyph glyph-name="logicalnot" unicode="&#xac;" horiz-adv-x="1202" 
d="M1055 676l-58 -404h-133l39 271h-764l19 133h897z" />
    <glyph glyph-name="softhyphen" unicode="&#xad;" horiz-adv-x="915" 
d="M748 451h-625l18 133h625z" />
    <glyph glyph-name="registered" unicode="&#xae;" horiz-adv-x="1134" 
d="M498 999h135q78 2 109.5 20.5t39.5 78.5t-16.5 77t-95.5 17l-146 -2zM652 1255q124 0 174.5 -30.5t37.5 -128.5q-6 -59 -33.5 -88t-91.5 -43v-4q35 -16 52 -78l43 -162h-86l-39 164q-14 53 -72 53l-148 2l-30 -219h-82l76 528q75 6 199 6zM656 1380q-182 0 -296 -108.5
t-134 -292.5t80 -290.5t281 -106.5t296 111.5t132 296.5t-80 287.5t-279 102.5zM661 1438q202 0 319.5 -123t94.5 -335t-155 -333t-338 -121t-322.5 129t-93.5 336t158 327t337 120z" />
    <glyph glyph-name="macron" unicode="&#xaf;" horiz-adv-x="819" 
d="M801 1247h-572l17 129h571z" />
    <glyph glyph-name="degree" unicode="&#xb0;" horiz-adv-x="743" 
d="M467 1335q-70 0 -116 -42.5t-53 -112.5t32 -114t108.5 -44t115.5 43t52 112.5t-31.5 113.5t-107.5 44zM474 1440q118 0 185.5 -77t57.5 -191.5t-90 -184t-199 -69.5t-184.5 78.5t-55.5 191.5q8 113 88 182.5t198 69.5z" />
    <glyph glyph-name="plusminus" unicode="&#xb1;" horiz-adv-x="1198" 
d="M104 272h897l-18 -129h-897zM1075 801l-18 -131h-381l-39 -275h-133l39 275h-383l18 131h381l39 272h135l-39 -272h381z" />
    <glyph glyph-name="twosuperior" unicode="&#xb2;" horiz-adv-x="839" 
d="M463 868h291l-19 -131h-592l11 88q8 43 22 56l285 256q193 170 203 270q4 47 -27 60t-139 13t-236 -18v107q144 31 278 31t203.5 -42t55.5 -151q-10 -78 -51 -141.5t-142 -155.5l-278 -250q55 8 135 8z" />
    <glyph glyph-name="threesuperior" unicode="&#xb3;" horiz-adv-x="806" 
d="M542 1602q124 0 185 -51.5t52 -140.5t-47 -155.5t-109 -72.5l-2 -4q154 -25 127 -209q-37 -238 -345 -248q-106 -2 -262 22l17 107q217 -10 237 -8q195 14 217 151q12 66 -19.5 100.5t-121.5 36.5h-168l14 105h162q92 0 127 37t43 102t-21.5 87t-139.5 22t-220 -10
l-2 106q152 23 276 23z" />
    <glyph glyph-name="acute" unicode="&#xb4;" horiz-adv-x="643" 
d="M684 1348l-424 -246l-53 80l393 301z" />
    <glyph glyph-name="paragraph" unicode="&#xb6;" horiz-adv-x="1208" 
d="M805 1438q188 0 321 -35l-196 -1403h-135l186 1315q-96 8 -201 8l-245 -1753h-134l119 842q-244 25 -338 151.5t-57 390.5t190.5 374t489.5 110z" />
    <glyph glyph-name="periodcentered" unicode="&#xb7;" horiz-adv-x="477" 
d="M213 649h57q68 0 60 -69l-15 -111q-8 -61 -69 -61h-58q-70 0 -61 67l16 113q9 61 70 61z" />
    <glyph glyph-name="cedilla" unicode="&#xb8;" horiz-adv-x="479" 
d="M76 -170l20 82q127 12 178.5 -18.5t34.5 -122.5q-20 -125 -123.5 -192.5t-248.5 -47.5l32 92q82 -2 142.5 40t72.5 110q6 35 -14 45t-94 12z" />
    <glyph glyph-name="onesuperior" unicode="&#xb9;" horiz-adv-x="585" 
d="M451 737h-136l93 643q6 49 16 82l-229 -63l-2 100l241 86h135z" />
    <glyph glyph-name="ordmasculine" unicode="&#xba;" horiz-adv-x="903" 
d="M524 1135q-115 0 -162 -52.5t-67 -193.5t12.5 -189.5t145 -48.5t163 53.5t70.5 192.5t-13.5 188.5t-148.5 49.5zM531 1243q183 0 251 -82t40 -274t-110.5 -269t-262.5 -77t-249 83t-42 274t108.5 268t264.5 77z" />
    <glyph glyph-name="guillemotright" unicode="&#xbb;" horiz-adv-x="978" 
d="M49 139l313 363l-223 375l86 57l281 -422l-4 -41l-381 -395zM420 139l313 363l-223 375l88 57l279 -422l-3 -41l-382 -395z" />
    <glyph glyph-name="onequarter" unicode="&#xbc;" horiz-adv-x="1757" 
d="M995 199q-55 0 -78.5 37.5t11.5 99.5l332 512h135l-320 -500q-12 -16 -6 -28.5t29 -12.5h307l33 240l43 139h106l-53 -379h106l-14 -96l-106 -10l-29 -201h-127l27 199h-396zM1430 1413l-1115 -1413h-129l1117 1413h127zM305 565l90 649q8 49 17 80l-236 -63l-2 94
l250 88h137l-119 -848h-137z" />
    <glyph glyph-name="onehalf" unicode="&#xbd;" horiz-adv-x="1798" 
d="M1404 862q155 0 224.5 -41t51.5 -165t-205 -285l-306 -252q66 6 144 2h327l-18 -121h-639l12 80q4 39 25 59l299 254q193 162 213 271q8 53 -25.5 67t-147.5 14t-251 -16l-4 102q145 31 300 31zM440 565h-137l92 649q8 49 17 80l-236 -63l-2 94l250 88h135zM301 0h-127
l1114 1413h127z" />
    <glyph glyph-name="threequarters" unicode="&#xbe;" horiz-adv-x="1949" 
d="M1186 199q-55 0 -79 37.5t11 99.5l332 512h135l-319 -500q-12 -16 -6 -28.5t28 -12.5h301l35 240l43 139h107l-54 -379h111l-14 -96l-113 -10l-27 -201h-129l27 199h-389zM1640 1413l-1114 -1413h-129l1116 1413h127zM434 545q-150 0 -321 22l10 103q121 -10 247 -10
t179 36t63 112t-19.5 110t-133.5 34h-178l12 103h172q168 2 186 147q10 66 -22.5 87.5t-166.5 21.5t-222 -8l-4 100q138 20 290 20t214 -45t48 -146t-53 -153.5t-125 -64.5l-12 -6q94 -14 128 -67.5t21 -167.5t-88 -171t-225 -57z" />
    <glyph glyph-name="questiondown" unicode="&#xbf;" horiz-adv-x="1011" 
d="M393 -287q225 0 412 19l2 -125q-12 -2 -64.5 -11.5t-65.5 -11.5t-57.5 -8t-75 -7t-80.5 -3t-108 -2q-205 0 -301 88t-78 238t125 242.5t214.5 189.5t136.5 266h145q-12 -104 -58 -191.5t-104.5 -147t-156.5 -150t-115 -191.5q-16 -102 38 -148.5t191 -46.5zM559 1022h45
q70 0 62 -68l-17 -112q-8 -61 -69 -62h-43q-70 0 -62 68l17 115q6 59 67 59z" />
    <glyph glyph-name="Agrave" unicode="&#xc0;" horiz-adv-x="1267" 
d="M885 598l-99 557q-10 89 -16 121h-61l-308 -678h484zM655 1413h189q25 0 42 -15.5t19 -37.5l264 -1360h-180l-76 440h-583l-201 -440h-190l647 1366q14 47 69 47zM813 1491l-379 256l94 123l346 -301z" />
    <glyph glyph-name="Aacute" unicode="&#xc1;" horiz-adv-x="1267" 
d="M885 598l-99 557q-10 89 -16 121h-61l-308 -678h484zM655 1413h189q25 0 42 -15.5t19 -37.5l264 -1360h-180l-76 440h-583l-201 -440h-190l647 1366q14 47 69 47zM696 1491l-55 82l393 299l84 -133z" />
    <glyph glyph-name="Acircumflex" unicode="&#xc2;" horiz-adv-x="1267" 
d="M885 598l-99 557q-10 89 -16 121h-61l-308 -678h484zM655 1413h189q25 0 42 -15.5t19 -37.5l264 -1360h-180l-76 440h-583l-201 -440h-190l647 1366q14 47 69 47zM494 1499l-50 76l304 260h124l252 -270l-63 -70l-246 207h-16z" />
    <glyph glyph-name="Atilde" unicode="&#xc3;" horiz-adv-x="1267" 
d="M885 598l-99 557q-10 89 -16 121h-61l-308 -678h484zM655 1413h189q25 0 42 -15.5t19 -37.5l264 -1360h-180l-76 440h-583l-201 -440h-190l647 1366q14 47 69 47zM1051 1796l82 -8q-4 -113 -54.5 -172.5t-129.5 -53.5t-167 58.5t-135 58.5q-92 12 -112 -114l-82 6
q6 119 57 178t123 53t232.5 -101t185.5 95z" />
    <glyph glyph-name="Adieresis" unicode="&#xc4;" horiz-adv-x="1267" 
d="M885 598l-99 557q-10 89 -16 121h-61l-308 -678h484zM655 1413h189q25 0 42 -15.5t19 -37.5l264 -1360h-180l-76 440h-583l-201 -440h-190l647 1366q14 47 69 47zM981 1571h-57q-51 0 -45 47l18 113q6 51 57 51h54q51 0 45 -51l-19 -111q-6 -49 -53 -49zM635 1571h-57
q-51 0 -46 47l19 113q6 51 57 51h54q51 0 45 -51l-19 -111q-6 -49 -53 -49z" />
    <glyph glyph-name="Aring" unicode="&#xc5;" horiz-adv-x="1267" 
d="M885 598l-99 557q-10 89 -16 121h-61l-308 -678h484zM655 1413h189q25 0 42 -15.5t19 -37.5l264 -1360h-180l-76 440h-583l-201 -440h-190l647 1366q14 47 69 47zM783 1552q54 0 90 37t41 91t-24.5 89t-84.5 35t-91 -36t-42 -92t25.5 -90t85.5 -34zM778 1464
q-98 0 -155.5 63t-47.5 155t72 151t159 59t156.5 -62.5t49.5 -154.5t-73 -151.5t-161 -59.5z" />
    <glyph glyph-name="AE" unicode="&#xc6;" horiz-adv-x="1867" 
d="M932 614l76 533q4 43 27.5 84t54.5 59h-11q-70 -37 -137 -133l-393 -543h383zM1329 1262q-137 0 -158 -142l-41 -305h580l-18 -141h-582l-53 -389q-10 -70 16.5 -101.5t95.5 -31.5h529l-8 -142q-184 -12 -553 -12q-133 0 -202 76t-48 207l24 178h-475l-330 -459h-192
l868 1194q92 131 194.5 176t291.5 45q391 0 608 -12l-25 -141h-522z" />
    <glyph glyph-name="Ccedilla" unicode="&#xc7;" horiz-adv-x="1159" 
d="M446 -195l21 82q127 12 179 -18.5t36 -122.5q-23 -127 -126 -193.5t-249 -46.5l33 93q82 -2 143.5 40t73.5 109q4 35 -16.5 45t-94.5 12zM600 -25q-303 0 -409.5 173.5t-50.5 570.5t198.5 558t445.5 161q227 0 385 -43l-28 -135q-182 18 -377 18t-293 -120t-143 -448
t14.5 -450.5t269.5 -123.5t394 22l10 -138q-168 -45 -416 -45z" />
    <glyph glyph-name="Egrave" unicode="&#xc8;" horiz-adv-x="1142" 
d="M563 1262q-70 0 -102.5 -33t-42.5 -107l-43 -307h608l-18 -139h-609l-53 -391q-10 -70 16.5 -101.5t96.5 -31.5h553l-4 -142q-180 -12 -572 -12q-154 0 -223.5 74.5t-50.5 208.5l125 893q16 115 92 178t205 63q422 0 610 -12l-25 -141h-563zM805 1534l-379 256l96 123
l346 -301z" />
    <glyph glyph-name="Eacute" unicode="&#xc9;" horiz-adv-x="1142" 
d="M563 1262q-70 0 -102.5 -33t-42.5 -107l-43 -307h608l-18 -139h-609l-53 -391q-10 -70 16.5 -101.5t96.5 -31.5h553l-4 -142q-180 -12 -572 -12q-154 0 -223.5 74.5t-50.5 208.5l125 893q16 115 92 178t205 63q422 0 610 -12l-25 -141h-563zM690 1534l-55 80l393 301
l84 -135z" />
    <glyph glyph-name="Ecircumflex" unicode="&#xca;" horiz-adv-x="1142" 
d="M563 1262q-70 0 -102.5 -33t-42.5 -107l-43 -307h608l-18 -139h-609l-53 -391q-10 -70 16.5 -101.5t96.5 -31.5h553l-4 -142q-180 -12 -572 -12q-154 0 -223.5 74.5t-50.5 208.5l125 893q16 115 92 178t205 63q422 0 610 -12l-25 -141h-563zM487 1540l-49 76l303 262h123
l254 -272l-63 -70l-246 209h-16z" />
    <glyph glyph-name="Edieresis" unicode="&#xcb;" horiz-adv-x="1142" 
d="M563 1262q-70 0 -102.5 -33t-42.5 -107l-43 -307h608l-18 -139h-609l-53 -391q-10 -70 16.5 -101.5t96.5 -31.5h553l-4 -142q-180 -12 -572 -12q-154 0 -223.5 74.5t-50.5 208.5l125 893q16 115 92 178t205 63q422 0 610 -12l-25 -141h-563zM975 1614h-57q-51 0 -46 47
l19 113q6 49 57 49h51q31 0 41.5 -11.5t6.5 -37.5l-19 -111q-6 -49 -53 -49zM629 1614h-58q-51 0 -45 47l19 113q6 49 57 49h51q31 0 41.5 -11.5t5.5 -37.5l-18 -111q-6 -49 -53 -49z" />
    <glyph glyph-name="Igrave" unicode="&#xcc;" horiz-adv-x="534" 
d="M274 0h-182l199 1413h182zM502 1569l-64 -78l-379 256l97 123z" />
    <glyph glyph-name="Iacute" unicode="&#xcd;" horiz-adv-x="534" 
d="M274 0h-182l199 1413h182zM743 1739l-421 -248l-54 82l391 299z" />
    <glyph glyph-name="Icircumflex" unicode="&#xce;" horiz-adv-x="534" 
d="M274 0h-182l199 1413h182zM752 1565l-66 -70l-244 207h-16l-305 -203l-51 76l305 260h123z" />
    <glyph glyph-name="Idieresis" unicode="&#xcf;" horiz-adv-x="534" 
d="M274 0h-182l199 1413h182zM580 1782h53q53 0 45 -51l-19 -111q-2 -49 -53 -49h-57q-47 0 -45 47l18 113q9 51 58 51zM233 1782h54q53 0 45 -51l-19 -111q-2 -49 -53 -49h-57q-47 0 -45 47l18 113q8 51 57 51z" />
    <glyph glyph-name="Eth" unicode="&#xd0;" horiz-adv-x="1355" 
d="M582 139q104 0 182 21.5t138.5 86t95 174t58.5 271.5t24.5 257t-14.5 161t-58 101.5t-103.5 50t-155 14.5t-298.5 -4l-66 -471h315l-12 -101h-317l-78 -557q185 -4 289 -4zM546 -18q-186 0 -454 18l98 700h-135l15 101h135l86 612q250 18 463 19q328 0 438.5 -162
t52.5 -570q-33 -229 -82 -370.5t-135 -218t-191 -103t-291 -26.5z" />
    <glyph glyph-name="Ntilde" unicode="&#xd1;" horiz-adv-x="1439" 
d="M1116 0h-164q-51 0 -73 61l-355 1002q-41 111 -55 182h-35q-2 -84 -16 -186l-146 -1059h-180l189 1346q12 68 75 67h160q51 0 74 -61l344 -975q47 -135 65 -205h39q6 113 21 207l141 1034h178l-190 -1345q-8 -68 -72 -68zM629 1565l-82 6q6 119 57 178t123 53t157 -57
t140 -57q105 -11 121 108l80 -8q-2 -113 -52.5 -172.5t-129.5 -53.5t-167 58.5t-134 58.5t-75.5 -22.5t-37.5 -91.5z" />
    <glyph glyph-name="Ograve" unicode="&#xd2;" horiz-adv-x="1363" 
d="M780 1278q-213 0 -310 -123t-142 -450t15 -448.5t270 -121.5t308.5 125t145.5 452.5t-13.5 446.5t-273.5 119zM787 1440q303 0 413 -169t54 -574t-199.5 -564.5t-444.5 -159.5t-413.5 166.5t-57.5 570.5t200 567t448 163zM918 1569l-64 -78l-379 256l96 123z" />
    <glyph glyph-name="Oacute" unicode="&#xd3;" horiz-adv-x="1363" 
d="M780 1278q-213 0 -310 -123t-142 -450t15 -448.5t270 -121.5t308.5 125t145.5 452.5t-13.5 446.5t-273.5 119zM787 1440q303 0 413 -169t54 -574t-199.5 -564.5t-444.5 -159.5t-413.5 166.5t-57.5 570.5t200 567t448 163zM1161 1739l-422 -248l-55 82l393 299z" />
    <glyph glyph-name="Ocircumflex" unicode="&#xd4;" horiz-adv-x="1363" 
d="M780 1278q-213 0 -310 -123t-142 -450t15 -448.5t270 -121.5t308.5 125t145.5 452.5t-13.5 446.5t-273.5 119zM787 1440q303 0 413 -169t54 -574t-199.5 -564.5t-444.5 -159.5t-413.5 166.5t-57.5 570.5t200 567t448 163zM1167 1565l-63 -70l-246 207h-16l-305 -203
l-50 76l304 260h122z" />
    <glyph glyph-name="Otilde" unicode="&#xd5;" horiz-adv-x="1363" 
d="M780 1278q-213 0 -310 -123t-142 -450t15 -448.5t270 -121.5t308.5 125t145.5 452.5t-13.5 446.5t-273.5 119zM787 1440q303 0 413 -169t54 -574t-199.5 -564.5t-444.5 -159.5t-413.5 166.5t-57.5 570.5t200 567t448 163zM578 1565l-82 6q6 119 57 178t123 53t157 -57
t140 -57t83.5 20.5t37.5 87.5l80 -8q-2 -113 -52.5 -172.5t-129.5 -53.5t-167 58.5t-135 58.5q-96 12 -112 -114z" />
    <glyph glyph-name="Odieresis" unicode="&#xd6;" horiz-adv-x="1363" 
d="M780 1278q-213 0 -310 -123t-142 -450t15 -448.5t270 -121.5t308.5 125t145.5 452.5t-13.5 446.5t-273.5 119zM787 1440q303 0 413 -169t54 -574t-199.5 -564.5t-444.5 -159.5t-413.5 166.5t-57.5 570.5t200 567t448 163zM997 1782h52q53 0 47 -51l-19 -111
q-6 -49 -53 -49h-59q-49 0 -43 47l18 113q6 51 57 51zM651 1782h51q53 0 48 -51l-19 -111q-6 -49 -53 -49h-57q-51 0 -46 47l19 113q6 51 57 51z" />
    <glyph glyph-name="multiply" unicode="&#xd7;" horiz-adv-x="1075" 
d="M637 582l260 -273l-94 -96l-275 285l-362 -289l-80 113l348 274l-264 272l96 97l275 -283l370 295l80 -113z" />
    <glyph glyph-name="Oslash" unicode="&#xd8;" horiz-adv-x="1363" 
d="M612 135q211 0 309.5 125t147.5 463t-27 457l-614 -1010q68 -35 184 -35zM782 1278q-215 0 -311.5 -123t-144.5 -461t28 -456l613 1007q-59 33 -185 33zM608 -27q-168 0 -270 47l-86 -143l-84 51l88 146q-182 158 -117 639q55 401 199.5 564t454.5 163q164 0 264 -47
l90 149l86 -49l-92 -152q182 -158 112 -641q-55 -408 -198.5 -567.5t-446.5 -159.5z" />
    <glyph glyph-name="Ugrave" unicode="&#xd9;" horiz-adv-x="1359" 
d="M606 -27q-272 0 -380.5 134.5t-65.5 439.5l119 866h182l-123 -874q-33 -227 26.5 -315.5t244.5 -88.5t275.5 92t123.5 320l118 866h183l-123 -874q-45 -307 -176.5 -436.5t-403.5 -129.5zM915 1569l-63 -78l-379 256l96 123z" />
    <glyph glyph-name="Uacute" unicode="&#xda;" horiz-adv-x="1359" 
d="M606 -27q-272 0 -380.5 134.5t-65.5 439.5l119 866h182l-123 -874q-33 -227 26.5 -315.5t244.5 -88.5t275.5 92t123.5 320l118 866h183l-123 -874q-45 -307 -176.5 -436.5t-403.5 -129.5zM1159 1739l-422 -248l-55 82l393 299z" />
    <glyph glyph-name="Ucircumflex" unicode="&#xdb;" horiz-adv-x="1359" 
d="M606 -27q-272 0 -380.5 134.5t-65.5 439.5l119 866h182l-123 -874q-33 -227 26.5 -315.5t244.5 -88.5t275.5 92t123.5 320l118 866h183l-123 -874q-45 -307 -176.5 -436.5t-403.5 -129.5zM1165 1565l-63 -70l-246 207h-16l-305 -203l-50 76l303 260h123z" />
    <glyph glyph-name="Udieresis" unicode="&#xdc;" horiz-adv-x="1359" 
d="M606 -27q-272 0 -380.5 134.5t-65.5 439.5l119 866h182l-123 -874q-33 -227 26.5 -315.5t244.5 -88.5t275.5 92t123.5 320l118 866h183l-123 -874q-45 -307 -176.5 -436.5t-403.5 -129.5zM995 1782h52q53 0 47 -51l-19 -111q-6 -49 -53 -49h-59q-49 0 -43 47l18 113
q6 51 57 51zM649 1782h51q53 0 48 -51l-19 -111q-6 -49 -53 -49h-58q-51 0 -45 47l19 113q6 51 57 51z" />
    <glyph glyph-name="Yacute" unicode="&#xdd;" horiz-adv-x="1157" 
d="M649 494l-69 -494h-183l72 502l-338 911h184l213 -600q31 -92 41 -160h17q31 82 84 166l381 594h196zM627 1491l-54 82l392 299l84 -133z" />
    <glyph glyph-name="Thorn" unicode="&#xde;" horiz-adv-x="1206" 
d="M727 1008q-231 0 -313 -2l-82 -582h293q164 2 233.5 62.5t93.5 233.5t-22.5 230.5t-202.5 57.5zM746 1161q230 0 325.5 -98t59 -354t-143 -348.5t-340.5 -92.5q-176 0 -334 19l-41 -287h-180l199 1413h180l-35 -256q80 4 310 4z" />
    <glyph glyph-name="germandbls" unicode="&#xdf;" horiz-adv-x="1376" 
d="M872 -23q-180 0 -337 23l20 133q183 -10 293 -9t166.5 25.5t65.5 98.5t-23.5 100.5t-75.5 52.5l-207 125q-156 92 -135 232q7 67 53 117.5t103 81t120 63.5q84 49 122 88.5t44 101.5t-44 92.5t-223 30.5t-243.5 -49t-91.5 -194l-172 -1213q-23 -147 -101.5 -218
t-225.5 -71q-96 0 -226 15l27 131h156q98 0 142 34.5t58 135.5l135 956h-182l19 125l182 10l16 119q32 230 132 284t175.5 66.5t192.5 12.5q264 0 363.5 -60.5t78.5 -214.5q-10 -84 -57 -144.5t-156 -123.5l-84 -42q-84 -42 -129.5 -97.5t-10 -96.5t98.5 -80l201 -120
q90 -55 124 -112.5t21 -160.5q-20 -147 -112.5 -197.5t-272.5 -50.5z" />
    <glyph glyph-name="agrave" unicode="&#xe0;" 
d="M399 127q179 0 408 223l74 520q-147 6 -226 7q-207 0 -273 -67t-100 -303t-10.5 -308t127.5 -72zM655 1022q170 0 416 -47l-137 -975h-137l12 201q-193 -225 -444 -226q-180 0 -242 120t-18 431t138.5 386t168 92.5t243.5 17.5zM707 1122l-379 256l94 123l346 -301z" />
    <glyph glyph-name="aacute" unicode="&#xe1;" 
d="M399 127q179 0 408 223l74 520q-147 6 -226 7q-207 0 -273 -67t-100 -303t-10.5 -308t127.5 -72zM655 1022q170 0 416 -47l-137 -975h-137l12 201q-193 -225 -444 -226q-180 0 -242 120t-18 431t138.5 386t168 92.5t243.5 17.5zM590 1122l-55 82l393 299l84 -133z" />
    <glyph glyph-name="acircumflex" unicode="&#xe2;" 
d="M399 127q179 0 408 223l74 520q-147 6 -226 7q-207 0 -273 -67t-100 -303t-10.5 -308t127.5 -72zM655 1022q170 0 416 -47l-137 -975h-137l12 201q-193 -225 -444 -226q-180 0 -242 120t-18 431t138.5 386t168 92.5t243.5 17.5zM389 1130l-51 76l303 260h125l254 -270
l-66 -70l-243 207h-19z" />
    <glyph glyph-name="atilde" unicode="&#xe3;" 
d="M399 127q179 0 408 223l74 520q-147 6 -226 7q-207 0 -273 -67t-100 -303t-10.5 -308t127.5 -72zM655 1022q170 0 416 -47l-137 -975h-137l12 201q-193 -225 -444 -226q-180 0 -242 120t-18 431t138.5 386t168 92.5t243.5 17.5zM944 1427l82 -8q-4 -113 -54 -172
t-129 -53t-166 59.5t-134 58.5q-95 10 -115 -116l-82 6q6 119 58 178.5t124 53.5t157 -57.5t139 -57.5q104 -12 120 108z" />
    <glyph glyph-name="adieresis" unicode="&#xe4;" 
d="M399 127q179 0 408 223l74 520q-147 6 -226 7q-207 0 -273 -67t-100 -303t-10.5 -308t127.5 -72zM655 1022q170 0 416 -47l-137 -975h-137l12 201q-193 -225 -444 -226q-180 0 -242 120t-18 431t138.5 386t168 92.5t243.5 17.5zM874 1202h-57q-51 0 -45 47l19 115
q6 49 57 49h53q51 0 45 -49l-18 -113q-7 -49 -54 -49zM528 1202h-57q-51 0 -45 47l18 115q6 49 58 49h53q51 0 45 -49l-18 -113q-7 -49 -54 -49z" />
    <glyph glyph-name="aring" unicode="&#xe5;" 
d="M399 127q179 0 408 223l74 520q-147 6 -226 7q-207 0 -273 -67t-100 -303t-10.5 -308t127.5 -72zM655 1022q170 0 416 -47l-137 -975h-137l12 201q-193 -225 -444 -226q-180 0 -242 120t-18 431t138.5 386t168 92.5t243.5 17.5zM677 1186q52 0 89 36t42 90t-24.5 89
t-85.5 35t-91.5 -36t-41.5 -91t27 -89t85 -34zM672 1096q-98 0 -155.5 62.5t-47.5 154.5t72.5 152.5t158.5 60.5t155.5 -63.5t49.5 -155.5t-72.5 -151.5t-160.5 -59.5z" />
    <glyph glyph-name="ae" unicode="&#xe6;" horiz-adv-x="1787" 
d="M1296 877q-154 0 -224 -69t-103 -288l354 35q100 8 146.5 42t61.5 129t-33 123t-202 28zM393 127q172 0 383 205q-2 86 12 190q31 236 113 344q-180 10 -250 11q-203 0 -269 -68t-98 -302t-10.5 -307t119.5 -73zM646 1022q163 0 394 -45q104 45 312 45t292.5 -79
t59.5 -231t-112 -213t-267 -75l-369 -33q-6 -158 82 -233t543 -11l12 -116q-135 -55 -401 -56q-324 0 -393 224q-186 -223 -441 -224q-178 0 -237.5 122t-16.5 431t138.5 384t168 92.5t235.5 17.5z" />
    <glyph glyph-name="ccedilla" unicode="&#xe7;" horiz-adv-x="991" 
d="M352 -195l21 82q127 12 178 -18.5t35 -122.5q-20 -125 -124 -192.5t-249 -47.5l33 93q82 -2 142.5 40t72.5 109q6 35 -14.5 45t-94.5 12zM631 1022q197 0 319 -49l-28 -109q-111 10 -281 10t-253 -77.5t-112 -303.5t25.5 -298t228.5 -72t304 20l12 -118
q-158 -49 -342 -50q-262 0 -356.5 122t-53.5 408t161 401.5t376 115.5z" />
    <glyph glyph-name="egrave" unicode="&#xe8;" horiz-adv-x="1099" 
d="M606 877q-154 0 -223 -69t-104 -288l354 35q102 8 147.5 42t61.5 129t-33 123t-203 28zM622 1022q248 0 333 -79t59 -231t-112.5 -213t-266.5 -75l-369 -33q-4 -158 81 -231.5t552 -12.5l12 -116q-141 -55 -402 -55t-355.5 131t-54.5 419t157.5 392t365.5 104zM692 1122
l-379 256l97 123l346 -301z" />
    <glyph glyph-name="eacute" unicode="&#xe9;" horiz-adv-x="1099" 
d="M606 877q-154 0 -223 -69t-104 -288l354 35q102 8 147.5 42t61.5 129t-33 123t-203 28zM622 1022q248 0 333 -79t59 -231t-112.5 -213t-266.5 -75l-369 -33q-4 -158 81 -231.5t552 -12.5l12 -116q-141 -55 -402 -55t-355.5 131t-54.5 419t157.5 392t365.5 104zM575 1122
l-53 82l391 299l86 -133z" />
    <glyph glyph-name="ecircumflex" unicode="&#xea;" horiz-adv-x="1099" 
d="M606 877q-154 0 -223 -69t-104 -288l354 35q102 8 147.5 42t61.5 129t-33 123t-203 28zM622 1022q248 0 333 -79t59 -231t-112.5 -213t-266.5 -75l-369 -33q-4 -158 81 -231.5t552 -12.5l12 -116q-141 -55 -402 -55t-355.5 131t-54.5 419t157.5 392t365.5 104zM375 1130
l-51 76l305 260h123l254 -270l-66 -70l-244 207h-16z" />
    <glyph glyph-name="edieresis" unicode="&#xeb;" horiz-adv-x="1099" 
d="M606 877q-154 0 -223 -69t-104 -288l354 35q102 8 147.5 42t61.5 129t-33 123t-203 28zM622 1022q248 0 333 -79t59 -231t-112.5 -213t-266.5 -75l-369 -33q-4 -158 81 -231.5t552 -12.5l12 -116q-141 -55 -402 -55t-355.5 131t-54.5 419t157.5 392t365.5 104zM860 1202
h-57q-47 0 -45 47l18 115q10 49 58 49h53q55 0 45 -49l-19 -113q-4 -49 -53 -49zM514 1202h-57q-47 0 -45 47l18 115q8 49 57 49h54q53 0 45 -49l-19 -113q-2 -49 -53 -49z" />
    <glyph glyph-name="igrave" unicode="&#xec;" horiz-adv-x="503" 
d="M254 0h-174l141 997h174zM436 1200l-63 -78l-379 256l96 123z" />
    <glyph glyph-name="iacute" unicode="&#xed;" horiz-adv-x="503" 
d="M254 0h-174l141 997h174zM678 1370l-422 -248l-53 82l391 299z" />
    <glyph glyph-name="icircumflex" unicode="&#xee;" horiz-adv-x="503" 
d="M254 0h-174l141 997h174zM686 1196l-65 -70l-244 207h-17l-305 -203l-51 76l305 260h123z" />
    <glyph glyph-name="idieresis" unicode="&#xef;" horiz-adv-x="503" 
d="M254 0h-174l141 997h174zM514 1413h53q51 0 45 -49l-18 -113q-4 -49 -53 -49h-58q-47 0 -45 47l19 115q10 49 57 49zM168 1413h53q51 0 45 -49l-18 -113q-2 -49 -53 -49h-58q-47 0 -45 47l19 115q8 49 57 49z" />
    <glyph glyph-name="eth" unicode="&#xf0;" horiz-adv-x="1136" 
d="M494 121q150 0 230 115.5t116 453.5q-104 82 -253 82t-221.5 -82t-97.5 -253t25.5 -243.5t200.5 -72.5zM486 -27q-244 0 -336.5 117.5t-61.5 353.5t141.5 355t308.5 119t306 -111q0 258 -115 379l-182 -125l-47 69l157 111q-109 66 -313 62l27 127q254 10 415 -97
l172 121l52 -74l-154 -104q215 -215 150 -705q-39 -299 -157.5 -448.5t-362.5 -149.5z" />
    <glyph glyph-name="ntilde" unicode="&#xf1;" horiz-adv-x="1183" 
d="M819 1022q127 0 190.5 -70.5t45.5 -206.5l-107 -745h-174l100 702q12 96 -12 134t-105 38t-176.5 -53t-244.5 -172l-90 -649h-174l141 997h139l-14 -219q274 244 481 244zM954 1427l80 -8q-2 -113 -52 -172t-129 -53t-167 59.5t-135 58.5q-97 10 -113 -116l-82 6
q6 119 57.5 178.5t123.5 53.5t156.5 -57.5t139.5 -57.5t83 20.5t38 87.5z" />
    <glyph glyph-name="ograve" unicode="&#xf2;" horiz-adv-x="1155" 
d="M625 874q-164 0 -241 -79t-108 -299t17.5 -297.5t212.5 -77.5t240.5 82t107.5 299t-17 294.5t-212 77.5zM629 1022q254 0 349 -123t55 -408t-160.5 -401.5t-371.5 -116.5t-348.5 123t-57.5 407t160 401.5t374 117.5zM758 1200l-64 -78l-379 256l97 123z" />
    <glyph glyph-name="oacute" unicode="&#xf3;" horiz-adv-x="1155" 
d="M625 874q-164 0 -241 -79t-108 -299t17.5 -297.5t212.5 -77.5t240.5 82t107.5 299t-17 294.5t-212 77.5zM629 1022q254 0 349 -123t55 -408t-160.5 -401.5t-371.5 -116.5t-348.5 123t-57.5 407t160 401.5t374 117.5zM1001 1370l-423 -248l-54 82l394 299z" />
    <glyph glyph-name="ocircumflex" unicode="&#xf4;" horiz-adv-x="1155" 
d="M625 874q-164 0 -241 -79t-108 -299t17.5 -297.5t212.5 -77.5t240.5 82t107.5 299t-17 294.5t-212 77.5zM629 1022q254 0 349 -123t55 -408t-160.5 -401.5t-371.5 -116.5t-348.5 123t-57.5 407t160 401.5t374 117.5zM1008 1196l-66 -70l-244 207h-16l-305 -203l-49 76
l303 260h123z" />
    <glyph glyph-name="otilde" unicode="&#xf5;" horiz-adv-x="1155" 
d="M625 874q-164 0 -241 -79t-108 -299t17.5 -297.5t212.5 -77.5t240.5 82t107.5 299t-17 294.5t-212 77.5zM629 1022q254 0 349 -123t55 -408t-160.5 -401.5t-371.5 -116.5t-348.5 123t-57.5 407t160 401.5t374 117.5zM418 1196l-82 6q4 119 56 178.5t124 53.5
t229.5 -101.5t188.5 94.5l80 -8q-2 -113 -53 -172t-129 -53t-166 59.5t-135 58.5q-97 10 -113 -116z" />
    <glyph glyph-name="odieresis" unicode="&#xf6;" horiz-adv-x="1155" 
d="M625 874q-164 0 -241 -79t-108 -299t17.5 -297.5t212.5 -77.5t240.5 82t107.5 299t-17 294.5t-212 77.5zM629 1022q254 0 349 -123t55 -408t-160.5 -401.5t-371.5 -116.5t-348.5 123t-57.5 407t160 401.5t374 117.5zM836 1413h53q53 0 45 -49l-16 -113q-6 -49 -56 -49
h-57q-49 0 -43 47l16 115q9 49 58 49zM489 1413h54q55 0 45 -49l-17 -113q-6 -49 -53 -49h-59q-49 0 -43 47l16 115q10 49 57 49z" />
    <glyph glyph-name="divide" unicode="&#xf7;" horiz-adv-x="1161" 
d="M516 360h47q70 0 62 -69l-17 -101q-6 -59 -67 -59h-47q-66 0 -58 70l15 96q6 63 65 63zM1020 539h-897l20 131h897zM618 1075h46q72 -2 59 -69l-12 -101q-8 -59 -70 -59h-45q-72 0 -61 67l14 99q8 63 69 63z" />
    <glyph glyph-name="oslash" unicode="&#xf8;" horiz-adv-x="1155" 
d="M502 121q168 0 244.5 82t108.5 312t-34 302l-418 -688q39 -8 99 -8zM629 874q-168 0 -245.5 -79t-109.5 -319t48 -310l421 696q-37 12 -114 12zM502 -27q-106 0 -180 21l-91 -148l-75 45l82 136q-195 104 -144 477q41 283 161 400.5t374 117.5q125 0 198 -25l93 156
l77 -45l-88 -145q176 -111 123 -474q-39 -283 -159.5 -399.5t-370.5 -116.5z" />
    <glyph glyph-name="ugrave" unicode="&#xf9;" horiz-adv-x="1161" 
d="M340 -27q-135 0 -196.5 74t-41.5 205l105 745h174l-100 -702q-14 -92 13.5 -131t109.5 -39t168.5 53t226.5 178l88 641h174l-139 -997h-136l15 217q-250 -244 -461 -244zM702 1130l-378 256l96 123l346 -301z" />
    <glyph glyph-name="uacute" unicode="&#xfa;" horiz-adv-x="1161" 
d="M340 -27q-135 0 -196.5 74t-41.5 205l105 745h174l-100 -702q-14 -92 13.5 -131t109.5 -39t168.5 53t226.5 178l88 641h174l-139 -997h-136l15 217q-250 -244 -461 -244zM586 1130l-54 80l394 301l84 -135z" />
    <glyph glyph-name="ucircumflex" unicode="&#xfb;" horiz-adv-x="1161" 
d="M340 -27q-135 0 -196.5 74t-41.5 205l105 745h174l-100 -702q-14 -92 13.5 -131t109.5 -39t168.5 53t226.5 178l88 641h174l-139 -997h-136l15 217q-250 -244 -461 -244zM385 1139l-49 75l303 261h123l254 -271l-64 -69l-245 206h-17z" />
    <glyph glyph-name="udieresis" unicode="&#xfc;" horiz-adv-x="1161" 
d="M340 -27q-135 0 -196.5 74t-41.5 205l105 745h174l-100 -702q-14 -92 13.5 -131t109.5 -39t168.5 53t226.5 178l88 641h174l-139 -997h-136l15 217q-250 -244 -461 -244zM872 1210h-59q-49 0 -43 47l16 113q8 51 58 51h53q53 0 45 -51l-16 -110q-7 -50 -54 -50zM526 1210
h-59q-49 0 -43 47l16 113q8 51 58 51h53q53 0 45 -51l-16 -110q-7 -50 -54 -50z" />
    <glyph glyph-name="yacute" unicode="&#xfd;" horiz-adv-x="1103" 
d="M399 0q-45 0 -75.5 25.5t-40.5 66.5l-193 905h182l158 -821q10 -39 47 -39h98l17 33q16 33 24 47q193 377 275 780h180q-109 -481 -303 -831q-158 -293 -308.5 -422t-355.5 -166l-32 125q125 29 224 96.5t193 200.5h-90zM522 1122l-55 82l393 299l84 -133z" />
    <glyph glyph-name="thorn" unicode="&#xfe;" 
d="M492 121q205 0 270 65.5t98 303.5t10.5 309t-122.5 71q-179 0 -412 -227l-70 -518q197 -4 226 -4zM786 1022q170 0 233.5 -119t20.5 -430t-136 -388t-164.5 -94.5t-193.5 -17.5t-300 25q-16 -127 -21 -148l-37 -262h-172l258 1846h175l-54 -383q-18 -136 -41 -224l2 -12
q188 207 430 207z" />
    <glyph glyph-name="ydieresis" unicode="&#xff;" horiz-adv-x="1103" 
d="M399 0q-45 0 -75.5 25.5t-40.5 66.5l-193 905h182l158 -821q10 -39 47 -39h98l17 33q16 33 24 47q193 377 275 780h180q-109 -481 -303 -831q-158 -293 -308.5 -422t-355.5 -166l-32 125q125 29 224 96.5t193 200.5h-90zM807 1202h-57q-51 0 -45 47l18 115q6 49 57 49h54
q51 0 45 -49l-19 -113q-6 -49 -53 -49zM461 1202h-58q-51 0 -45 47l19 115q6 49 57 49h53q51 0 45 -49l-18 -113q-6 -49 -53 -49z" />
    <glyph glyph-name="Amacron" unicode="&#x100;" horiz-adv-x="1267" 
d="M885 598l-99 557q-10 89 -16 121h-61l-308 -678h484zM655 1413h189q25 0 42 -15.5t19 -37.5l264 -1360h-180l-76 440h-583l-201 -440h-190l647 1366q14 47 69 47zM1069 1610h-571l16 129h571z" />
    <glyph glyph-name="amacron" unicode="&#x101;" 
d="M399 127q179 0 408 223l74 520q-147 6 -226 7q-207 0 -273 -67t-100 -303t-10.5 -308t127.5 -72zM655 1022q170 0 416 -47l-137 -975h-137l12 201q-193 -225 -444 -226q-180 0 -242 120t-18 431t138.5 386t168 92.5t243.5 17.5zM963 1241h-572l19 129h569z" />
    <glyph glyph-name="Abreve" unicode="&#x102;" horiz-adv-x="1267" 
d="M885 598l-99 557q-10 89 -16 121h-61l-308 -678h484zM655 1413h189q25 0 42 -15.5t19 -37.5l264 -1360h-180l-76 440h-583l-201 -440h-190l647 1366q14 47 69 47zM776 1528q-148 0 -223.5 75.5t-50.5 196.5l90 6q-10 -72 40 -110.5t152 -38.5t167 42t75 116l88 -23
q-10 -119 -100 -191.5t-238 -72.5z" />
    <glyph glyph-name="abreve" unicode="&#x103;" 
d="M399 127q179 0 408 223l74 520q-147 6 -226 7q-207 0 -273 -67t-100 -303t-10.5 -308t127.5 -72zM655 1022q170 0 416 -47l-137 -975h-137l12 201q-193 -225 -444 -226q-180 0 -242 120t-18 431t138.5 386t168 92.5t243.5 17.5zM670 1159q-146 0 -222.5 76t-52.5 197
l90 6q-10 -72 40.5 -111t152.5 -39t167 42t75 116l88 -23q-10 -119 -101 -191.5t-237 -72.5z" />
    <glyph glyph-name="Aogonek" unicode="&#x104;" horiz-adv-x="1267" 
d="M885 598l-99 557q-10 89 -16 121h-61l-308 -678h484zM655 1413h189q25 0 42 -15t19 -38l264 -1360q-113 -119 -180 -240q-41 -72 -2 -93t141 11l21 -75q-229 -91 -282 -10t1 186q53 105 211 221h-90l-76 440h-583l-201 -440h-190l647 1366q14 47 69 47z" />
    <glyph glyph-name="aogonek" unicode="&#x105;" 
d="M399 127q179 0 408 223l74 520q-147 6 -226 7q-207 0 -273 -67t-100 -303t-10.5 -308t127.5 -72zM655 1022q170 0 416 -47l-137 -975q-113 -115 -182 -240q-41 -72 -2.5 -93t141.5 11l20 -75q-227 -90 -281 -9.5t-5 173.5q59 117 217 233h-45l12 201q-193 -225 -444 -226
q-180 0 -242 120t-18 431t138.5 386t168 92.5t243.5 17.5z" />
    <glyph glyph-name="Cacute" unicode="&#x106;" horiz-adv-x="1159" 
d="M600 -25q-303 0 -409.5 173.5t-50.5 570.5t198.5 558t445.5 161q227 0 385 -43l-28 -135q-182 18 -377 18t-293 -120t-143 -448t14.5 -450.5t269.5 -123.5t394 22l10 -138q-168 -45 -416 -45zM1133 1739l-424 -248l-54 82l394 299z" />
    <glyph glyph-name="cacute" unicode="&#x107;" horiz-adv-x="991" 
d="M631 1022q197 0 319 -49l-28 -109q-111 10 -281 10t-253 -77.5t-112 -303.5t25.5 -298t228.5 -72t304 20l12 -118q-158 -49 -342 -50q-262 0 -356.5 122t-53.5 408t161 401.5t376 115.5zM965 1370l-422 -248l-56 82l394 299z" />
    <glyph glyph-name="Cdotaccent" unicode="&#x10a;" horiz-adv-x="1159" 
d="M600 -25q-303 0 -409.5 173.5t-50.5 570.5t198.5 558t445.5 161q227 0 385 -43l-28 -135q-182 18 -377 18t-293 -120t-143 -448t14.5 -450.5t269.5 -123.5t394 22l10 -138q-168 -45 -416 -45zM786 1776h58q57 0 49 -56l-16 -116q-6 -49 -56 -50h-55q-27 0 -40 15.5
t-9 40.5l14 116q8 50 55 50z" />
    <glyph glyph-name="cdotaccent" unicode="&#x10b;" horiz-adv-x="991" 
d="M631 1022q197 0 319 -49l-28 -109q-111 10 -281 10t-253 -77.5t-112 -303.5t25.5 -298t228.5 -72t304 20l12 -118q-158 -49 -342 -50q-262 0 -356.5 122t-53.5 408t161 401.5t376 115.5zM621 1407h55q57 0 51 -55l-16 -115q-8 -51 -56 -51h-55q-27 0 -41 15.5t-10 39.5
l16 117q7 49 56 49z" />
    <glyph glyph-name="Ccaron" unicode="&#x10c;" horiz-adv-x="1159" 
d="M600 -25q-303 0 -409.5 173.5t-50.5 570.5t198.5 558t445.5 161q227 0 385 -43l-28 -135q-182 18 -377 18t-293 -120t-143 -448t14.5 -450.5t269.5 -123.5t394 22l10 -138q-168 -45 -416 -45zM1159 1784l-307 -260h-127l-240 270l72 66l231 -205h17l299 205z" />
    <glyph glyph-name="ccaron" unicode="&#x10d;" horiz-adv-x="991" 
d="M631 1022q197 0 319 -49l-28 -109q-111 10 -281 10t-253 -77.5t-112 -303.5t25.5 -298t228.5 -72t304 20l12 -118q-158 -49 -342 -50q-262 0 -356.5 122t-53.5 408t161 401.5t376 115.5zM991 1415l-305 -260h-127l-240 270l70 66l232 -205h16l301 205z" />
    <glyph glyph-name="Dcaron" unicode="&#x10e;" horiz-adv-x="1355" 
d="M582 139q104 0 182 21.5t138.5 86t95 174t58.5 271.5t24.5 257t-14.5 161t-58 101.5t-103.5 50t-154.5 14.5t-299 -4l-158 -1129q185 -4 289 -4zM546 -18q-186 0 -454 18l199 1413q250 18 463 19q328 0 438.5 -162t52.5 -570q-33 -229 -82 -370.5t-135 -218t-191 -103
t-291 -26.5zM717 1524l-240 270l70 66l231 -205h17l301 205l53 -76l-305 -260h-127z" />
    <glyph glyph-name="dcaron" unicode="&#x10f;" horiz-adv-x="1171" 
d="M391 127q98 0 194.5 54t223.5 175l70 518q-197 4 -268 4t-128 -11t-101 -55t-65 -114.5t-45 -243.5t-1.5 -250t120.5 -77zM1323 1434h47q59 0 51 -58l-16 -112q-18 -123 -105 -269l-77 27q47 145 59 209q-25 -2 -38 11t-9 36l16 102q6 31 20.5 42.5t51.5 11.5zM344 -25
q-158 0 -220.5 123t-21.5 412q25 164 64 267.5t103.5 156.5t135 70.5t195.5 17.5t307 -25q4 100 17 191l34 246h175l-201 -1434h-137l14 217q-221 -242 -465 -242z" />
    <glyph glyph-name="Dcroat" unicode="&#x110;" horiz-adv-x="1355" 
d="M582 139q104 0 182 21.5t138.5 86t95 174t58.5 271.5t24.5 257t-14.5 161t-58 101.5t-103.5 50t-155 14.5t-298.5 -4l-66 -471h315l-12 -101h-317l-78 -557q185 -4 289 -4zM546 -18q-186 0 -454 18l98 700h-135l15 101h135l86 612q250 18 463 19q328 0 438.5 -162
t52.5 -570q-33 -229 -82 -370.5t-135 -218t-191 -103t-291 -26.5z" />
    <glyph glyph-name="dcroat" unicode="&#x111;" horiz-adv-x="1171" 
d="M391 127q98 0 194.5 54t223.5 175l70 518q-197 4 -268 4t-128 -11t-101 -55t-65 -114.5t-45 -243.5t-1.5 -250t120.5 -77zM344 -25q-158 0 -220.5 123t-21.5 412q25 164 64 267.5t103.5 156.5t135 70.5t195.5 17.5t307 -25q2 92 15 183h-304l15 98h303l22 156h175
l-21 -156h148l-13 -98h-149l-166 -1180h-137l14 217q-221 -242 -465 -242z" />
    <glyph glyph-name="Emacron" unicode="&#x112;" horiz-adv-x="1142" 
d="M563 1262q-70 0 -102.5 -33t-42.5 -107l-43 -307h608l-18 -139h-609l-53 -391q-10 -70 16.5 -101.5t96.5 -31.5h553l-4 -142q-180 -12 -572 -12q-154 0 -223.5 74.5t-50.5 208.5l125 893q16 115 92 178t205 63q422 0 610 -12l-25 -141h-563zM1061 1651h-572l19 131h571z
" />
    <glyph glyph-name="emacron" unicode="&#x113;" horiz-adv-x="1099" 
d="M606 877q-154 0 -223 -69t-104 -288l354 35q102 8 147.5 42t61.5 129t-33 123t-203 28zM622 1022q248 0 333 -79t59 -231t-112.5 -213t-266.5 -75l-369 -33q-4 -158 81 -231.5t552 -12.5l12 -116q-141 -55 -402 -55t-355.5 131t-54.5 419t157.5 392t365.5 104zM948 1241
h-571l18 129h572z" />
    <glyph glyph-name="Edotaccent" unicode="&#x116;" horiz-adv-x="1142" 
d="M563 1262q-70 0 -102.5 -33t-42.5 -107l-43 -307h608l-18 -139h-609l-53 -391q-10 -70 16.5 -101.5t96.5 -31.5h553l-4 -142q-180 -12 -572 -12q-154 0 -223.5 74.5t-50.5 208.5l125 893q16 115 92 178t205 63q422 0 610 -12l-25 -141h-563zM803 1595h-58q-53 0 -49 58
l15 114q8 51 55 52h57q57 0 51 -58l-16 -114q-8 -52 -55 -52z" />
    <glyph glyph-name="edotaccent" unicode="&#x117;" horiz-adv-x="1099" 
d="M606 877q-154 0 -223 -69t-104 -288l354 35q102 8 147.5 42t61.5 129t-33 123t-203 28zM622 1022q248 0 333 -79t59 -231t-112.5 -213t-266.5 -75l-369 -33q-4 -158 81 -231.5t552 -12.5l12 -116q-141 -55 -402 -55t-355.5 131t-54.5 419t157.5 392t365.5 104zM688 1186
h-55q-27 0 -40 15.5t-9 39.5l14 117q8 49 55 49h58q57 0 49 -55l-17 -115q-6 -51 -55 -51z" />
    <glyph glyph-name="Eogonek" unicode="&#x118;" horiz-adv-x="1142" 
d="M563 1262q-70 0 -102.5 -33t-42.5 -107l-43 -307h608l-18 -139h-609l-53 -391q-10 -70 16.5 -101.5t96.5 -31.5h553l-4 -142q-106 -111 -181 -239q-41 -72 -2 -93.5t142 11.5l20 -76q-98 -39 -170 -40t-103.5 27.5t-38.5 74.5t23 102q59 117 211 227q-154 -6 -473 -6
q-154 0 -223.5 74.5t-50.5 208.5l125 893q16 115 92 178t205 63q422 0 610 -12l-25 -141h-563z" />
    <glyph glyph-name="eogonek" unicode="&#x119;" horiz-adv-x="1099" 
d="M606 877q-154 0 -223 -69t-104 -288l354 35q102 8 147.5 42t61.5 129t-33 123t-203 28zM504 -25q-256 0 -350.5 131.5t-54.5 419.5t157.5 392t365.5 104t333 -79t59 -231t-112.5 -213t-266.5 -75l-369 -33q-4 -158 59 -213t223 -55t351 24l12 -116q-113 -117 -180 -240
q-41 -72 -2 -93.5t139 11.5l21 -76q-96 -39 -169 -41t-125.5 49.5t7.5 155.5q49 96 176 201q-129 -23 -274 -23z" />
    <glyph glyph-name="Ecaron" unicode="&#x11a;" horiz-adv-x="1142" 
d="M563 1262q-70 0 -102.5 -33t-42.5 -107l-43 -307h608l-18 -139h-609l-53 -391q-10 -70 16.5 -101.5t96.5 -31.5h553l-4 -142q-180 -12 -572 -12q-154 0 -223.5 74.5t-50.5 208.5l125 893q16 115 92 178t205 63q422 0 610 -12l-25 -141h-563zM707 1565l-240 272l70 64
l231 -203h16l301 203l54 -74l-308 -262h-124z" />
    <glyph glyph-name="ecaron" unicode="&#x11b;" horiz-adv-x="1099" 
d="M606 877q-154 0 -223 -69t-104 -288l354 35q102 8 147.5 42t61.5 129t-33 123t-203 28zM622 1022q248 0 333 -79t59 -231t-112.5 -213t-266.5 -75l-369 -33q-4 -158 81 -231.5t552 -12.5l12 -116q-141 -55 -402 -55t-355.5 131t-54.5 419t157.5 392t365.5 104zM592 1155
l-240 270l72 66l231 -205h17l299 205l55 -76l-307 -260h-127z" />
    <glyph glyph-name="Gbreve" unicode="&#x11e;" horiz-adv-x="1277" 
d="M859 1278q-157 0 -236.5 -22.5t-141 -88t-96.5 -176t-57 -291.5q-35 -315 12 -441t207 -126q102 0 188 50t199 161l65 475h175l-117 -819h-129l4 195q-193 -221 -445 -222q-223 0 -307 177.5t-41 562.5q58 436 184 550.5t230.5 145.5t296.5 31t364 -45l-26 -133
q-172 16 -329 16zM808 1528q-146 0 -223 75.5t-53 196.5l91 6q-10 -72 40 -110.5t152 -38.5t167 42t75 116l88 -23q-10 -119 -100.5 -191.5t-236.5 -72.5z" />
    <glyph glyph-name="gbreve" unicode="&#x11f;" horiz-adv-x="1177" 
d="M401 127q177 0 408 225l78 518q-152 6 -236 7q-201 0 -267 -67t-100 -302t-10.5 -308t127.5 -73zM346 -25q-154 0 -219.5 120t-18.5 431t138.5 386t160.5 92.5t243 17.5t423 -47h4l-139 -957q-53 -438 -567 -450q-197 -8 -340 33l18 116q143 -6 324 -2q340 10 389 269
q41 195 82 258q-90 -119 -217 -193t-281 -74zM672 1159q-148 0 -224.5 76t-52.5 197l90 6q-8 -72 42.5 -111t151.5 -39t168 42t75 116l88 -23q-10 -119 -100 -191.5t-238 -72.5z" />
    <glyph glyph-name="Gdotaccent" unicode="&#x120;" horiz-adv-x="1277" 
d="M859 1278q-157 0 -236.5 -22.5t-141 -88t-96.5 -176t-57 -291.5q-35 -315 12 -441t207 -126q102 0 188 50t199 161l65 475h175l-117 -819h-129l4 195q-193 -221 -445 -222q-223 0 -307 177.5t-41 562.5q58 436 184 550.5t230.5 145.5t296.5 31t364 -45l-26 -133
q-172 16 -329 16zM840 1554h-56q-27 0 -40 15.5t-9 40.5l15 116q6 49 55 50h55q27 0 41 -15.5t10 -40.5l-16 -116q-6 -50 -55 -50z" />
    <glyph glyph-name="gdotaccent" unicode="&#x121;" horiz-adv-x="1177" 
d="M401 127q177 0 408 225l78 518q-152 6 -236 7q-201 0 -267 -67t-100 -302t-10.5 -308t127.5 -73zM346 -25q-154 0 -219.5 120t-18.5 431t138.5 386t160.5 92.5t243 17.5t423 -47h4l-139 -957q-53 -438 -567 -450q-197 -8 -340 33l18 116q143 -6 324 -2q340 10 389 269
q41 195 82 258q-90 -119 -217 -193t-281 -74zM702 1186h-55q-55 0 -49 55l14 117q8 49 56 49h57q57 0 51 -55l-16 -115q-9 -51 -58 -51z" />
    <glyph glyph-name="Gcommaaccent" unicode="&#x122;" horiz-adv-x="1277" 
d="M565 -119h49q61 0 50 -59l-17 -113q-14 -115 -104 -270l-78 26q47 137 61 211q-25 -2 -38 11.5t-11 36.5l17 104q6 31 20 42t51 11zM859 1278q-157 0 -236.5 -22.5t-141 -88t-96.5 -176t-57 -291.5q-35 -315 12 -441t207 -126q102 0 188 50t199 161l65 475h175l-117 -819
h-129l4 195q-193 -221 -445 -222q-223 0 -307 177.5t-41 562.5q58 436 184 550.5t230.5 145.5t296.5 31t364 -45l-26 -133q-172 16 -329 16z" />
    <glyph glyph-name="gcommaaccent" unicode="&#x123;" horiz-adv-x="1177" 
d="M401 127q177 0 408 225l78 518q-152 6 -236 7q-201 0 -267 -67t-100 -302t-10.5 -308t127.5 -73zM346 -25q-154 0 -219.5 120t-18.5 431t138.5 386t160.5 92.5t243 17.5t423 -47h4l-139 -957q-53 -438 -567 -450q-197 -8 -340 33l18 116q143 -6 324 -2q340 10 389 269
q41 195 82 258q-90 -119 -217 -193t-281 -74zM688 1141h-47q-59 0 -51 59l16 113q16 123 105 268l77 -25q-47 -135 -59 -210q25 2 37 -11.5t10 -36.5l-16 -104q-6 -31 -20.5 -42t-51.5 -11z" />
    <glyph glyph-name="Hbar" unicode="&#x126;" horiz-adv-x="1363" 
d="M1075 1063h-651l-33 -232h651zM1405 1063h-152l-149 -1063h-178l94 676h-651l-95 -676h-182l150 1063h-138l15 96h137l35 254h182l-37 -254h651l37 254h179l-35 -254h149z" />
    <glyph glyph-name="hbar" unicode="&#x127;" horiz-adv-x="1183" 
d="M819 1022q127 0 190.5 -70.5t45.5 -206.5l-107 -745h-174l100 702q12 96 -12 134t-105 38t-175.5 -53t-245.5 -174l-90 -647h-174l168 1180h-148l14 98h146l22 156h175l-21 -156h305l-14 -98h-305l-21 -148q-16 -133 -47 -246q270 236 473 236z" />
    <glyph glyph-name="Imacron" unicode="&#x12a;" horiz-adv-x="534" 
d="M274 0h-182l199 1413h182zM694 1610h-571l18 129h572z" />
    <glyph glyph-name="imacron" unicode="&#x12b;" horiz-adv-x="503" 
d="M254 0h-174l141 997h174zM629 1241h-572l19 129h571z" />
    <glyph glyph-name="Iogonek" unicode="&#x12e;" horiz-adv-x="534" 
d="M274 0h-22q-113 -119 -180 -240q-41 -72 -2 -93t141 11l20 -75q-227 -90 -281 -9.5t-5 173.5q59 117 217 233h-70l199 1413h182z" />
    <glyph glyph-name="iogonek" unicode="&#x12f;" horiz-adv-x="503" 
d="M221 997h174l-141 -997h-12q-113 -117 -181 -240q-41 -72 -2 -93t140 11l20 -75q-96 -39 -169 -40t-103.5 27.5t-38.5 74.5t24 102q59 115 220 233h-72zM334 1407h57q25 0 39 -15.5t10 -39.5l-16 -115q-6 -51 -55 -51h-56q-27 0 -40 15.5t-9 39.5l15 117q6 49 55 49z" />
    <glyph glyph-name="Idotaccent" unicode="&#x130;" horiz-adv-x="534" 
d="M274 0h-182l199 1413h182zM399 1776h58q25 0 39 -15.5t10 -40.5l-17 -116q-6 -49 -55 -50h-55q-27 0 -40 15.5t-9 40.5l14 116q6 50 55 50z" />
    <glyph glyph-name="dotlessi" unicode="&#x131;" horiz-adv-x="503" 
d="M254 0h-174l141 997h174z" />
    <glyph glyph-name="IJ" unicode="&#x132;" horiz-adv-x="1228" 
d="M707 -18q-106 0 -191 26l35 127h96q166 0 189 158l155 1120h183l-160 -1120q-43 -311 -307 -311zM274 0h-182l199 1413h182z" />
    <glyph glyph-name="ij" unicode="&#x133;" horiz-adv-x="1007" 
d="M897 997l-143 -1026q-35 -248 -242 -389l-92 80q135 143 160 318l145 1017h172zM254 0h-172l139 997h172zM825 1421h82q55 0 49 -57l-16 -117q-6 -49 -55 -49h-82q-59 0 -49 57l16 115q6 51 55 51zM322 1421h81q27 0 40.5 -16t9.5 -41l-15 -117q-8 -49 -57 -49h-80
q-57 0 -51 57l16 115q7 51 56 51z" />
    <glyph glyph-name="Kcommaaccent" unicode="&#x136;" horiz-adv-x="1214" 
d="M537 -119h47q59 0 51 -59l-17 -113q-16 -121 -104 -270l-78 26q43 123 60 211q-25 -2 -38.5 11.5t-8.5 36.5l16 104q6 31 20.5 42t51.5 11zM352 664q0 -92 -10 -154l-70 -510h-180l199 1413h180l-63 -444q-12 -82 -33 -160h166l506 604h219l-492 -586q-55 -63 -96 -90v-8
q35 -41 67 -102l349 -627h-205l-363 664h-174z" />
    <glyph glyph-name="kcommaaccent" unicode="&#x137;" horiz-adv-x="1067" 
d="M475 -121h49q61 0 49 -57l-14 -113q-16 -121 -104 -270l-78 26q47 154 59 211q-25 -2 -38 11.5t-9 36.5l14 104q8 31 21.5 41t50.5 10zM840 997h178q-88 -270 -338 -444q31 -51 59 -115l197 -438h-186l-203 471q-102 -55 -248 -115l-53 -356h-172l200 1434h175l-93 -693
q-18 -121 -61 -237q203 90 350.5 216.5t194.5 276.5z" />
    <glyph glyph-name="Lacute" unicode="&#x139;" horiz-adv-x="1042" 
d="M422 152h512l-4 -142q-178 -12 -547 -12q-135 0 -203.5 76t-48.5 217l154 1122h182l-158 -1128q-20 -133 113 -133zM741 1739l-422 -248l-55 82l393 299z" />
    <glyph glyph-name="lacute" unicode="&#x13a;" horiz-adv-x="600" 
d="M399 141h101l6 -135q-59 -24 -178 -24t-177.5 68.5t-41.5 189.5l167 1194h175l-164 -1164q-10 -70 15.5 -99.5t96.5 -29.5zM735 1782l-424 -246l-53 80l393 301z" />
    <glyph glyph-name="Lcommaaccent" unicode="&#x13b;" horiz-adv-x="1042" 
d="M514 -125h49q61 0 49 -57l-16 -115q-12 -113 -102 -268l-80 24q47 137 61 211q-25 -2 -38 11.5t-11 37.5l16 103q6 31 20.5 42t51.5 11zM422 152h512l-4 -142q-178 -12 -547 -12q-135 0 -203.5 76t-48.5 217l154 1122h182l-158 -1128q-20 -133 113 -133z" />
    <glyph glyph-name="lcommaaccent" unicode="&#x13c;" horiz-adv-x="600" 
d="M256 -125h49q61 0 49 -57l-14 -115q-16 -123 -104 -268l-78 24q47 154 59 211q-25 -2 -38 11.5t-9 37.5l14 103q8 31 21.5 42t50.5 11zM399 141h101l6 -135q-59 -24 -178 -24t-177.5 68.5t-41.5 189.5l167 1194h175l-164 -1164q-10 -70 15.5 -99.5t96.5 -29.5z" />
    <glyph glyph-name="Lcaron" unicode="&#x13d;" horiz-adv-x="1042" 
d="M422 152h512l-4 -142q-178 -12 -547 -12q-135 0 -203.5 76t-48.5 217l154 1122h182l-158 -1128q-20 -133 113 -133zM709 1413h49q61 0 49 -57l-16 -113q-18 -125 -105 -270l-78 26q47 139 62 211q-25 -2 -38.5 11.5t-10.5 35.5l16 105q6 31 20.5 41t51.5 10z" />
    <glyph glyph-name="lcaron" unicode="&#x13e;" horiz-adv-x="600" 
d="M643 1434h49q61 0 49 -58l-14 -114q-18 -123 -104 -269l-78 25q47 154 59 211q-25 -2 -38 11t-9 38l14 102q8 31 21.5 42.5t50.5 11.5zM399 141h101l6 -135q-59 -24 -178 -24t-177.5 68.5t-41.5 189.5l167 1194h175l-164 -1164q-10 -70 15.5 -99.5t96.5 -29.5z" />
    <glyph glyph-name="Ldot" unicode="&#x13f;" horiz-adv-x="1042" 
d="M813 692h-57q-27 0 -40.5 15.5t-8.5 42.5l16 114q6 51 55 51h56q55 0 49 -57l-15 -115q-8 -51 -55 -51zM422 152h512l-4 -142q-178 -12 -547 -12q-135 0 -203.5 76t-48.5 217l154 1122h182l-158 -1128q-20 -133 113 -133z" />
    <glyph glyph-name="ldot" unicode="&#x140;" horiz-adv-x="684" 
d="M643 653h-57q-57 0 -51 56l16 116q8 49 55 49h58q25 0 38 -15t11 -40l-17 -117q-6 -49 -53 -49zM399 141h101l6 -135q-59 -24 -178 -24t-177.5 68.5t-41.5 189.5l167 1194h175l-164 -1164q-10 -70 15.5 -99.5t96.5 -29.5z" />
    <glyph glyph-name="Lslash" unicode="&#x141;" horiz-adv-x="1040" 
d="M381 -2q-133 0 -202.5 76t-49.5 217l53 389l-137 -55l10 110l144 58l84 620h182l-76 -547l260 103l-12 -109l-264 -104l-66 -471q-16 -133 113 -133h514l-6 -142q-178 -12 -547 -12z" />
    <glyph glyph-name="lslash" unicode="&#x142;" horiz-adv-x="612" 
d="M399 141h101l6 -135q-59 -24 -178 -24t-177.5 68.5t-41.5 189.5l61 440l-137 -55l14 110l139 56l90 643h175l-80 -572l270 107l-14 -109l-273 -106l-67 -484q-10 -70 15.5 -99.5t96.5 -29.5z" />
    <glyph glyph-name="Nacute" unicode="&#x143;" horiz-adv-x="1439" 
d="M1116 0h-164q-51 0 -73 61l-355 1002q-41 111 -55 182h-35q-2 -84 -16 -186l-146 -1059h-180l189 1346q12 68 75 67h160q51 0 74 -61l344 -975q47 -135 65 -205h39q6 113 21 207l141 1034h178l-190 -1345q-8 -68 -72 -68zM1212 1739l-421 -248l-56 82l393 299z" />
    <glyph glyph-name="nacute" unicode="&#x144;" horiz-adv-x="1183" 
d="M819 1022q127 0 190.5 -70.5t45.5 -206.5l-107 -745h-174l100 702q12 96 -12 134t-105 38t-176.5 -53t-244.5 -172l-90 -649h-174l141 997h139l-14 -219q274 244 481 244zM600 1122l-55 82l393 299l84 -133z" />
    <glyph glyph-name="Ncommaaccent" unicode="&#x145;" horiz-adv-x="1439" 
d="M637 -119h49q61 0 49 -59l-14 -113q-16 -121 -105 -270l-77 26q47 154 59 211q-25 -2 -38 11.5t-9 36.5l14 104q8 31 21.5 42t50.5 11zM1116 0h-164q-51 0 -73 61l-355 1002q-41 111 -55 182h-35q-2 -84 -16 -186l-146 -1059h-180l189 1346q12 68 75 67h160q51 0 74 -61
l344 -975q47 -135 65 -205h39q6 113 21 207l141 1034h178l-190 -1345q-8 -68 -72 -68z" />
    <glyph glyph-name="ncommaaccent" unicode="&#x146;" horiz-adv-x="1183" 
d="M494 -119h49q61 0 49 -59l-17 -113q-16 -121 -104 -270l-78 26q47 137 62 211q-25 -2 -38.5 11.5t-10.5 36.5l16 104q6 31 20.5 42t51.5 11zM819 1022q127 0 190.5 -70.5t45.5 -206.5l-107 -745h-174l100 702q12 96 -12 134t-105 38t-176.5 -53t-244.5 -172l-90 -649
h-174l141 997h139l-14 -219q274 244 481 244z" />
    <glyph glyph-name="Ncaron" unicode="&#x147;" horiz-adv-x="1439" 
d="M1116 0h-164q-51 0 -73 61l-355 1002q-41 111 -55 182h-35q-2 -84 -16 -186l-146 -1059h-180l189 1346q12 68 75 67h160q51 0 74 -61l344 -975q47 -135 65 -205h39q6 113 21 207l141 1034h178l-190 -1345q-8 -68 -72 -68zM1239 1784l-307 -260h-125l-240 270l70 66
l231 -205h17l301 205z" />
    <glyph glyph-name="ncaron" unicode="&#x148;" horiz-adv-x="1183" 
d="M819 1022q127 0 190.5 -70.5t45.5 -206.5l-107 -745h-174l100 702q12 96 -12 134t-105 38t-176.5 -53t-244.5 -172l-90 -649h-174l141 997h139l-14 -219q274 244 481 244zM616 1155l-239 270l69 66l232 -205h16l301 205l54 -76l-308 -260h-125z" />
    <glyph glyph-name="Eng" unicode="&#x14a;" horiz-adv-x="1439" 
d="M797 -303q170 0 192 158l21 145h-56q-24 0 -33.5 18.5t-17.5 36.5l-381 977q-33 80 -53 187h-33q-2 -80 -20 -191l-144 -1028h-180l189 1346q12 68 75 67h140q49 0 75 -61l361 -946q27 -66 72 -205h32q4 76 21 213l141 999h180l-223 -1579q-18 -135 -98.5 -206.5
t-194.5 -70.5t-194 27l30 113h99z" />
    <glyph glyph-name="eng" unicode="&#x14b;" horiz-adv-x="1183" 
d="M813 1022q135 0 197.5 -71.5t44.5 -205.5l-121 -860q-43 -305 -291 -305q-88 0 -174 27l31 110h82q78 0 120.5 37t55.5 125l116 823q10 88 -14 124t-105 36t-176.5 -52t-240.5 -161l-92 -649h-174l141 997h133l-10 -221q270 246 477 246z" />
    <glyph glyph-name="Omacron" unicode="&#x14c;" horiz-adv-x="1363" 
d="M780 1278q-213 0 -310 -123t-142 -450t15 -448.5t270 -121.5t308.5 125t145.5 452.5t-13.5 446.5t-273.5 119zM787 1440q303 0 413 -169t54 -574t-199.5 -564.5t-444.5 -159.5t-413.5 166.5t-57.5 570.5t200 567t448 163zM1110 1610h-571l18 129h571z" />
    <glyph glyph-name="omacron" unicode="&#x14d;" horiz-adv-x="1155" 
d="M625 874q-164 0 -241 -79t-108 -299t17.5 -297.5t212.5 -77.5t240.5 82t107.5 299t-17 294.5t-212 77.5zM629 1022q254 0 349 -123t55 -408t-160.5 -401.5t-371.5 -116.5t-348.5 123t-57.5 407t160 401.5t374 117.5zM950 1241h-571l18 129h572z" />
    <glyph glyph-name="Ohungarumlaut" unicode="&#x150;" horiz-adv-x="1363" 
d="M780 1278q-213 0 -310 -123t-142 -450t15 -448.5t270 -121.5t308.5 125t145.5 452.5t-13.5 446.5t-273.5 119zM787 1440q303 0 413 -169t54 -574t-199.5 -564.5t-444.5 -159.5t-413.5 166.5t-57.5 570.5t200 567t448 163zM1274 1804l-320 -325l-71 59l282 344zM938 1804
l-320 -325l-71 59l282 344z" />
    <glyph glyph-name="ohungarumlaut" unicode="&#x151;" horiz-adv-x="1155" 
d="M625 874q-164 0 -241 -79t-108 -299t17.5 -297.5t212.5 -77.5t240.5 82t107.5 299t-17 294.5t-212 77.5zM629 1022q254 0 349 -123t55 -408t-160.5 -401.5t-371.5 -116.5t-348.5 123t-57.5 407t160 401.5t374 117.5zM1114 1438l-319 -326l-72 57l283 344zM778 1438
l-319 -326l-74 57l285 344z" />
    <glyph glyph-name="OE" unicode="&#x152;" horiz-adv-x="1882" 
d="M793 1278q-217 0 -318.5 -124t-147.5 -450t15 -447.5t272 -121.5q139 0 256 35q-10 50 0 111l123 893q4 29 21 77q-102 27 -221 27zM1315 1262q-131 0 -148 -140l-43 -307h598l-18 -141h-598l-53 -389q-10 -72 16.5 -102.5t95.5 -30.5h545l-6 -142q-176 -12 -561 -12
q-121 0 -191 47q-160 -72 -342 -72q-319 0 -423.5 162t-46.5 576t200.5 571.5t454.5 157.5q182 0 329 -64q66 39 168 39q414 0 596 -12l-22 -141h-551z" />
    <glyph glyph-name="oe" unicode="&#x153;" horiz-adv-x="1853" 
d="M1363 874q-155 0 -224.5 -68.5t-102.5 -285.5l355 35q100 8 146 42t61 130t-32.5 121.5t-202.5 25.5zM505 121q165 0 241.5 83t105.5 300q33 215 -15.5 292.5t-212.5 77.5t-240.5 -79t-107.5 -299t16.5 -297.5t212.5 -77.5zM635 1022q260 0 350 -133q63 74 161.5 103.5
t254.5 29.5q227 0 311 -79t60 -241q-25 -141 -112 -202.5t-269 -75.5l-367 -35q-6 -156 80 -230.5t545 -11.5l12 -116q-135 -55 -400 -55t-360 145q-121 -147 -387 -147t-362.5 122.5t-57.5 406.5t160 401.5t381 117.5z" />
    <glyph glyph-name="Racute" unicode="&#x154;" horiz-adv-x="1265" 
d="M766 1276q-236 0 -317 -2l-74 -529h301q158 2 228.5 60.5t91.5 210.5t-27.5 206t-202.5 54zM92 0l199 1413q176 18 479 19q233 0 336.5 -93.5t73.5 -322.5q-25 -166 -98.5 -252t-217.5 -105l-2 -10q117 -33 150 -207l90 -442h-184l-84 446q-14 78 -52.5 111t-107.5 33
l-322 2l-84 -592h-176zM672 1491l-54 82l392 299l84 -133z" />
    <glyph glyph-name="racute" unicode="&#x155;" horiz-adv-x="815" 
d="M791 1022h51l-43 -164h-51q-82 0 -172.5 -49t-239.5 -164l-90 -645h-174l141 997h133l-14 -231q260 256 459 256zM475 1122l-53 82l391 299l84 -133z" />
    <glyph glyph-name="Rcommaaccent" unicode="&#x156;" horiz-adv-x="1265" 
d="M598 -119h47q59 0 51 -59l-16 -113q-16 -121 -105 -270l-77 26q47 154 59 211q-25 -2 -38 11.5t-9 36.5l16 104q6 31 20.5 42t51.5 11zM766 1276q-236 0 -317 -2l-74 -529h301q158 2 228.5 60.5t91.5 210.5t-27.5 206t-202.5 54zM92 0l199 1413q176 18 479 19
q233 0 336.5 -93.5t73.5 -322.5q-25 -166 -98.5 -252t-217.5 -105l-2 -10q117 -33 150 -207l90 -442h-184l-84 446q-14 78 -52.5 111t-107.5 33l-322 2l-84 -592h-176z" />
    <glyph glyph-name="rcommaaccent" unicode="&#x157;" horiz-adv-x="815" 
d="M115 -119h49q61 0 49 -59l-16 -113q-12 -111 -103 -270l-80 26q47 137 62 211q-25 -2 -38 11.5t-11 36.5l16 104q6 31 20.5 42t51.5 11zM748 858q-82 0 -172.5 -49t-239.5 -164l-90 -645h-174l141 997h133l-14 -231q260 256 459 256h51l-43 -164h-51z" />
    <glyph glyph-name="Rcaron" unicode="&#x158;" horiz-adv-x="1265" 
d="M766 1276q-236 0 -317 -2l-74 -529h301q158 2 228.5 60.5t91.5 210.5t-27.5 206t-202.5 54zM92 0l199 1413q176 18 479 19q233 0 336.5 -93.5t73.5 -322.5q-25 -166 -98.5 -252t-217.5 -105l-2 -10q117 -33 150 -207l90 -442h-184l-84 446q-14 78 -52.5 111t-107.5 33
l-322 2l-84 -592h-176zM688 1524l-239 270l69 66l234 -205h16l299 205l55 -76l-307 -260h-127z" />
    <glyph glyph-name="rcaron" unicode="&#x159;" horiz-adv-x="815" 
d="M791 1022h51l-43 -164h-51q-82 0 -172.5 -49t-239.5 -164l-90 -645h-174l141 997h133l-14 -231q260 256 459 256zM492 1155l-240 270l70 66l231 -205h16l301 205l54 -76l-306 -260h-126z" />
    <glyph glyph-name="Sacute" unicode="&#x15a;" horiz-adv-x="1146" 
d="M725 1276q-121 0 -191.5 -2t-115 -50.5t-59.5 -154.5t13.5 -148t127.5 -79l276 -103q156 -57 206 -146t28 -251q-31 -221 -146.5 -294t-357.5 -73t-453 39l23 133q344 -12 409 -10q184 0 255 40.5t87 164.5t-12.5 165.5t-126.5 78.5l-280 104q-145 53 -197.5 146.5
t-32.5 246.5q34 263 176.5 309t323.5 46q254 -4 418 -41l-19 -131q-231 10 -352 10zM1042 1739l-421 -248l-56 82l393 299z" />
    <glyph glyph-name="sacute" unicode="&#x15b;" horiz-adv-x="1036" 
d="M43 6l20 127q123 -10 317 -9t261.5 23.5t78.5 90.5t-23.5 89t-65.5 35t-39 17l-279 123q-111 51 -156.5 114.5t-30.5 185.5t113.5 173t313.5 47t408 -31l-23 -125q-252 8 -394 10t-192.5 -15t-58.5 -81t18.5 -90t102.5 -61l278 -123q123 -53 168 -112.5t31 -170.5
q-22 -183 -211.5 -227t-636.5 10zM952 1370l-424 -248l-53 82l393 299z" />
    <glyph glyph-name="Scedilla" unicode="&#x15e;" horiz-adv-x="1146" 
d="M377 -195l20 82q127 12 178.5 -17.5t36.5 -121.5q-20 -127 -124.5 -193.5t-249.5 -48.5l32 93q82 -2 142.5 40t72.5 109q6 35 -14 46t-94 11zM725 1276q-121 0 -191.5 -2t-115 -50.5t-59.5 -154.5t13.5 -148t127.5 -79l276 -103q156 -57 206 -146t28 -251
q-31 -221 -146.5 -294t-357.5 -73t-453 39l23 133q344 -12 409 -10q184 0 255 40.5t87 164.5t-12.5 165.5t-126.5 78.5l-280 104q-145 53 -197.5 146.5t-32.5 246.5q34 263 176.5 309t323.5 46q254 -4 418 -41l-19 -131q-231 10 -352 10z" />
    <glyph glyph-name="scedilla" unicode="&#x15f;" horiz-adv-x="1036" 
d="M307 -193l21 82q127 12 178 -18.5t35 -122.5q-20 -125 -124 -192.5t-249 -47.5l33 93q82 -2 142 40t73 109q6 35 -14.5 45t-94.5 12zM43 6l20 127q123 -10 317 -9t261.5 23.5t78.5 90.5t-23.5 89t-65.5 35t-39 17l-279 123q-111 51 -156.5 114.5t-30.5 185.5t113.5 173
t313.5 47t408 -31l-23 -125q-252 8 -394 10t-192.5 -15t-58.5 -81t18.5 -90t102.5 -61l278 -123q123 -53 168 -112.5t31 -170.5q-22 -183 -211.5 -227t-636.5 10z" />
    <glyph glyph-name="Scaron" unicode="&#x160;" horiz-adv-x="1146" 
d="M725 1276q-121 0 -191.5 -2t-115 -50.5t-59.5 -154.5t13.5 -148t127.5 -79l276 -103q156 -57 206 -146t28 -251q-31 -221 -146.5 -294t-357.5 -73t-453 39l23 133q344 -12 409 -10q184 0 255 40.5t87 164.5t-12.5 165.5t-126.5 78.5l-280 104q-145 53 -197.5 146.5
t-32.5 246.5q34 263 176.5 309t323.5 46q254 -4 418 -41l-19 -131q-231 10 -352 10zM1069 1784l-307 -260h-125l-240 270l70 66l231 -205h17l301 205z" />
    <glyph glyph-name="scaron" unicode="&#x161;" horiz-adv-x="1036" 
d="M43 6l20 127q123 -10 317 -9t261.5 23.5t78.5 90.5t-23.5 89t-65.5 35t-39 17l-279 123q-111 51 -156.5 114.5t-30.5 185.5t113.5 173t313.5 47t408 -31l-23 -125q-252 8 -394 10t-192.5 -15t-58.5 -81t18.5 -90t102.5 -61l278 -123q123 -53 168 -112.5t31 -170.5
q-22 -183 -211.5 -227t-636.5 10zM979 1415l-307 -260h-127l-240 270l72 66l231 -205h17l299 205z" />
    <glyph glyph-name="Tcedilla" unicode="&#x162;" 
d="M369 -170l22 82q127 12 178.5 -18.5t34.5 -122.5q-23 -127 -126 -193.5t-247 -46.5l33 92q82 -2 142.5 40t72.5 110q4 35 -16 45t-94 12zM1225 1253h-457l-176 -1253h-180l176 1253h-455l23 160h1089z" />
    <glyph glyph-name="tcedilla" unicode="&#x163;" horiz-adv-x="772" 
d="M225 -188l21 82q127 12 178 -19t35 -123q-20 -127 -124 -193.5t-249 -45.5l33 92q82 -2 142.5 40t72.5 109q6 35 -14.5 45.5t-94.5 12.5zM469 141h156l6 -133q-94 -27 -223 -26.5t-186.5 72t-39.5 200.5l86 606h-182l16 127l187 8l41 297h172l-41 -295h317l-20 -137h-318
l-82 -590q-10 -72 14.5 -100.5t96.5 -28.5z" />
    <glyph glyph-name="Tcaron" unicode="&#x164;" 
d="M1225 1253h-457l-176 -1253h-180l176 1253h-455l23 160h1089zM657 1524l-239 270l71 66l232 -205h16l299 205l56 -76l-308 -260h-127z" />
    <glyph glyph-name="tcaron" unicode="&#x165;" horiz-adv-x="772" 
d="M469 141h156l6 -133q-94 -27 -223 -26.5t-186.5 72t-39.5 200.5l86 606h-182l16 127l187 8l41 297h172l-41 -295h317l-20 -137h-318l-82 -590q-10 -72 14.5 -100.5t96.5 -28.5zM700 1579h48q59 0 51 -57l-17 -115q-16 -123 -104 -268l-78 24q43 123 59 211
q-25 -2 -38 12.5t-9 36.5l17 103q6 31 20 42t51 11z" />
    <glyph glyph-name="Tbar" unicode="&#x166;" 
d="M768 1253l-57 -399h303l-15 -100h-303l-104 -754h-180l106 754h-274l14 100h274l56 399h-455l23 160h1089l-20 -160h-457z" />
    <glyph glyph-name="tbar" unicode="&#x167;" horiz-adv-x="772" 
d="M469 141h156l6 -133q-94 -27 -223 -26.5t-186.5 72t-39.5 200.5l45 321h-133l15 101h133l26 184h-182l16 127l187 8l41 297h172l-41 -295h317l-20 -137h-318l-24 -184h272l-14 -101h-273l-43 -305q-10 -72 14.5 -100.5t96.5 -28.5z" />
    <glyph glyph-name="Umacron" unicode="&#x16a;" horiz-adv-x="1359" 
d="M606 -27q-272 0 -380.5 134.5t-65.5 439.5l119 866h182l-123 -874q-33 -227 26.5 -315.5t244.5 -88.5t275.5 92t123.5 320l118 866h183l-123 -874q-45 -307 -176.5 -436.5t-403.5 -129.5zM1108 1610h-571l18 129h571z" />
    <glyph glyph-name="umacron" unicode="&#x16b;" horiz-adv-x="1161" 
d="M340 -27q-135 0 -196.5 74t-41.5 205l105 745h174l-100 -702q-14 -92 13.5 -131t109.5 -39t168.5 53t226.5 178l88 641h174l-139 -997h-136l15 217q-250 -244 -461 -244zM958 1249h-571l19 129h571z" />
    <glyph glyph-name="Uring" unicode="&#x16e;" horiz-adv-x="1359" 
d="M606 -27q-272 0 -380.5 134.5t-65.5 439.5l119 866h182l-123 -874q-33 -227 26.5 -315.5t244.5 -88.5t275.5 92t123.5 320l118 866h183l-123 -874q-45 -307 -176.5 -436.5t-403.5 -129.5zM846 1804q-55 0 -91 -36t-42 -92t25.5 -90t85.5 -34t90 37t41 91t-24.5 89
t-84.5 35zM847 1892q97 0 156.5 -62.5t48.5 -154.5t-72.5 -151.5t-159.5 -59.5t-156 63t-48 155t72 151t159 59z" />
    <glyph glyph-name="uring" unicode="&#x16f;" horiz-adv-x="1161" 
d="M340 -27q-135 0 -196.5 74t-41.5 205l105 745h174l-100 -702q-14 -92 13.5 -131t109.5 -39t168.5 53t226.5 178l88 641h174l-139 -997h-136l15 217q-250 -244 -461 -244zM675 1192q54 0 90 37t41 91t-24.5 88t-85 34t-91.5 -36t-42 -91t26 -89t86 -34zM670 1102
q-98 0 -155.5 62.5t-47.5 154.5t71.5 152.5t158.5 60.5t156.5 -63.5t48.5 -155.5t-72.5 -151.5t-159.5 -59.5z" />
    <glyph glyph-name="Uhungarumlaut" unicode="&#x170;" horiz-adv-x="1359" 
d="M606 -27q-272 0 -380.5 134.5t-65.5 439.5l119 866h182l-123 -874q-33 -227 26.5 -315.5t244.5 -88.5t275.5 92t123.5 320l118 866h183l-123 -874q-45 -307 -176.5 -436.5t-403.5 -129.5zM1272 1804l-320 -325l-71 59l282 344zM936 1804l-320 -325l-71 59l282 344z" />
    <glyph glyph-name="uhungarumlaut" unicode="&#x171;" horiz-adv-x="1161" 
d="M340 -27q-135 0 -196.5 74t-41.5 205l105 745h174l-100 -702q-14 -92 13.5 -131t109.5 -39t168.5 53t226.5 178l88 641h174l-139 -997h-136l15 217q-250 -244 -461 -244zM731 1178l283 344l108 -78l-319 -326zM467 1118l-74 60l285 344l108 -78z" />
    <glyph glyph-name="Uogonek" unicode="&#x172;" horiz-adv-x="1359" 
d="M609 135q185 0 275.5 92t123.5 320l118 866h183l-123 -874q-41 -291 -160 -421t-354 -143q-109 -113 -176 -233q-41 -72 -2.5 -93.5t141.5 11.5l20 -76q-226 -90 -281 -9.5t-5 173.5q55 113 209 227q-256 6 -358.5 141.5t-59.5 430.5l119 866h182l-123 -874
q-33 -227 26.5 -315.5t244.5 -88.5z" />
    <glyph glyph-name="uogonek" unicode="&#x173;" horiz-adv-x="1161" 
d="M340 -27q-135 0 -196.5 74t-41.5 205l105 745h174l-100 -702q-14 -92 13.5 -131t109.5 -39t168.5 53t226.5 178l88 641h174l-139 -997q-113 -115 -183 -240q-41 -72 -1 -93t141 11l20 -75q-96 -39 -169 -40t-103.5 27.5t-38.5 74.5t24 102q61 117 219 233h-45l15 217
q-250 -244 -461 -244z" />
    <glyph glyph-name="Wcircumflex" unicode="&#x174;" horiz-adv-x="1931" 
d="M539 0h-199q-27 0 -46.5 16.5t-21.5 40.5l-102 1356h184l66 -1104q0 -10 6 -176h49l60 182l362 1041q16 57 74 57h194q25 0 42.5 -18.5t19.5 -44.5l84 -1043q8 -115 8 -174h51l55 178l371 1102h189l-482 -1364q-16 -49 -73 -49h-201q-27 0 -45.5 16.5t-20.5 42.5
l-73 1063l-13 156h-43l-422 -1227q-16 -51 -73 -51zM1448 1563l-66 -70l-245 207h-17l-303 -203l-51 76l303 260h125z" />
    <glyph glyph-name="wcircumflex" unicode="&#x175;" horiz-adv-x="1740" 
d="M440 137q55 0 97 72q61 109 112 280q57 174 107 465q6 43 49 43h190q41 0 45 -41l101 -819h24q45 0 84 64q90 141 160 321t119 475h182q-76 -338 -177 -568q-148 -338 -224 -383.5t-133 -45.5h-115q-47 0 -55 47l-95 836h-26q-23 -205 -89 -421t-143 -333
q-74 -129 -219 -129h-102q-45 0 -56 47l-184 950h180l142 -860h26zM1296 1196l-65 -70l-244 207h-16l-305 -203l-50 76l304 260h122z" />
    <glyph glyph-name="Ycircumflex" unicode="&#x176;" horiz-adv-x="1157" 
d="M649 494l-69 -494h-183l72 502l-338 911h184l213 -600q31 -92 41 -160h17q31 82 84 166l381 594h196zM426 1499l-51 76l303 260h125l254 -270l-66 -70l-243 207h-19z" />
    <glyph glyph-name="ycircumflex" unicode="&#x177;" horiz-adv-x="1103" 
d="M399 0q-45 0 -75.5 25.5t-40.5 66.5l-193 905h182l158 -821q10 -39 47 -39h98l17 33q16 33 24 47q193 377 275 780h180q-109 -481 -303 -831q-158 -293 -308.5 -422t-355.5 -166l-32 125q125 29 224 96.5t193 200.5h-90zM319 1130l-49 76l303 260h125l252 -270l-63 -70
l-246 207h-16z" />
    <glyph glyph-name="Ydieresis" unicode="&#x178;" horiz-adv-x="1157" 
d="M649 494l-69 -494h-183l72 502l-338 911h184l213 -600q31 -92 41 -160h17q31 82 84 166l381 594h196zM911 1571h-57q-51 0 -45 47l18 113q6 51 58 51h53q51 0 45 -51l-18 -111q-7 -49 -54 -49zM565 1571h-57q-51 0 -45 47l18 113q6 51 58 51h53q51 0 45 -51l-19 -111
q-6 -49 -53 -49z" />
    <glyph glyph-name="Zacute" unicode="&#x179;" horiz-adv-x="1150" 
d="M231 154h766l-22 -154h-963l21 154l905 1106h-739l22 153h940l-22 -153zM637 1491l-55 82l393 299l84 -133z" />
    <glyph glyph-name="zacute" unicode="&#x17a;" horiz-adv-x="1032" 
d="M967 854l-734 -713h639l-20 -141h-840l19 141l733 713h-623l19 143h825zM508 1122l-55 82l393 299l84 -133z" />
    <glyph glyph-name="Zdotaccent" unicode="&#x17b;" horiz-adv-x="1150" 
d="M231 154h766l-22 -154h-963l21 154l905 1106h-739l22 153h940l-22 -153zM750 1554h-56q-27 0 -41 15.5t-10 40.5l16 116q6 49 56 50h55q57 0 51 -56l-16 -116q-8 -50 -55 -50z" />
    <glyph glyph-name="zdotaccent" unicode="&#x17c;" horiz-adv-x="1032" 
d="M967 854l-734 -713h639l-20 -141h-840l19 141l733 713h-623l19 143h825zM621 1186h-58q-25 0 -38 15.5t-11 39.5l16 117q6 49 54 49h57q57 0 51 -55l-16 -115q-8 -51 -55 -51z" />
    <glyph glyph-name="Zcaron" unicode="&#x17d;" horiz-adv-x="1150" 
d="M231 154h766l-22 -154h-963l21 154l905 1106h-739l22 153h940l-22 -153zM653 1524l-239 270l69 66l232 -205h16l301 205l53 -76l-305 -260h-127z" />
    <glyph glyph-name="zcaron" unicode="&#x17e;" horiz-adv-x="1032" 
d="M967 854l-734 -713h639l-20 -141h-840l19 141l733 713h-623l19 143h825zM524 1155l-239 270l69 66l232 -205h16l301 205l53 -76l-305 -260h-127z" />
    <glyph glyph-name="florin" unicode="&#x192;" horiz-adv-x="897" 
d="M805 1290q-94 0 -142.5 -35.5t-70.5 -134.5l-72 -305h291l-31 -137h-291l-161 -688q-33 -145 -112 -217t-218 -72t-217 14l33 131h135q90 0 138 39t71 131l153 662h-198l24 121l207 16l78 332q68 287 346 287q131 0 213 -13l-35 -131h-141z" />
    <glyph glyph-name="Scommaaccent" unicode="&#x218;" horiz-adv-x="1146" 
d="M508 -119h49q61 0 49 -59l-16 -113q-16 -121 -105 -270l-77 26q47 137 61 211q-25 -2 -38 11.5t-11 36.5l16 104q6 31 20.5 42t51.5 11zM725 1276q-121 0 -191.5 -2t-115 -50.5t-59.5 -154.5t13.5 -148t127.5 -79l276 -103q156 -57 206 -146t28 -251
q-31 -221 -146.5 -294t-357.5 -73t-453 39l23 133q344 -12 409 -10q184 0 255 40.5t87 164.5t-12.5 165.5t-126.5 78.5l-280 104q-145 53 -197.5 146.5t-32.5 246.5q34 263 176.5 309t323.5 46q254 -4 418 -41l-19 -131q-231 10 -352 10z" />
    <glyph glyph-name="scommaaccent" unicode="&#x219;" horiz-adv-x="1036" 
d="M414 -119h47q59 0 51 -59l-16 -113q-16 -121 -105 -270l-78 26q47 154 60 211q-25 -2 -38 11.5t-9 36.5l16 104q6 31 20.5 42t51.5 11zM43 6l20 127q123 -10 317 -9t261.5 23.5t78.5 90.5t-23.5 89t-65.5 35t-39 17l-279 123q-111 51 -156.5 114.5t-30.5 185.5t113.5 173
t313.5 47t408 -31l-23 -125q-252 8 -394 10t-192.5 -15t-58.5 -81t18.5 -90t102.5 -61l278 -123q123 -53 168 -112.5t31 -170.5q-22 -183 -211.5 -227t-636.5 10z" />
    <glyph glyph-name="uni021A" unicode="&#x21a;" 
d="M467 -119h49q61 0 49 -59l-16 -113q-12 -111 -103 -270l-79 26q47 137 61 211q-25 -2 -38 11.5t-11 36.5l16 104q6 31 20.5 42t51.5 11zM1225 1253h-457l-176 -1253h-180l176 1253h-455l23 160h1089z" />
    <glyph glyph-name="uni021B" unicode="&#x21b;" horiz-adv-x="772" 
d="M352 -119h47q59 0 52 -59l-17 -113q-16 -121 -104 -270l-78 26q47 154 59 211q-25 -2 -38 11.5t-9 36.5l17 104q6 31 20 42t51 11zM469 141h156l6 -133q-94 -27 -223 -26.5t-186.5 72t-39.5 200.5l86 606h-182l16 127l187 8l41 297h172l-41 -295h317l-20 -137h-318
l-82 -590q-10 -72 14.5 -100.5t96.5 -28.5z" />
    <glyph glyph-name="circumflex" unicode="&#x2c6;" horiz-adv-x="860" 
d="M879 1188l-66 -68l-244 207h-16l-305 -205l-51 78l305 260h123z" />
    <glyph glyph-name="caron" unicode="&#x2c7;" horiz-adv-x="860" 
d="M895 1409l-307 -262h-127l-240 272l72 64l231 -203h17l299 203z" />
    <glyph glyph-name="breve" unicode="&#x2d8;" horiz-adv-x="768" 
d="M482 1143q-147 0 -223.5 76.5t-51.5 195.5l90 8q-10 -74 40 -112.5t151 -38.5t167 43t76 115l88 -21q-10 -121 -100 -193.5t-237 -72.5z" />
    <glyph glyph-name="dotaccent" unicode="&#x2d9;" horiz-adv-x="452" 
d="M319 1403h58q25 0 39 -15.5t10 -39.5l-16 -115q-6 -51 -56 -51h-55q-27 0 -40 15t-9 40l14 117q6 49 55 49z" />
    <glyph glyph-name="ring" unicode="&#x2da;" horiz-adv-x="614" 
d="M433 1430q-56 0 -92 -36t-42 -91t26.5 -89t85 -34t89.5 35.5t42 91t-24 89.5t-85 34zM434 1520q96 0 156.5 -63.5t48.5 -156t-73.5 -151.5t-158.5 -59t-155.5 62t-48.5 154.5t72.5 153t158.5 60.5z" />
    <glyph glyph-name="ogonek" unicode="&#x2db;" horiz-adv-x="516" 
d="M219 6l82 -6q-106 -111 -180 -240q-41 -72 -2 -93t139 11l23 -75q-158 -63 -238 -32q-80 30 -76 113q2 40 25 83q65 120 227 239z" />
    <glyph glyph-name="tilde" unicode="&#x2dc;" horiz-adv-x="858" 
d="M287 1194l-82 8q4 119 56 177.5t124 52.5t156 -56q235 -141 260 49l82 -6q-2 -113 -53.5 -173t-129 -54t-166 59.5t-134.5 58.5q-96 10 -113 -116z" />
    <glyph glyph-name="hungarumlaut" unicode="&#x2dd;" horiz-adv-x="929" 
d="M934 1415l-320 -325l-71 57l282 346zM596 1415l-317 -325l-74 57l284 346z" />
    <glyph glyph-name="Delta" unicode="&#x394;" horiz-adv-x="1284" 
d="M967 147l-203 934q-16 82 -25 158q-29 -82 -67 -162l-465 -930h760zM1161 76l-10 -76h-1178l9 76l688 1337h180z" />
    <glyph glyph-name="Omega" unicode="&#x3a9;" horiz-adv-x="1464" 
d="M252 158q74 0 135 -11q-131 121 -184 269.5t-23 355.5q45 338 203 503t459 165q588 0 491 -686q-33 -223 -119 -358.5t-264 -250.5q53 12 131 13h217l-20 -158h-512l16 154q170 109 251 242.5t110 348.5q41 287 -30 411t-281 124t-319.5 -128t-150.5 -423
q-31 -221 12.5 -343t178.5 -236l-21 -150h-512l23 158h209z" />
    <glyph glyph-name="mu" unicode="&#x3bc;" horiz-adv-x="1212" 
d="M444 139q137 0 369 131l100 727h174l-141 -997h-133l4 150q-240 -176 -416 -177q-98 0 -170 52q4 -90 -6 -150l-39 -287h-153l196 1409h174l-100 -702q-10 -82 23.5 -119t117.5 -37z" />
    <glyph glyph-name="pi" unicode="&#x3c0;" horiz-adv-x="1308" 
d="M1292 856h-192l-121 -856h-172l119 856h-471l-119 -856h-174l121 856h-193l19 141h1204z" />
    <glyph glyph-name="uni0401" unicode="&#x401;" horiz-adv-x="1142" 
d="M563 1262q-70 0 -102.5 -33t-42.5 -107l-43 -307h608l-18 -139h-609l-53 -391q-10 -70 16.5 -101.5t96.5 -31.5h553l-4 -142q-180 -12 -572 -12q-154 0 -223.5 74.5t-50.5 208.5l125 893q16 115 92 178t205 63q422 0 610 -12l-25 -141h-563zM975 1614h-57q-51 0 -46 47
l19 113q6 49 57 49h51q31 0 41.5 -11.5t6.5 -37.5l-19 -111q-6 -49 -53 -49zM629 1614h-58q-51 0 -45 47l19 113q6 49 57 49h51q31 0 41.5 -11.5t5.5 -37.5l-18 -111q-6 -49 -53 -49z" />
    <glyph glyph-name="uni0402" unicode="&#x402;" horiz-adv-x="1529" 
d="M1133 905q166 0 246.5 -97t43.5 -352t-184 -363.5t-399 -100.5l-9 131q201 14 294 85t121 250t-16 235.5t-150 56.5t-192.5 -32t-209.5 -110l-86 -608h-178l176 1253h-455l23 160h1089l-20 -160h-459l-68 -489q205 141 433 141z" />
    <glyph glyph-name="uni0403" unicode="&#x403;" horiz-adv-x="1054" 
d="M535 1415q408 0 589 -14l-24 -139h-512q-82 0 -117 -32t-47 -118l-156 -1112h-180l162 1153q18 129 95 195.5t190 66.5zM1077 1739l-422 -248l-53 82l391 299z" />
    <glyph glyph-name="uni0404" unicode="&#x404;" horiz-adv-x="1171" 
d="M823 1438q211 0 365 -43l-29 -138q-156 18 -323 19q-236 0 -340.5 -92t-155.5 -369h602l-16 -139h-607q-39 -307 22 -418t261 -120t406 22l10 -140q-203 -53 -406 -45q-319 12 -422.5 177t-49.5 569t207 560.5t476 156.5z" />
    <glyph glyph-name="uni0405" unicode="&#x405;" horiz-adv-x="1146" 
d="M725 1276q-121 0 -191.5 -2t-115 -50.5t-59.5 -154.5t13.5 -148t127.5 -79l276 -103q156 -57 206 -146t28 -251q-31 -221 -146.5 -294t-357.5 -73t-453 39l23 133q344 -12 409 -10q184 0 255 40.5t87 164.5t-12.5 165.5t-126.5 78.5l-280 104q-145 53 -197.5 146.5
t-32.5 246.5q34 263 176.5 309t323.5 46q254 -4 418 -41l-19 -131q-231 10 -352 10z" />
    <glyph glyph-name="uni0406" unicode="&#x406;" horiz-adv-x="532" 
d="M274 0h-182l199 1413h182z" />
    <glyph glyph-name="uni0407" unicode="&#x407;" horiz-adv-x="534" 
d="M274 0h-182l199 1413h182zM580 1782h53q53 0 45 -51l-19 -111q-2 -49 -53 -49h-57q-47 0 -45 47l18 113q9 51 58 51zM233 1782h54q53 0 45 -51l-19 -111q-2 -49 -53 -49h-57q-47 0 -45 47l18 113q8 51 57 51z" />
    <glyph glyph-name="uni0408" unicode="&#x408;" horiz-adv-x="694" 
d="M184 -18q-118 0 -202 26l34 127h97q166 0 188 158l156 1120h182l-160 -1120q-20 -154 -98.5 -232.5t-196.5 -78.5z" />
    <glyph glyph-name="uni0409" unicode="&#x409;" horiz-adv-x="1990" 
d="M1456 694h-297l-78 -551l260 -2q188 0 258 54.5t95 218.5t-22.5 222t-215.5 58zM1466 844q256 0 348.5 -99.5t59.5 -342.5t-140.5 -330.5t-344.5 -87.5q-328 0 -506 16l178 1266h-236q-80 0 -118.5 -33t-52.5 -99t-39 -174t-33.5 -144t-27.5 -115.5t-29.5 -110.5
t-39.5 -127t-102 -205q-150 -231 -393 -260l-8 158q176 40 230 142.5t66.5 125t25.5 59.5t22.5 59.5t22.5 73t20.5 77t23 95t38 164.5t49.5 216q54 245 298 245h482l-80 -569h286z" />
    <glyph glyph-name="uni040A" unicode="&#x40a;" horiz-adv-x="1998" 
d="M1356 141q190 0 256.5 56.5t90.5 218.5t-22.5 220t-216.5 58h-297l-77 -551q76 -2 266 -2zM1477 842q256 0 348 -99.5t59 -341.5t-140.5 -329.5t-346.5 -87.5q-328 0 -506 16l98 692h-616l-99 -692h-180l199 1413h180l-80 -573h617l80 573h178l-80 -571h289z" />
    <glyph glyph-name="uni040B" unicode="&#x40b;" horiz-adv-x="1574" 
d="M1112 748q-111 0 -207 -35t-231 -121l-82 -592h-180l176 1253h-455l23 160h1089l-20 -160h-457l-72 -501q244 154 480 153q334 0 288 -321l-82 -584h-178l76 553q16 109 -20.5 152t-147.5 43z" />
    <glyph glyph-name="uni040C" unicode="&#x40c;" horiz-adv-x="1222" 
d="M522 809q143 0 242.5 115t160.5 235.5t91 178.5t39 75h186q-166 -344 -240 -452q-141 -206 -315 -224l-2 -6q115 -14 186.5 -104t100 -188.5t62.5 -251.5t42 -187h-180q-76 350 -102 428q-63 180 -181 221q-43 14 -100 15h-158q2 -66 -12 -154l-70 -510h-180l199 1413
h180l-63 -444q-12 -84 -33 -160h147zM680 1491l-53 82l391 299l84 -133z" />
    <glyph glyph-name="uni040D" unicode="&#x40d;" horiz-adv-x="1413" 
d="M1151 0h-172l137 981q10 76 39 207h-8q-82 -135 -94 -154l-764 -1034h-197l199 1413h176l-139 -981q-18 -125 -41 -207h8q33 57 102 160l758 1028h195zM944 1569l-61 -78l-379 256l94 123z" />
    <glyph glyph-name="uni040E" unicode="&#x40e;" horiz-adv-x="1150" 
d="M483 412q-109 0 -131 100l-198 901h180l170 -821q6 -29 39 -29h88l413 850h193l-528 -1069q-80 -166 -163 -257t-198 -101q-137 -8 -256 30l29 131q72 -6 113.5 -9t81.5 5.5t75.5 25t128.5 183.5l35 60h-72zM706 1528q-148 0 -224 75.5t-52 196.5l92 6q-10 -72 40 -110.5
t152 -38.5t168 42t74 116l88 -23q-10 -119 -100 -191.5t-238 -72.5z" />
    <glyph glyph-name="uni040F" unicode="&#x40f;" horiz-adv-x="1380" 
d="M1317 1413l-199 -1413h-424l-51 -309h-125l35 309h-459l199 1413h180l-178 -1266h663l179 1266h180z" />
    <glyph glyph-name="uni0410" unicode="&#x410;" horiz-adv-x="1267" 
d="M885 598l-99 557q-10 89 -16 121h-61l-308 -678h484zM655 1413h189q25 0 42 -15.5t19 -37.5l264 -1360h-180l-76 440h-583l-201 -440h-190l647 1366q14 47 69 47z" />
    <glyph glyph-name="uni0411" unicode="&#x411;" horiz-adv-x="1220" 
d="M562 137q194 0 260.5 53.5t87.5 212.5t-23.5 210t-216.5 51h-303l-76 -525q77 -2 271 -2zM680 805q260 0 352 -93.5t58 -327.5t-140 -318t-346 -84q-307 0 -512 18l199 1413q217 12 434 12t434 -12l-37 -151h-671l-66 -457h295z" />
    <glyph glyph-name="uni0412" unicode="&#x412;" horiz-adv-x="1265" 
d="M572 137q202 0 274 51.5t94 205.5t-34 209.5t-232 60.5h-312l-73 -525q81 -2 283 -2zM735 1276h-286l-66 -475h299q158 2 225.5 52.5t86.5 192.5t-35 186t-224 44zM625 -16q-349 0 -533 16l199 1413q164 17 438 17t372.5 -81t67.5 -294q-23 -154 -88 -230.5t-194 -89.5
l-2 -8q283 -25 229 -381q-33 -215 -138.5 -288.5t-350.5 -73.5z" />
    <glyph glyph-name="uni0413" unicode="&#x413;" horiz-adv-x="1054" 
d="M535 1415q408 0 589 -14l-24 -139h-512q-82 0 -117 -32t-47 -118l-156 -1112h-180l162 1153q18 129 95 195.5t190 66.5z" />
    <glyph glyph-name="uni0414" unicode="&#x414;" horiz-adv-x="1411" 
d="M809 1266q-76 0 -117 -36t-55 -114q-117 -618 -330 -969h629l156 1119h-283zM770 1413h522l-178 -1266h174l-63 -456h-140l27 309h-995l-62 -309h-139l45 311l19 145h131q231 369 354 1008q47 258 305 258z" />
    <glyph glyph-name="uni0415" unicode="&#x415;" horiz-adv-x="1142" 
d="M563 1262q-70 0 -102.5 -33t-42.5 -107l-43 -307h608l-18 -139h-609l-53 -391q-10 -70 16.5 -101.5t96.5 -31.5h553l-4 -142q-180 -12 -572 -12q-154 0 -223.5 74.5t-50.5 208.5l125 893q16 115 92 178t205 63q422 0 610 -12l-25 -141h-563z" />
    <glyph glyph-name="uni0416" unicode="&#x416;" horiz-adv-x="1849" 
d="M1014 664q0 -88 -8 -154l-72 -510h-174l74 516q14 80 32 148h-151q-78 0 -162 -45t-184.5 -233t-196.5 -386h-190q182 389 256 502q141 219 327 235l2 6q-111 17 -158 88.5t-79.5 135.5t-110.5 446h174q4 -23 21 -95t28 -121.5t32.5 -125.5t42 -112.5t62.5 -93t144 -56.5
h166q-2 72 10 166l62 438h172l-64 -444q-14 -96 -31 -160h144q74 0 135 36t126.5 133t102.5 164.5t84 163.5t53 107h185q-158 -340 -215 -432q-129 -209 -289 -240q-15 -2 -29 -4l-2 -6q121 -15 186.5 -111.5t117.5 -321t65 -298.5h-178q-80 365 -101 428q-57 182 -161 221
q-39 14 -88 15h-160z" />
    <glyph glyph-name="uni0417" unicode="&#x417;" horiz-adv-x="1120" 
d="M618 1430q232 0 333.5 -83t72.5 -292q-23 -154 -87.5 -230.5t-193.5 -89.5l-4 -8q279 -27 228 -381q-29 -211 -133 -286.5t-372 -75.5t-464 47l25 129q221 -27 409 -27t261 52.5t94 208.5t-34 212t-225 56h-241l16 141h234q152 0 219.5 52.5t87.5 194.5t-31 187t-201 45
t-393 -22l-6 137q173 33 405 33z" />
    <glyph glyph-name="uni0418" unicode="&#x418;" horiz-adv-x="1413" 
d="M1151 0h-172l137 981q10 76 39 207h-8q-82 -135 -94 -154l-764 -1034h-197l199 1413h176l-139 -981q-18 -125 -41 -207h8q33 57 102 160l758 1028h195z" />
    <glyph glyph-name="uni0419" unicode="&#x419;" horiz-adv-x="1413" 
d="M1151 0h-172l137 981q10 76 39 207h-8q-82 -135 -94 -154l-764 -1034h-197l199 1413h176l-139 -981q-18 -125 -41 -207h8q33 57 102 160l758 1028h195zM846 1528q-146 0 -223.5 76.5t-53.5 201.5h133q-31 -182 158 -182q171 0 191 182h133q-10 -125 -101 -201.5
t-237 -76.5z" />
    <glyph glyph-name="uni041A" unicode="&#x41a;" horiz-adv-x="1222" 
d="M522 809q143 0 243 115q99 115 197 308q24 48 54 106.5t39 74.5h186q-166 -344 -240 -452q-141 -206 -315 -224l-2 -6q115 -14 186.5 -104t100 -188.5t62.5 -251.5t42 -187h-180q-76 350 -102 428q-63 180 -181 221q-43 14 -100 15h-158q2 -66 -12 -154l-70 -510h-180
l199 1413h180l-63 -444q-12 -84 -33 -160h147z" />
    <glyph glyph-name="uni041B" unicode="&#x41b;" horiz-adv-x="1331" 
d="M793 1266q-80 0 -120 -33t-59 -119q-92 -412 -138 -566.5t-126 -289.5q-150 -256 -393 -260l-6 145q74 25 127.5 62t119.5 137t110 248.5t134 570.5q57 252 314 252h512l-199 -1413h-178l176 1266h-274z" />
    <glyph glyph-name="uni041C" unicode="&#x41c;" horiz-adv-x="1794" 
d="M1620 1413q76 0 70 -80l-129 -1333h-181l131 1264h-41l-460 -1045q-25 -59 -84 -59h-162q-63 0 -76 65l-178 1039h-41l-225 -1264h-178l243 1341q12 72 80 72h199q57 0 67 -65l152 -861q6 -31 27 -192h38q27 68 80 190l383 869q25 57 84 59h201z" />
    <glyph glyph-name="uni041D" unicode="&#x41d;" horiz-adv-x="1363" 
d="M1303 1413l-199 -1413h-178l94 676h-651l-95 -676h-182l199 1413h182l-82 -582h651l82 582h179z" />
    <glyph glyph-name="uni041E" unicode="&#x41e;" horiz-adv-x="1363" 
d="M780 1278q-213 0 -310 -123t-142 -450t15 -448.5t270 -121.5t308.5 125t145.5 452.5t-13.5 446.5t-273.5 119zM787 1440q303 0 413 -169t54 -574t-199.5 -564.5t-444.5 -159.5t-413.5 166.5t-57.5 570.5t200 567t448 163z" />
    <glyph glyph-name="uni041F" unicode="&#x41f;" horiz-adv-x="1368" 
d="M1307 1413l-199 -1413h-180l178 1266h-653l-179 -1266h-182l199 1413h1016z" />
    <glyph glyph-name="uni0420" unicode="&#x420;" horiz-adv-x="1204" 
d="M664 702q168 0 234 60.5t92 229.5t-24.5 226.5t-201.5 57.5q-231 0 -313 -2l-80 -572h293zM670 547q-170 0 -318 20l-80 -567h-180l199 1413q176 18 479 19q248 0 341 -101.5t57 -355.5t-142 -341t-356 -87z" />
    <glyph glyph-name="uni0421" unicode="&#x421;" horiz-adv-x="1159" 
d="M600 -25q-303 0 -409.5 173.5t-50.5 570.5t198.5 558t445.5 161q227 0 385 -43l-28 -135q-182 18 -377 18t-293 -120t-143 -448t14.5 -450.5t269.5 -123.5t394 22l10 -138q-168 -45 -416 -45z" />
    <glyph glyph-name="uni0422" unicode="&#x422;" 
d="M1225 1253h-457l-176 -1253h-180l176 1253h-455l23 160h1089z" />
    <glyph glyph-name="uni0423" unicode="&#x423;" horiz-adv-x="1150" 
d="M483 412q-109 0 -131 100l-198 901h180l170 -821q6 -29 39 -29h88l413 850h193l-528 -1069q-80 -166 -163 -257t-198 -101q-137 -8 -256 30l29 131q72 -6 113.5 -9t81.5 5.5t60 17.5q52 24 144 191l35 60h-72z" />
    <glyph glyph-name="uni0424" unicode="&#x424;" horiz-adv-x="1677" 
d="M715 276l125 887q-268 -10 -384 -108.5t-149 -340.5t53.5 -335t354.5 -103zM1006 1163l-125 -884q266 10 381.5 108t150.5 340t-53 335t-354 101zM1063 1516l-29 -201q346 -16 476 -152.5t85 -450.5t-206.5 -444.5t-522.5 -142.5l-28 -201h-179l27 203
q-352 14 -479 149.5t-82 450.5t208 446.5t521 141.5l27 201h182z" />
    <glyph glyph-name="uni0425" unicode="&#x425;" horiz-adv-x="1247" 
d="M819 731l297 -731h-184l-260 664h-56l-444 -664h-209l504 731l-274 682h184l237 -610h58l420 610h198z" />
    <glyph glyph-name="uni0426" unicode="&#x426;" horiz-adv-x="1406" 
d="M1112 147h174l-63 -456h-140l27 309h-1016l199 1413h180l-178 -1266h639l178 1266h178z" />
    <glyph glyph-name="uni0427" unicode="&#x427;" horiz-adv-x="1273" 
d="M434 514q-166 0 -235.5 79t-46.5 247l79 573h181l-74 -547q-16 -104 19.5 -147t144.5 -43t211 37t237 116l82 584h180l-198 -1413h-180l96 678q-260 -164 -496 -164z" />
    <glyph glyph-name="uni0428" unicode="&#x428;" horiz-adv-x="1900" 
d="M1839 1413l-199 -1413h-1548l199 1413h176l-176 -1266h508l178 1266h176l-178 -1266h510l176 1266h178z" />
    <glyph glyph-name="uni0429" unicode="&#x429;" horiz-adv-x="1943" 
d="M1649 147h172l-64 -456h-139l27 309h-1551l199 1413h176l-178 -1266h502l178 1266h178l-178 -1266h502l178 1266h174z" />
    <glyph glyph-name="uni042A" unicode="&#x42a;" horiz-adv-x="1515" 
d="M872 141q192 0 258 56.5t90 218.5t-22.5 220t-216.5 58h-301l-78 -551q78 -2 270 -2zM991 844q256 0 348.5 -99.5t60.5 -342.5t-139.5 -330.5t-347.5 -87.5q-330 0 -510 16l177 1253h-449l23 160h628l-80 -569h289z" />
    <glyph glyph-name="uni042B" unicode="&#x42b;" horiz-adv-x="1732" 
d="M564 141q192 0 258 56.5t90 218.5t-22 220t-216 58h-303l-78 -551q79 -2 271 -2zM1669 1413l-199 -1413h-180l199 1413h180zM686 844q256 0 348 -99.5t60 -342.5t-140 -330.5t-346 -87.5q-334 0 -516 16l199 1413h182l-80 -569h293z" />
    <glyph glyph-name="uni042C" unicode="&#x42c;" horiz-adv-x="1210" 
d="M564 141q192 0 258 56.5t90 218.5t-22 220t-216 58h-303l-78 -551q79 -2 271 -2zM686 844q256 0 348 -99.5t60 -342.5t-140 -330.5t-346 -87.5q-334 0 -516 16l199 1413h182l-80 -569h293z" />
    <glyph glyph-name="uni042D" unicode="&#x42d;" horiz-adv-x="1175" 
d="M563 1438q330 0 444.5 -163t59.5 -575q-37 -272 -115 -426.5t-206 -223t-340 -74.5t-402 49l29 135q176 -31 385 -22t310 125t151 415h-611l19 137h610q29 194 -8 289.5t-88 124t-107.5 38t-190.5 9.5t-292 -19l-10 140q164 41 362 41z" />
    <glyph glyph-name="uni042E" unicode="&#x42e;" horiz-adv-x="1892" 
d="M1317 1278q-205 0 -302 -126t-143 -450t11 -445.5t261 -121.5t305 126t146 451t-14 445.5t-264 120.5zM1330 1440q284 0 396.5 -167t55.5 -576t-199.5 -566.5t-439.5 -157.5t-398.5 155t-54.5 534h-321l-95 -662h-180l199 1413h180l-84 -606h322q61 352 198 492.5
t421 140.5z" />
    <glyph glyph-name="uni042F" unicode="&#x42f;" horiz-adv-x="1251" 
d="M696 1276q-147 0 -217.5 -54.5t-92.5 -196.5t28.5 -219t189.5 -77h307l78 545q-78 2 -293 2zM724 1432q257 0 466 -19l-199 -1413h-182l82 575l-301 -2q-78 0 -128 -34.5t-85 -116.5l-178 -422h-197l188 436q92 188 226 203l2 8q-131 23 -183.5 137.5t-29.5 268.5
q29 207 145.5 293t373.5 86z" />
    <glyph glyph-name="uni0430" unicode="&#x430;" horiz-adv-x="1179" 
d="M403 127q177 0 406 223l76 520q-150 6 -228 7q-207 0 -273 -67t-100 -303t-9.5 -308t128.5 -72zM658 1022q169 0 415 -47l-137 -975h-137l12 201q-193 -225 -442 -226q-182 0 -244 120t-19 415q25 166 65 269.5t105.5 155.5t139 69.5t242.5 17.5z" />
    <glyph glyph-name="uni0431" unicode="&#x431;" horiz-adv-x="1169" 
d="M636 819q-162 0 -233 -81.5t-98 -269.5t22.5 -266.5t200.5 -78.5t226 80.5t104 280.5t-15.5 267.5t-206.5 67.5zM694 967q227 0 301 -123t43 -375t-148.5 -373t-353.5 -121t-300 69t-88.5 120t-27 153.5t24.5 294.5q27 193 53.5 302.5t78 208t132 157t171.5 84.5t249 53
t269 72l20 -154q-113 -47 -260 -68.5t-188 -31.5q-160 -41 -230 -123t-145 -358h4q35 59 72 99t123 77t200 37z" />
    <glyph glyph-name="uni0432" unicode="&#x432;" horiz-adv-x="1118" 
d="M512 117q132 0 199 34.5t81 138.5t-39.5 149.5t-207.5 27.5l-279 -31q-16 -149 -4 -198.5t27.5 -70t53 -35.5t169.5 -15zM596 883q-152 0 -214 -57.5t-97 -264.5l266 31q150 16 206 52t73 110t-32.5 101.5t-201.5 27.5zM596 1022q98 0 147.5 -4t107.5 -19.5t92 -44
t51.5 -81t2.5 -125.5q-41 -184 -264 -207l-2 -6q143 -8 198 -80.5t33 -218.5t-123.5 -204.5t-309.5 -58.5t-280.5 31t-131.5 107t-17 366q29 199 68 299.5t105.5 155.5t145.5 72.5t177 17.5z" />
    <glyph glyph-name="uni0433" unicode="&#x433;" horiz-adv-x="1060" 
d="M452 -27q-222 0 -318.5 62.5t-78.5 206.5q12 100 76 163.5t191 112.5l278 105q100 35 143 71.5t49.5 92.5t-43 76t-203 12.5t-386.5 -56.5l-4 137q182 55 413 66q158 16 281 -26q57 -20 88 -73q32 -53 22 -131q-18 -152 -128 -222q-77 -50 -164 -83l-299 -114
q-72 -31 -104 -59.5t-36 -75.5q-10 -70 35 -91.5t150 -21.5q250 6 483 80l6 -142q-229 -90 -451 -90z" />
    <glyph glyph-name="uni0434" unicode="&#x434;" horiz-adv-x="1157" 
d="M514 121q150 0 224.5 109.5t109.5 365.5q8 68 10 94q-104 82 -253 82t-222 -82t-97 -253t27 -243.5t201 -72.5zM504 -27q-246 0 -338 117.5t-60 353.5t142 355t308 119t308 -113q0 206 -56 283t-126.5 136t-372.5 105l27 127q288 -33 432 -123t209.5 -226.5t63 -273.5
t-16.5 -262q-41 -299 -157.5 -448.5t-362.5 -149.5z" />
    <glyph glyph-name="uni0435" unicode="&#x435;" horiz-adv-x="1099" 
d="M606 877q-154 0 -223 -69t-104 -288l354 35q102 8 147.5 42t61.5 129t-33 123t-203 28zM622 1022q248 0 333 -79t59 -231t-112.5 -213t-266.5 -75l-369 -33q-4 -158 81 -231.5t552 -12.5l12 -116q-141 -55 -402 -55t-355.5 131t-54.5 419t157.5 392t365.5 104z" />
    <glyph glyph-name="uni0436" unicode="&#x436;" horiz-adv-x="1550" 
d="M573 453q-61 0 -105 -18.5t-99.5 -90.5t-89.5 -130.5t-119 -213.5h-176q156 291 198 352q111 158 267 170l2 4q-102 14 -158.5 79t-84.5 174.5t-52 217.5h166q68 -284 123 -348.5t145 -64.5h123q-2 51 4 118l43 295h155l-43 -301q-12 -74 -22 -112h98q113 0 192 92
t201 321h175q-74 -143 -108 -202.5t-89 -134t-109.5 -103.5t-126.5 -37l-2 -6q131 -14 182.5 -104.5t118.5 -350.5q10 -39 17 -59h-166q-70 270 -98 332q-57 121 -185 121h-123q2 -49 -4 -103l-49 -350h-156l52 358q6 41 22 95h-119z" />
    <glyph glyph-name="uni0437" unicode="&#x437;" horiz-adv-x="1017" 
d="M500 1014q221 0 318 -56.5t77 -216.5q-16 -111 -70.5 -164t-173.5 -63l-2 -6q129 -10 179.5 -74t29.5 -208t-118 -194t-335 -50t-407 30l25 133q176 -16 357 -16t237.5 29.5t69.5 125.5t-36 127t-196 33l-242 5l14 124h234q139 0 194.5 34t68.5 123t-34 113.5t-215 24.5
t-315 -16l-6 131q125 31 346 31z" />
    <glyph glyph-name="uni0438" unicode="&#x438;" horiz-adv-x="1167" 
d="M344 -27q-135 0 -196.5 74t-43.5 205l105 745h174l-98 -702q-14 -92 13.5 -131t109 -39t168 52t227.5 179l88 641h172l-139 -997h-133l14 217q-254 -244 -461 -244z" />
    <glyph glyph-name="uni0439" unicode="&#x439;" horiz-adv-x="1167" 
d="M344 -27q-135 0 -196.5 74t-43.5 205l105 745h174l-98 -702q-14 -92 13.5 -131t109.5 -39t168 52t227 179l88 641h172l-139 -997h-133l14 217q-254 -244 -461 -244zM666 1159q-146 0 -223.5 77t-53.5 202h133q-31 -182 158 -183q170 1 190 183h134q-10 -125 -101 -202
t-237 -77z" />
    <glyph glyph-name="uni043A" unicode="&#x43a;" horiz-adv-x="1089" 
d="M303 451q0 -63 -4 -103l-51 -348h-172l139 997h174l-41 -299q-6 -37 -26 -112h135q159 0 265 156q58 85 144 253h187q-157 -312 -244.5 -386t-200.5 -89l-4 -6q119 -8 176.5 -76.5t90 -181.5t69.5 -256h-174q-70 264 -98 324q-53 106 -160 122q-23 4 -51 5h-154z" />
    <glyph glyph-name="uni043B" unicode="&#x43b;" horiz-adv-x="1150" 
d="M645 860q-63 0 -98 -29.5t-53 -101.5q-80 -328 -170 -526q-92 -209 -340 -213l-13 141q57 14 83 23.5t58.5 38t55.5 77.5q66 127 166 502q31 117 93 171t177 54h445l-142 -997h-174l123 860h-211z" />
    <glyph glyph-name="uni043C" unicode="&#x43c;" horiz-adv-x="1523" 
d="M1149 997h180q31 0 48.5 -19.5t13.5 -49.5l-88 -928h-160l82 864h-35l-348 -702q-25 -53 -72 -53h-143q-51 0 -62 59l-155 696h-37l-158 -864h-160l170 934q8 63 72 63h178q51 0 62 -59l125 -561q23 -94 28 -154h33q6 14 27.5 66.5t35.5 81.5l289 573q25 53 74 53z" />
    <glyph glyph-name="uni043D" unicode="&#x43d;" horiz-adv-x="1185" 
d="M1083 997l-141 -997h-172l66 463h-523l-65 -463h-172l139 997h172l-55 -401h522l57 401h172z" />
    <glyph glyph-name="uni043E" unicode="&#x43e;" horiz-adv-x="1161" 
d="M628 874q-163 0 -240.5 -81t-107.5 -299t17 -295.5t212 -77.5t240.5 82t106.5 299t-17 294.5t-211 77.5zM631 1022q254 0 350 -123t56 -408t-160.5 -401.5t-372.5 -116.5t-348.5 123t-57.5 407t159 401.5t374 117.5z" />
    <glyph glyph-name="uni043F" unicode="&#x43f;" horiz-adv-x="1189" 
d="M821 1022q129 0 192.5 -70.5t43.5 -206.5l-107 -745h-172l99 702q12 98 -11.5 135t-104.5 37t-176.5 -53t-246.5 -172l-88 -649h-174l139 997h139l-14 -219q279 244 481 244z" />
    <glyph glyph-name="uni0440" unicode="&#x440;" horiz-adv-x="1183" 
d="M496 117q207 0 273.5 67.5t98.5 305.5t9 309t-125 71q-74 0 -185.5 -60.5t-224.5 -166.5l-72 -520q147 -6 226 -6zM791 1022q178 0 238.5 -117t16.5 -429t-137.5 -390t-165 -95.5t-200.5 -17.5t-301 27q-4 -119 -17 -190l-35 -226h-174l201 1413h137l-14 -221
q100 102 224 174t227 72z" />
    <glyph glyph-name="uni0441" unicode="&#x441;" horiz-adv-x="997" 
d="M633 1022q199 0 319 -49l-26 -109q-112 10 -282 10t-254 -77.5t-112 -303.5t26 -298t228 -72t306 20l10 -118q-154 -49 -342 -50q-262 0 -355.5 122t-52.5 409t161 401.5t374 114.5z" />
    <glyph glyph-name="uni0442" unicode="&#x442;" horiz-adv-x="1792" 
d="M772 1022q117 0 178.5 -60.5t59.5 -166.5q227 227 417 227q131 0 191.5 -74t42.5 -203l-105 -745h-174l99 702q14 94 -16.5 133t-104.5 39t-150.5 -49t-218.5 -178l-92 -647h-168l98 702q12 92 -14.5 132t-104.5 40t-153.5 -48t-218.5 -175l-90 -651h-172l139 997h135
l-14 -217q242 242 436 242z" />
    <glyph glyph-name="uni0443" unicode="&#x443;" horiz-adv-x="1107" 
d="M401 0q-43 0 -75.5 25.5t-40.5 66.5l-193 905h184l156 -821q10 -39 47 -39h105l39 76q92 180 165.5 394t104.5 390h182q-37 -172 -117.5 -404.5t-179 -432t-202.5 -330.5q-104 -130 -196 -184q-196 -113 -378 -68l16 143q129 -25 247 36t239 243h-103z" />
    <glyph glyph-name="uni0444" unicode="&#x444;" horiz-adv-x="1466" 
d="M592 123l106 749q-213 -10 -310 -96t-125 -286t44 -278.5t285 -88.5zM848 874l-109 -749q213 10 309.5 94t125.5 285q27 201 -44 280.5t-282 89.5zM932 1434l-58 -414q289 -14 396.5 -138t70.5 -392t-177 -385t-437 -128l-55 -389h-162l53 389q-289 14 -396.5 137.5
t-70.5 390.5t177.5 387t439.5 130l57 412h162z" />
    <glyph glyph-name="uni0445" unicode="&#x445;" horiz-adv-x="1077" 
d="M688 514l260 -514h-176l-221 451h-47l-348 -451h-195l408 516l-240 481h174l197 -411h57l320 411h188z" />
    <glyph glyph-name="uni0446" unicode="&#x446;" horiz-adv-x="1220" 
d="M408 125q82 0 169 51t226 172l88 649h172l-111 -815q-8 -51 43 -51h99l-62 -436h-149l63 305q-74 4 -114.5 49t-32.5 133l2 25q-248 -233 -457 -234q-135 0 -196.5 74t-43.5 205l105 745h174l-98 -702q-14 -92 13.5 -131t109.5 -39z" />
    <glyph glyph-name="uni0447" unicode="&#x447;" horiz-adv-x="1097" 
d="M408 489q160 0 356 113l55 395h176l-141 -997h-174l63 453q-213 -105 -371 -107t-221 54.5t-47 168.5l62 428h174l-53 -379q-10 -76 14.5 -102.5t106.5 -26.5z" />
    <glyph glyph-name="uni0448" unicode="&#x448;" horiz-adv-x="1755" 
d="M967 -27q-113 0 -172.5 59.5t-57.5 166.5q-219 -225 -405 -226q-127 0 -186.5 74t-41.5 205l105 745h174l-98 -702q-14 -86 15.5 -123t105 -37t141 43t209.5 172l90 647h168l-99 -702q-12 -84 14.5 -122t105.5 -38t145.5 43t208.5 168l90 651h172l-140 -997h-135l15 213
q-231 -240 -424 -240z" />
    <glyph glyph-name="uni0449" unicode="&#x449;" horiz-adv-x="1808" 
d="M967 -27q-113 0 -172.5 59.5t-57.5 166.5q-219 -225 -405 -226q-127 0 -186.5 74t-41.5 205l105 745h174l-98 -702q-14 -86 15.5 -123t105 -37t141 43t209.5 172l90 647h168l-99 -702q-12 -84 14.5 -122t105.5 -38t145.5 42t210.5 169l88 651h172l-111 -815
q-8 -51 43 -51h98l-63 -436h-148l68 305q-76 2 -118 47t-34 135l3 29q-229 -238 -422 -238z" />
    <glyph glyph-name="uni044A" unicode="&#x44a;" horiz-adv-x="1288" 
d="M911.5 161q53.5 38 71.5 144t-21.5 143.5t-157.5 37.5t-237 -33l-43 -158q-23 -73 19.5 -122.5t178.5 -49.5t189.5 38zM734 -16q-218 0 -288.5 55t-89 116t5.5 169l146 534h-426l20 139h611l-111 -415q98 31 195 30q231 0 310 -70.5t52 -249.5t-117 -243.5t-308 -64.5z
" />
    <glyph glyph-name="uni044B" unicode="&#x44b;" horiz-adv-x="1464" 
d="M492 123q122 0 178.5 39t70.5 144t-25.5 142t-161.5 37t-255 -39l-27 -182q-10 -86 44 -113.5t176 -27.5zM553 612q231 0 310 -69.5t53 -249.5t-115.5 -244.5t-293.5 -64.5t-257 27.5t-107.5 72.5t-38.5 182l107 731h168l-62 -430q125 45 236 45zM1360 997l-141 -997
h-175l140 997h176z" />
    <glyph glyph-name="uni044C" unicode="&#x44c;" horiz-adv-x="1044" 
d="M492 123q122 0 178.5 39t70.5 144t-25.5 142t-161.5 37t-255 -39l-27 -182q-10 -86 44 -113.5t176 -27.5zM553 612q231 0 310 -69.5t53 -249.5t-115.5 -244.5t-293.5 -64.5t-257 27.5t-107.5 72.5t-38.5 182l107 731h168l-62 -430q125 45 236 45z" />
    <glyph glyph-name="uni044D" unicode="&#x44d;" horiz-adv-x="1032" 
d="M451 1010q283 0 386 -114t66 -407t-163 -403.5t-404 -105.5q-209 2 -332 40l27 121q127 -10 307 -14t264 60.5t117 258.5h-506l16 125h506q16 182 -46 237.5t-247 55.5q-112 0 -292 -10l-9 121q125 35 310 35z" />
    <glyph glyph-name="uni044E" unicode="&#x44e;" horiz-adv-x="1624" 
d="M1083 874q-164 0 -237.5 -80.5t-104.5 -295.5t15.5 -292t211.5 -77t242.5 83t106.5 296t-20.5 289.5t-213.5 76.5zM1104 1022q244 0 339 -115.5t54 -410.5t-158.5 -404.5t-367.5 -109.5t-339 101t-63 363h-256l-63 -446h-174l141 997h174l-59 -415h256q47 250 159.5 345
t356.5 95z" />
    <glyph glyph-name="uni044F" unicode="&#x44f;" horiz-adv-x="1099" 
d="M485 500h273l51 366l-254 2q-131 0 -179 -34t-62 -136t22.5 -150t148.5 -48zM487 369q-170 0 -206 -105l-97 -264h-176l103 291q27 74 88 107.5t127 31.5l2 8q-211 37 -183 281q20 178 126 233.5t327 55.5t399 -15l-141 -993h-170l53 369h-252z" />
    <glyph glyph-name="uni0451" unicode="&#x451;" horiz-adv-x="1099" 
d="M606 877q-154 0 -223 -69t-104 -288l354 35q102 8 147.5 42t61.5 129t-33 123t-203 28zM622 1022q248 0 333 -79t59 -231t-112.5 -213t-266.5 -75l-369 -33q-4 -158 81 -231.5t552 -12.5l12 -116q-141 -55 -402 -55t-355.5 131t-54.5 419t157.5 392t365.5 104zM860 1202
h-57q-47 0 -45 47l18 115q10 49 58 49h53q55 0 45 -49l-19 -113q-4 -49 -53 -49zM514 1202h-57q-47 0 -45 47l18 115q8 49 57 49h54q53 0 45 -49l-19 -113q-2 -49 -53 -49z" />
    <glyph glyph-name="uni0452" unicode="&#x452;" horiz-adv-x="1181" 
d="M748 668q-88 0 -174.5 -43t-219.5 -142l-67 -483h-174l143 1016h-145l14 100h145l45 318h174l-45 -318h392l-15 -100h-391l-31 -228q-14 -98 -32 -163q252 199 456 198q281 0 244 -276l-78 -547h-174l72 506q12 90 -19.5 126t-119.5 36z" />
    <glyph glyph-name="uni0453" unicode="&#x453;" horiz-adv-x="1060" 
d="M452 -27q-222 0 -318.5 62.5t-78.5 206.5q12 100 76 163.5t191 112.5l278 105q100 35 143 71.5t49 92.5t-43 76.5t-203 12.5t-386 -57l-4 137q182 55 413 66q158 17 248 -14t121.5 -84.5t21.5 -131.5q-18 -151 -111 -211t-181 -94l-299 -114q-72 -31 -104 -59.5
t-36 -75.5q-10 -70 35 -91.5t150 -21.5q250 6 483 80l6 -142q-229 -90 -451 -90zM905 1370l-424 -248l-53 82l393 299z" />
    <glyph glyph-name="uni0454" unicode="&#x454;" horiz-adv-x="1028" 
d="M637 864q-155 0 -235 -58t-115 -237h508l-17 -123h-510q-20 -193 39.5 -252t255.5 -67q102 -2 299 14l12 -123q-145 -39 -348 -38q-254 0 -360.5 117.5t-66.5 406.5t166 397.5t401 108.5q196 0 317 -37l-27 -119q-164 10 -319 10z" />
    <glyph glyph-name="uni0455" unicode="&#x455;" horiz-adv-x="1042" 
d="M47 6l21 127q122 -10 316 -9t261.5 23.5t77.5 90.5t-24.5 89t-65.5 35t-39 17l-277 123q-113 51 -158.5 114.5t-31.5 169.5q16 139 114.5 189.5t315.5 46.5t406 -31l-21 -125q-252 8 -394 10t-192.5 -15t-58.5 -81t18.5 -91t100.5 -60l280 -123q121 -53 166 -112.5
t31 -170.5q-22 -183 -216 -228t-630 11z" />
    <glyph glyph-name="uni0456" unicode="&#x456;" horiz-adv-x="509" 
d="M258 0h-174l139 997h174zM326 1421h82q55 0 49 -57l-17 -117q-6 -49 -55 -49h-82q-59 0 -49 57l16 115q7 51 56 51z" />
    <glyph glyph-name="uni0457" unicode="&#x457;" horiz-adv-x="503" 
d="M254 0h-174l141 997h174zM514 1413h53q51 0 45 -49l-18 -113q-4 -49 -53 -49h-58q-47 0 -45 47l19 115q10 49 57 49zM168 1413h53q51 0 45 -49l-18 -113q-2 -49 -53 -49h-58q-47 0 -45 47l19 115q8 49 57 49z" />
    <glyph glyph-name="uni0458" unicode="&#x458;" horiz-adv-x="509" 
d="M397 997l-143 -1026q-35 -248 -242 -389l-92 80q135 143 160 318l143 1017h174zM326 1421h82q55 0 49 -57l-17 -117q-6 -49 -55 -49h-82q-59 0 -49 57l16 115q7 51 56 51z" />
    <glyph glyph-name="uni0459" unicode="&#x459;" horiz-adv-x="1638" 
d="M1090 123q122 0 176.5 38t67.5 145t-23.5 143t-159.5 36t-252 -43l-27 -178q-12 -84 42 -112.5t176 -28.5zM1180 612q209 0 280.5 -75.5t47.5 -250.5t-111.5 -236.5t-282.5 -63.5t-307 50t-92 230l86 598h-172q-111 0 -137 -110q-59 -256 -93 -361.5t-94 -199.5
q-115 -188 -325 -199l-9 139q172 31 228.5 178.5t73 209t67.5 278.5q47 199 240 198h399l-64 -434q121 49 265 49z" />
    <glyph glyph-name="uni045A" unicode="&#x45a;" horiz-adv-x="1658" 
d="M1113 123q120 0 174.5 39t68.5 144t-24 142t-158 37t-248 -41l-27 -180q-10 -86 42 -113.5t172 -27.5zM1174 612q227 0 303.5 -69.5t52.5 -249.5t-112.5 -244.5t-305.5 -64.5t-276.5 45t-84 101t-16.5 136l33 221h-463l-69 -487h-160l139 997h162l-53 -385h462l56 385
h164l-62 -430q123 45 230 45z" />
    <glyph glyph-name="uni045B" unicode="&#x45b;" horiz-adv-x="1181" 
d="M748 668q-88 0 -174.5 -43t-221.5 -142l-65 -483h-174l143 1016h-145l14 100h145l45 318h174l-45 -318h392l-15 -100h-391l-27 -195q-16 -115 -36 -196q248 199 456 198q281 0 244 -276l-80 -576q-39 -250 -242 -389l-92 80q135 143 160 318l74 526q12 90 -19.5 126
t-119.5 36z" />
    <glyph glyph-name="uni045C" unicode="&#x45c;" horiz-adv-x="1089" 
d="M303 451q0 -63 -4 -103l-51 -348h-172l139 997h174l-41 -299q-6 -37 -26 -112h135q159 0 241 120t168 289h187q-157 -312 -244.5 -386t-200.5 -89l-4 -6q119 -8 176.5 -76.5t90 -181.5t69.5 -256h-174q-70 264 -98 324q-53 106 -160 122q-23 4 -51 5h-154zM567 1122
l-53 82l393 299l84 -133z" />
    <glyph glyph-name="uni045D" unicode="&#x45d;" horiz-adv-x="1167" 
d="M344 -27q-135 0 -196.5 74t-43.5 205l105 745h174l-98 -702q-14 -92 13.5 -131t109.5 -39t168 52t227 179l88 641h172l-139 -997h-133l14 217q-254 -244 -461 -244zM700 1122l-378 256l96 123l346 -301z" />
    <glyph glyph-name="uni045E" unicode="&#x45e;" horiz-adv-x="1107" 
d="M401 0q-43 0 -75.5 25.5t-40.5 66.5l-193 905h184l156 -821q10 -39 47 -39h105l39 76q92 180 165.5 394t104.5 390h182q-37 -172 -118 -404.5t-179 -432.5t-201.5 -330.5t-248 -213.5t-326.5 -38l16 143q129 -25 247 36t239 243h-103zM605 1159q-147 0 -223.5 77
t-51.5 202h131q-27 -182 157 -183q171 1 191 183h133q-10 -125 -100 -202t-237 -77z" />
    <glyph glyph-name="uni045F" unicode="&#x45f;" horiz-adv-x="1167" 
d="M477 -84h119l-37 -379h-153zM344 -27q-135 0 -196.5 74t-43.5 205l105 745h174l-98 -702q-14 -92 13.5 -131t109.5 -39t168 52t227 179l88 641h172l-139 -997h-133l14 217q-254 -244 -461 -244z" />
    <glyph glyph-name="uni0490" unicode="&#x490;" horiz-adv-x="1064" 
d="M588 1262q-78 0 -115 -31t-49 -119l-156 -1112h-180l162 1153q18 129 93 195.5t192 66.5q315 0 462 -12l66 319h123l-53 -336l-21 -124h-524z" />
    <glyph glyph-name="uni0491" unicode="&#x491;" horiz-adv-x="927" 
d="M489 862q-127 0 -143 -127l-102 -735h-174l112 788q29 213 240 213q254 0 379 -6l61 299h121l-47 -309l-23 -123h-424z" />
    <glyph glyph-name="uni04B0" unicode="&#x4b0;" horiz-adv-x="1181" 
d="M713 563h270l-16 -108h-305l-64 -455h-180l63 455h-309l16 108h277l-315 850h186l213 -600q10 -29 41 -160l16 6q43 90 84 160l383 594h193z" />
    <glyph glyph-name="uni04B1" unicode="&#x4b1;" horiz-adv-x="1187" 
d="M653 152h273l-15 -111h-311l-63 -457h-183l66 457h-303l14 111h270l-313 845h184l213 -602q31 -90 41 -157h17q27 74 84 165l381 594h196z" />
    <glyph glyph-name="uni04B6" unicode="&#x4b6;" horiz-adv-x="1347" 
d="M434 514q-328 0 -282 326l81 573h181l-76 -547q-16 -104 21.5 -149t149.5 -45t216 36.5t244 118.5l82 586h178l-180 -1288h176l-62 -434h-137l27 309h-201l94 670q-262 -156 -512 -156z" />
    <glyph glyph-name="uni04B7" unicode="&#x4b7;" horiz-adv-x="1146" 
d="M408 489q164 0 356 113l55 395h176l-125 -858h140l-62 -434h-160l64 295h-172l63 453q-213 -105 -371 -107t-221 54.5t-47 168.5l62 428h174l-53 -379q-10 -76 14.5 -102.5t106.5 -26.5z" />
    <glyph glyph-name="uni04BA" unicode="&#x4ba;" horiz-adv-x="1292" 
d="M889 899q332 0 280 -326l-79 -573h-181l78 547q16 106 -22.5 150t-151.5 44q-190 0 -457 -155l-82 -586h-182l199 1413h182l-94 -670q264 156 510 156z" />
    <glyph glyph-name="uni04C0" unicode="&#x4c0;" horiz-adv-x="536" 
d="M274 0h-180l199 1413h180z" />
    <glyph glyph-name="Wgrave" unicode="&#x1e80;" horiz-adv-x="1931" 
d="M539 0h-199q-27 0 -46.5 16.5t-21.5 40.5l-102 1356h184l66 -1104q0 -10 6 -176h49l60 182l362 1041q16 57 74 57h194q25 0 42.5 -18.5t19.5 -44.5l84 -1043q8 -115 8 -174h51l55 178l371 1102h189l-482 -1364q-16 -49 -73 -49h-201q-27 0 -45.5 16.5t-20.5 42.5
l-73 1063l-13 156h-43l-422 -1227q-16 -51 -73 -51zM1196 1569l-61 -80l-379 256l94 125z" />
    <glyph glyph-name="wgrave" unicode="&#x1e81;" horiz-adv-x="1740" 
d="M440 137q55 0 97 72q61 109 112 280q57 174 107 465q6 43 49 43h190q41 0 45 -41l101 -819h24q45 0 84 64q90 141 160 321t119 475h182q-76 -338 -177 -568q-148 -338 -224 -383.5t-133 -45.5h-115q-47 0 -55 47l-95 836h-26q-23 -205 -89 -421t-143 -333
q-74 -129 -219 -129h-102q-45 0 -56 47l-184 950h180l142 -860h26zM1047 1200l-64 -78l-379 256l96 123z" />
    <glyph glyph-name="Wacute" unicode="&#x1e82;" horiz-adv-x="1931" 
d="M539 0h-199q-27 0 -46.5 16.5t-21.5 40.5l-102 1356h184l66 -1104q0 -10 6 -176h49l60 182l362 1041q16 57 74 57h194q25 0 42.5 -18.5t19.5 -44.5l84 -1043q8 -115 8 -174h51l55 178l371 1102h189l-482 -1364q-16 -49 -73 -49h-201q-27 0 -45.5 16.5t-20.5 42.5
l-73 1063l-13 156h-43l-422 -1227q-16 -51 -73 -51zM1440 1737l-422 -248l-55 82l393 301z" />
    <glyph glyph-name="wacute" unicode="&#x1e83;" horiz-adv-x="1740" 
d="M440 137q55 0 97 72q61 109 112 280q57 174 107 465q6 43 49 43h190q41 0 45 -41l101 -819h24q45 0 84 64q90 141 160 321t119 475h182q-76 -338 -177 -568q-148 -338 -224 -383.5t-133 -45.5h-115q-47 0 -55 47l-95 836h-26q-23 -205 -89 -421t-143 -333
q-74 -129 -219 -129h-102q-45 0 -56 47l-184 950h180l142 -860h26zM1290 1370l-424 -248l-53 82l393 299z" />
    <glyph glyph-name="Wdieresis" unicode="&#x1e84;" horiz-adv-x="1931" 
d="M539 0h-199q-27 0 -46.5 16.5t-21.5 40.5l-102 1356h184l66 -1104q0 -10 6 -176h49l60 182l362 1041q16 57 74 57h194q25 0 42.5 -18.5t19.5 -44.5l84 -1043q8 -115 8 -174h51l55 178l371 1102h189l-482 -1364q-16 -49 -73 -49h-201q-27 0 -45.5 16.5t-20.5 42.5
l-73 1063l-13 156h-43l-422 -1227q-16 -51 -73 -51zM1276 1780h53q51 0 45 -49l-18 -113q-6 -49 -53 -49h-58q-51 0 -45 47l19 115q6 49 57 49zM930 1780h53q51 0 45 -49l-18 -113q-6 -49 -54 -49h-57q-51 0 -45 47l18 115q7 49 58 49z" />
    <glyph glyph-name="wdieresis" unicode="&#x1e85;" horiz-adv-x="1740" 
d="M440 137q55 0 97 72q61 109 112 280q57 174 107 465q6 43 49 43h190q41 0 45 -41l101 -819h24q45 0 84 64q90 141 160 321t119 475h182q-76 -338 -177 -568q-148 -338 -224 -383.5t-133 -45.5h-115q-47 0 -55 47l-95 836h-26q-23 -205 -89 -421t-143 -333
q-74 -129 -219 -129h-102q-45 0 -56 47l-184 950h180l142 -860h26zM1124 1413h54q55 0 45 -49l-17 -113q-6 -49 -55 -49h-57q-49 0 -43 47l16 115q10 49 57 49zM778 1413h53q53 0 46 -49l-17 -113q-6 -49 -55 -49h-57q-49 0 -43 47l16 115q8 49 57 49z" />
    <glyph glyph-name="Ygrave" unicode="&#x1ef2;" horiz-adv-x="1157" 
d="M649 494l-69 -494h-183l72 502l-338 911h184l213 -600q31 -92 41 -160h17q31 82 84 166l381 594h196zM743 1491l-378 256l94 123l348 -301z" />
    <glyph glyph-name="ygrave" unicode="&#x1ef3;" horiz-adv-x="1103" 
d="M399 0q-45 0 -75.5 25.5t-40.5 66.5l-193 905h182l158 -821q10 -39 47 -39h98l17 33q16 33 24 47q193 377 275 780h180q-109 -481 -303 -831q-158 -293 -308.5 -422t-355.5 -166l-32 125q125 29 224 96.5t193 200.5h-90zM639 1122l-379 256l94 123l346 -301z" />
    <glyph glyph-name="endash" unicode="&#x2013;" horiz-adv-x="1210" 
d="M1042 451h-917l18 133h918z" />
    <glyph glyph-name="emdash" unicode="&#x2014;" horiz-adv-x="1832" 
d="M1665 451h-1540l18 133h1540z" />
    <glyph glyph-name="quoteleft" unicode="&#x2018;" horiz-adv-x="444" 
d="M303 1006h-51q-68 0 -55 61l16 125q20 133 115 293l84 -29q-53 -170 -66 -229q29 2 43 -12.5t10 -38.5l-18 -113q-6 -35 -21.5 -46t-56.5 -11z" />
    <glyph glyph-name="quoteright" unicode="&#x2019;" horiz-adv-x="440" 
d="M317 1466h52q68 0 55 -63l-16 -123q-20 -133 -115 -293l-84 27q53 168 65 229q-29 -2 -43 13.5t-10 39.5l19 113q6 35 21 46t56 11z" />
    <glyph glyph-name="quotesinglbase" unicode="&#x201a;" horiz-adv-x="466" 
d="M160 225h53q68 0 55 -63l-18 -123q-16 -129 -115 -295l-86 29q53 170 66 229q-29 -2 -42.5 12.5t-11.5 40.5l19 113q8 33 23.5 45t56.5 12z" />
    <glyph glyph-name="quotedblleft" unicode="&#x201c;" horiz-adv-x="755" 
d="M303 1006h-51q-68 0 -55 61l16 125q20 133 115 293l84 -29q-53 -170 -66 -229q29 2 43 -12.5t10 -38.5l-18 -113q-6 -35 -21.5 -46t-56.5 -11zM616 1006h-53q-66 0 -53 61l16 125q16 131 113 293l86 -29q-47 -139 -66 -229q27 2 41.5 -12.5t12.5 -38.5l-19 -113
q-8 -35 -23.5 -46t-54.5 -11z" />
    <glyph glyph-name="quotedblright" unicode="&#x201d;" horiz-adv-x="753" 
d="M629 1466h53q68 0 55 -63l-18 -123q-16 -131 -113 -293l-86 27q51 150 66 229q-27 -2 -41.5 13.5t-9.5 39.5l16 113q8 35 23.5 46t54.5 11zM317 1466h52q68 0 55 -63l-16 -123q-20 -133 -115 -293l-84 27q53 168 65 229q-29 -2 -43 13.5t-10 39.5l19 113q6 35 21 46
t56 11z" />
    <glyph glyph-name="quotedblbase" unicode="&#x201e;" horiz-adv-x="778" 
d="M471 223h51q68 0 56 -63l-19 -123q-16 -135 -113 -293l-86 27q51 152 66 229q-27 -2 -41 13.5t-10 39.5l16 113q8 35 23.5 46t56.5 11zM158 223h51q68 0 55 -63l-16 -123q-20 -137 -115 -293l-84 27q53 170 66 229q-29 -2 -43.5 13.5t-10.5 39.5l19 113q6 35 21.5 46
t56.5 11z" />
    <glyph glyph-name="dagger" unicode="&#x2020;" horiz-adv-x="917" 
d="M117 844l20 153h266l-16 -133zM891 997l-21 -153l-264 20l19 133h266zM422 -225h-158l178 1212l52 428h159l-82 -526z" />
    <glyph glyph-name="daggerdbl" unicode="&#x2021;" horiz-adv-x="999" 
d="M819 193h-266l18 133l269 20zM352 326l-18 -133h-268l20 153zM909 844l-264 20l21 133h266zM426 864l-270 -20l22 153h266zM627 993l-113 -798l-51 -420h-160l68 420l112 798l52 422h159z" />
    <glyph glyph-name="bullet" unicode="&#x2022;" horiz-adv-x="739" 
d="M375 733h24q94 0 129 -40t23 -134l-4 -27q-14 -100 -54 -135t-137 -35h-24q-100 0 -135 40t-21 141l4 26q12 96 53.5 130t141.5 34z" />
    <glyph glyph-name="ellipsis" unicode="&#x2026;" horiz-adv-x="1722" 
d="M1411 242h59q70 0 60 -68l-17 -113q-6 -61 -67 -61h-60q-72 0 -61 68l18 114q7 60 68 60zM780 242h58q68 0 59 -68l-14 -113q-10 -61 -70 -61h-57q-72 0 -62 68l17 114q8 60 69 60zM150 242h57q68 0 59 -68l-16 -113q-6 -61 -68 -61h-57q-72 0 -62 68l17 114q9 60 70 60z
" />
    <glyph glyph-name="perthousand" unicode="&#x2030;" horiz-adv-x="2592" 
d="M2186 709q-116 0 -165 -69t-75 -244t4 -241.5t145 -66.5t166 68t76 244t-5 242.5t-146 66.5zM1427 709q-116 0 -165.5 -69t-73.5 -245t5 -241.5t143 -65.5t165 69t76 245t-4.5 241.5t-145.5 65.5zM2192 819q181 0 245 -99.5t32 -325.5t-116 -320t-265 -94t-243.5 99
t-30.5 325t114.5 320.5t263.5 94.5zM1434 819q182 0 244.5 -99.5t30.5 -325.5t-116 -320t-265 -94t-243.5 99t-30.5 325t115 320.5t265 94.5zM523 1329q-116 0 -165.5 -67.5t-73.5 -243.5t5.5 -241.5t144.5 -65.5t165 68.5t75 243.5t-5 240.5t-146 65.5zM438 0h-135
l1114 1413h135zM530 1440q180 0 244 -98.5t32 -325.5t-115 -321.5t-264 -94.5t-244.5 99.5t-31 326.5t115.5 320.5t263 93.5z" />
    <glyph glyph-name="guilsinglleft" unicode="&#x2039;" horiz-adv-x="606" 
d="M532 874l-313 -362l223 -373l-88 -59l-278 424l2 39l383 397z" />
    <glyph glyph-name="guilsinglright" unicode="&#x203a;" horiz-adv-x="608" 
d="M506 518l-2 -39l-383 -399l-72 65l313 365l-221 373l86 57z" />
    <glyph glyph-name="fraction" unicode="&#x2044;" horiz-adv-x="327" 
d="M-305 0h-139l1103 1413h140z" />
    <glyph glyph-name="Euro" unicode="&#x20ac;" horiz-adv-x="1298" 
d="M768 -25q-270 0 -388 137.5t-108 422.5h-178l17 108h170l8 70q6 55 14 90h-170l17 108h176q68 270 215 398.5t413 128.5q181 0 328 -43l-29 -138q-153 25 -319 19t-266.5 -91t-151.5 -274h522l-30 -108h-516q-4 -18 -19 -107l-6 -53h463l-31 -108h-442
q-8 -207 63.5 -300.5t248.5 -98.5t345 26l8 -142q-154 -45 -354 -45z" />
    <glyph glyph-name="trademark" unicode="&#x2122;" horiz-adv-x="1959" 
d="M1710 1425h133q23 0 36 -15t9 -38l-69 -725h-117l63 682h-22l-264 -553q-16 -37 -54 -37h-96q-45 0 -49 45l-115 545h-24l-123 -682h-117l133 733q8 45 49 45h129q43 0 48 -43l94 -452q8 -31 16 -109h25q20 59 43 109l219 459q16 36 53 36zM895 1321h-270l-95 -674h-124
l92 674h-267l13 104h665z" />
    <glyph glyph-name="partialdiff" unicode="&#x2202;" horiz-adv-x="1167" 
d="M465 131q170 0 261 136t142 392q-109 113 -264 113q-279 0 -344 -315q-31 -154 19.5 -240t185.5 -86zM467 -25q-242 0 -332 142.5t-48 350.5t163.5 331t327.5 120t309 -163q35 226 13.5 313.5t-57.5 126.5t-125 75t-349 36l8 133q385 6 522 -86.5t168 -248t-16 -423.5
q-61 -356 -201.5 -531.5t-382.5 -175.5z" />
    <glyph glyph-name="emptyset" unicode="&#x2205;" horiz-adv-x="1402" 
d="M750 350h-80q-14 0 -15 -16v-76q0 -14 15 -14h80q16 0 16 14v76q0 16 -16 16zM653 494h111q0 72 29.5 132t66.5 95t66.5 89t29.5 116q0 190 -239 190q-102 0 -250 -22l6 -93q123 19 251 19t128 -94q0 -78 -68.5 -147.5t-99.5 -137t-31 -147.5zM717 1296q248 0 423 -175
t175 -422.5t-175 -424t-424 -176.5t-424 176.5t-175 424t176 422.5t424 175z" />
    <glyph glyph-name="product" unicode="&#x220f;" horiz-adv-x="1472" 
d="M1485 1266h-213l-207 -1477h-174l209 1477h-547l-207 -1477h-174l207 1477h-213l20 147h1321z" />
    <glyph glyph-name="summation" unicode="&#x2211;" horiz-adv-x="1202" 
d="M1174 1266h-771l267 -557l-471 -787h807l-21 -145h-1001l18 145l479 791l-262 553l19 147h956z" />
    <glyph glyph-name="minus" unicode="&#x2212;" horiz-adv-x="1200" 
d="M1038 539h-897l21 131h897z" />
    <glyph glyph-name="radical" unicode="&#x221a;" horiz-adv-x="1153" 
d="M471 0h-203q-10 0 -19 6t-7 14l-123 977h143l107 -878h26l727 1675h152l-780 -1782q-4 -12 -23 -12z" />
    <glyph glyph-name="infinity" unicode="&#x221e;" horiz-adv-x="1591" 
d="M1192 784q-98 0 -155.5 -44t-74.5 -57t-83 -79q33 -45 55 -68.5t69 -46t121 -22.5t131.5 45t69.5 127q20 145 -133 145zM420 467q57 0 114.5 27.5t89 54t97.5 88.5q-57 78 -108.5 112.5t-137.5 34.5q-180 1 -203 -159q-20 -158 148 -158zM1225 913q125 0 196.5 -73.5
t52.5 -211.5t-113.5 -214t-217.5 -76t-200 52t-146 142q-106 -92 -201.5 -143t-215.5 -51t-197 81t-57 220t106.5 206.5t207.5 67.5t200 -52t159 -152q238 204 426 204z" />
    <glyph glyph-name="integral" unicode="&#x222b;" horiz-adv-x="755" 
d="M598 1462q137 0 207 -8l-25 -125h-127q-76 0 -115.5 -40t-48.5 -132l-98 -1343q-10 -137 -72.5 -203t-198.5 -66t-194 9l25 124h123q78 0 119 41.5t49 135.5l98 1339q20 268 258 268z" />
    <glyph glyph-name="approxequal" unicode="&#x2248;" horiz-adv-x="1200" 
d="M225 274l-114 7q2 131 60.5 189t146.5 55t249 -61t223 -60t88.5 22.5t36.5 89.5l117 -6q-2 -123 -57 -181.5t-153 -56.5t-257 60.5t-217 59.5t-85.5 -23.5t-37.5 -94.5zM1087 901q-4 -241 -225 -237q-82 2 -242 60t-218 60t-84.5 -23t-36.5 -95l-113 8q2 131 59.5 188.5
t145.5 53.5t248.5 -60.5t222.5 -58.5t89.5 21.5t37.5 90.5z" />
    <glyph glyph-name="notequal" unicode="&#x2260;" horiz-adv-x="1255" 
d="M762 752l-225 -303h518l-19 -132h-598l-188 -251l-53 28l168 223h-226l17 132h307l225 303h-489l16 129h569l166 223l54 -29l-146 -194h256l-18 -129h-334z" />
    <glyph glyph-name="lessequal" unicode="&#x2264;" horiz-adv-x="1157" 
d="M956 162h-878l18 129h879zM1047 956l-715 -217l657 -202l-20 -136l-801 269l20 139l879 287z" />
    <glyph glyph-name="greaterequal" unicode="&#x2265;" horiz-adv-x="1153" 
d="M956 162h-878l18 129h879zM1024 809l-18 -139l-877 -269l23 146l710 205l-651 213l16 131z" />
    <glyph glyph-name="lozenge" unicode="&#x25ca;" 
d="M227 707l297 -529l459 537l-301 524zM86 729l598 688q16 23 31 -4l401 -690q10 -23 2 -35l-596 -694q-20 -20 -33 6l-403 694q-10 23 0 35z" />
    <glyph glyph-name="fi" unicode="&#xfb01;" horiz-adv-x="1234" 
d="M1053 1421h82q27 0 40 -16t9 -41l-15 -117q-8 -49 -57 -49h-82q-55 0 -49 57l16 115q7 51 56 51zM-8 -412q-106 0 -238 15l27 131h156q98 0 142 34.5t58 135.5l133 956h-178l17 127l182 8l22 164q23 156 99 232.5t224 76.5t249 -14l-13 -129h-178q-98 0 -146 -44
t-63 -148l-20 -136h663l-141 -997h-174l121 860h-488l-139 -983q-39 -289 -315 -289z" />
    <glyph glyph-name="fl" unicode="&#xfb02;" horiz-adv-x="1359" 
d="M694 1327q-98 0 -146 -44t-63 -150l-20 -136h299l-19 -137h-299l-139 -983q-39 -289 -315 -289q-106 0 -238 15l27 131h156q98 0 142 34.5t58 135.5l133 956h-178l17 127l182 8l22 164q23 156 98.5 233.5t227.5 75.5q453 -6 571 -24l-161 -1194q-18 -131 110 -131h101
l8 -113q-59 -24 -177 -24t-177.5 63.5t-45.5 173.5l156 1108h-330z" />
    <glyph glyph-name="brevecy" horiz-adv-x="765" 
d="M482 1143q-147 0 -223.5 77.5t-51.5 200.5h131q-27 -182 158 -182q170 0 190 182h133q-10 -125 -100 -201.5t-237 -76.5z" />
    </font>
</defs>
</svg>
