<?xml version="1.0" standalone="no"?>
<!DOCTYPE svg PUBLIC "-//W3C//DTD SVG 1.1//EN" "http://www.w3.org/Graphics/SVG/1.1/DTD/svg11.dtd" >
<svg xmlns="http://www.w3.org/2000/svg">
<metadata>
Created by FontPrep 20130207 at Mon Dec  8 14:43:00 2014
 By rosi
Copyright (c) 2013, Natanael Gama (www.ndiscovered.com . info(at)ndiscovered.com), with Reserved Font Name Exo. This Font Software is licensed under the SIL Open Font License, Version 1.1.
</metadata>
<defs>
<font id="0bccf8ece39fda5560f9388f32d789e6" horiz-adv-x='1024' >
  <font-face 
    font-family="Exo2-LightItalic"
    font-weight="300"
    font-style="italic"
    font-stretch="normal"
    units-per-em="2048"
    panose-1="0 0 4 0 0 0 0 0 0 0"
    ascent="1638"
    descent="-410"
    x-height="991"
    cap-height="1413"
    bbox="-440 -553 2448.95 1905"
    underline-thickness="102"
    underline-position="-102"
    slope="-8"
    unicode-range="U+0020-FB02"
  />
<missing-glyph horiz-adv-x="1228" 
 />
    <glyph glyph-name=".notdef" horiz-adv-x="1228" 
 />
    <glyph glyph-name=".null" horiz-adv-x="0" 
 />
    <glyph glyph-name="nonmarkingreturn" horiz-adv-x="681" 
 />
    <glyph glyph-name="space" unicode=" " horiz-adv-x="462" 
 />
    <glyph glyph-name="exclam" unicode="!" horiz-adv-x="540" 
d="M197 219h36q55 0 46 -53l-17 -119q-2 -47 -53 -47h-37q-53 0 -47 53l18 117q7 49 54 49zM358 772l-59 -346h-104l34 346l93 651h129z" />
    <glyph glyph-name="quotedbl" unicode="&#x22;" horiz-adv-x="696" 
d="M588 979h-92l51 434h110zM305 979h-92l53 434h109z" />
    <glyph glyph-name="numbersign" unicode="#" horiz-adv-x="1382" 
d="M983 934h-408l-126 -399h409zM1090 934l-127 -399h227l-31 -89h-223l-141 -446h-105l139 446h-407l-141 -446h-105l139 446h-237l28 89h238l125 399h-238l29 88h236l125 391h104l-123 -391h408l125 391h104l-123 -391h227l-28 -88h-225z" />
    <glyph glyph-name="dollar" unicode="$" 
d="M621 635l-113 -539q186 4 262 50.5t94 178.5t-12.5 182t-140.5 93zM668 1317q-211 0 -268.5 -57.5t-70.5 -172.5t17.5 -166t134.5 -94l107 -41l110 531h-30zM1090 1401l-17 -96q-195 10 -305 10l-113 -553l113 -45q158 -61 208 -146.5t28 -242.5q-31 -217 -146 -284
t-375 -67l-51 -243h-72l52 243q-180 4 -342 31l16 101q256 -12 350 -13l119 563l-135 54q-145 57 -195.5 145t-32.5 220t56.5 203t107 103.5t141 43t187.5 8.5h39l41 204h72l-43 -206q160 -6 297 -33z" />
    <glyph glyph-name="percent" unicode="%" horiz-adv-x="1818" 
d="M1416 735q-128 0 -184 -74.5t-82 -260.5t9 -260t161 -74t185 76t83 262t-10 258.5t-162 72.5zM1421 819q178 0 238.5 -99.5t28.5 -323.5t-115.5 -319t-258.5 -95t-235.5 99t-29.5 325t112.5 319.5t259.5 93.5zM530 1354q-128 0 -184.5 -75t-82.5 -260t9 -259t161 -74
t184.5 76t82.5 262t-9 258t-161 72zM406 0h-107l1139 1413h104zM533 1438q177 0 239 -99.5t30 -323.5t-116 -318.5t-259 -94.5t-235.5 99.5t-29.5 323.5t112.5 318.5t258.5 94.5z" />
    <glyph glyph-name="ampersand" unicode="&#x26;" horiz-adv-x="1570" 
d="M498 94q337 0 499 254q86 129 119 332h-448q-211 -2 -303.5 -62.5t-122.5 -234.5t29 -231.5t227 -57.5zM750 1432q216 0 370 -46l-22 -98q-129 31 -321 31t-273.5 -52.5t-108.5 -212.5t37 -215t248 -55h450q12 121 9 283h121q0 -174 -11 -283h254l-16 -104h-250
q-35 -227 -133 -388t-250 -235.5t-376 -78.5t-317 83t-65 283t119.5 287.5t257.5 97.5l2 8q-139 10 -188 95.5t-25 240.5q37 213 154.5 286t333.5 73z" />
    <glyph glyph-name="quotesingle" unicode="'" horiz-adv-x="413" 
d="M305 979h-92l53 434h109z" />
    <glyph glyph-name="parenleft" unicode="(" horiz-adv-x="727" 
d="M778 1618l15 -68q-225 -106 -356.5 -328.5t-181.5 -580.5t15.5 -580.5t259.5 -332.5l-18 -66q-252 111 -347 353.5t-40 632.5t212.5 625.5t440.5 344.5z" />
    <glyph glyph-name="parenright" unicode=")" horiz-adv-x="727" 
d="M209 1552l18 66q250 -109 347.5 -350.5t41.5 -633.5t-214 -626.5t-441 -345.5l-16 68q441 215 541 918t-277 904z" />
    <glyph glyph-name="asterisk" unicode="*" horiz-adv-x="919" 
d="M872 1139l-264 -68l-14 25l2 37l260 90zM467 1133l-6 -37l-19 -25l-249 74l34 80zM555 1090l166 -265l-72 -49l-127 256l-200 -254l-64 53l238 261l34 321h84z" />
    <glyph glyph-name="plus" unicode="+" horiz-adv-x="1124" 
d="M995 561h-389l-51 -371h-102l53 371h-391l14 101h389l51 368h105l-53 -368h391z" />
    <glyph glyph-name="comma" unicode="," horiz-adv-x="448" 
d="M154 219h43q49 0 41 -51l-19 -133q-18 -137 -100 -295l-66 22q45 154 60 240q-43 0 -37 45l18 123q4 29 16.5 39t43.5 10z" />
    <glyph glyph-name="hyphen" unicode="-" horiz-adv-x="940" 
d="M766 465h-629l15 102h628z" />
    <glyph glyph-name="period" unicode="." horiz-adv-x="446" 
d="M145 219h48q51 0 45 -53l-17 -119q-6 -47 -53 -47h-45q-57 0 -47 53l16 117q6 49 53 49z" />
    <glyph glyph-name="slash" unicode="/" horiz-adv-x="1052" 
d="M82 -129h-117l1020 1542h115z" />
    <glyph glyph-name="zero" unicode="0" horiz-adv-x="1216" 
d="M714 1321q-190 0 -286 -143.5t-142 -475.5t6 -471t240 -139t285 143.5t145 475.5t-5 471t-243 139zM722 1438q257 0 342 -175.5t29.5 -562.5t-183.5 -556t-384 -169t-341 175.5t-29 562.5q53 387 181 556t385 169z" />
    <glyph glyph-name="one" unicode="1" horiz-adv-x="792" 
d="M471 0h-135l164 1176q12 74 24 112l-374 -119l-5 97l390 147h135z" />
    <glyph glyph-name="two" unicode="2" horiz-adv-x="1134" 
d="M446 127h517l-19 -127h-913l10 86q8 41 27 59l510 500q164 160 243.5 276.5t89.5 225.5q12 109 -50 140.5t-235 31.5t-388 -39l-7 104q239 54 439 54t299.5 -62.5t77.5 -240.5q-16 -131 -90 -247t-242 -280l-496 -485q74 4 227 4z" />
    <glyph glyph-name="three" unicode="3" horiz-adv-x="1122" 
d="M756 741q252 -35 202 -369q-24 -160 -147 -273t-371 -124q-195 -10 -407 35l20 103q236 -27 377 -19q352 25 399 318q43 279 -262 280l-266 4l14 101l260 2q176 4 239 92t77 212t-42.5 169.5t-238.5 45.5t-358 -18l-8 103q221 35 385 35q236 0 323.5 -77t67.5 -255
q-16 -135 -78.5 -236.5t-181.5 -119.5z" />
    <glyph glyph-name="four" unicode="4" horiz-adv-x="1234" 
d="M211 367q-88 0 -124 67.5t11 140.5l535 838h137l-537 -850q-25 -39 -13.5 -62.5t48.5 -23.5h551l60 432l59 236h102l-94 -668h178l-14 -96l-178 -14l-51 -367h-129l51 367h-592z" />
    <glyph glyph-name="five" unicode="5" horiz-adv-x="1085" 
d="M1018 1298h-610l-84 -440l133 -8q276 -12 394 -102.5t89 -323.5q-20 -158 -127.5 -297t-412.5 -153q-167 -8 -359 55l27 106q170 -47 331 -41q367 18 412 342q25 184 -74.5 240.5t-386.5 62.5l-96 9q-27 0 -43 19t-12 48l114 598h727z" />
    <glyph glyph-name="six" unicode="6" horiz-adv-x="1161" 
d="M516 90q186 0 268 93t109 281t-19 267.5t-208 73.5q-102 -4 -191.5 -47t-198.5 -158q-41 -291 6.5 -400.5t233.5 -109.5zM786 1323q-152 0 -239.5 -43t-149 -172t-102.5 -383q162 184 399 190q203 6 284 -101t45 -355t-148.5 -366t-330.5 -118t-309.5 76t-102.5 235.5
t25 403.5t87 393.5t132 226t172 102.5t234.5 26t278.5 -29l-21 -98q-102 12 -254 12z" />
    <glyph glyph-name="seven" unicode="7" horiz-adv-x="1036" 
d="M979 1413q59 0 77.5 -29.5t-7.5 -83.5l-629 -1300h-137l583 1206q20 45 54 92h-740l10 115h789z" />
    <glyph glyph-name="eight" unicode="8" horiz-adv-x="1245" 
d="M551 96q203 0 281.5 62.5t102.5 236.5t-32.5 228.5t-268.5 53.5t-286 -56.5t-98 -231.5t37 -234.5t264 -58.5zM722.5 1321q-192.5 0 -262.5 -58.5t-92 -219.5t33 -208t251 -47t260.5 51.5t86.5 217.5q25 154 -29.5 209t-247 55zM399 731l4 8q-197 25 -155 328
q29 199 131 283t355 83t336 -88.5t56 -289.5q-41 -295 -245 -318l-4 -8q123 -14 163 -109.5t14 -285.5t-132.5 -270t-373.5 -82t-363.5 86t-68.5 278t91 281.5t192 103.5z" />
    <glyph glyph-name="nine" unicode="9" horiz-adv-x="1161" 
d="M676 1323q-186 0 -268 -87.5t-109 -281.5t26 -273t205 -75q109 4 195 49t193 160q41 285 -7.5 396.5t-234.5 111.5zM678 1438q272 0 346 -161t10 -558q-37 -236 -85 -381t-127 -226t-173 -109t-250 -28t-297 29l25 98q109 -12 264 -12q248 4 346.5 121t161.5 485
q-90 -106 -181 -150t-210 -48q-215 -6 -291 112.5t-44 359.5t150.5 354.5t354.5 113.5z" />
    <glyph glyph-name="colon" unicode=":" horiz-adv-x="458" 
d="M174 219h45q55 0 45 -53l-16 -119q-6 -47 -53 -47h-45q-53 0 -48 53l19 117q6 49 53 49zM270 895h45q53 0 45 -55l-16 -117q-6 -47 -53 -47h-45q-57 0 -47 53l16 117q6 49 55 49z" />
    <glyph glyph-name="semicolon" unicode=";" horiz-adv-x="466" 
d="M162 219h43q49 0 43 -51l-19 -133q-18 -133 -102 -295l-66 22q45 158 62 240q-45 0 -39 45l18 123q4 29 16.5 39t43.5 10zM248 895h47q51 0 45 -55l-16 -117q-6 -47 -54 -47h-45q-57 0 -47 53l17 117q6 49 53 49z" />
    <glyph glyph-name="less" unicode="&#x3c;" horiz-adv-x="1085" 
d="M981 909l-752 -305l664 -301l-14 -104l-773 356l15 104l874 363z" />
    <glyph glyph-name="equal" unicode="=" horiz-adv-x="1204" 
d="M1006 332h-883l14 100h883zM1065 764h-883l15 100h882z" />
    <glyph glyph-name="greater" unicode="&#x3e;" horiz-adv-x="1083" 
d="M979 659l-14 -104l-873 -354l14 112l750 301l-661 308l14 102z" />
    <glyph glyph-name="question" unicode="?" horiz-adv-x="1019" 
d="M414 219h37q55 0 45 -53l-17 -117q-6 -49 -53 -49h-37q-53 0 -47 53l18 117q5 49 54 49zM627 1458q203 0 299 -80t74 -238t-128 -249.5t-213.5 -188.5t-138.5 -278l-112 2q14 104 62 192.5t108.5 147.5t163 150t118.5 211t-43 170.5t-221 50.5t-403 -25l-7 94
q12 2 49 8.5t48.5 8.5t42 7t47 6t70 6t184.5 5z" />
    <glyph glyph-name="at" unicode="@" horiz-adv-x="1556" 
d="M664 809q-223 0 -297 -65.5t-113 -290.5q-39 -184 -10.5 -275.5t149.5 -91.5q197 0 422 250l72 465q-145 8 -223 8zM997 -20q-219 0 -198 231q-207 -236 -430 -236q-178 0 -230.5 126t-8.5 382t148.5 345.5t344.5 89.5q143 0 403 -41l-100 -666q-8 -63 10 -91t70 -28
q123 0 176 117.5t90 422t24.5 376t-39 101.5t-74.5 52.5t-313 22.5h-630l10 96q240 10 500 12t347 -5t158.5 -33.5t103.5 -67.5t49 -120t12 -179.5t-25 -253.5q-51 -387 -129 -520t-269 -133z" />
    <glyph glyph-name="A" unicode="A" horiz-adv-x="1253" 
d="M901 586l-117 604q-13 64 -18 119h-61q-6 -12 -26 -55.5t-30 -63.5l-284 -604h536zM666 1413h153q18 0 32.5 -12t16.5 -29l281 -1372h-135l-90 467h-617l-219 -467h-143l665 1378q14 35 56 35z" />
    <glyph glyph-name="B" unicode="B" horiz-adv-x="1259" 
d="M602 98q182 0 262 57.5t104 227.5t-39 231.5t-257 65.5h-340l-80 -578q168 -4 350 -4zM710 1315q-212 0 -288 -2l-74 -529h330q174 2 248.5 57.5t97.5 213.5t-39.5 209t-274.5 51zM610 -16q-328 0 -506 16l199 1413q158 17 425 17t362.5 -80t64.5 -295
q-23 -152 -89.5 -228.5t-193.5 -89.5l-2 -10q150 -12 202 -108.5t24 -290.5t-134 -269t-352 -75z" />
    <glyph glyph-name="C" unicode="C" 
d="M598 -25q-299 0 -401.5 171t-46 569.5t197.5 560.5t438 162q213 0 375 -39l-24 -101q-150 18 -367 18.5t-323.5 -129.5t-155.5 -479.5t17.5 -480.5t287.5 -132t397 24l11 -101q-166 -43 -406 -43z" />
    <glyph glyph-name="D" unicode="D" horiz-adv-x="1353" 
d="M601 100q142 0 239.5 51.5t158 181.5t95.5 380q51 352 -18.5 477t-309.5 125q-23 0 -342 -6l-170 -1205q205 -4 347 -4zM550.5 -18q-184.5 0 -446.5 18l199 1413q250 18 465 19q311 0 416.5 -163t48.5 -569q-31 -221 -79 -359t-130 -219t-185.5 -110.5t-288 -29.5z" />
    <glyph glyph-name="E" unicode="E" horiz-adv-x="1136" 
d="M551 1300q-145 0 -164 -151l-49 -348h633l-15 -105h-632l-60 -438q-23 -145 123 -145h565v-103q-188 -12 -583 -12q-131 0 -194.5 69.5t-47.5 188.5l131 930q14 106 86 167.5t188 61.5q416 0 607 -12l-19 -103h-569z" />
    <glyph glyph-name="F" unicode="F" horiz-adv-x="1095" 
d="M567 1300q-78 0 -119.5 -35.5t-52.5 -115.5l-51 -365h614l-14 -104h-614l-97 -680h-133l164 1180q16 113 89 174t188 61q403 0 589 -12l-20 -103h-543z" />
    <glyph glyph-name="G" unicode="G" horiz-adv-x="1273" 
d="M545 94q111 0 205 56.5t211 168.5l69 500h131l-117 -819h-96l10 205q-203 -229 -444 -229.5t-325.5 175t-38.5 562.5q70 537 328 663q126 62 343 62t387 -39l-24 -101q-182 20 -365 21q-258 0 -369.5 -127t-160.5 -492q-39 -336 17 -471t239 -135z" />
    <glyph glyph-name="H" unicode="H" horiz-adv-x="1357" 
d="M1284 1413l-199 -1413h-135l99 696h-711l-98 -696h-136l199 1413h135l-84 -600h711l84 600h135z" />
    <glyph glyph-name="I" unicode="I" horiz-adv-x="512" 
d="M240 0h-136l199 1413h135z" />
    <glyph glyph-name="J" unicode="J" horiz-adv-x="681" 
d="M117 98q176 0 205 176l157 1139h135l-159 -1141q-41 -289 -299 -288q-92 0 -170 22l26 92h105z" />
    <glyph glyph-name="K" unicode="K" horiz-adv-x="1189" 
d="M633 739l-2 -8q31 -35 57 -86l373 -645h-152l-391 682h-194q-4 -109 -13 -162l-73 -520h-134l199 1413h133l-63 -459q-18 -111 -33 -161h190l535 620h164l-510 -594q-41 -49 -86 -80z" />
    <glyph glyph-name="L" unicode="L" horiz-adv-x="1036" 
d="M393 113h531l-4 -103q-182 -12 -553 -12q-121 0 -183.5 69.5t-46.5 194.5l160 1151h135l-162 -1155q-10 -68 22 -106.5t101 -38.5z" />
    <glyph glyph-name="M" unicode="M" horiz-adv-x="1779" 
d="M1610 1413q60 0 55 -63l-131 -1350h-133l129 1300h-43l-524 -1110q-16 -43 -62 -43h-135q-51 0 -57 50l-220 1103h-45l-233 -1300h-135l248 1356q12 57 63 57h158q47 0 53 -49l186 -924q6 -33 16.5 -97t16.5 -95h45q47 113 86 194l438 926q19 45 64 45h160z" />
    <glyph glyph-name="N" unicode="N" horiz-adv-x="1429" 
d="M1104 0h-135q-41 0 -60 47l-401 1075q-43 117 -55 166h-41q-6 -88 -19 -176l-153 -1112h-136l191 1360q8 53 61 53h129q45 0 62 -47l391 -1049q43 -121 66 -192h45q6 66 22 197l152 1091h133l-193 -1360q-6 -53 -59 -53z" />
    <glyph glyph-name="O" unicode="O" horiz-adv-x="1359" 
d="M784 1319q-231 0 -337.5 -133t-155.5 -480.5t19.5 -479.5t296.5 -132t336 134t158 482.5t-18 478.5t-299 130zM789 1438q299 0 403 -167t48 -572t-197.5 -564.5t-438.5 -159.5t-402.5 166t-50 570.5t197 565.5t440.5 161z" />
    <glyph glyph-name="P" unicode="P" horiz-adv-x="1198" 
d="M763 1315q-175 0 -339 -4l-90 -629h332q178 2 253.5 67t101.5 251t-28.5 250.5t-229.5 64.5zM668 565q-174 0 -346 17l-82 -582h-136l199 1413q174 16 469 17q242 0 330 -96.5t52 -345.5t-140.5 -336t-345.5 -87z" />
    <glyph glyph-name="Q" unicode="Q" horiz-adv-x="1359" 
d="M446 -174l54 80q197 -117 493 -166l-51 -133q-289 59 -496 219zM784 1319q-231 0 -337.5 -132.5t-155.5 -480.5t19.5 -480t296.5 -132t336 134t158 482t-18 478.5t-299 130.5zM789 1438q299 0 403 -167t48 -572t-197.5 -564.5t-438.5 -159.5t-402.5 166.5t-49.5 570.5
t197 565t440 161z" />
    <glyph glyph-name="R" unicode="R" horiz-adv-x="1257" 
d="M763 1315q-177 0 -341 -4l-84 -588h336q174 2 250.5 66.5t101.5 234.5t-30.5 230.5t-232.5 60.5zM680 606l-356 4l-86 -610h-134l199 1413q174 16 469 17q233 0 327.5 -89.5t63.5 -320.5q-25 -172 -98.5 -257t-216.5 -106l-2 -10q113 -33 143 -201l90 -446h-137l-86 446
q-16 86 -58 122t-118 38z" />
    <glyph glyph-name="S" unicode="S" horiz-adv-x="1142" 
d="M719 1317q-119 0 -148.5 -1t-73.5 -8.5t-66.5 -21.5t-48.5 -40q-44 -43 -63 -165q-12 -109 20 -160t136 -94l287 -110q158 -61 207 -146.5t30.5 -221.5t-55.5 -205.5t-106.5 -106.5t-149.5 -48.5t-256 -11.5t-371 31l19 101q248 -12 425 -11.5t256 45.5t97 179.5
t-13 183.5t-140 94l-291 113q-145 57 -196.5 145t-34.5 220.5t56.5 203t108 103t141 43t239.5 9.5t353 -36l-16 -96q-227 12 -346 12z" />
    <glyph glyph-name="T" unicode="T" horiz-adv-x="1163" 
d="M1217 1294h-472l-182 -1294h-135l182 1294h-469l19 119h1073z" />
    <glyph glyph-name="U" unicode="U" horiz-adv-x="1361" 
d="M604 -25q-268 0 -372.5 131.5t-61.5 432.5l123 874h135l-125 -881q-33 -246 33.5 -342t269.5 -96t302.5 99.5t131.5 345.5l123 874h135l-124 -881q-43 -303 -172.5 -430t-397.5 -127z" />
    <glyph glyph-name="V" unicode="V" horiz-adv-x="1226" 
d="M602 0h-145q-41 0 -49 43l-261 1370h138l202 -1157q2 -16 11.5 -63.5t13.5 -90.5h53q37 90 68 162l526 1149h141l-643 -1376q-14 -37 -55 -37z" />
    <glyph glyph-name="W" unicode="W" horiz-adv-x="1918" 
d="M1399 0h-160q-47 0 -51 47l-109 1262h-47l-459 -1268q-16 -41 -59 -41h-160q-20 0 -35.5 13.5t-17.5 31.5l-129 1368h137l99 -1149q4 -51 8 -162h53l57 166l402 1102q16 43 59 43h154q20 0 33.5 -14.5t15.5 -34.5l104 -1100q8 -113 11 -162h53l55 166l416 1145h141
l-512 -1374q-14 -39 -59 -39z" />
    <glyph glyph-name="X" unicode="X" horiz-adv-x="1232" 
d="M780 733l314 -733h-140l-284 684h-64l-477 -684h-156l523 735l-295 678h139l264 -625h66l446 625h150z" />
    <glyph glyph-name="Y" unicode="Y" horiz-adv-x="1134" 
d="M616 506l-69 -506h-135l71 510l-346 903h137l236 -631q25 -66 47 -151h14q25 53 88 157l412 625h148z" />
    <glyph glyph-name="Z" unicode="Z" horiz-adv-x="1144" 
d="M1153 1413l-18 -115l-955 -1183h803l-18 -115h-951l17 115l954 1183h-780l16 115h932z" />
    <glyph glyph-name="bracketleft" unicode="[" horiz-adv-x="653" 
d="M473 1483q-29 0 -37 -33l-233 -1671q-4 -27 20 -27h223l-12 -90h-274q-43 0 -66.5 24.5t-17.5 71.5l241 1725q14 90 103 90h282l-12 -90h-217z" />
    <glyph glyph-name="backslash" unicode="\" horiz-adv-x="1021" 
d="M866 -129h-106l-592 1542h106z" />
    <glyph glyph-name="bracketright" unicode="]" horiz-adv-x="653" 
d="M498 1573q41 0 65.5 -27.5t18.5 -68.5l-242 -1725q-6 -41 -35 -65.5t-67 -24.5h-283l12 90h215q31 0 39 33l236 1671q4 27 -23 27h-223l12 90h275z" />
    <glyph glyph-name="asciicircum" unicode="^" horiz-adv-x="847" 
d="M829 788l-59 -36l-244 362h-16l-354 -362l-54 39l375 419h94z" />
    <glyph glyph-name="underscore" unicode="_" horiz-adv-x="1204" 
d="M956 -102h-893l17 102h891z" />
    <glyph glyph-name="grave" unicode="`" horiz-adv-x="616" 
d="M580 1169l-52 -59l-342 268l76 92z" />
    <glyph glyph-name="a" unicode="a" horiz-adv-x="1167" 
d="M628.5 907q-65.5 0 -124 -10t-103.5 -32.5t-73 -74.5q-52 -98 -83.5 -313.5t-3 -301t147.5 -85.5q200 0 442 246l80 563q-217 8 -282.5 8zM369 -25q-182 0 -237.5 120t-12.5 409q25 164 60.5 264t99 155.5t141.5 75t232.5 19.5t400.5 -41l-140 -977h-100l18 223
q-98 -113 -220 -180.5t-242 -67.5z" />
    <glyph glyph-name="b" unicode="b" horiz-adv-x="1165" 
d="M504 84q207 0 277.5 77t104.5 328t2 331.5t-155 80.5q-158 1 -430 -237l-78 -560q164 -20 279 -20zM762 1016q176 0 237.5 -115t20.5 -414q-23 -164 -59.5 -266t-98 -155.5t-132.5 -72t-183 -18.5q-223 0 -461 68l197 1391h129l-60 -412q-22 -158 -51 -262
q256 256 461 256z" />
    <glyph glyph-name="c" unicode="c" horiz-adv-x="985" 
d="M506 -25q-258 0 -349 121t-51 406q39 285 158 400.5t371 115.5q182 0 303 -45l-23 -84q-109 16 -260 16q-201 0 -292 -86t-122.5 -326.5t30 -322.5t245.5 -82t305 23l10 -91q-147 -45 -325 -45z" />
    <glyph glyph-name="d" unicode="d" horiz-adv-x="1165" 
d="M651 909q-219 0 -292.5 -75.5t-109.5 -319.5t-9.5 -334t139.5 -90q198 0 452 248l76 563q-213 8 -256 8zM346 -25q-162 0 -216 124t-13 405q23 164 59.5 264t99 155.5t138 75t206.5 19.5t310 -25q6 109 18 191l35 250h131l-203 -1434h-100l18 231q-236 -256 -483 -256z
" />
    <glyph glyph-name="e" unicode="e" horiz-adv-x="1091" 
d="M655.5 907q-122.5 0 -182 -14t-108 -57t-76 -120t-47.5 -206v-8l395 39q113 12 162 48t67 126q27 121 -30.5 156.5t-180 35.5zM619.5 1018q236.5 0 323.5 -75t57 -223t-110.5 -205.5t-252.5 -74.5l-408 -39q-12 -184 55.5 -249.5t225.5 -65.5t375 27l10 -88
q-141 -49 -395 -49.5t-343 125.5t-48 417t157.5 395.5t353 104.5z" />
    <glyph glyph-name="f" unicode="f" horiz-adv-x="753" 
d="M674 1358q-109 0 -160 -42t-65 -151l-25 -174h336l-17 -102h-333l-144 -1024q-41 -283 -301 -283q-96 0 -217 12l19 97h157q102 0 150.5 42t62.5 150l142 1006h-179l13 92l180 10l29 193q37 283 311 282q154 0 268 -12l-18 -96h-209z" />
    <glyph glyph-name="g" unicode="g" horiz-adv-x="1173" 
d="M655 907q-219 0 -292.5 -74.5t-110.5 -322t-8.5 -334t147.5 -86.5q201 0 445 248l84 561q-221 8 -265 8zM365 -25q-172 0 -230.5 120t-15.5 409q25 164 61.5 264t99 155.5t137.5 75t232.5 19.5t403.5 -41h10l-145 -969q-55 -428 -525 -446q-201 -12 -358 22l14 88
q174 -8 340 0q344 20 397 316q35 199 74 268q-100 -127 -232 -204t-263 -77z" />
    <glyph glyph-name="h" unicode="h" horiz-adv-x="1175" 
d="M799 1018q131 0 192.5 -72t42.5 -205l-106 -741h-129l100 715q14 104 -17.5 147t-122.5 43t-193.5 -57t-258.5 -184l-92 -664h-131l203 1434h129l-56 -416q-18 -125 -47 -248q287 248 486 248z" />
    <glyph glyph-name="i" unicode="i" horiz-adv-x="483" 
d="M223 0h-129l139 991h129zM324 1409h59q45 0 39 -45l-16 -121q-6 -39 -46 -39h-59q-47 0 -41 45l19 121q2 39 45 39z" />
    <glyph glyph-name="j" unicode="j" horiz-adv-x="483" 
d="M362 991l-147 -1044q-31 -223 -219 -369l-70 60q135 145 160 317l147 1036h129zM324 1409h59q45 0 39 -45l-16 -121q-6 -39 -46 -39h-59q-47 0 -41 45l19 121q2 39 45 39z" />
    <glyph glyph-name="k" unicode="k" horiz-adv-x="1042" 
d="M860 991h133q-98 -272 -358 -442q33 -57 57 -111l205 -438h-139l-223 489q-96 -51 -267 -116l-53 -373h-129l201 1434h131l-101 -732q-12 -98 -51 -219q219 84 377 214t217 294z" />
    <glyph glyph-name="l" unicode="l" horiz-adv-x="579" 
d="M373 102h106l6 -98q-49 -20 -160.5 -20t-166 63.5t-39.5 177.5l170 1209h129l-166 -1190q-12 -74 17.5 -108t103.5 -34z" />
    <glyph glyph-name="m" unicode="m" horiz-adv-x="1789" 
d="M750 1018q121 0 181 -62.5t54 -175.5q248 238 430 238q131 0 190.5 -73t41.5 -204l-105 -741h-129l103 715q14 102 -22 146t-121 44t-169 -52t-233 -187l-94 -666h-125l100 715q14 100 -19.5 145t-120.5 45t-172 -53t-233 -184l-94 -668h-129l141 991h99l-19 -223
q260 250 445 250z" />
    <glyph glyph-name="n" unicode="n" horiz-adv-x="1175" 
d="M799 1018q131 0 192.5 -72t42.5 -205l-106 -741h-129l100 715q14 104 -17.5 147t-122.5 43t-192.5 -56t-259.5 -181l-92 -668h-131l141 991h103l-21 -225q287 252 492 252z" />
    <glyph glyph-name="o" unicode="o" horiz-adv-x="1150" 
d="M625 905q-180 0 -265.5 -89t-118 -323.5t22.5 -320.5t235.5 -86t265.5 90t118 323.5t-22.5 319.5t-235.5 86zM626.5 1018q247.5 0 339 -122t51.5 -406t-157 -399.5t-364.5 -115.5t-337.5 120t-51.5 405t155.5 401.5t364.5 116.5z" />
    <glyph glyph-name="p" unicode="p" horiz-adv-x="1169" 
d="M496 84q104 0 168.5 13.5t112.5 61.5t70.5 123.5t50.5 261.5t-1 271.5t-147 85.5q-84 0 -205 -65.5t-238 -180.5l-78 -565q163 -6 267 -6zM774 1016q180 0 234.5 -118t13.5 -411q-25 -162 -61.5 -263t-99 -155.5t-139 -74t-212.5 -19.5t-303 23q-2 -96 -17 -191l-36 -235
h-129l200 1419h103l-21 -231q102 109 233.5 182.5t233.5 73.5z" />
    <glyph glyph-name="q" unicode="q" horiz-adv-x="1161" 
d="M629 907q-205 0 -276.5 -76.5t-104.5 -322.5t-3.5 -332t143.5 -86t207 55.5t236 192.5l76 549q-141 20 -278 20zM584 1018q219 0 463 -70l-197 -1376h-129l61 405q20 156 58 265q-238 -266 -478 -267q-162 0 -224 117t-23 412q23 164 59.5 266t97 156.5t131 73
t181.5 18.5z" />
    <glyph glyph-name="r" unicode="r" horiz-adv-x="804" 
d="M745 895q-86 0 -182 -54.5t-256 -178.5l-92 -662h-131l141 991h99l-19 -233q272 260 473 260h47l-32 -123h-48z" />
    <glyph glyph-name="s" unicode="s" horiz-adv-x="1030" 
d="M396 -25q-116 0 -345 29l17 96q127 -14 326.5 -12t269 28.5t81.5 112.5q8 47 -9 79t-41 45t-83 38l-295 123q-109 47 -154.5 105.5t-28.5 184t111.5 172t301.5 42.5t399 -31l-16 -92q-508 27 -602 -7q-58 -22 -69 -101t17.5 -110.5t106.5 -64.5l297 -123
q119 -49 164 -105t30 -172t-95 -176q-59 -44 -209 -56q-58 -4 -174 -5z" />
    <glyph glyph-name="t" unicode="t" horiz-adv-x="747" 
d="M436 102h164l6 -98q-90 -20 -210 -20t-174 65.5t-38 183.5l92 656h-182l12 92l185 10l43 301h127l-41 -301h334l-17 -102h-334l-90 -645q-10 -76 18.5 -109t104.5 -33z" />
    <glyph glyph-name="u" unicode="u" 
d="M348 -25q-133 0 -193.5 72t-41.5 203l104 741h131l-102 -712q-14 -100 19.5 -145.5t125.5 -45.5t186.5 58.5t243.5 193.5l90 651h129l-139 -991h-100l20 231q-262 -256 -473 -256z" />
    <glyph glyph-name="v" unicode="v" horiz-adv-x="1067" 
d="M467 0h-119q-39 0 -47 37l-199 954h136l168 -887h34q37 0 57.5 11.5t47.5 44.5q80 104 172 297q129 258 184 534h135q-70 -313 -211 -588q-125 -231 -196 -319q-33 -45 -69 -64.5t-93 -19.5z" />
    <glyph glyph-name="w" unicode="w" horiz-adv-x="1714" 
d="M416 104q51 0 88 62q66 100 140.5 301t133.5 491q4 37 39 33h141q31 0 39 -33l113 -854h25q45 0 82 58q104 158 161 297q98 217 160 532h135q-76 -334 -188 -572.5t-195 -338.5q-61 -80 -147 -80h-88q-41 0 -45 37l-113 866h-23q-35 -229 -118.5 -457.5t-169.5 -347.5
q-59 -98 -174 -98h-80q-37 0 -45 37l-185 954h134l153 -887h27z" />
    <glyph glyph-name="x" unicode="x" horiz-adv-x="1058" 
d="M647 514l275 -514h-134l-243 465h-53l-373 -465h-150l422 516l-254 475h133l219 -422h60l344 422h143z" />
    <glyph glyph-name="y" unicode="y" horiz-adv-x="1083" 
d="M403 0q-41 0 -70.5 23.5t-37.5 62.5l-197 905h138l170 -844q10 -43 51 -43h96l47 82q207 367 311 805h136q-115 -473 -332 -841q-158 -276 -298.5 -407.5t-318.5 -166.5l-22 90q229 63 411 334h-84z" />
    <glyph glyph-name="z" unicode="z" horiz-adv-x="1017" 
d="M954 885l-770 -776h666l-14 -109h-820l13 109l770 776h-652l15 106h807z" />
    <glyph glyph-name="braceleft" unicode="{" horiz-adv-x="636" 
d="M680 1573l-6 -84q-109 0 -160 -46t-68 -149l-53 -385q-16 -125 -56 -170t-149 -67q100 -37 130 -83t16 -153l-70 -502q-14 -102 20.5 -145t145.5 -43l-6 -84q-166 -8 -235.5 59.5t-47.5 210.5l74 535q10 74 -9.5 98.5t-59.5 39.5t-46 18l15 102q88 25 113.5 48.5
t37.5 117.5l60 418q20 145 102 209.5t252 54.5z" />
    <glyph glyph-name="bar" unicode="|" horiz-adv-x="493" 
d="M162 -346h-96l272 1945h98z" />
    <glyph glyph-name="braceright" unicode="}" horiz-adv-x="636" 
d="M217 1489l6 84q168 10 236.5 -59.5t48.5 -210.5l-59 -418q-12 -94 5 -115.5t101 -48.5l-14 -103q-123 -40 -137.5 -78t-20.5 -79l-76 -535q-20 -145 -100 -208.5t-252 -55.5l6 84q109 0 159 46t64 147l70 503q16 106 57 150.5t156 79.5q-98 23 -128 72t-9 171l53 385
q14 102 -20.5 145.5t-145.5 43.5z" />
    <glyph glyph-name="asciitilde" unicode="~" horiz-adv-x="1077" 
d="M215 473l-70 6q6 113 55.5 168t128.5 51t208 -62t191 -64t91 23.5t39 96.5l70 -6q-4 -106 -54 -162.5t-136 -51.5t-213.5 63.5t-184.5 63.5t-86 -25.5t-39 -100.5z" />
    <glyph glyph-name="uni00A0" unicode="&#xa0;" horiz-adv-x="462" 
 />
    <glyph glyph-name="exclamdown" unicode="&#xa1;" horiz-adv-x="503" 
d="M264 229l-88 -637h-131l90 637l62 344h104zM289 999h37q53 0 45 -53l-17 -115q-6 -49 -55 -49h-35q-53 0 -47 52l16 118q7 47 56 47z" />
    <glyph glyph-name="cent" unicode="&#xa2;" horiz-adv-x="1032" 
d="M475 307l176 815q-180 -6 -264 -93t-114 -310t15.5 -310.5t186.5 -101.5zM557 305q160 0 295 23l10 -90q-154 -45 -325 -45h-19l-43 -193h-72l46 197q-205 18 -277 139.5t-33 395.5t158 388.5t369 114.5h14l39 178h72l-41 -182q133 -8 219 -41l-23 -82q-119 14 -223 14
l-176 -817h10z" />
    <glyph glyph-name="sterling" unicode="&#xa3;" horiz-adv-x="1155" 
d="M755 1321q-153 0 -215.5 -56.5t-74.5 -195.5l-25 -283h465l-16 -84h-455l-16 -176q-12 -154 -58.5 -252t-146.5 -163q41 4 127 4h641l-16 -115h-918l16 117q197 98 224 409l16 176h-166l13 84h159l27 289q20 232 107 285t196 72.5t473 -17.5l-16 -104q-188 10 -341 10z
" />
    <glyph glyph-name="currency" unicode="&#xa4;" horiz-adv-x="1222" 
d="M664 1040q-146 0 -240 -89t-110 -232t57.5 -228.5t215.5 -88.5t240.5 86.5t113.5 233.5t-58 231t-219 87zM1130 1116l-159 -141q72 -106 53 -260q-14 -152 -111 -256l142 -160l-64 -55l-139 159q-114 -79 -266 -79t-250 88l-160 -142l-57 64l162 141q-68 106 -50 260
t115 256l-137 158l61 59l142 -161q106 74 255.5 73.5t247.5 -82.5l160 144z" />
    <glyph glyph-name="yen" unicode="&#xa5;" horiz-adv-x="1249" 
d="M756 649h317l-12 -82h-363l-20 -30l-16 -117h378l-12 -82h-377l-47 -338h-135l47 338h-371l13 82h370l17 123l-10 24h-357l10 82h314l-307 764h137l235 -598q37 -94 51 -151h17q37 78 90 155l401 594h150z" />
    <glyph glyph-name="brokenbar" unicode="&#xa6;" horiz-adv-x="493" 
d="M164 -346h-98l114 819h99zM322 780h-99l115 819h98z" />
    <glyph glyph-name="section" unicode="&#xa7;" horiz-adv-x="1114" 
d="M197 813l96 -2q-37 -131 -21.5 -215t105.5 -139l340 -211q197 -118 171 -296q-21 -145 -75.5 -190t-123 -61t-263.5 -14t-403 22l18 100q363 -22 461 -15t164 26.5t84 126.5q16 127 -111 207l-326 196q-131 78 -153 189.5t37 275.5zM725 670l-336 211q-104 63 -145 134.5
t-25 180.5q23 147 119 195.5t320 47.5t423 -26l-18 -100q-509 33 -600 -1t-105 -119t14.5 -131t92.5 -85l330 -203q129 -78 150.5 -193.5t-36.5 -277.5l-98 2q35 131 18.5 220.5t-104.5 144.5z" />
    <glyph glyph-name="dieresis" unicode="&#xa8;" horiz-adv-x="833" 
d="M702 1409h39q43 0 37 -41l-18 -111q-2 -41 -43 -40h-43q-41 0 -35 38l16 113q6 41 47 41zM350 1409h41q41 0 35 -41l-16 -111q-6 -41 -45 -40h-41q-39 0 -37 38l16 113q6 41 47 41z" />
    <glyph glyph-name="copyright" unicode="&#xa9;" horiz-adv-x="1724" 
d="M842 252q-233 0 -309.5 103.5t-42.5 360.5t137.5 356t328.5 99q150 0 265 -26l-17 -74q-106 10 -237 10q-186 0 -264 -75.5t-109 -289.5t19.5 -293t227.5 -79t279 12l6 -75q-133 -29 -284 -29zM960 1366q-294 0 -498 -185.5t-242 -479.5t124 -474t454 -180t495.5 185.5
t241.5 477.5t-121.5 474t-453.5 182zM958 1438q329 0 512 -205t141 -529t-264.5 -526.5t-552.5 -202.5t-511 207.5t-139 527.5t263.5 524t550.5 204z" />
    <glyph glyph-name="ordfeminine" unicode="&#xaa;" horiz-adv-x="911" 
d="M557 1153q-147 0 -202.5 -48t-79.5 -212t1 -213t111 -49q127 0 285 147l53 371q-143 4 -168 4zM518 1239q151 0 313 -29l-92 -657h-80l9 135q-135 -150 -297 -149q-127 0 -176.5 75.5t-20.5 283.5t111 274.5t233 66.5z" />
    <glyph glyph-name="guillemotleft" unicode="&#xab;" horiz-adv-x="958" 
d="M879 887l-330 -375l231 -381l-65 -45l-281 418l4 33l385 399zM524 887l-329 -375l231 -381l-66 -45l-280 418l4 33l385 399z" />
    <glyph glyph-name="logicalnot" unicode="&#xac;" horiz-adv-x="1204" 
d="M1049 659l-56 -385h-104l41 283h-778l14 102h883z" />
    <glyph glyph-name="softhyphen" unicode="&#xad;" horiz-adv-x="940" 
d="M764 465h-627l13 102h628z" />
    <glyph glyph-name="registered" unicode="&#xae;" horiz-adv-x="1155" 
d="M674 1210h-154l-31 -219h156q84 2 120 23.5t44 90.5t-19.5 87t-115.5 18zM651 942h-168l-34 -233h-66l78 546q299 24 362 -15.5t53 -121.5t-39.5 -112.5t-95.5 -42.5l-2 -5q41 -14 58 -79l45 -170h-70l-41 172q-16 61 -80 61zM669 1389q-187 0 -304 -111t-137 -297
t82 -297t285 -111t301 115t138 301t-79 293t-286 107zM674 1436q203 0 319.5 -124t91.5 -331t-157.5 -332t-338.5 -125t-321.5 130t-91.5 338t159.5 326t338.5 118z" />
    <glyph glyph-name="macron" unicode="&#xaf;" horiz-adv-x="819" 
d="M795 1260h-557l14 100h557z" />
    <glyph glyph-name="degree" unicode="&#xb0;" horiz-adv-x="757" 
d="M478 1358q-79 0 -132 -49t-61.5 -127t36.5 -128t121 -50t129.5 48t61.5 128t-34 129t-121 49zM481 1438q115 0 182.5 -75t56.5 -187t-91 -183t-196 -71t-180.5 77.5t-54.5 189.5t89 180.5t194 68.5z" />
    <glyph glyph-name="plusminus" unicode="&#xb1;" horiz-adv-x="1206" 
d="M115 260h882l-16 -100h-881zM1069 776l-14 -100h-389l-41 -283h-101l39 283h-391l14 100h389l39 283h105l-39 -283h389z" />
    <glyph glyph-name="twosuperior" unicode="&#xb2;" horiz-adv-x="860" 
d="M524 1507q-107 0 -250 -20l-4 82q150 31 283 31t199.5 -40t52.5 -147q-8 -78 -54 -144.5t-151 -162.5l-307 -275q68 6 143 7h322l-13 -101h-595l8 68q4 31 18 45l316 280q199 176 208 287q6 57 -31.5 73.5t-144.5 16.5z" />
    <glyph glyph-name="threesuperior" unicode="&#xb3;" horiz-adv-x="823" 
d="M542 1599q262 0 242 -188q-24 -210 -163 -225l-3 -6q162 -25 134 -211q-35 -236 -338 -246q-123 -6 -267 20l15 82q160 -14 244 -10q219 14 243 174q12 70 -22.5 112t-139.5 42h-172l11 80l168 2q100 2 140 45.5t50 115.5t-25 97.5t-143 25.5t-235 -12l-7 82
q134 20 268 20z" />
    <glyph glyph-name="acute" unicode="&#xb4;" horiz-adv-x="616" 
d="M651 1372l-397 -262l-45 61l377 302z" />
    <glyph glyph-name="paragraph" unicode="&#xb6;" horiz-adv-x="1214" 
d="M809 1438q168 0 313 -35l-198 -1403h-105l189 1335q-123 12 -238 13l-250 -1778h-104l119 842q-244 27 -339.5 157.5t-57.5 394.5t187.5 369t483.5 105z" />
    <glyph glyph-name="periodcentered" unicode="&#xb7;" horiz-adv-x="456" 
d="M209 637h45q55 0 45 -53l-16 -119q-6 -47 -54 -47h-45q-53 0 -47 53l19 119q6 47 53 47z" />
    <glyph glyph-name="cedilla" unicode="&#xb8;" horiz-adv-x="466" 
d="M90 -156l16 64q111 10 157 -21.5t32 -117.5q-18 -119 -115.5 -184.5t-236.5 -47.5l24 72q91 -2 155 44q64 45 74 103t-12 72t-94 16z" />
    <glyph glyph-name="onesuperior" unicode="&#xb9;" horiz-adv-x="581" 
d="M436 737h-104l98 678q8 49 14 74l-241 -68l-2 78l250 86h106z" />
    <glyph glyph-name="ordmasculine" unicode="&#xba;" horiz-adv-x="907" 
d="M531 1155q-125 0 -180 -58.5t-77 -210.5t16 -206.5t162 -54.5t181 58t77 210t-17 207t-162 55zM536 1239q178 0 242 -81t37 -272t-109.5 -269t-257.5 -78t-240 80.5t-38 272.5t107.5 269.5t258.5 77.5z" />
    <glyph glyph-name="guillemotright" unicode="&#xbb;" horiz-adv-x="958" 
d="M410 133l329 373l-231 383l65 43l279 -418l-2 -31l-387 -401zM55 133l330 373l-231 383l65 43l279 -418l-2 -31l-387 -401z" />
    <glyph glyph-name="onequarter" unicode="&#xbc;" horiz-adv-x="1738" 
d="M979 213q-51 0 -71.5 35t7.5 88l349 512h104l-340 -506q-12 -18 -5 -32.5t32 -14.5h356l35 252l39 139h80l-56 -391h101l-11 -72l-102 -8l-29 -215h-98l29 213h-420zM186 1253l-2 72l256 88h105l-119 -848h-104l96 682q10 63 14 76zM1417 1413l-1138 -1413h-101
l1139 1413h100z" />
    <glyph glyph-name="onehalf" unicode="&#xbd;" horiz-adv-x="1785" 
d="M1397 862q143 0 209.5 -39t50.5 -153q-8 -70 -58.5 -140.5t-154.5 -162.5l-326 -277q102 4 150 2h348l-14 -92h-625l8 61q2 27 21 45l325 281q199 174 215 289q8 61 -32 79.5t-150 18.5t-260 -20l-6 77q156 31 299 31zM424 565h-105l97 682q8 49 16 76l-246 -70l-4 72
l258 88h103zM268 0h-100l1139 1413h100z" />
    <glyph glyph-name="threequarters" unicode="&#xbe;" horiz-adv-x="1929" 
d="M1169 213q-51 0 -72.5 35t9.5 88l348 512h102l-339 -506q-12 -18 -5 -32.5t31 -14.5h346l35 252l39 139h80l-55 -391h112l-12 -72l-113 -10l-28 -213h-99l29 213h-408zM1630 1413l-1138 -1413h-101l1139 1413h100zM442 547q-138 0 -323 20l10 78q135 -12 258 -12
t180.5 42t69.5 126t-21.5 125t-148.5 41h-178l10 75l172 2q186 4 205 166q10 76 -27 101.5t-165 25.5t-236 -10l-4 76q134 20 282 20t209.5 -44t44.5 -156q-24 -186 -178 -209l-10 -4q172 -25 151 -219q-16 -129 -89.5 -186.5t-211.5 -57.5z" />
    <glyph glyph-name="questiondown" unicode="&#xbf;" horiz-adv-x="1013" 
d="M383 -330q233 0 412 23l6 -94q-16 -2 -73.5 -12.5t-78 -12.5t-90 -9t-199.5 -7q-203 0 -298 85t-72 238q18 149 125.5 243.5t218 194.5t135.5 271l111 -4q-14 -104 -62.5 -192.5t-108 -147t-162.5 -148.5t-120 -207q-18 -117 43 -169t213 -52zM563 1016h37q53 0 47 -53
l-16 -117q-6 -49 -53 -49h-37q-53 0 -45 53l16 119q6 47 51 47z" />
    <glyph glyph-name="Agrave" unicode="&#xc0;" horiz-adv-x="1253" 
d="M901 586l-117 604q-13 64 -18 119h-61q-6 -12 -26 -55.5t-30 -63.5l-284 -604h536zM666 1413h153q18 0 32.5 -12t16.5 -29l281 -1372h-135l-90 467h-617l-219 -467h-143l665 1378q14 35 56 35zM807 1497l-342 266l76 95l317 -302z" />
    <glyph glyph-name="Aacute" unicode="&#xc1;" horiz-adv-x="1253" 
d="M901 586l-117 604q-13 64 -18 119h-61q-6 -12 -26 -55.5t-30 -63.5l-284 -604h536zM666 1413h153q18 0 32.5 -12t16.5 -29l281 -1372h-135l-90 467h-617l-219 -467h-143l665 1378q14 35 56 35zM690 1497l-45 62l375 301l67 -101z" />
    <glyph glyph-name="Acircumflex" unicode="&#xc2;" horiz-adv-x="1253" 
d="M901 586l-117 604q-13 64 -18 119h-61q-6 -12 -26 -55.5t-30 -63.5l-284 -604h536zM666 1413h153q18 0 32.5 -12t16.5 -29l281 -1372h-135l-90 467h-617l-219 -467h-143l665 1378q14 35 56 35zM487 1511l-38 60l305 252h94l252 -260l-51 -54l-242 209h-19z" />
    <glyph glyph-name="Atilde" unicode="&#xc3;" horiz-adv-x="1253" 
d="M901 586l-117 604q-13 64 -18 119h-61q-6 -12 -26 -55.5t-30 -63.5l-284 -604h536zM666 1413h153q18 0 32.5 -12t16.5 -29l281 -1372h-135l-90 467h-617l-219 -467h-143l665 1378q14 35 56 35zM1049 1784l63 -6q-4 -104 -53 -157.5t-126 -47.5t-159 62.5t-123 60.5
q-113 10 -131 -123l-63 6q6 109 56 164t120 49t150.5 -61.5t138.5 -61.5t87.5 21.5t39.5 93.5z" />
    <glyph glyph-name="Adieresis" unicode="&#xc4;" horiz-adv-x="1253" 
d="M901 586l-117 604q-13 64 -18 119h-61q-6 -12 -26 -55.5t-30 -63.5l-284 -604h536zM666 1413h153q18 0 32.5 -12t16.5 -29l281 -1372h-135l-90 467h-617l-219 -467h-143l665 1378q14 35 56 35zM969 1579h-43q-41 0 -35 39l16 113q6 41 45 41h41q43 0 37 -41l-18 -111
q-2 -41 -43 -41zM616 1579h-43q-41 0 -34 39l16 113q6 41 47 41h39q43 0 37 -41l-19 -111q-2 -41 -43 -41z" />
    <glyph glyph-name="Aring" unicode="&#xc5;" horiz-adv-x="1253" 
d="M901 586l-117 604q-13 64 -18 119h-61q-6 -12 -26 -55.5t-30 -63.5l-284 -604h536zM666 1413h153q18 0 32.5 -12t16.5 -29l281 -1372h-135l-90 467h-617l-219 -467h-143l665 1378q14 35 56 35zM771 1538q58 0 99.5 40t47.5 98t-27 96t-92.5 38t-100.5 -39t-47 -99t28 -97
t92 -37zM769 1466q-93 0 -149.5 61.5t-46.5 148.5t72 146.5t155 59.5t149.5 -61.5t44.5 -149.5t-72 -146.5t-153 -58.5z" />
    <glyph glyph-name="AE" unicode="&#xc6;" horiz-adv-x="1861" 
d="M944 608l78 559q6 45 31.5 88t58.5 60h-8q-76 -37 -154 -137l-424 -570h418zM1317 1300q-147 0 -170 -151l-49 -346h598l-13 -107h-600l-59 -436q-23 -147 123 -147h536l-6 -103q-223 -12 -555 -12q-119 0 -182 70.5t-45 187.5l33 238h-490l-370 -494h-146l912 1210
q90 121 185 162t255 41q381 0 592 -10l-17 -103h-532z" />
    <glyph glyph-name="Ccedilla" unicode="&#xc7;" 
d="M469 -180l14 63q109 10 157 -21.5t34 -117.5q-20 -119 -117.5 -184.5t-234.5 -46.5l24 71q88 -2 153 44t75 104t-11.5 72t-93.5 16zM598 -25q-299 0 -401.5 171.5t-46.5 569.5t197.5 560t438.5 162q213 0 375 -39l-24 -101q-150 18 -367 18t-323.5 -129t-155.5 -479
t17.5 -481t287.5 -132t397 24l11 -101q-166 -43 -406 -43z" />
    <glyph glyph-name="Egrave" unicode="&#xc8;" horiz-adv-x="1136" 
d="M551 1300q-145 0 -164 -151l-49 -348h633l-15 -105h-632l-60 -438q-23 -145 123 -145h565v-103q-188 -12 -583 -12q-131 0 -194.5 69.5t-47.5 188.5l131 930q14 106 86 167.5t188 61.5q416 0 607 -12l-19 -103h-569zM805 1542l-342 268l76 93l317 -301z" />
    <glyph glyph-name="Eacute" unicode="&#xc9;" horiz-adv-x="1136" 
d="M551 1300q-145 0 -164 -151l-49 -348h633l-15 -105h-632l-60 -438q-23 -145 123 -145h565v-103q-188 -12 -583 -12q-131 0 -194.5 69.5t-47.5 188.5l131 930q14 106 86 167.5t188 61.5q416 0 607 -12l-19 -103h-569zM686 1542l-45 62l377 301l65 -101z" />
    <glyph glyph-name="Ecircumflex" unicode="&#xca;" horiz-adv-x="1136" 
d="M551 1300q-145 0 -164 -151l-49 -348h633l-15 -105h-632l-60 -438q-23 -145 123 -145h565v-103q-188 -12 -583 -12q-131 0 -194.5 69.5t-47.5 188.5l131 930q14 106 86 167.5t188 61.5q416 0 607 -12l-19 -103h-569zM485 1556l-41 60l308 254h92l252 -260l-49 -54
l-242 207h-19z" />
    <glyph glyph-name="Edieresis" unicode="&#xcb;" horiz-adv-x="1136" 
d="M551 1300q-145 0 -164 -151l-49 -348h633l-15 -105h-632l-60 -438q-23 -145 123 -145h565v-103q-188 -12 -583 -12q-131 0 -194.5 69.5t-47.5 188.5l131 930q14 106 86 167.5t188 61.5q416 0 607 -12l-19 -103h-569zM967 1624h-43q-39 0 -37 39l18 113q6 41 45 41h41
q41 0 35 -41l-16 -111q-2 -41 -43 -41zM614 1624h-43q-41 0 -34 39l16 113q6 41 45 41h41q43 0 37 -41l-19 -111q-2 -41 -43 -41z" />
    <glyph glyph-name="Igrave" unicode="&#xcc;" horiz-adv-x="512" 
d="M240 0h-136l199 1413h135zM481 1556l-51 -59l-342 266l76 95z" />
    <glyph glyph-name="Iacute" unicode="&#xcd;" horiz-adv-x="512" 
d="M240 0h-136l199 1413h135zM711 1759l-400 -262l-45 62l377 301z" />
    <glyph glyph-name="Icircumflex" unicode="&#xce;" horiz-adv-x="512" 
d="M240 0h-136l199 1413h135zM721 1563l-49 -54l-242 209h-18l-301 -207l-39 60l305 252h92z" />
    <glyph glyph-name="Idieresis" unicode="&#xcf;" horiz-adv-x="512" 
d="M240 0h-136l199 1413h135zM575 1772h41q43 0 37 -41l-18 -111q-2 -41 -43 -41h-43q-39 0 -37 39l18 113q6 41 45 41zM223 1772h41q43 0 37 -41l-18 -111q-2 -41 -43 -41h-43q-41 0 -35 39l16 113q6 41 45 41z" />
    <glyph glyph-name="Eth" unicode="&#xd0;" horiz-adv-x="1353" 
d="M601 100q142 0 239.5 51.5t158 181.5t95.5 380q51 352 -18.5 477t-309.5 125q-23 0 -342 -6l-74 -514h336l-12 -80h-334l-86 -611q205 -4 347 -4zM550 -18q-184 0 -446 18l101 715h-148l11 80h149l86 618q250 18 465 19q311 0 416.5 -163t48.5 -569q-31 -221 -79 -359
t-130 -219t-186 -110.5t-288 -29.5z" />
    <glyph glyph-name="Ntilde" unicode="&#xd1;" horiz-adv-x="1429" 
d="M1104 0h-135q-41 0 -60 47l-401 1075q-43 117 -55 166h-41q-6 -88 -19 -176l-153 -1112h-136l191 1360q8 53 61 53h129q45 0 62 -47l391 -1049q43 -121 66 -192h45q6 66 22 197l152 1091h133l-193 -1360q-6 -53 -59 -53zM618 1573l-65 6q8 109 58.5 164t120.5 49
t150.5 -61.5t136.5 -61.5q108 -12 128 115l63 -6q-4 -104 -53 -157.5t-126 -47.5t-158.5 62.5t-122.5 60.5q-114 10 -132 -123z" />
    <glyph glyph-name="Ograve" unicode="&#xd2;" horiz-adv-x="1359" 
d="M784 1319q-231 0 -337.5 -132.5t-155.5 -480.5t19.5 -480t296.5 -132t336 134t158 482t-18 478.5t-299 130.5zM789 1438q299 0 403 -167t48 -572t-197.5 -564.5t-438.5 -159.5t-402.5 166.5t-49.5 570.5t197 565t440 161zM911 1556l-51 -59l-342 266l76 95z" />
    <glyph glyph-name="Oacute" unicode="&#xd3;" horiz-adv-x="1359" 
d="M784 1319q-231 0 -337.5 -132.5t-155.5 -480.5t19.5 -480t296.5 -132t336 134t158 482t-18 478.5t-299 130.5zM789 1438q299 0 403 -167t48 -572t-197.5 -564.5t-438.5 -159.5t-402.5 166.5t-49.5 570.5t197 565t440 161zM1139 1759l-398 -262l-45 62l377 301z" />
    <glyph glyph-name="Ocircumflex" unicode="&#xd4;" horiz-adv-x="1359" 
d="M784 1319q-231 0 -337.5 -132.5t-155.5 -480.5t19.5 -480t296.5 -132t336 134t158 482t-18 478.5t-299 130.5zM789 1438q299 0 403 -167t48 -572t-197.5 -564.5t-438.5 -159.5t-402.5 166.5t-49.5 570.5t197 565t440 161zM1151 1563l-51 -54l-240 209h-18l-301 -207
l-41 60l307 252h92z" />
    <glyph glyph-name="Otilde" unicode="&#xd5;" horiz-adv-x="1359" 
d="M784 1319q-231 0 -337.5 -132.5t-155.5 -480.5t19.5 -480t296.5 -132t336 134t158 482t-18 478.5t-299 130.5zM789 1438q299 0 403 -167t48 -572t-197.5 -564.5t-438.5 -159.5t-402.5 166.5t-49.5 570.5t197 565t440 161zM573 1573l-65 6q8 109 58 164t120 49t151 -61.5
t134 -61.5q113 -12 129 115l65 -6q-6 -104 -54 -157.5t-125 -47.5t-159 62.5t-122 60.5q-114 10 -132 -123z" />
    <glyph glyph-name="Odieresis" unicode="&#xd6;" horiz-adv-x="1359" 
d="M784 1319q-231 0 -337.5 -132.5t-155.5 -480.5t19.5 -480t296.5 -132t336 134t158 482t-18 478.5t-299 130.5zM789 1438q299 0 403 -167t48 -572t-197.5 -564.5t-438.5 -159.5t-402.5 166.5t-49.5 570.5t197 565t440 161zM1006 1772h41q41 0 34 -41l-16 -111
q-6 -41 -45 -41h-41q-39 0 -37 39l19 113q6 41 45 41zM653 1772h41q41 0 35 -41l-16 -111q-2 -41 -43 -41h-43q-39 0 -37 39l18 113q6 41 45 41z" />
    <glyph glyph-name="multiply" unicode="&#xd7;" horiz-adv-x="1075" 
d="M612 584l275 -283l-74 -74l-283 291l-370 -295l-62 86l359 285l-273 283l74 73l281 -291l376 302l62 -87z" />
    <glyph glyph-name="Oslash" unicode="&#xd8;" horiz-adv-x="1359" 
d="M606 94q229 0 337 134t161 506t-47 493l-662 -1090q76 -43 211 -43zM786 1319q-233 0 -339.5 -133t-157.5 -486q-51 -385 45 -510l661 1088q-74 41 -209 41zM604 -25q-176 0 -276 52l-88 -144l-68 41l90 146q-178 156 -110 643q55 403 196 564t443 161q172 0 272 -49
l88 145l70 -39l-93 -149q180 -154 111 -646q-55 -406 -196.5 -565.5t-438.5 -159.5z" />
    <glyph glyph-name="Ugrave" unicode="&#xd9;" horiz-adv-x="1361" 
d="M604 -25q-268 0 -372.5 131.5t-61.5 432.5l123 874h135l-125 -881q-33 -246 33.5 -342t269.5 -96t302.5 99.5t131.5 345.5l123 874h135l-124 -881q-43 -303 -172.5 -430t-397.5 -127zM909 1556l-51 -59l-342 266l76 95z" />
    <glyph glyph-name="Uacute" unicode="&#xda;" horiz-adv-x="1361" 
d="M604 -25q-268 0 -372.5 131.5t-61.5 432.5l123 874h135l-125 -881q-33 -246 33.5 -342t269.5 -96t302.5 99.5t131.5 345.5l123 874h135l-124 -881q-43 -303 -172.5 -430t-397.5 -127zM1137 1759l-398 -262l-45 62l377 301z" />
    <glyph glyph-name="Ucircumflex" unicode="&#xdb;" horiz-adv-x="1361" 
d="M604 -25q-268 0 -372.5 131.5t-61.5 432.5l123 874h135l-125 -881q-33 -246 33.5 -342t269.5 -96t302.5 99.5t131.5 345.5l123 874h135l-124 -881q-43 -303 -172.5 -430t-397.5 -127zM1149 1563l-51 -54l-240 209h-18l-301 -207l-41 60l307 252h92z" />
    <glyph glyph-name="Udieresis" unicode="&#xdc;" horiz-adv-x="1361" 
d="M604 -25q-268 0 -372.5 131.5t-61.5 432.5l123 874h135l-125 -881q-33 -246 33.5 -342t269.5 -96t302.5 99.5t131.5 345.5l123 874h135l-124 -881q-43 -303 -172.5 -430t-397.5 -127zM1004 1772h40q41 0 35 -41l-16 -111q-6 -41 -45 -41h-41q-39 0 -37 39l18 113
q7 41 46 41zM651 1772h41q41 0 35 -41l-16 -111q-2 -41 -43 -41h-43q-39 0 -37 39l18 113q6 41 45 41z" />
    <glyph glyph-name="Yacute" unicode="&#xdd;" horiz-adv-x="1134" 
d="M616 506l-69 -506h-135l71 510l-346 903h137l236 -631q25 -66 47 -151h14q25 53 88 157l412 625h148zM618 1497l-45 62l377 301l66 -101z" />
    <glyph glyph-name="Thorn" unicode="&#xde;" horiz-adv-x="1202" 
d="M731 1036q-262 0 -346 -2l-88 -635h330q176 2 252.5 67.5t102.5 253.5t-27.5 252t-223.5 64zM733 1153q240 0 329 -96t54 -346t-139.5 -339t-330.5 -89t-363 16l-43 -299h-134l199 1413h133l-37 -266q92 6 332 6z" />
    <glyph glyph-name="germandbls" unicode="&#xdf;" horiz-adv-x="1357" 
d="M849 -23q-173 0 -335 23l16 98q391 -27 473 11t93 127q6 47 -10.5 81.5t-34 47t-64.5 41.5l-225 122q-80 47 -115 100.5t-25 136.5t75 133t208 111t169 114t28 94q6 76 -52 110.5t-246 34.5t-265.5 -56.5t-100.5 -218.5l-172 -1222q-23 -150 -96.5 -216.5t-216.5 -66.5
q-88 0 -205 12l19 97h157q102 0 149.5 42t63.5 150l144 1006h-183l15 92l182 10l16 115q31 234 131.5 288t171 65t179.5 11q254 0 351 -56t81 -204q-8 -92 -61.5 -151.5t-162.5 -112.5q-16 -6 -54 -22.5t-53 -22.5t-46 -22t-63.5 -50.5t-36.5 -80.5q-8 -45 16.5 -76
t87.5 -66l223 -123q94 -53 129 -107t23 -157q-18 -145 -111.5 -193.5t-266.5 -48.5z" />
    <glyph glyph-name="agrave" unicode="&#xe0;" horiz-adv-x="1167" 
d="M628 907q-66 0 -124 -10t-103 -32.5t-85 -97t-71 -290.5q-32 -216 -3.5 -301.5t147.5 -85.5q200 0 442 246l80 563q-217 8 -283 8zM369 -25q-182 0 -237.5 120t-12.5 409q25 164 60.5 264t99 155.5t141.5 75t232 19.5t401 -41l-140 -977h-100l18 223
q-98 -113 -220 -180.5t-242 -67.5zM711 1126l-342 269l75 92l318 -301z" />
    <glyph glyph-name="aacute" unicode="&#xe1;" horiz-adv-x="1167" 
d="M628 907q-66 0 -124 -10t-103 -32.5t-85 -97t-71 -290.5q-32 -216 -3.5 -301.5t147.5 -85.5q200 0 442 246l80 563q-217 8 -283 8zM369 -25q-182 0 -237.5 120t-12.5 409q25 164 60.5 264t99 155.5t141.5 75t232 19.5t401 -41l-140 -977h-100l18 223
q-98 -113 -220 -180.5t-242 -67.5zM594 1126l-45 64l375 299l67 -100z" />
    <glyph glyph-name="acircumflex" unicode="&#xe2;" horiz-adv-x="1167" 
d="M628 907q-66 0 -124 -10t-103 -32.5t-85 -97t-71 -290.5q-32 -216 -3.5 -301.5t147.5 -85.5q200 0 442 246l80 563q-217 8 -283 8zM369 -25q-182 0 -237.5 120t-12.5 409q25 164 60.5 264t99 155.5t141.5 75t232 19.5t401 -41l-140 -977h-100l18 223
q-98 -113 -220 -180.5t-242 -67.5zM391 1143l-39 57l305 254h95l252 -260l-52 -53l-241 207h-17z" />
    <glyph glyph-name="atilde" unicode="&#xe3;" horiz-adv-x="1167" 
d="M628 907q-66 0 -124 -10t-103 -32.5t-85 -97t-71 -290.5q-32 -216 -3.5 -301.5t147.5 -85.5q200 0 442 246l80 563q-217 8 -283 8zM369 -25q-182 0 -237.5 120t-12.5 409q25 164 60.5 264t99 155.5t141.5 75t232 19.5t401 -41l-140 -977h-100l18 223
q-98 -113 -220 -180.5t-242 -67.5zM952 1415l66 -6q-6 -104 -56 -158.5t-126 -48.5t-228.5 110t-183.5 -110l-64 6q6 109 56.5 164t120.5 49t150.5 -61.5t137.5 -61.5t87 22.5t40 94.5z" />
    <glyph glyph-name="adieresis" unicode="&#xe4;" horiz-adv-x="1167" 
d="M628 907q-66 0 -124 -10t-103 -32.5t-85 -97t-71 -290.5q-32 -216 -3.5 -301.5t147.5 -85.5q200 0 442 246l80 563q-217 8 -283 8zM369 -25q-182 0 -237.5 120t-12.5 409q25 164 60.5 264t99 155.5t141.5 75t232 19.5t401 -41l-140 -977h-100l18 223
q-98 -113 -220 -180.5t-242 -67.5zM872 1208h-43q-41 0 -34 39l16 113q6 41 47 41h39q43 0 37 -41l-19 -111q-2 -41 -43 -41zM520 1208h-43q-41 0 -35 39l17 113q6 41 47 41h41q41 0 35 -41l-17 -111q-6 -41 -45 -41z" />
    <glyph glyph-name="aring" unicode="&#xe5;" horiz-adv-x="1167" 
d="M628 907q-66 0 -124 -10t-103 -32.5t-85 -97t-71 -290.5q-32 -216 -3.5 -301.5t147.5 -85.5q200 0 442 246l80 563q-217 8 -283 8zM369 -25q-182 0 -237.5 120t-12.5 409q25 164 60.5 264t99 155.5t141.5 75t232 19.5t401 -41l-140 -977h-100l18 223
q-98 -113 -220 -180.5t-242 -67.5zM674 1169q58 0 99.5 38.5t47.5 98.5t-26.5 97t-92 37t-100.5 -39t-47 -98.5t27.5 -96.5t91.5 -37zM672 1098q-94 0 -149.5 60.5t-45.5 148.5t71.5 146t154.5 58t149.5 -60.5t45.5 -148.5t-71.5 -146t-154.5 -58z" />
    <glyph glyph-name="ae" unicode="&#xe6;" horiz-adv-x="1787" 
d="M1334 907q-138 0 -208.5 -28.5t-116.5 -113.5t-71 -255l-2 -8l395 39q113 12 162 47.5t72 141.5t-35 141.5t-196 35.5zM379 90q190 0 412 225q-4 88 12 199q39 268 137 377q-242 16 -293 16q-215 0 -287.5 -76.5t-109.5 -320.5t-10.5 -332t139.5 -88zM354 -25
q-174 0 -227 125t-12 404q25 164 61.5 264t100 155.5t139.5 75t236 19.5t401 -45q103 45 301 45t284 -75t58 -223t-110.5 -205.5t-254.5 -74.5l-405 -39q-12 -184 56 -249.5t224 -65.5t369 27l10 -88q-135 -49 -395 -50q-170 0 -264.5 57.5t-122.5 180.5
q-199 -238 -449 -238z" />
    <glyph glyph-name="ccedilla" unicode="&#xe7;" horiz-adv-x="985" 
d="M375 -180l14 63q109 10 157 -21.5t34 -117.5q-20 -119 -117.5 -184.5t-235.5 -46.5l25 71q88 -2 153.5 44t74.5 104t-12 72t-93 16zM506 -25q-258 0 -349 121t-51 406q39 285 158 400.5t371 115.5q182 0 303 -45l-23 -84q-109 16 -260 16q-201 0 -292 -86.5t-123 -326.5
t30 -322t246 -82t305 23l10 -91q-147 -45 -325 -45z" />
    <glyph glyph-name="egrave" unicode="&#xe8;" horiz-adv-x="1091" 
d="M656 907q-122 0 -182 -14t-108.5 -57t-76 -120t-47.5 -206v-8l395 39q113 12 162 48t67 126q27 121 -30.5 156.5t-179.5 35.5zM620 1018q236 0 323 -75t57 -223t-110.5 -205.5t-252.5 -74.5l-408 -39q-12 -184 55.5 -249.5t225.5 -65.5t375 27l10 -88q-141 -49 -395 -49
t-343 125.5t-48 416.5t158 395.5t353 104.5zM694 1126l-342 269l76 92l317 -301z" />
    <glyph glyph-name="eacute" unicode="&#xe9;" horiz-adv-x="1091" 
d="M656 907q-122 0 -182 -14t-108.5 -57t-76 -120t-47.5 -206v-8l395 39q113 12 162 48t67 126q27 121 -30.5 156.5t-179.5 35.5zM620 1018q236 0 323 -75t57 -223t-110.5 -205.5t-252.5 -74.5l-408 -39q-12 -184 55.5 -249.5t225.5 -65.5t375 27l10 -88q-141 -49 -395 -49
t-343 125.5t-48 416.5t158 395.5t353 104.5zM578 1126l-46 64l375 299l68 -100z" />
    <glyph glyph-name="ecircumflex" unicode="&#xea;" horiz-adv-x="1091" 
d="M656 907q-122 0 -182 -14t-108.5 -57t-76 -120t-47.5 -206v-8l395 39q113 12 162 48t67 126q27 121 -30.5 156.5t-179.5 35.5zM620 1018q236 0 323 -75t57 -223t-110.5 -205.5t-252.5 -74.5l-408 -39q-12 -184 55.5 -249.5t225.5 -65.5t375 27l10 -88q-141 -49 -395 -49
t-343 125.5t-48 416.5t158 395.5t353 104.5zM375 1143l-39 57l305 254h94l250 -260l-49 -53l-242 207h-18z" />
    <glyph glyph-name="edieresis" unicode="&#xeb;" horiz-adv-x="1091" 
d="M656 907q-122 0 -182 -14t-108.5 -57t-76 -120t-47.5 -206v-8l395 39q113 12 162 48t67 126q27 121 -30.5 156.5t-179.5 35.5zM620 1018q236 0 323 -75t57 -223t-110.5 -205.5t-252.5 -74.5l-408 -39q-12 -184 55.5 -249.5t225.5 -65.5t375 27l10 -88q-141 -49 -395 -49
t-343 125.5t-48 416.5t158 395.5t353 104.5zM856 1208h-43q-41 0 -35 39l17 113q6 41 45 41h41q43 0 37 -41l-19 -111q-2 -41 -43 -41zM504 1208h-43q-41 0 -35 39l16 113q6 41 47 41h39q43 0 37 -41l-18 -111q-2 -41 -43 -41z" />
    <glyph glyph-name="igrave" unicode="&#xec;" horiz-adv-x="483" 
d="M223 0h-131l141 991h129zM416 1186l-51 -60l-342 269l75 92z" />
    <glyph glyph-name="iacute" unicode="&#xed;" horiz-adv-x="483" 
d="M223 0h-131l141 991h129zM645 1389l-399 -263l-45 64l377 299z" />
    <glyph glyph-name="icircumflex" unicode="&#xee;" horiz-adv-x="483" 
d="M223 0h-131l141 991h129zM655 1194l-49 -53l-241 207h-19l-301 -205l-39 57l305 254h92z" />
    <glyph glyph-name="idieresis" unicode="&#xef;" horiz-adv-x="483" 
d="M223 0h-131l141 991h129zM510 1401h41q43 0 37 -41l-19 -111q-2 -41 -43 -41h-43q-39 0 -37 39l19 113q6 41 45 41zM158 1401h41q43 0 37 -41l-19 -111q-2 -41 -43 -41h-43q-41 0 -35 39l17 113q6 41 45 41z" />
    <glyph glyph-name="eth" unicode="&#xf0;" horiz-adv-x="1130" 
d="M491 86q168 0 260 138t115 476q-104 104 -275 104t-251 -91.5t-106 -277.5t31.5 -267.5t225.5 -81.5zM469 -25q-225 0 -313 117t-56 365q63 459 461 458q201 0 309 -124q2 287 -131 419l-190 -127l-37 58l170 116q-119 82 -336 78l21 95q260 8 413 -107l181 123l36 -60
l-161 -108q215 -215 149 -709q-18 -141 -48 -239.5t-114.5 -226.5t-353.5 -128z" />
    <glyph glyph-name="ntilde" unicode="&#xf1;" horiz-adv-x="1175" 
d="M799 1018q131 0 192.5 -72t42.5 -205l-106 -741h-129l100 715q14 104 -17.5 147t-122.5 43t-192.5 -56t-259.5 -181l-92 -668h-131l141 991h103l-21 -225q287 252 492 252zM948 1415l64 -6q-4 -104 -54 -158.5t-126 -48.5t-228.5 110t-183.5 -110l-66 6q8 111 57.5 165
t120.5 48t151.5 -61t133.5 -62q113 -12 131 117z" />
    <glyph glyph-name="ograve" unicode="&#xf2;" horiz-adv-x="1150" 
d="M625 905q-180 0 -265.5 -89.5t-117.5 -323.5t23 -320t235 -86t265 90t118 324t-22.5 319.5t-235.5 85.5zM626.5 1018q247.5 0 339 -122t51.5 -406t-156.5 -399.5t-364.5 -115.5t-338 120t-52 405t155.5 401.5t365 116.5zM745 1186l-49 -60l-342 269l74 92z" />
    <glyph glyph-name="oacute" unicode="&#xf3;" horiz-adv-x="1150" 
d="M625 905q-180 0 -265.5 -89.5t-117.5 -323.5t23 -320t235 -86t265 90t118 324t-22.5 319.5t-235.5 85.5zM626.5 1018q247.5 0 339 -122t51.5 -406t-156.5 -399.5t-364.5 -115.5t-338 120t-52 405t155.5 401.5t365 116.5zM975 1389l-397 -263l-46 64l377 299z" />
    <glyph glyph-name="ocircumflex" unicode="&#xf4;" horiz-adv-x="1150" 
d="M625 905q-180 0 -265.5 -89.5t-117.5 -323.5t23 -320t235 -86t265 90t118 324t-22.5 319.5t-235.5 85.5zM626.5 1018q247.5 0 339 -122t51.5 -406t-156.5 -399.5t-364.5 -115.5t-338 120t-52 405t155.5 401.5t365 116.5zM987 1194l-51 -53l-242 207h-16l-303 -205l-39 57
l307 254h92z" />
    <glyph glyph-name="otilde" unicode="&#xf5;" horiz-adv-x="1150" 
d="M625 905q-180 0 -265.5 -89.5t-117.5 -323.5t23 -320t235 -86t265 90t118 324t-22.5 319.5t-235.5 85.5zM626.5 1018q247.5 0 339 -122t51.5 -406t-156.5 -399.5t-364.5 -115.5t-338 120t-52 405t155.5 401.5t365 116.5zM410 1202l-66 6q8 111 57 165t119 48t151 -61
t134 -62q117 -12 131 117l65 -6q-6 -104 -55 -158.5t-125 -48.5t-228 110t-183 -110z" />
    <glyph glyph-name="odieresis" unicode="&#xf6;" horiz-adv-x="1150" 
d="M625 905q-180 0 -265.5 -89.5t-117.5 -323.5t23 -320t235 -86t265 90t118 324t-22.5 319.5t-235.5 85.5zM626.5 1018q247.5 0 339 -122t51.5 -406t-156.5 -399.5t-364.5 -115.5t-338 120t-52 405t155.5 401.5t365 116.5zM842 1401h41q41 0 35 -41l-17 -111
q-6 -41 -45 -41h-43q-41 0 -35 39l17 113q6 41 47 41zM489 1401h41q41 0 35 -41l-16 -111q-6 -41 -45 -41h-41q-39 0 -37 39l18 113q6 41 45 41z" />
    <glyph glyph-name="divide" unicode="&#xf7;" horiz-adv-x="1177" 
d="M530 358h39q53 0 47 -53l-18 -108q-2 -47 -53 -47h-37q-51 0 -45 53l16 108q6 47 51 47zM1024 555h-883l15 100h882zM629 1059h37q53 -2 47 -55l-17 -109q-6 -47 -53 -47h-37q-53 0 -47 53l16 109q7 49 54 49z" />
    <glyph glyph-name="oslash" unicode="&#xf8;" horiz-adv-x="1150" 
d="M498 86q182 0 267 90t121 345t-57 333l-456 -756q53 -12 125 -12zM627 905q-182 0 -267.5 -89t-117.5 -327q-41 -288 63 -362l461 762q-49 16 -139 16zM498 -25q-113 0 -187 21l-86 -139l-63 34l80 132q-98 51 -131 166.5t-5 312.5q39 283 156 399.5t365 116.5
q123 0 202 -27l89 146l63 -37l-86 -139q172 -104 121 -472q-39 -283 -156 -398.5t-362 -115.5z" />
    <glyph glyph-name="ugrave" unicode="&#xf9;" 
d="M348 -25q-133 0 -193.5 72t-41.5 203l104 741h131l-102 -712q-14 -100 19.5 -145.5t125.5 -45.5t186.5 58.5t243.5 193.5l90 651h129l-139 -991h-100l20 231q-262 -256 -473 -256zM698 1133l-342 266l76 94l318 -301z" />
    <glyph glyph-name="uacute" unicode="&#xfa;" 
d="M348 -25q-133 0 -193.5 72t-41.5 203l104 741h131l-102 -712q-14 -100 19.5 -145.5t125.5 -45.5t186.5 58.5t243.5 193.5l90 651h129l-139 -991h-100l20 231q-262 -256 -473 -256zM580 1133l-45 61l376 301l66 -102z" />
    <glyph glyph-name="ucircumflex" unicode="&#xfb;" 
d="M348 -25q-133 0 -193.5 72t-41.5 203l104 741h131l-102 -712q-14 -100 19.5 -145.5t125.5 -45.5t186.5 58.5t243.5 193.5l90 651h129l-139 -991h-100l20 231q-262 -256 -473 -256zM379 1147l-41 59l307 252h92l252 -260l-51 -53l-242 209h-16z" />
    <glyph glyph-name="udieresis" unicode="&#xfc;" 
d="M348 -25q-133 0 -193.5 72t-41.5 203l104 741h131l-102 -712q-14 -100 19.5 -145.5t125.5 -45.5t186.5 58.5t243.5 193.5l90 651h129l-139 -991h-100l20 231q-262 -256 -473 -256zM858 1214h-41q-39 0 -37 39l19 113q6 41 45 41h41q41 0 35 -41l-17 -111q-6 -41 -45 -41z
M506 1214h-41q-39 0 -37 39l18 113q6 41 46 41h40q41 0 35 -41l-16 -111q-6 -41 -45 -41z" />
    <glyph glyph-name="yacute" unicode="&#xfd;" horiz-adv-x="1083" 
d="M403 0q-41 0 -70.5 23.5t-37.5 62.5l-197 905h138l170 -844q10 -43 51 -43h96l47 82q207 367 311 805h136q-115 -473 -332 -841q-158 -276 -298.5 -407.5t-318.5 -166.5l-22 90q229 63 411 334h-84zM516 1126l-45 64l375 299l67 -100z" />
    <glyph glyph-name="thorn" unicode="&#xfe;" horiz-adv-x="1167" 
d="M483 86q221 0 294 73.5t110 322.5t9 334t-146 85q-197 0 -443 -246l-78 -561q145 -8 254 -8zM774 1016q174 0 231.5 -119t16.5 -410q-25 -164 -60.5 -263t-98 -155.5t-139 -75t-216.5 -18.5t-295 25q-6 -80 -20 -164l-35 -254h-129l260 1852h129l-62 -435
q-19 -135 -39 -213l2 -6q96 109 217 172.5t238 63.5z" />
    <glyph glyph-name="ydieresis" unicode="&#xff;" horiz-adv-x="1083" 
d="M403 0q-41 0 -70.5 23.5t-37.5 62.5l-197 905h138l170 -844q10 -43 51 -43h96l47 82q207 367 311 805h136q-115 -473 -332 -841q-158 -276 -298.5 -407.5t-318.5 -166.5l-22 90q229 63 411 334h-84zM795 1208h-43q-41 0 -35 39l16 113q6 41 45 41h41q43 0 37 -41
l-18 -111q-2 -41 -43 -41zM442 1208h-43q-41 0 -34 39l16 113q6 41 47 41h39q43 0 37 -41l-19 -111q-2 -41 -43 -41z" />
    <glyph glyph-name="Amacron" unicode="&#x100;" horiz-adv-x="1253" 
d="M901 586l-117 604q-13 64 -18 119h-61q-6 -12 -26 -55.5t-30 -63.5l-284 -604h536zM666 1413h153q18 0 32.5 -12t16.5 -29l281 -1372h-135l-90 467h-617l-219 -467h-143l665 1378q14 35 56 35zM1055 1622h-557l14 100h557z" />
    <glyph glyph-name="amacron" unicode="&#x101;" horiz-adv-x="1167" 
d="M628 907q-66 0 -124 -10t-103 -32.5t-85 -97t-71 -290.5q-32 -216 -3.5 -301.5t147.5 -85.5q200 0 442 246l80 563q-217 8 -283 8zM369 -25q-182 0 -237.5 120t-12.5 409q25 164 60.5 264t99 155.5t141.5 75t232 19.5t401 -41l-140 -977h-100l18 223
q-98 -113 -220 -180.5t-242 -67.5zM958 1253h-557l15 101h557z" />
    <glyph glyph-name="Abreve" unicode="&#x102;" horiz-adv-x="1253" 
d="M901 586l-117 604q-13 64 -18 119h-61q-6 -12 -26 -55.5t-30 -63.5l-284 -604h536zM666 1413h153q18 0 32.5 -12t16.5 -29l281 -1372h-135l-90 467h-617l-219 -467h-143l665 1378q14 35 56 35zM769 1534q-140 0 -215 71.5t-52 188.5l71 6q-12 -78 42.5 -122t158.5 -44
t173 46t79 126l70 -18q-12 -117 -99.5 -185.5t-227.5 -68.5z" />
    <glyph glyph-name="abreve" unicode="&#x103;" horiz-adv-x="1167" 
d="M628 907q-66 0 -124 -10t-103 -32.5t-85 -97t-71 -290.5q-32 -216 -3.5 -301.5t147.5 -85.5q200 0 442 246l80 563q-217 8 -283 8zM369 -25q-182 0 -237.5 120t-12.5 409q25 164 60.5 264t99 155.5t141.5 75t232 19.5t401 -41l-140 -977h-100l18 223
q-98 -113 -220 -180.5t-242 -67.5zM673 1163q-140 0 -215 72t-52 188l71 7q-12 -78 42 -121t160 -43t173.5 45t77.5 125l69 -19q-12 -117 -99 -185.5t-227 -68.5z" />
    <glyph glyph-name="Aogonek" unicode="&#x104;" horiz-adv-x="1253" 
d="M901 586l-117 604q-13 64 -18 119h-61q-6 -12 -26 -55.5t-30 -63.5l-284 -604h536zM666 1413h153q18 0 32.5 -12.5t16.5 -28.5l281 -1372q-123 -119 -193 -248q-43 -80 0 -104.5t152 12.5l16 -57q-186 -70 -255.5 -14.5t-10.5 171.5q66 121 219 240h-63l-90 467h-617
l-219 -467h-143l665 1378q14 35 56 35z" />
    <glyph glyph-name="aogonek" unicode="&#x105;" horiz-adv-x="1167" 
d="M628 907q-66 0 -124 -10t-103 -32.5t-85 -97t-71 -290.5q-32 -216 -3.5 -301.5t147.5 -85.5q200 0 442 246l80 563q-217 8 -283 8zM369 -25q-182 0 -237.5 120t-12.5 409q25 164 60.5 264t99 155.5t141.5 75t232 19.5t401 -41l-140 -977q-123 -119 -192 -248
q-43 -80 0 -104.5t151 12.5l17 -57q-186 -68 -255 -13.5t-11 170.5q66 121 219 240h-29l18 223q-98 -113 -220 -180.5t-242 -67.5z" />
    <glyph glyph-name="Cacute" unicode="&#x106;" 
d="M598 -25q-299 0 -401.5 171.5t-46.5 569.5t197.5 560t438.5 162q213 0 375 -39l-24 -101q-150 18 -367 18t-323.5 -129t-155.5 -479t17.5 -481t287.5 -132t397 24l11 -101q-166 -43 -406 -43zM1110 1759l-397 -262l-45 62l374 301z" />
    <glyph glyph-name="cacute" unicode="&#x107;" horiz-adv-x="985" 
d="M506 -25q-258 0 -349 121t-51 406q39 285 158 400.5t371 115.5q182 0 303 -45l-23 -84q-109 16 -260 16q-201 0 -292 -86.5t-123 -326.5t30 -322t246 -82t305 23l10 -91q-147 -45 -325 -45zM942 1389l-397 -263l-45 64l374 299z" />
    <glyph glyph-name="Cdotaccent" unicode="&#x10a;" 
d="M598 -25q-299 0 -401.5 171.5t-46.5 569.5t197.5 560t438.5 162q213 0 375 -39l-24 -101q-150 18 -367 18t-323.5 -129t-155.5 -479t17.5 -481t287.5 -132t397 24l11 -101q-166 -43 -406 -43zM795 1772h45q45 0 39 -48l-17 -116q-6 -43 -45 -43h-43q-45 0 -41 47l17 117
q6 43 45 43z" />
    <glyph glyph-name="cdotaccent" unicode="&#x10b;" horiz-adv-x="985" 
d="M506 -25q-258 0 -349 121t-51 406q39 285 158 400.5t371 115.5q182 0 303 -45l-23 -84q-109 16 -260 16q-201 0 -292 -86.5t-123 -326.5t30 -322t246 -82t305 23l10 -91q-147 -45 -325 -45zM627 1401h45q45 0 39 -45l-17 -119q-6 -41 -45 -41h-43q-47 0 -41 45l17 119
q6 41 45 41z" />
    <glyph glyph-name="Ccaron" unicode="&#x10c;" 
d="M598 -25q-299 0 -401.5 171.5t-46.5 569.5t197.5 560t438.5 162q213 0 375 -39l-24 -101q-150 18 -367 18t-323.5 -129t-155.5 -479t17.5 -481t287.5 -132t397 24l11 -101q-166 -43 -406 -43zM1147 1782l-309 -254h-97l-241 260l53 51l233 -207h17l301 207z" />
    <glyph glyph-name="ccaron" unicode="&#x10d;" horiz-adv-x="985" 
d="M506 -25q-258 0 -349 121t-51 406q39 285 158 400.5t371 115.5q182 0 303 -45l-23 -84q-109 16 -260 16q-201 0 -292 -86.5t-123 -326.5t30 -322t246 -82t305 23l10 -91q-147 -45 -325 -45zM979 1411l-309 -252h-97l-241 260l53 49l233 -204h17l301 204z" />
    <glyph glyph-name="Dcaron" unicode="&#x10e;" horiz-adv-x="1353" 
d="M601 100q142 0 239.5 51.5t158 181.5t95.5 380q51 352 -18.5 477t-309.5 125q-23 0 -342 -6l-170 -1205q205 -4 347 -4zM550 -18q-184 0 -446 18l199 1413q250 18 465 19q311 0 416.5 -163t48.5 -569q-31 -221 -79 -359t-130 -219t-186 -110.5t-288 -29.5zM731 1528
l-242 260l54 51l233 -207h17l301 207l43 -57l-310 -254h-96z" />
    <glyph glyph-name="dcaron" unicode="&#x10f;" horiz-adv-x="1165" 
d="M651 909q-219 0 -292.5 -75.5t-109.5 -319.5t-9.5 -334t139.5 -90q198 0 452 248l76 563q-213 8 -256 8zM346 -25q-162 0 -216 124t-13 405q23 164 59.5 264t99 155.5t138 75t206.5 19.5t310 -25q6 109 18 191l35 250h131l-203 -1434h-100l18 231q-236 -256 -483 -256z
M1311 1434h39q45 0 36 -43l-16 -117q-14 -117 -92 -256l-59 20q39 125 55 209q-18 -2 -27.5 8.5t-7.5 28.5l16 109q4 25 15.5 33t40.5 8z" />
    <glyph glyph-name="Dcroat" unicode="&#x110;" horiz-adv-x="1353" 
d="M601 100q142 0 239.5 51.5t158 181.5t95.5 380q51 352 -18.5 477t-309.5 125q-23 0 -342 -6l-74 -514h336l-12 -80h-334l-86 -611q205 -4 347 -4zM550 -18q-184 0 -446 18l101 715h-148l11 80h149l86 618q250 18 465 19q311 0 416.5 -163t48.5 -569q-31 -221 -79 -359
t-130 -219t-186 -110.5t-288 -29.5z" />
    <glyph glyph-name="dcroat" unicode="&#x111;" horiz-adv-x="1165" 
d="M651 909q-219 0 -292.5 -75.5t-109.5 -319.5t-9.5 -334t139.5 -90q198 0 452 248l76 563q-213 8 -256 8zM346 -25q-162 0 -216 124t-13 405q23 164 59.5 264t99 155.5t138 75t206.5 19.5t310 -25q6 109 18 191v6h-321l12 78h322l22 166h131l-22 -166h151l-10 -78h-154
l-168 -1190h-100l18 231q-236 -256 -483 -256z" />
    <glyph glyph-name="Emacron" unicode="&#x112;" horiz-adv-x="1136" 
d="M551 1300q-145 0 -164 -151l-49 -348h633l-15 -105h-632l-60 -438q-23 -145 123 -145h565v-103q-188 -12 -583 -12q-131 0 -194.5 69.5t-47.5 188.5l131 930q14 106 86 167.5t188 61.5q416 0 607 -12l-19 -103h-569zM1053 1667h-557l14 100h557z" />
    <glyph glyph-name="emacron" unicode="&#x113;" horiz-adv-x="1091" 
d="M656 907q-122 0 -182 -14t-108.5 -57t-76 -120t-47.5 -206v-8l395 39q113 12 162 48t67 126q27 121 -30.5 156.5t-179.5 35.5zM620 1018q236 0 323 -75t57 -223t-110.5 -205.5t-252.5 -74.5l-408 -39q-12 -184 55.5 -249.5t225.5 -65.5t375 27l10 -88q-141 -49 -395 -49
t-343 125.5t-48 416.5t158 395.5t353 104.5zM942 1253h-557l14 101h557z" />
    <glyph glyph-name="Edotaccent" unicode="&#x116;" horiz-adv-x="1136" 
d="M551 1300q-145 0 -164 -151l-49 -348h633l-15 -105h-632l-60 -438q-23 -145 123 -145h565v-103q-188 -12 -583 -12q-131 0 -194.5 69.5t-47.5 188.5l131 930q14 106 86 167.5t188 61.5q416 0 607 -12l-19 -103h-569zM791 1610h-41q-47 0 -41 47l16 117q6 43 45 43h43
q47 0 41 -48l-16 -116q-6 -43 -47 -43z" />
    <glyph glyph-name="edotaccent" unicode="&#x117;" horiz-adv-x="1091" 
d="M656 907q-122 0 -182 -14t-108.5 -57t-76 -120t-47.5 -206v-8l395 39q113 12 162 48t67 126q27 121 -30.5 156.5t-179.5 35.5zM620 1018q236 0 323 -75t57 -223t-110.5 -205.5t-252.5 -74.5l-408 -39q-12 -184 55.5 -249.5t225.5 -65.5t375 27l10 -88q-141 -49 -395 -49
t-343 125.5t-48 416.5t158 395.5t353 104.5zM682 1196h-43q-47 0 -41 45l16 119q6 41 45 41h46q45 0 38 -45l-16 -119q-6 -41 -45 -41z" />
    <glyph glyph-name="Eogonek" unicode="&#x118;" horiz-adv-x="1136" 
d="M551 1300q-145 0 -164 -151l-49 -348h633l-15 -105h-632l-60 -438q-23 -145 123 -145h565v-103q-125 -119 -192 -248q-43 -80 -1 -104.5t150 12.5l17 -57q-186 -68 -255 -13.5t-9 172.5t212 234q-166 -8 -505 -8q-131 0 -194.5 69.5t-47.5 188.5l131 930q14 106 86 167.5
t188 61.5q416 0 607 -12l-19 -103h-569z" />
    <glyph glyph-name="eogonek" unicode="&#x119;" horiz-adv-x="1091" 
d="M656 907q-122 0 -182 -14t-108.5 -57t-76 -120t-47.5 -206v-8l395 39q113 12 162 48t67 126q27 121 -30.5 156.5t-179.5 35.5zM496 -25q-250 0 -339 126t-48 417t158 395.5t353 104.5t323 -75t57 -223t-110.5 -205.5t-252.5 -74.5l-408 -39q-12 -184 55.5 -249.5
t225.5 -65.5t375 27l10 -88q-125 -123 -193 -248q-43 -80 -1 -104.5t153 12.5l14 -58q-186 -70 -254.5 -14.5t-11.5 165.5t191 222q-145 -25 -297 -25z" />
    <glyph glyph-name="Ecaron" unicode="&#x11a;" horiz-adv-x="1136" 
d="M551 1300q-145 0 -164 -151l-49 -348h633l-15 -105h-632l-60 -438q-23 -145 123 -145h565v-103q-188 -12 -583 -12q-131 0 -194.5 69.5t-47.5 188.5l131 930q14 106 86 167.5t188 61.5q416 0 607 -12l-19 -103h-569zM717 1573l-242 260l53 51l234 -207h16l301 207l43 -57
l-311 -254h-94z" />
    <glyph glyph-name="ecaron" unicode="&#x11b;" horiz-adv-x="1091" 
d="M656 907q-122 0 -182 -14t-108.5 -57t-76 -120t-47.5 -206v-8l395 39q113 12 162 48t67 126q27 121 -30.5 156.5t-179.5 35.5zM620 1018q236 0 323 -75t57 -223t-110.5 -205.5t-252.5 -74.5l-408 -39q-12 -184 55.5 -249.5t225.5 -65.5t375 27l10 -88q-141 -49 -395 -49
t-343 125.5t-48 416.5t158 395.5t353 104.5zM606 1159l-241 260l53 49l233 -204h17l301 204l43 -57l-310 -252h-96z" />
    <glyph glyph-name="Gbreve" unicode="&#x11e;" horiz-adv-x="1273" 
d="M545 94q111 0 205 56.5t211 168.5l69 500h131l-117 -819h-96l10 205q-203 -229 -444 -229t-325.5 175t-38.5 562q70 538 262 631.5t409 93.5t387 -39l-24 -101q-182 20 -365 21q-258 0 -369.5 -127t-160.5 -492q-39 -336 17 -471t239 -135zM812 1534q-140 0 -215 71.5
t-52 188.5l71 6q-10 -80 43 -123t159 -43t174.5 46t76.5 126l70 -18q-12 -117 -99.5 -185.5t-227.5 -68.5z" />
    <glyph glyph-name="gbreve" unicode="&#x11f;" horiz-adv-x="1173" 
d="M655 907q-219 0 -292.5 -74.5t-110.5 -322.5t-8.5 -334t147.5 -86q201 0 445 248l84 561q-221 8 -265 8zM365 -25q-172 0 -230.5 120t-15.5 409q25 164 61.5 264t99 155.5t137.5 75t233 19.5t403 -41h10l-145 -969q-55 -428 -525 -446q-201 -12 -358 22l14 88
q174 -8 340 0q344 20 397 316q35 199 74 268q-100 -127 -232 -204t-263 -77zM675 1163q-140 0 -215 72t-52 188l71 7q-10 -78 43 -121t159 -43t174.5 45t76.5 125l69 -19q-12 -117 -99 -185.5t-227 -68.5z" />
    <glyph glyph-name="Gdotaccent" unicode="&#x120;" horiz-adv-x="1273" 
d="M545 94q111 0 205 56.5t211 168.5l69 500h131l-117 -819h-96l10 205q-203 -229 -444 -229t-325.5 175t-38.5 562q70 538 262 631.5t409 93.5t387 -39l-24 -101q-182 20 -365 21q-258 0 -369.5 -127t-160.5 -492q-39 -336 17 -471t239 -135zM838 1565h-43q-45 0 -39 47
l14 117q6 43 45 43h45q45 0 39 -48l-16 -116q-6 -43 -45 -43z" />
    <glyph glyph-name="gdotaccent" unicode="&#x121;" horiz-adv-x="1173" 
d="M655 907q-219 0 -292.5 -74.5t-110.5 -322.5t-8.5 -334t147.5 -86q201 0 445 248l84 561q-221 8 -265 8zM365 -25q-172 0 -230.5 120t-15.5 409q25 164 61.5 264t99 155.5t137.5 75t233 19.5t403 -41h10l-145 -969q-55 -428 -525 -446q-201 -12 -358 22l14 88
q174 -8 340 0q344 20 397 316q35 199 74 268q-100 -127 -232 -204t-263 -77zM700 1196h-43q-45 0 -39 45l15 119q6 41 45 41h45q45 0 39 -45l-17 -119q-6 -41 -45 -41z" />
    <glyph glyph-name="Gcommaaccent" unicode="&#x122;" horiz-adv-x="1273" 
d="M559 -123h39q45 0 37 -45l-17 -117q-14 -113 -92 -258l-59 21q39 125 55 209q-41 0 -35 39l17 108q4 25 15 34t40 9zM545 94q111 0 205 56.5t211 168.5l69 500h131l-117 -819h-96l10 205q-203 -229 -444 -229t-325.5 175t-38.5 562q70 538 262 631.5t409 93.5t387 -39
l-24 -101q-182 20 -365 21q-258 0 -369.5 -127t-160.5 -492q-39 -336 17 -471t239 -135z" />
    <glyph glyph-name="gcommaaccent" unicode="&#x123;" horiz-adv-x="1173" 
d="M655 907q-219 0 -292.5 -74.5t-110.5 -322.5t-8.5 -334t147.5 -86q201 0 445 248l84 561q-221 8 -265 8zM365 -25q-172 0 -230.5 120t-15.5 409q25 164 61.5 264t99 155.5t137.5 75t233 19.5t403 -41h10l-145 -969q-55 -428 -525 -446q-201 -12 -358 22l14 88
q174 -8 340 0q344 20 397 316q35 199 74 268q-100 -127 -232 -204t-263 -77zM688 1147h-39q-45 0 -39 45l19 117q14 113 90 256l61 -19q-41 -131 -55 -211q18 2 27.5 -9t7.5 -30l-17 -108q-4 -25 -15 -33t-40 -8z" />
    <glyph glyph-name="Hbar" unicode="&#x126;" horiz-adv-x="1357" 
d="M1102 1067h-713l-35 -254h711zM1391 1067h-156l-150 -1067h-135l99 696h-711l-98 -696h-136l150 1067h-145l10 78h147l37 268h135l-37 -268h711l37 268h135l-39 -268h156z" />
    <glyph glyph-name="hbar" unicode="&#x127;" horiz-adv-x="1175" 
d="M799 1018q131 0 192.5 -72t42.5 -205l-106 -741h-129l100 715q14 104 -17.5 147t-122.5 43t-193.5 -57t-258.5 -184l-92 -664h-131l168 1190h-154l13 78h153l23 166h129l-23 -166h320l-11 -78h-319l-23 -172q-18 -125 -47 -248q287 248 486 248z" />
    <glyph glyph-name="Imacron" unicode="&#x12a;" horiz-adv-x="512" 
d="M240 0h-136l199 1413h135zM678 1622h-557l14 100h557z" />
    <glyph glyph-name="imacron" unicode="&#x12b;" horiz-adv-x="483" 
d="M223 0h-131l141 991h129zM612 1253h-557l15 101h557z" />
    <glyph glyph-name="Iogonek" unicode="&#x12e;" horiz-adv-x="512" 
d="M240 0h-13q-123 -117 -194 -248q-43 -80 0 -104.5t151 12.5l17 -57q-186 -68 -255.5 -13.5t-9.5 172.5t218 238h-50l199 1413h135z" />
    <glyph glyph-name="iogonek" unicode="&#x12f;" horiz-adv-x="483" 
d="M233 991h129l-139 -991h-10q-123 -119 -193 -248q-43 -80 0 -104.5t152 12.5l16 -57q-186 -68 -254.5 -13.5t-11.5 170.5q66 121 219 240h-49zM330 1401h45q45 0 39 -45l-17 -119q-6 -41 -45 -41h-43q-47 0 -41 45l17 119q6 41 45 41z" />
    <glyph glyph-name="Idotaccent" unicode="&#x130;" horiz-adv-x="512" 
d="M240 0h-136l199 1413h135zM395 1772h45q45 0 39 -48l-16 -116q-6 -43 -45 -43h-43q-47 0 -41 47l16 117q6 43 45 43z" />
    <glyph glyph-name="dotlessi" unicode="&#x131;" horiz-adv-x="483" 
d="M223 0h-131l141 991h129z" />
    <glyph glyph-name="IJ" unicode="&#x132;" horiz-adv-x="1193" 
d="M629 98q180 0 205 176l159 1139h133l-159 -1141q-41 -289 -299 -288q-92 0 -168 22l24 92h105zM240 0h-136l199 1413h135z" />
    <glyph glyph-name="ij" unicode="&#x133;" horiz-adv-x="966" 
d="M846 991l-148 -1044q-31 -219 -219 -369l-69 60q135 145 159 317l148 1036h129zM223 0h-129l139 991h129zM805 1409h61q45 0 39 -45l-16 -121q-6 -39 -45 -39h-60q-47 0 -41 45l17 121q6 39 45 39zM324 1409h59q45 0 39 -45l-16 -121q-6 -39 -46 -39h-59q-47 0 -41 45
l19 121q2 39 45 39z" />
    <glyph glyph-name="Kcommaaccent" unicode="&#x136;" horiz-adv-x="1189" 
d="M535 -123h38q45 0 37 -45l-16 -117q-14 -113 -92 -258l-60 21q39 125 56 209q-39 0 -35 39l16 108q4 25 15.5 34t40.5 9zM633 739l-2 -8q31 -35 57 -86l373 -645h-152l-391 682h-194q-4 -109 -13 -162l-73 -520h-134l199 1413h133l-63 -459q-18 -111 -33 -161h190
l535 620h164l-510 -594q-41 -49 -86 -80z" />
    <glyph glyph-name="kcommaaccent" unicode="&#x137;" horiz-adv-x="1042" 
d="M459 -123h39q45 0 37 -45l-17 -117q-18 -121 -92 -258l-59 21q39 125 55 209q-41 0 -35 39l16 108q4 25 15.5 34t40.5 9zM860 991h133q-98 -272 -358 -442q33 -57 57 -111l205 -438h-139l-223 489q-96 -51 -267 -116l-53 -373h-129l201 1434h131l-101 -732
q-12 -98 -51 -219q219 84 377 214t217 294z" />
    <glyph glyph-name="Lacute" unicode="&#x139;" horiz-adv-x="1036" 
d="M393 113h531l-4 -103q-182 -12 -553 -12q-121 0 -183.5 69.5t-46.5 194.5l160 1151h135l-162 -1155q-10 -68 22 -106.5t101 -38.5zM707 1759l-398 -262l-45 62l377 301z" />
    <glyph glyph-name="lacute" unicode="&#x13a;" horiz-adv-x="579" 
d="M373 102h106l6 -98q-49 -20 -161 -20t-166 63.5t-39 177.5l170 1209h129l-166 -1190q-12 -74 17.5 -108t103.5 -34zM700 1804l-397 -262l-45 62l377 301z" />
    <glyph glyph-name="Lcommaaccent" unicode="&#x13b;" horiz-adv-x="1036" 
d="M510 -135h39q45 0 37 -45l-17 -117q-14 -117 -92 -256l-59 21q39 125 55 208q-18 -2 -27.5 9.5t-7.5 29.5l17 109q4 25 15 33t40 8zM393 113h531l-4 -103q-182 -12 -553 -12q-121 0 -183.5 69.5t-46.5 194.5l160 1151h135l-162 -1155q-10 -68 22 -106.5t101 -38.5z" />
    <glyph glyph-name="lcommaaccent" unicode="&#x13c;" horiz-adv-x="579" 
d="M248 -135h39q45 0 39 -45l-19 -117q-14 -113 -90 -256l-61 21q39 125 55 208q-18 -2 -27.5 9.5t-7.5 29.5l17 109q4 25 15 33t40 8zM373 102h106l6 -98q-49 -20 -161 -20t-166 63.5t-39 177.5l170 1209h129l-166 -1190q-12 -74 17.5 -108t103.5 -34z" />
    <glyph glyph-name="Lcaron" unicode="&#x13d;" horiz-adv-x="1036" 
d="M682 1411h39q45 0 39 -45l-19 -117q-14 -113 -90 -256l-61 19q41 131 55 211q-18 -2 -27.5 9t-7.5 30l17 108q4 25 15 33t40 8zM393 113h531l-4 -103q-182 -12 -553 -12q-121 0 -183.5 69.5t-46.5 194.5l160 1151h135l-162 -1155q-10 -68 22 -106.5t101 -38.5z" />
    <glyph glyph-name="lcaron" unicode="&#x13e;" horiz-adv-x="579" 
d="M373 102h106l6 -98q-49 -20 -161 -20t-166 63.5t-39 177.5l170 1209h129l-166 -1190q-12 -74 17.5 -108t103.5 -34zM627 1434h39q45 0 36 -45l-16 -117q-18 -119 -92 -256l-59 20q39 125 55 209q-20 -2 -29.5 9.5t-5.5 29.5l16 109q4 25 15.5 33t40.5 8z" />
    <glyph glyph-name="Ldot" unicode="&#x13f;" horiz-adv-x="1036" 
d="M791 688h-46q-45 0 -38 45l16 119q6 41 47 41h41q47 0 41 -45l-16 -119q-6 -41 -45 -41zM393 113h531l-4 -103q-182 -12 -553 -12q-121 0 -183.5 69.5t-46.5 194.5l160 1151h135l-162 -1155q-10 -68 22 -106.5t101 -38.5z" />
    <glyph glyph-name="ldot" unicode="&#x140;" horiz-adv-x="651" 
d="M621 662h-46q-45 0 -38 45l16 118q4 43 45 43h43q45 0 39 -47l-14 -116q-6 -43 -45 -43zM373 102h106l6 -98q-49 -20 -161 -20t-166 63.5t-39 177.5l170 1209h129l-166 -1190q-12 -74 17.5 -108t103.5 -34z" />
    <glyph glyph-name="Lslash" unicode="&#x141;" horiz-adv-x="1036" 
d="M365 -2q-119 0 -182.5 70.5t-45.5 193.5l60 434l-146 -57l8 84l150 61l88 629h135l-80 -573l269 108l-9 -84l-272 -110l-70 -496q-10 -68 22 -106.5t101 -38.5h529l-4 -103q-182 -12 -553 -12z" />
    <glyph glyph-name="lslash" unicode="&#x142;" horiz-adv-x="604" 
d="M373 102h106l6 -98q-49 -20 -161 -20t-166 63.5t-39 177.5l65 469l-137 -55l10 84l140 57l92 654h129l-84 -598l284 112l-12 -84l-284 -114l-70 -506q-12 -74 17.5 -108t103.5 -34z" />
    <glyph glyph-name="Nacute" unicode="&#x143;" horiz-adv-x="1429" 
d="M1104 0h-135q-41 0 -60 47l-401 1075q-43 117 -55 166h-41q-6 -88 -19 -176l-153 -1112h-136l191 1360q8 53 61 53h129q45 0 62 -47l391 -1049q43 -121 66 -192h45q6 66 22 197l152 1091h133l-193 -1360q-6 -53 -59 -53zM1184 1759l-398 -262l-45 62l377 301z" />
    <glyph glyph-name="nacute" unicode="&#x144;" horiz-adv-x="1175" 
d="M799 1018q131 0 192.5 -72t42.5 -205l-106 -741h-129l100 715q14 104 -17.5 147t-122.5 43t-192.5 -56t-259.5 -181l-92 -668h-131l141 991h103l-21 -225q287 252 492 252zM588 1126l-45 64l377 299l67 -100z" />
    <glyph glyph-name="Ncommaaccent" unicode="&#x145;" horiz-adv-x="1429" 
d="M625 -123h39q47 0 38 -45l-16 -117q-16 -111 -92 -258l-62 21q39 117 56 209q-39 0 -35 39l18 108q4 25 15.5 34t38.5 9zM1104 0h-135q-41 0 -60 47l-401 1075q-43 117 -55 166h-41q-6 -88 -19 -176l-153 -1112h-136l191 1360q8 53 61 53h129q45 0 62 -47l391 -1049
q43 -121 66 -192h45q6 66 22 197l152 1091h133l-193 -1360q-6 -53 -59 -53z" />
    <glyph glyph-name="ncommaaccent" unicode="&#x146;" horiz-adv-x="1175" 
d="M494 -123h38q45 0 37 -45l-16 -117q-18 -121 -92 -258l-60 21q39 125 56 209q-41 0 -35 39l16 108q4 25 15.5 34t40.5 9zM799 1018q131 0 192.5 -72t42.5 -205l-106 -741h-129l100 715q14 104 -17.5 147t-122.5 43t-192.5 -56t-259.5 -181l-92 -668h-131l141 991h103
l-21 -225q287 252 492 252z" />
    <glyph glyph-name="Ncaron" unicode="&#x147;" horiz-adv-x="1429" 
d="M1104 0h-135q-41 0 -60 47l-401 1075q-43 117 -55 166h-41q-6 -88 -19 -176l-153 -1112h-136l191 1360q8 53 61 53h129q45 0 62 -47l391 -1049q43 -121 66 -192h45q6 66 22 197l152 1091h133l-193 -1360q-6 -53 -59 -53zM1223 1782l-312 -254h-94l-242 260l54 51
l233 -207h17l301 207z" />
    <glyph glyph-name="ncaron" unicode="&#x148;" horiz-adv-x="1175" 
d="M799 1018q131 0 192.5 -72t42.5 -205l-106 -741h-129l100 715q14 104 -17.5 147t-122.5 43t-192.5 -56t-259.5 -181l-92 -668h-131l141 991h103l-21 -225q287 252 492 252zM618 1159l-241 260l53 49l234 -204h16l301 204l43 -57l-311 -252h-95z" />
    <glyph glyph-name="Eng" unicode="&#x14a;" horiz-adv-x="1429" 
d="M799 -342q182 0 207 176l24 166h-59q-25 0 -45 43l-418 1059q-35 82 -55 170h-39q-4 -61 -21 -170l-153 -1102h-136l191 1360q8 53 61 53h117q43 0 62 -47l403 -1030q47 -129 68 -191h43q6 88 22 197l150 1071h135l-226 -1593q-18 -131 -95 -200.5t-185 -67.5t-180 22
l22 84h107z" />
    <glyph glyph-name="eng" unicode="&#x14b;" horiz-adv-x="1175" 
d="M797 1018q133 0 194.5 -72t42.5 -205l-123 -880q-43 -285 -280 -285q-68 0 -152 23l23 82h88q164 0 190 178l119 856q14 96 -18.5 139t-111.5 43t-158 -35t-136 -73.5t-166 -120.5l-94 -668h-131l141 991h99l-17 -225q289 252 490 252z" />
    <glyph glyph-name="Omacron" unicode="&#x14c;" horiz-adv-x="1359" 
d="M784 1319q-231 0 -337.5 -132.5t-155.5 -480.5t19.5 -480t296.5 -132t336 134t158 482t-18 478.5t-299 130.5zM789 1438q299 0 403 -167t48 -572t-197.5 -564.5t-438.5 -159.5t-402.5 166.5t-49.5 570.5t197 565t440 161zM1108 1622h-557l12 100h559z" />
    <glyph glyph-name="omacron" unicode="&#x14d;" horiz-adv-x="1150" 
d="M625 905q-180 0 -265.5 -89.5t-117.5 -323.5t23 -320t235 -86t265 90t118 324t-22.5 319.5t-235.5 85.5zM626.5 1018q247.5 0 339 -122t51.5 -406t-156.5 -399.5t-364.5 -115.5t-338 120t-52 405t155.5 401.5t365 116.5zM944 1253h-559l14 101h557z" />
    <glyph glyph-name="Ohungarumlaut" unicode="&#x150;" horiz-adv-x="1359" 
d="M784 1319q-231 0 -337.5 -132.5t-155.5 -480.5t19.5 -480t296.5 -132t336 134t158 482t-18 478.5t-299 130.5zM789 1438q299 0 403 -167t48 -572t-197.5 -564.5t-438.5 -159.5t-402.5 166.5t-49.5 570.5t197 565t440 161zM936 1808l-305 -321l-60 47l281 336zM1255 1808
l-307 -321l-57 47l280 336z" />
    <glyph glyph-name="ohungarumlaut" unicode="&#x151;" horiz-adv-x="1150" 
d="M625 905q-180 0 -265.5 -89.5t-117.5 -323.5t23 -320t235 -86t265 90t118 324t-22.5 319.5t-235.5 85.5zM626.5 1018q247.5 0 339 -122t51.5 -406t-156.5 -399.5t-364.5 -115.5t-338 120t-52 405t155.5 401.5t365 116.5zM772 1438l-307 -320l-57 45l280 336zM1092 1438
l-308 -320l-57 45l281 336z" />
    <glyph glyph-name="OE" unicode="&#x152;" horiz-adv-x="1859" 
d="M799 1319q-240 0 -349.5 -132.5t-158.5 -480.5t19.5 -480t303.5 -132q139 0 267 43q-19 49 -9 119l129 930q10 55 33 98q-111 35 -235 35zM1294 1300q-68 0 -110.5 -38.5t-50.5 -112.5l-50 -346h611l-15 -107h-610l-59 -438q-23 -145 123 -145h546l-4 -103
q-182 -12 -561 -12q-106 0 -170 47q-160 -70 -334 -70q-315 0 -415.5 161t-42.5 574t199 570.5t450 157.5q176 0 319 -64q66 41 158 41q399 0 586 -12l-19 -103h-551z" />
    <glyph glyph-name="oe" unicode="&#x153;" horiz-adv-x="1865" 
d="M1384 905q-166 0 -245.5 -71.5t-118.5 -296.5l-4 -35l395 41q113 10 163 47t66 125q25 123 -32.5 156.5t-223.5 33.5zM498 86q180 0 265 90t118 324t-22.5 319.5t-235.5 85.5t-265.5 -89.5t-117.5 -323.5t23 -320t235 -86zM496 -25q-248 0 -339 120t-51 405t156.5 401.5
t362.5 116.5q287 0 366 -164q61 90 162 127t289 37t274 -75t53 -238q-25 -133 -105.5 -190.5t-252.5 -74.5l-407 -39q-12 -180 55 -246.5t233 -66.5t363 25l10 -88q-137 -49 -409 -49t-351 171q-117 -172 -409 -172z" />
    <glyph glyph-name="Racute" unicode="&#x154;" horiz-adv-x="1257" 
d="M763 1315q-177 0 -341 -4l-84 -588h336q174 2 250.5 66.5t101.5 234.5t-30.5 230.5t-232.5 60.5zM680 606l-356 4l-86 -610h-134l199 1413q174 16 469 17q233 0 327.5 -89.5t63.5 -320.5q-25 -172 -98.5 -257t-216.5 -106l-2 -10q113 -33 143 -201l90 -446h-137l-86 446
q-16 86 -58 122t-118 38zM670 1497l-45 62l376 301l68 -101z" />
    <glyph glyph-name="racute" unicode="&#x155;" horiz-adv-x="804" 
d="M778 1018h47l-32 -123h-48q-86 0 -182 -54.5t-256 -178.5l-92 -662h-131l141 991h99l-19 -233q272 260 473 260zM469 1126l-45 64l377 299l65 -100z" />
    <glyph glyph-name="Rcommaaccent" unicode="&#x156;" horiz-adv-x="1257" 
d="M586 -123h39q45 0 37 -45l-17 -117q-14 -113 -92 -258l-59 21q39 125 55 209q-39 0 -35 39l16 108q4 25 15.5 34t40.5 9zM763 1315q-177 0 -341 -4l-84 -588h336q174 2 250.5 66.5t101.5 234.5t-30.5 230.5t-232.5 60.5zM680 606l-356 4l-86 -610h-134l199 1413
q174 16 469 17q233 0 327.5 -89.5t63.5 -320.5q-25 -172 -98.5 -257t-216.5 -106l-2 -10q113 -33 143 -201l90 -446h-137l-86 446q-16 86 -58 122t-118 38z" />
    <glyph glyph-name="rcommaaccent" unicode="&#x157;" horiz-adv-x="804" 
d="M111 -123h39q45 0 36 -45l-16 -117q-14 -113 -92 -258l-60 21q39 125 56 209q-39 0 -35 39l16 108q4 25 15.5 34t40.5 9zM745 895q-86 0 -182 -54.5t-256 -178.5l-92 -662h-131l141 991h99l-19 -233q272 260 473 260h47l-32 -123h-48z" />
    <glyph glyph-name="Rcaron" unicode="&#x158;" horiz-adv-x="1257" 
d="M763 1315q-177 0 -341 -4l-84 -588h336q174 2 250.5 66.5t101.5 234.5t-30.5 230.5t-232.5 60.5zM680 606l-356 4l-86 -610h-134l199 1413q174 16 469 17q233 0 327.5 -89.5t63.5 -320.5q-25 -172 -98.5 -257t-216.5 -106l-2 -10q113 -33 143 -201l90 -446h-137l-86 446
q-16 86 -58 122t-118 38zM700 1528l-241 260l53 51l233 -207h17l301 207l43 -57l-311 -254h-95z" />
    <glyph glyph-name="rcaron" unicode="&#x159;" horiz-adv-x="804" 
d="M778 1018h47l-32 -123h-48q-86 0 -182 -54.5t-256 -178.5l-92 -662h-131l141 991h99l-19 -233q272 260 473 260zM500 1159l-242 260l53 49l234 -204h16l299 204l43 -57l-309 -252h-94z" />
    <glyph glyph-name="Sacute" unicode="&#x15a;" horiz-adv-x="1142" 
d="M719 1317q-119 0 -148.5 -1t-73.5 -8.5t-66.5 -21.5t-57.5 -48.5t-54 -156.5q-12 -109 20 -160t136 -94l287 -110q158 -61 207 -146.5t31 -221.5t-55.5 -205.5t-107 -106.5t-149.5 -48.5t-256 -11.5t-371 31l19 101q248 -11 425 -11t256 45t97 179t-13 183.5t-140 94.5
l-291 113q-145 57 -196.5 145t-34.5 220t56.5 203t108 103.5t141 43t239.5 9.5t353 -36l-16 -96q-227 12 -346 12zM1014 1759l-398 -262l-45 62l377 301z" />
    <glyph glyph-name="sacute" unicode="&#x15b;" horiz-adv-x="1030" 
d="M396 -25q-116 0 -345 29l17 96q126 -14 326 -12t269.5 28.5t81.5 112.5q8 47 -9 79t-41 45t-83 38l-295 123q-109 47 -154.5 105.5t-28.5 184.5t111.5 172t301.5 42t399 -31l-16 -92q-509 27 -584.5 -1t-86.5 -107t17.5 -110.5t106.5 -64.5l297 -123q119 -49 164 -105
t30 -172t-84.5 -168.5t-173.5 -60.5t-220 -8zM924 1389l-398 -263l-45 64l375 299z" />
    <glyph glyph-name="Scedilla" unicode="&#x15e;" horiz-adv-x="1142" 
d="M401 -180l17 63q111 10 157 -21.5t31 -117.5q-18 -119 -115.5 -183.5t-236.5 -45.5l25 69q90 -2 154.5 45t73.5 105t-12.5 72t-93.5 14zM719 1317q-119 0 -148.5 -1t-73.5 -8.5t-66.5 -21.5t-57.5 -48.5t-54 -156.5q-12 -109 20 -160t136 -94l287 -110
q158 -61 207 -146.5t31 -221.5t-55.5 -205.5t-107 -106.5t-149.5 -48.5t-256 -11.5t-371 31l19 101q248 -11 425 -11t256 45t97 179t-13 183.5t-140 94.5l-291 113q-145 57 -196.5 145t-34.5 220t56.5 203t108 103.5t141 43t239.5 9.5t353 -36l-16 -96q-227 12 -346 12z" />
    <glyph glyph-name="scedilla" unicode="&#x15f;" horiz-adv-x="1030" 
d="M334 -178l16 63q111 10 157 -21.5t32 -117.5q-20 -119 -116.5 -184.5t-236.5 -46.5l25 71q90 -2 154.5 44t73.5 104t-12 72t-93 16zM396 -25q-116 0 -345 29l17 96q126 -14 326 -12t269.5 28.5t81.5 112.5q8 47 -9 79t-41 45t-83 38l-295 123q-109 47 -154.5 105.5
t-28.5 184.5t111.5 172t301.5 42t399 -31l-16 -92q-509 27 -584.5 -1t-86.5 -107t17.5 -110.5t106.5 -64.5l297 -123q119 -49 164 -105t30 -172t-84.5 -168.5t-173.5 -60.5t-220 -8z" />
    <glyph glyph-name="Scaron" unicode="&#x160;" horiz-adv-x="1142" 
d="M719 1317q-119 0 -148.5 -1t-73.5 -8.5t-66.5 -21.5t-57.5 -48.5t-54 -156.5q-12 -109 20 -160t136 -94l287 -110q158 -61 207 -146.5t31 -221.5t-55.5 -205.5t-107 -106.5t-149.5 -48.5t-256 -11.5t-371 31l19 101q248 -11 425 -11t256 45t97 179t-13 183.5t-140 94.5
l-291 113q-145 57 -196.5 145t-34.5 220t56.5 203t108 103.5t141 43t239.5 9.5t353 -36l-16 -96q-227 12 -346 12zM1053 1782l-312 -254h-94l-241 260l53 51l233 -207h17l301 207z" />
    <glyph glyph-name="scaron" unicode="&#x161;" horiz-adv-x="1030" 
d="M396 -25q-116 0 -345 29l17 96q126 -14 326 -12t269.5 28.5t81.5 112.5q8 47 -9 79t-41 45t-83 38l-295 123q-109 47 -154.5 105.5t-28.5 184.5t111.5 172t301.5 42t399 -31l-16 -92q-509 27 -584.5 -1t-86.5 -107t17.5 -110.5t106.5 -64.5l297 -123q119 -49 164 -105
t30 -172t-84.5 -168.5t-173.5 -60.5t-220 -8zM961 1411l-310 -252h-94l-244 260l56 49l233 -204h16l300 204z" />
    <glyph glyph-name="Tcedilla" unicode="&#x162;" horiz-adv-x="1163" 
d="M383 -156l14 64q109 10 157 -21.5t34 -117.5q-20 -119 -117.5 -184.5t-234.5 -47.5l24 72q88 -2 153 43.5t75 103.5t-11.5 72t-93.5 16zM1217 1294h-472l-182 -1294h-135l182 1294h-469l19 119h1073z" />
    <glyph glyph-name="tcedilla" unicode="&#x163;" horiz-adv-x="747" 
d="M229 -172l15 63q109 10 157 -21.5t33 -117.5q-20 -119 -117.5 -183.5t-234.5 -45.5l24 69q88 -2 154 45.5t75 103.5t-12.5 70.5t-93.5 16.5zM436 102h164l6 -98q-90 -20 -210 -20t-174 65.5t-38 183.5l92 656h-182l12 92l185 10l43 301h127l-41 -301h334l-17 -102h-334
l-90 -645q-10 -76 18.5 -109t104.5 -33z" />
    <glyph glyph-name="Tcaron" unicode="&#x164;" horiz-adv-x="1163" 
d="M1217 1294h-472l-182 -1294h-135l182 1294h-469l19 119h1073zM670 1528l-244 260l55 51l234 -207h16l299 207l43 -57l-309 -254h-94z" />
    <glyph glyph-name="tcaron" unicode="&#x165;" horiz-adv-x="747" 
d="M436 102h164l6 -98q-90 -20 -210 -20t-174 65.5t-38 183.5l92 656h-182l12 92l185 10l43 301h127l-41 -301h334l-17 -102h-334l-90 -645q-10 -76 18.5 -109t104.5 -33zM668 1561h39q45 0 36 -45l-16 -117q-14 -111 -92 -256l-60 20q39 125 56 209q-18 -2 -28.5 9.5
t-6.5 29.5l16 109q4 25 15.5 33t40.5 8z" />
    <glyph glyph-name="Tbar" unicode="&#x166;" horiz-adv-x="1163" 
d="M745 1294l-61 -434h309l-10 -80h-309l-111 -780h-135l111 780h-281l10 80h281l61 434h-469l19 119h1073l-16 -119h-472z" />
    <glyph glyph-name="tbar" unicode="&#x167;" horiz-adv-x="747" 
d="M436 102h164l6 -98q-90 -20 -210 -20t-174 65.5t-38 183.5l52 371h-138l11 78h139l28 207h-182l12 92l185 10l43 301h127l-41 -301h334l-17 -102h-334l-28 -207h293l-11 -78h-292l-52 -360q-10 -76 18.5 -109t104.5 -33z" />
    <glyph glyph-name="Umacron" unicode="&#x16a;" horiz-adv-x="1361" 
d="M604 -25q-268 0 -372.5 131.5t-61.5 432.5l123 874h135l-125 -881q-33 -246 33.5 -342t269.5 -96t302.5 99.5t131.5 345.5l123 874h135l-124 -881q-43 -303 -172.5 -430t-397.5 -127zM1106 1622h-557l12 100h559z" />
    <glyph glyph-name="umacron" unicode="&#x16b;" 
d="M348 -25q-133 0 -193.5 72t-41.5 203l104 741h131l-102 -712q-14 -100 19.5 -145.5t125.5 -45.5t186.5 58.5t243.5 193.5l90 651h129l-139 -991h-100l20 231q-262 -256 -473 -256zM946 1257h-557l12 101h560z" />
    <glyph glyph-name="Uring" unicode="&#x16e;" horiz-adv-x="1361" 
d="M604 -25q-268 0 -372.5 131.5t-61.5 432.5l123 874h135l-125 -881q-33 -246 33.5 -342t269.5 -96t302.5 99.5t131.5 345.5l123 874h135l-124 -881q-43 -303 -172.5 -430t-397.5 -127zM849 1810q-60 0 -99.5 -38t-47.5 -98t27 -98t93 -38t98.5 40t46.5 98t-26 96t-92 38z
M849 1882q93 0 151 -61.5t46 -149.5t-73.5 -146.5t-154.5 -58.5t-148.5 61.5t-45.5 149.5t71 146.5t154 58.5z" />
    <glyph glyph-name="uring" unicode="&#x16f;" 
d="M348 -25q-133 0 -193.5 72t-41.5 203l104 741h131l-102 -712q-14 -100 19.5 -145.5t125.5 -45.5t186.5 58.5t243.5 193.5l90 651h129l-139 -991h-100l20 231q-262 -256 -473 -256zM662 1174q58 0 98.5 40t46.5 98t-25.5 96t-91.5 38t-100.5 -40t-47.5 -99t27.5 -96
t92.5 -37zM658 1102q-93 0 -148 61.5t-45 149.5t70.5 146.5t153.5 58.5t150.5 -61.5t46.5 -149.5t-73 -146.5t-155 -58.5z" />
    <glyph glyph-name="Uhungarumlaut" unicode="&#x170;" horiz-adv-x="1361" 
d="M604 -25q-268 0 -372.5 131.5t-61.5 432.5l123 874h135l-125 -881q-33 -246 33.5 -342t269.5 -96t302.5 99.5t131.5 345.5l123 874h135l-124 -881q-43 -303 -172.5 -430t-397.5 -127zM934 1808l-305 -321l-60 47l281 336zM1253 1808l-307 -321l-57 47l280 336z" />
    <glyph glyph-name="uhungarumlaut" unicode="&#x171;" 
d="M348 -25q-133 0 -193.5 72t-41.5 203l104 741h131l-102 -712q-14 -100 19.5 -145.5t125.5 -45.5t186.5 58.5t243.5 193.5l90 651h129l-139 -991h-100l20 231q-262 -256 -473 -256zM729 1169l281 336l84 -63l-308 -320zM469 1122l-59 47l280 336l84 -63z" />
    <glyph glyph-name="Uogonek" unicode="&#x172;" horiz-adv-x="1361" 
d="M606 94q203 0 302.5 99.5t131.5 345.5l123 874h135l-124 -881q-41 -285 -156 -413.5t-346 -143.5q-119 -117 -187 -241q-43 -80 0 -104.5t152 12.5l14 -58q-186 -70 -254.5 -14.5t-9.5 172.5t209 233q-264 2 -366.5 133.5t-59.5 430.5l123 874h135l-125 -881
q-33 -246 33.5 -342t269.5 -96z" />
    <glyph glyph-name="uogonek" unicode="&#x173;" 
d="M348 -25q-133 0 -193.5 72t-41.5 203l104 741h131l-102 -712q-14 -100 19.5 -145.5t125.5 -45.5t186.5 58.5t243.5 193.5l90 651h129l-139 -991q-129 -125 -192 -248q-43 -80 -1 -104.5t150 12.5l16 -57q-186 -70 -254.5 -14.5t-9.5 173.5t219 238h-28l20 231
q-262 -256 -473 -256z" />
    <glyph glyph-name="Wcircumflex" unicode="&#x174;" horiz-adv-x="1918" 
d="M1399 0h-160q-47 0 -51 47l-109 1262h-47l-459 -1268q-16 -41 -59 -41h-160q-20 0 -35.5 13.5t-17.5 31.5l-129 1368h137l99 -1149q4 -51 8 -162h53l57 166l402 1102q16 43 59 43h154q20 0 33.5 -14.5t15.5 -34.5l104 -1100q8 -113 11 -162h53l55 166l416 1145h141
l-512 -1374q-14 -39 -59 -39zM1423 1563l-51 -54l-242 207h-16l-303 -205l-39 58l305 254h94z" />
    <glyph glyph-name="wcircumflex" unicode="&#x175;" horiz-adv-x="1714" 
d="M416 104q51 0 88 62q66 100 140 301t134 491q4 37 39 33h141q31 0 39 -33l113 -854h25q45 0 82 58q104 158 161 297q98 217 160 532h135q-76 -335 -188 -573t-195 -338q-61 -80 -147 -80h-88q-41 0 -45 37l-113 866h-23q-34 -229 -118 -457t-170 -348q-59 -98 -174 -98
h-80q-37 0 -45 37l-185 954h134l153 -887h27zM1274 1194l-51 -53l-242 207h-16l-303 -205l-39 57l307 254h92z" />
    <glyph glyph-name="Ycircumflex" unicode="&#x176;" horiz-adv-x="1134" 
d="M616 506l-69 -506h-135l71 510l-346 903h137l236 -631q25 -66 47 -151h14q25 53 88 157l412 625h148zM418 1511l-41 60l307 252h92l252 -260l-51 -54l-242 209h-16z" />
    <glyph glyph-name="ycircumflex" unicode="&#x177;" horiz-adv-x="1083" 
d="M403 0q-41 0 -70.5 23.5t-37.5 62.5l-197 905h138l170 -844q10 -43 51 -43h96l47 82q207 367 311 805h136q-115 -473 -332 -841q-158 -276 -298.5 -407.5t-318.5 -166.5l-22 90q229 63 411 334h-84zM313 1143l-39 57l306 254h94l252 -260l-52 -53l-241 207h-19z" />
    <glyph glyph-name="Ydieresis" unicode="&#x178;" horiz-adv-x="1134" 
d="M616 506l-69 -506h-135l71 510l-346 903h137l236 -631q25 -66 47 -151h14q25 53 88 157l412 625h148zM897 1579h-41q-39 0 -37 39l19 113q2 41 45 41h41q41 0 34 -41l-16 -111q-6 -41 -45 -41zM545 1579h-41q-39 0 -37 39l18 113q6 41 45 41h41q41 0 35 -41l-16 -111
q-6 -41 -45 -41z" />
    <glyph glyph-name="Zacute" unicode="&#x179;" horiz-adv-x="1144" 
d="M1153 1413l-18 -115l-955 -1183h803l-18 -115h-951l17 115l954 1183h-780l16 115h932zM633 1497l-45 62l375 301l67 -101z" />
    <glyph glyph-name="zacute" unicode="&#x17a;" horiz-adv-x="1017" 
d="M954 885l-770 -776h666l-14 -109h-820l13 109l770 776h-652l15 106h807zM502 1126l-45 64l374 299l68 -100z" />
    <glyph glyph-name="Zdotaccent" unicode="&#x17b;" horiz-adv-x="1144" 
d="M1153 1413l-18 -115l-955 -1183h803l-18 -115h-951l17 115l954 1183h-780l16 115h932zM737 1565h-43q-45 0 -39 47l15 117q6 43 45 43h45q45 0 39 -48l-17 -116q-6 -43 -45 -43z" />
    <glyph glyph-name="zdotaccent" unicode="&#x17c;" horiz-adv-x="1017" 
d="M954 885l-770 -776h666l-14 -109h-820l13 109l770 776h-652l15 106h807zM606 1196h-43q-45 0 -41 45l17 119q6 41 45 41h45q45 0 39 -45l-17 -119q-6 -41 -45 -41z" />
    <glyph glyph-name="Zcaron" unicode="&#x17d;" horiz-adv-x="1144" 
d="M1153 1413l-18 -115l-955 -1183h803l-18 -115h-951l17 115l954 1183h-780l16 115h932zM664 1528l-244 260l53 51l236 -207h16l299 207l43 -57l-309 -254h-94z" />
    <glyph glyph-name="zcaron" unicode="&#x17e;" horiz-adv-x="1017" 
d="M954 885l-770 -776h666l-14 -109h-820l13 109l770 776h-652l15 106h807zM530 1159l-241 260l53 49l233 -204h17l301 204l43 -57l-309 -252h-97z" />
    <glyph glyph-name="florin" unicode="&#x192;" horiz-adv-x="872" 
d="M788 1323q-104 0 -157 -42t-78 -148l-78 -328h309l-24 -105h-309l-166 -706q-33 -141 -108 -211t-210 -70t-194 13l22 96h137q98 0 149.5 44t76.5 146l161 688h-198l20 93l203 12l82 346q62 283 322 283q130 0 206 -13l-24 -98h-142z" />
    <glyph glyph-name="Scommaaccent" unicode="&#x218;" horiz-adv-x="1142" 
d="M512 -123h39q45 0 39 -45l-17 -117q-16 -111 -92 -258l-61 21q39 117 55 209q-39 0 -35 39l19 108q4 25 14 34t39 9zM719 1317q-119 0 -148.5 -1t-73.5 -8.5t-66.5 -21.5t-57.5 -48.5t-54 -156.5q-12 -109 20 -160t136 -94l287 -110q158 -61 207 -146.5t31 -221.5
t-55.5 -205.5t-107 -106.5t-149.5 -48.5t-256 -11.5t-371 31l19 101q248 -11 425 -11t256 45t97 179t-13 183.5t-140 94.5l-291 113q-145 57 -196.5 145t-34.5 220t56.5 203t108 103.5t141 43t239.5 9.5t353 -36l-16 -96q-227 12 -346 12z" />
    <glyph glyph-name="scommaaccent" unicode="&#x219;" horiz-adv-x="1030" 
d="M422 -123h39q45 0 37 -45l-17 -117q-18 -121 -92 -258l-59 21q39 125 55 209q-41 0 -35 39l17 108q4 25 15 34t40 9zM396 -25q-116 0 -345 29l17 96q126 -14 326 -12t269.5 28.5t81.5 112.5q8 47 -9 79t-41 45t-83 38l-295 123q-109 47 -154.5 105.5t-28.5 184.5
t111.5 172t301.5 42t399 -31l-16 -92q-509 27 -584.5 -1t-86.5 -107t17.5 -110.5t106.5 -64.5l297 -123q119 -49 164 -105t30 -172t-84.5 -168.5t-173.5 -60.5t-220 -8z" />
    <glyph glyph-name="uni021A" unicode="&#x21a;" horiz-adv-x="1163" 
d="M463 -123h39q45 0 37 -45l-17 -117q-14 -113 -92 -258l-59 21q39 125 55 209q-39 0 -35 39l17 108q4 25 15 34t40 9zM1217 1294h-472l-182 -1294h-135l182 1294h-469l19 119h1073z" />
    <glyph glyph-name="uni021B" unicode="&#x21b;" horiz-adv-x="747" 
d="M344 -123h39q45 0 37 -45l-17 -117q-18 -121 -92 -258l-59 21q39 125 55 209q-41 0 -35 39l17 108q4 25 15 34t40 9zM436 102h164l6 -98q-90 -20 -210 -20t-174 65.5t-38 183.5l92 656h-182l12 92l185 10l43 301h127l-41 -301h334l-17 -102h-334l-90 -645
q-10 -76 18.5 -109t104.5 -33z" />
    <glyph glyph-name="circumflex" unicode="&#x2c6;" horiz-adv-x="839" 
d="M850 1194l-49 -53l-242 207h-18l-301 -205l-39 57l305 254h94z" />
    <glyph glyph-name="caron" unicode="&#x2c7;" horiz-adv-x="839" 
d="M872 1411l-309 -252h-96l-242 258l54 51l233 -204h16l301 204z" />
    <glyph glyph-name="breve" unicode="&#x2d8;" horiz-adv-x="753" 
d="M476 1151q-140 0 -215 71.5t-52 188.5l72 6q-10 -80 43 -123t158.5 -43t174 46t76.5 126l70 -18q-12 -117 -99.5 -185.5t-227.5 -68.5z" />
    <glyph glyph-name="dotaccent" unicode="&#x2d9;" horiz-adv-x="440" 
d="M322 1397h43q47 0 41 -45l-17 -119q-6 -41 -47 -41h-41q-47 0 -41 45l16 119q7 41 46 41z" />
    <glyph glyph-name="ring" unicode="&#x2da;" horiz-adv-x="608" 
d="M432.5 1442q-59.5 0 -99.5 -40t-47 -99t27.5 -96.5t93 -37.5t98.5 40t46 98.5t-26.5 96.5t-92 38zM433 1513q93 0 149.5 -61t45.5 -149.5t-71.5 -146.5t-154 -58t-148.5 61.5t-45 149.5t70.5 146t153.5 58z" />
    <glyph glyph-name="ogonek" unicode="&#x2db;" horiz-adv-x="516" 
d="M223 4l66 -4q-123 -119 -193 -248q-43 -80 0 -104.5t152 12.5l16 -57q-186 -70 -255.5 -14.5t-9.5 173.5t224 242z" />
    <glyph glyph-name="tilde" unicode="&#x2dc;" horiz-adv-x="843" 
d="M272 1204l-63 6q6 109 56 164.5t120 49.5q71 -6 151 -62t138 -62t87.5 22t39.5 93l65 -4q-6 -104 -55 -158.5t-126 -48.5t-160 62.5t-122 62.5q-113 10 -131 -125z" />
    <glyph glyph-name="hungarumlaut" unicode="&#x2dd;" horiz-adv-x="899" 
d="M575 1421l-307 -319l-57 45l281 336zM895 1421l-307 -319l-58 45l281 336z" />
    <glyph glyph-name="Delta" unicode="&#x394;" horiz-adv-x="1271" 
d="M995 111l-231 1022q-20 100 -27 147q-31 -72 -69 -154l-518 -1015h845zM1139 66l-9 -66h-1153l9 66l698 1347h137z" />
    <glyph glyph-name="Omega" unicode="&#x3a9;" horiz-adv-x="1464" 
d="M272 119q70 0 134 -8q-141 121 -195.5 273.5t-22.5 373.5q47 344 204 512t452 168t410.5 -173t68.5 -522q-33 -231 -124 -374.5t-273 -257.5q59 8 127 8h239l-16 -119h-496l13 115q182 115 270 257t119 369q43 305 -36 441.5t-308 136.5t-349 -140.5t-165 -453.5
q-33 -231 15 -361.5t193 -250.5l-12 -113h-495l14 119h233z" />
    <glyph glyph-name="mu" unicode="&#x3bc;" horiz-adv-x="1198" 
d="M423 98q91 0 182 37t226 119l103 737h131l-141 -991h-99l9 160q-248 -184 -439 -185q-119 0 -188 64q2 -80 -6 -160l-43 -297h-117l199 1409h129l-103 -712q-12 -94 27 -137.5t130 -43.5z" />
    <glyph glyph-name="pi" unicode="&#x3c0;" horiz-adv-x="1306" 
d="M1292 887h-205l-124 -887h-129l124 887h-528l-125 -887h-129l125 887h-205l15 104h1196z" />
    <glyph glyph-name="uni0401" unicode="&#x401;" horiz-adv-x="1136" 
d="M551 1300q-145 0 -164 -151l-49 -348h633l-15 -105h-632l-60 -438q-23 -145 123 -145h565v-103q-188 -12 -583 -12q-131 0 -194.5 69.5t-47.5 188.5l131 930q14 106 86 167.5t188 61.5q416 0 607 -12l-19 -103h-569zM967 1624h-43q-39 0 -37 39l18 113q6 41 45 41h41
q41 0 35 -41l-16 -111q-2 -41 -43 -41zM614 1624h-43q-41 0 -34 39l16 113q6 41 45 41h41q43 0 37 -41l-19 -111q-2 -41 -43 -41z" />
    <glyph glyph-name="uni0402" unicode="&#x402;" horiz-adv-x="1527" 
d="M1088 780q-120 0 -212 -33.5t-223 -117.5l-90 -629h-133l182 1294h-469l17 119h1073l-14 -119h-474l-75 -546q225 152 452 151q170 0 247 -98.5t41 -348.5t-183.5 -357t-399.5 -99l-4 96q213 14 318.5 92t135.5 272t-19.5 259t-169.5 65z" />
    <glyph glyph-name="uni0403" unicode="&#x403;" horiz-adv-x="1054" 
d="M530 1415q401 0 590 -12l-18 -103h-535q-78 0 -119.5 -35.5t-54.5 -121.5l-160 -1143h-133l164 1171q16 121 88 182.5t178 61.5zM1057 1759l-398 -262l-45 62l377 301z" />
    <glyph glyph-name="uni0404" unicode="&#x404;" horiz-adv-x="1167" 
d="M817 1438q203 0 365 -39l-25 -103q-166 20 -330 21q-244 0 -358.5 -108.5t-167.5 -407.5h619l-15 -105h-620q-45 -340 24.5 -467t302.5 -133q190 -4 385 25l11 -103q-186 -47 -396 -43q-313 8 -414.5 173t-47.5 569t204 562.5t463 158.5z" />
    <glyph glyph-name="uni0405" unicode="&#x405;" horiz-adv-x="1142" 
d="M719 1317q-119 0 -148.5 -1t-73.5 -8.5t-66.5 -21.5t-57.5 -48.5t-54 -156.5q-12 -109 20 -160t136 -94l287 -110q158 -61 207 -146.5t31 -221.5t-55.5 -205.5t-107 -106.5t-149.5 -48.5t-256 -11.5t-371 31l19 101q248 -11 425 -11t256 45t97 179t-13 183.5t-140 94.5
l-291 113q-145 57 -196.5 145t-34.5 220t56.5 203t108 103.5t141 43t239.5 9.5t353 -36l-16 -96q-227 12 -346 12z" />
    <glyph glyph-name="uni0406" unicode="&#x406;" horiz-adv-x="509" 
d="M240 0h-136l199 1413h135z" />
    <glyph glyph-name="uni0407" unicode="&#x407;" horiz-adv-x="512" 
d="M240 0h-136l199 1413h135zM575 1772h41q43 0 37 -41l-18 -111q-2 -41 -43 -41h-43q-39 0 -37 39l18 113q6 41 45 41zM223 1772h41q43 0 37 -41l-18 -111q-2 -41 -43 -41h-43q-41 0 -35 39l16 113q6 41 45 41z" />
    <glyph glyph-name="uni0408" unicode="&#x408;" horiz-adv-x="681" 
d="M117 98q176 0 205 176l157 1139h135l-159 -1141q-41 -289 -299 -288q-92 0 -170 22l26 92h105z" />
    <glyph glyph-name="uni0409" unicode="&#x409;" horiz-adv-x="1984" 
d="M1329 102q205 0 286 57t107 239t-28 247.5t-238 65.5h-326l-86 -607q80 -2 285 -2zM1464 823q250 0 339 -96t57 -333t-140 -323.5t-344 -86.5q-309 0 -479 16l184 1303h-274q-84 0 -125 -35t-61 -125q-109 -499 -155 -637t-130 -258q-145 -219 -350 -250l-6 119
q131 35 237 180q88 127 131 270.5t144 606.5q29 127 96 183t186 56h455l-82 -590h317z" />
    <glyph glyph-name="uni040A" unicode="&#x40a;" horiz-adv-x="2002" 
d="M1352 102q210 0 287 62t103 238t-28.5 241.5t-238.5 65.5h-328l-84 -605q79 -2 289 -2zM1483 821q250 0 339 -96t54 -330q-31 -238 -138.5 -324.5t-342.5 -86.5q-309 0 -480 16l99 707h-674l-98 -707h-136l199 1413h135l-84 -594h674l84 594h133l-84 -592h320z" />
    <glyph glyph-name="uni040B" unicode="&#x40b;" horiz-adv-x="1587" 
d="M1188 899q322 0 278 -315l-82 -584h-135l80 565q16 115 -25.5 164t-164.5 49t-231.5 -38t-260.5 -136l-84 -604h-135l182 1294h-469l19 119h1073l-16 -119h-472l-79 -569q260 174 522 174z" />
    <glyph glyph-name="uni040C" unicode="&#x40c;" horiz-adv-x="1202" 
d="M502 682h-178q0 -72 -13 -162l-73 -520h-134l199 1413h133l-63 -459q-18 -111 -33 -161h170q86 0 157.5 36.5t147.5 141t109.5 164t87.5 161.5l63 119l139 -4q-172 -336 -247 -444q-150 -214 -316 -228l-4 -6q113 -12 188.5 -109.5t107 -197.5t65.5 -248t43 -180l-138 4
q-80 342 -106 416q-70 199 -197 246q-47 18 -108 18zM676 1497l-45 62l377 301l65 -101z" />
    <glyph glyph-name="uni040D" unicode="&#x40d;" horiz-adv-x="1404" 
d="M1130 0h-129l146 1034q12 80 35 205l-6 -2q-73 -118 -93 -141l-833 -1096h-146l199 1413h131l-145 -1030q-20 -141 -37 -209l6 2q37 59 102 150l826 1087h143zM928 1556l-51 -59l-342 266l75 95z" />
    <glyph glyph-name="uni040E" unicode="&#x40e;" horiz-adv-x="1130" 
d="M489 414q-98 0 -116 92l-209 907h135l186 -852q8 -33 45 -33h95l440 885h143l-538 -1075q-55 -109 -95 -172.5t-137.5 -144.5t-343.5 -7l21 97q72 -8 112.5 -11.5t81.5 6t80 28.5t141 212l37 68h-78zM698 1534q-140 0 -214 71.5t-52 188.5l70 6q-10 -80 43 -123t159 -43
t174 46t76 126l70 -18q-10 -117 -98 -185.5t-228 -68.5z" />
    <glyph glyph-name="uni040F" unicode="&#x40f;" horiz-adv-x="1374" 
d="M1300 1413l-198 -1413h-428l-49 -309h-95l35 309h-459l199 1413h135l-184 -1302h727l182 1302h135z" />
    <glyph glyph-name="uni0410" unicode="&#x410;" horiz-adv-x="1253" 
d="M901 586l-117 604q-13 64 -18 119h-61q-6 -12 -26 -55.5t-30 -63.5l-284 -604h536zM666 1413h153q18 0 32.5 -12t16.5 -29l281 -1372h-135l-90 467h-617l-219 -467h-143l665 1378q14 35 56 35z" />
    <glyph glyph-name="uni0411" unicode="&#x411;" horiz-adv-x="1216" 
d="M590 98q176 0 252 60.5t100 231.5t-29 230.5t-239 59.5h-340l-80 -578q160 -4 336 -4zM680 788q254 0 342 -91t55 -319t-139.5 -311t-343.5 -83q-313 0 -490 16l199 1413q176 10 393 10t453 -10l-27 -110h-700l-72 -515h330z" />
    <glyph glyph-name="uni0412" unicode="&#x412;" horiz-adv-x="1259" 
d="M602 98q182 0 262 57.5t104 227.5t-39 231.5t-257 65.5h-340l-80 -578q168 -4 350 -4zM710 1315q-212 0 -288 -2l-74 -529h330q174 2 248.5 57.5t97.5 213.5t-39.5 209t-274.5 51zM610 -16q-328 0 -506 16l199 1413q158 17 425 17t362.5 -80t64.5 -295
q-23 -152 -89.5 -228.5t-193.5 -89.5l-2 -10q150 -12 202 -108.5t24 -290.5t-134 -269t-352 -75z" />
    <glyph glyph-name="uni0413" unicode="&#x413;" horiz-adv-x="1054" 
d="M530 1415q401 0 590 -12l-18 -103h-535q-78 0 -119.5 -35.5t-54.5 -121.5l-160 -1143h-133l164 1171q16 121 88 182.5t178 61.5z" />
    <glyph glyph-name="uni0414" unicode="&#x414;" horiz-adv-x="1382" 
d="M780 1303q-78 0 -121 -36t-57 -122q-127 -676 -354 -1034h696l168 1192h-332zM1249 111l-57 -420h-102l28 309h-1038l-60 -309h-102l43 309l14 111h125q254 389 373 1063q41 240 283 239h506l-183 -1302h170z" />
    <glyph glyph-name="uni0415" unicode="&#x415;" horiz-adv-x="1136" 
d="M551 1300q-145 0 -164 -151l-49 -348h633l-15 -105h-632l-60 -438q-23 -145 123 -145h565v-103q-188 -12 -583 -12q-131 0 -194.5 69.5t-47.5 188.5l131 930q14 106 86 167.5t188 61.5q416 0 607 -12l-19 -103h-569z" />
    <glyph glyph-name="uni0416" unicode="&#x416;" horiz-adv-x="1839" 
d="M1188 682h-195q-4 -109 -12 -162l-72 -520h-129l74 524q12 82 33 158h-187q-86 0 -151.5 -32t-139 -141.5t-109.5 -176t-95 -189.5t-70 -143h-143q43 92 59.5 128t53 113.5t54 108.5t51.5 91.5t54.5 85t52 66.5t57 59.5t68 46.5t127.5 38l2 6q-73 10 -155 93.5t-124 281
t-63 295.5h131q72 -319 105 -407q94 -205 242 -213h196q0 76 12 168l64 452h129l-66 -459q-14 -98 -30 -161h182q100 0 195.5 93t147 185t109.5 210t64 132h137q-158 -336 -215 -430q-141 -228 -305 -244v-6q117 -15 179.5 -121t98 -257.5t53.5 -239.5t25 -115h-133
q-80 362 -104 438q-63 193 -178 232q-37 12 -80 12z" />
    <glyph glyph-name="uni0417" unicode="&#x417;" horiz-adv-x="1116" 
d="M616 1430q226 0 325 -82t69 -293q-23 -154 -88.5 -229.5t-194.5 -88.5l-4 -10q147 -14 199.5 -109.5t25.5 -289.5t-130 -269t-365 -75t-453 41l18 96q264 -25 439 -25t256 57.5t105 228.5t-39.5 233.5t-254.5 62.5h-229l14 108h223q172 0 247 55.5t97 213.5t-39 210
t-232 52t-268.5 -9.5t-113.5 -9.5l-6 101q173 31 399 31z" />
    <glyph glyph-name="uni0418" unicode="&#x418;" horiz-adv-x="1404" 
d="M1130 0h-129l146 1034q12 80 35 205l-6 -2q-73 -118 -93 -141l-833 -1096h-146l199 1413h131l-145 -1030q-20 -141 -37 -209l6 2q37 59 102 150l826 1087h143z" />
    <glyph glyph-name="uni0419" unicode="&#x419;" horiz-adv-x="1404" 
d="M1130 0h-129l146 1034q12 80 35 205l-6 -2q-73 -118 -93 -141l-833 -1096h-146l199 1413h131l-145 -1030q-20 -141 -37 -209l6 2q37 59 102 150l826 1087h143zM837 1534q-140 0 -214 73.5t-52 192.5h103q-31 -190 172 -190q92 0 148.5 48t66.5 142h102
q-10 -119 -98 -192.5t-228 -73.5z" />
    <glyph glyph-name="uni041A" unicode="&#x41a;" horiz-adv-x="1202" 
d="M502 682h-178q0 -72 -13 -162l-73 -520h-134l199 1413h133l-63 -459q-18 -111 -33 -161h170q86 0 157.5 36.5t147.5 141t109.5 164t87 161t63.5 119.5l139 -4q-172 -336 -247 -444q-150 -214 -316 -228l-4 -6q113 -12 188.5 -109.5t106.5 -197.5t65.5 -247.5t43.5 -180.5
l-138 4q-80 342 -106 416q-70 199 -197 246q-47 18 -108 18z" />
    <glyph glyph-name="uni041B" unicode="&#x41b;" horiz-adv-x="1318" 
d="M776 1303q-84 0 -126 -35t-60 -125q-98 -440 -145.5 -598t-135.5 -297q-141 -227 -352 -250l-8 113q47 18 106.5 49t137.5 149q79 117 125.5 268.5t144.5 600.5q27 123 96.5 179t190.5 56h493l-199 -1413h-133l183 1303h-318z" />
    <glyph glyph-name="uni041C" unicode="&#x41c;" horiz-adv-x="1779" 
d="M1610 1413q60 0 55 -63l-131 -1350h-133l129 1300h-43l-524 -1110q-16 -43 -62 -43h-135q-51 0 -57 50l-220 1103h-45l-233 -1300h-135l248 1356q12 57 63 57h158q47 0 53 -49l186 -924q6 -33 16.5 -97t16.5 -95h45q47 113 86 194l438 926q19 45 64 45h160z" />
    <glyph glyph-name="uni041D" unicode="&#x41d;" horiz-adv-x="1357" 
d="M1284 1413l-199 -1413h-135l99 696h-711l-98 -696h-136l199 1413h135l-84 -600h711l84 600h135z" />
    <glyph glyph-name="uni041E" unicode="&#x41e;" horiz-adv-x="1359" 
d="M784 1319q-231 0 -337.5 -132.5t-155.5 -480.5t19.5 -480t296.5 -132t336 134t158 482t-18 478.5t-299 130.5zM789 1438q299 0 403 -167t48 -572t-197.5 -564.5t-438.5 -159.5t-402.5 166.5t-49.5 570.5t197 565t440 161z" />
    <glyph glyph-name="uni041F" unicode="&#x41f;" horiz-adv-x="1363" 
d="M1290 1413l-198 -1413h-136l183 1303h-715l-184 -1303h-136l199 1413h987z" />
    <glyph glyph-name="uni0420" unicode="&#x420;" horiz-adv-x="1198" 
d="M763 1315q-175 0 -339 -4l-90 -629h332q178 2 253.5 67t101.5 251t-28.5 250.5t-229.5 64.5zM668 565q-174 0 -346 17l-82 -582h-136l199 1413q174 16 469 17q242 0 330 -96.5t52 -345.5t-140.5 -336t-345.5 -87z" />
    <glyph glyph-name="uni0421" unicode="&#x421;" 
d="M598 -25q-299 0 -401.5 171.5t-46.5 569.5t197.5 560t438.5 162q213 0 375 -39l-24 -101q-150 18 -367 18t-323.5 -129t-155.5 -479t17.5 -481t287.5 -132t397 24l11 -101q-166 -43 -406 -43z" />
    <glyph glyph-name="uni0422" unicode="&#x422;" horiz-adv-x="1163" 
d="M1217 1294h-472l-182 -1294h-135l182 1294h-469l19 119h1073z" />
    <glyph glyph-name="uni0423" unicode="&#x423;" horiz-adv-x="1130" 
d="M489 414q-98 0 -116 92l-209 907h135l186 -852q8 -33 45 -33h95l440 885h143l-538 -1075q-55 -109 -95 -172.5t-106 -118.5q-129 -107 -375 -33l21 97q72 -8 112.5 -11.5t81.5 6t61 19.5q58 28 160 221l37 68h-78z" />
    <glyph glyph-name="uni0424" unicode="&#x424;" horiz-adv-x="1677" 
d="M727 238l137 970q-293 -10 -421 -116.5t-166 -374.5t59.5 -370.5t390.5 -108.5zM991 1208l-137 -970q291 10 420 116.5t167 373.5t-60.5 370.5t-389.5 109.5zM1040 1530l-28 -209q352 -10 481 -146.5t84 -456.5t-209 -452.5t-526 -142.5l-29 -207h-133l27 207
q-354 10 -482.5 147.5t-83.5 457.5t210 452.5t526 142.5l28 207h135z" />
    <glyph glyph-name="uni0425" unicode="&#x425;" horiz-adv-x="1232" 
d="M780 733l314 -733h-140l-284 684h-64l-477 -684h-156l523 735l-295 678h139l264 -625h66l446 625h150z" />
    <glyph glyph-name="uni0426" unicode="&#x426;" horiz-adv-x="1392" 
d="M1262 111l-58 -420h-104l28 309h-1022l199 1413h135l-184 -1302h700l185 1302h133l-182 -1302h170z" />
    <glyph glyph-name="uni0427" unicode="&#x427;" horiz-adv-x="1259" 
d="M481 647q119 0 232.5 44t255.5 132l84 590h133l-199 -1413h-133l98 705q-266 -178 -520 -179q-160 0 -226.5 75t-45.5 241l80 571h135l-76 -553q-16 -117 23.5 -165t158.5 -48z" />
    <glyph glyph-name="uni0428" unicode="&#x428;" horiz-adv-x="1880" 
d="M1806 1413l-198 -1413h-1504l199 1413h133l-184 -1302h555l182 1302h131l-182 -1302h553l184 1302h131z" />
    <glyph glyph-name="uni0429" unicode="&#x429;" horiz-adv-x="1910" 
d="M1610 111h170l-60 -420h-102l29 309h-1541l199 1413h131l-182 -1302h545l184 1302h131l-182 -1302h545l184 1302h131z" />
    <glyph glyph-name="uni042A" unicode="&#x42a;" horiz-adv-x="1511" 
d="M858 102q215 0 290.5 63t101.5 239t-27.5 241.5t-237.5 65.5h-336l-86 -607q80 -2 295 -2zM993 823q250 0 338 -96t55 -333t-139 -323.5t-344 -86.5q-313 0 -487 16l180 1294h-459l19 119h592l-82 -590h327z" />
    <glyph glyph-name="uni042B" unicode="&#x42b;" horiz-adv-x="1705" 
d="M550 102q216 0 292 63t102 239t-28 241.5t-238 65.5h-338l-86 -607q80 -2 296 -2zM1630 1413l-198 -1413h-136l199 1413h135zM684 823q252 0 340 -96t55 -333t-139 -323.5t-344 -86.5q-315 0 -492 16l199 1413h135l-82 -590h328z" />
    <glyph glyph-name="uni042C" unicode="&#x42c;" horiz-adv-x="1204" 
d="M550 102q216 0 292 63t102 239t-28 241.5t-238 65.5h-338l-86 -607q80 -2 296 -2zM684 823q252 0 340 -96t55 -333t-139 -323.5t-344 -86.5q-315 0 -492 16l199 1413h135l-82 -590h328z" />
    <glyph glyph-name="uni042D" unicode="&#x42d;" horiz-adv-x="1169" 
d="M569 1438q319 0 429 -164t55 -570t-200.5 -564t-455.5 -165q-219 -4 -391 45l23 101q166 -31 387 -25t332.5 137.5t162.5 464.5h-626l14 105h627q31 213 -23 363.5t-342 150.5q-170 -1 -346 -21l-8 103q160 39 362 39z" />
    <glyph glyph-name="uni042E" unicode="&#x42e;" horiz-adv-x="1867" 
d="M1300 1319q-222 0 -329 -136.5t-155 -480.5t15.5 -476t286.5 -132t333 136.5t158 480.5t-19.5 476t-289.5 132zM1310 1438q282 0 389 -166t50 -573t-197.5 -565.5t-433.5 -158.5t-391 158t-47 547h-344l-94 -680h-136l199 1413h135l-88 -622h344q61 360 196.5 503.5
t417.5 143.5z" />
    <glyph glyph-name="uni042F" unicode="&#x42f;" horiz-adv-x="1243" 
d="M696 1315q-160 0 -238.5 -61.5t-103.5 -213.5q-57 -336 238 -335h342l86 606q-164 4 -324 4zM575 588q-82 0 -135 -39t-94 -127l-188 -422h-148l197 436q88 178 215 201l2 8q-127 27 -179.5 138t-24.5 293t139.5 268t328.5 86q322 0 481 -17l-198 -1413h-135l84 592
q-98 -4 -345 -4z" />
    <glyph glyph-name="uni0430" unicode="&#x430;" horiz-adv-x="1171" 
d="M630 907q-66 0 -123.5 -10t-103 -32.5t-85.5 -97t-71 -290.5q-32 -216 -3.5 -301.5t147.5 -85.5q201 0 443 246l79 563q-217 8 -283 8zM371 -25q-182 0 -237.5 120t-12.5 409q25 164 60.5 264t99 155.5t141.5 75t232 19.5t401 -41l-140 -977h-100l19 223
q-98 -113 -220 -180.5t-243 -67.5z" />
    <glyph glyph-name="uni0431" unicode="&#x431;" horiz-adv-x="1161" 
d="M636 850q-180 0 -259.5 -91t-107.5 -296t27.5 -290t224.5 -85t251 88t113 306t-19 293t-230 75zM510 -25q-254 0 -318 116t-62 235t24 281q22 161 59 325.5t132 273t282 162.5q23 6 182 40t272 85l17 -111q-138 -69 -261.5 -88.5t-168.5 -29.5q-172 -45 -244 -133.5
t-115 -256.5q-23 -82 -37 -141h4q111 229 404 230q225 0 299 -118t40 -372t-144.5 -376t-364.5 -122z" />
    <glyph glyph-name="uni0432" unicode="&#x432;" horiz-adv-x="1124" 
d="M223 302q0 -56 11.5 -96t29 -63.5t63 -42t193.5 -18.5t221.5 40t89.5 158t-45 171t-235 30l-318 -43q-10 -80 -10 -136zM647 911q-129 0 -181 -10t-99.5 -49t-74 -113.5t-46.5 -203.5l309 40q166 20 231.5 62.5t82.5 128.5t-38 115.5t-184 29.5zM916 971.5
q111 -46.5 77 -211.5q-37 -188 -264 -217v-4q141 -8 195 -82.5t34 -220.5t-120.5 -203.5t-304.5 -57.5t-276.5 31t-131 106.5t-15.5 366.5q30 197 68.5 297.5t104 153.5t142.5 70.5t228 17.5q152 0 263 -46.5z" />
    <glyph glyph-name="uni0433" unicode="&#x433;" horiz-adv-x="1052" 
d="M164 850l-4 102q188 55 413 66q287 14 347 -98q28 -52 19 -127q-17 -145 -119 -211q-80 -52 -158 -80l-314 -115q-76 -29 -111.5 -63.5t-45.5 -107.5t44 -100.5t177 -27.5q236 2 473 80l6 -102q-213 -90 -479 -91q-182 0 -274.5 55.5t-76.5 198.5q12 100 73 162t185 111
l302 106q96 33 139 74t53 112.5t-46 95t-217 16.5t-386 -56z" />
    <glyph glyph-name="uni0434" unicode="&#x434;" horiz-adv-x="1150" 
d="M508 86q168 0 248 120t116 388q4 31 15 104q-107 106 -279 106t-252 -91.5t-106 -277.5t32 -267.5t226 -81.5zM487 -25q-225 0 -314 117t-54 365q59 459 461 458q203 0 311 -129q6 281 -98 382.5t-218 137.5t-256 54l21 94q151 -14 261 -49t163 -68.5t105.5 -83t81 -113
t52 -148.5t19.5 -189.5t-18 -233.5q-20 -141 -50 -239.5t-115 -226.5t-352 -128z" />
    <glyph glyph-name="uni0435" unicode="&#x435;" horiz-adv-x="1091" 
d="M656 907q-122 0 -182 -14t-108.5 -57t-76 -120t-47.5 -206v-8l395 39q113 12 162 48t67 126q27 121 -30.5 156.5t-179.5 35.5zM620 1018q236 0 323 -75t57 -223t-110.5 -205.5t-252.5 -74.5l-408 -39q-12 -184 55.5 -249.5t225.5 -65.5t375 27l10 -88q-141 -49 -395 -49
t-343 125.5t-48 416.5t158 395.5t353 104.5z" />
    <glyph glyph-name="uni0436" unicode="&#x436;" horiz-adv-x="1554" 
d="M958 467h-145q2 -49 -4 -111l-51 -356h-119l53 365q4 39 23 102h-146q-127 -2 -207.5 -95t-216.5 -337q-12 -23 -18 -35h-135q156 285 209 354q115 150 262 164v4q-101 15 -165.5 95t-135.5 374h125q60 -240 111.5 -317t95 -92t88.5 -15h147q-2 45 8 119l43 305h119
l-45 -311q-10 -72 -25 -113h127q97 0 173.5 65.5t136 165t112.5 193.5h131q-167 -311 -251 -386.5t-185 -86.5v-4q88 -10 146.5 -74.5t83.5 -131t55 -176.5t37 -132h-125q-72 264 -103 328q-69 139 -209 139z" />
    <glyph glyph-name="uni0437" unicode="&#x437;" horiz-adv-x="1007" 
d="M495 1008q216 0 308 -56.5t71 -214.5q-16 -109 -69 -162t-172 -63l-4 -6q129 -10 179 -74t31 -206t-115 -192t-326 -50t-398 26l18 101q504 -40 591 6.5t101 155.5t-41 146.5t-220 39.5l-226 2l10 96h222q154 0 216 37t76.5 139.5t-42 133t-239.5 30.5t-302 -14l-6 96
q121 29 337 29z" />
    <glyph glyph-name="uni0438" unicode="&#x438;" horiz-adv-x="1157" 
d="M350 -25q-133 0 -193.5 72t-41.5 203l104 741h131l-102 -712q-14 -100 19.5 -145.5t125.5 -45.5t186.5 58.5t243.5 193.5l90 651h129l-139 -991h-100l20 231q-262 -256 -473 -256z" />
    <glyph glyph-name="uni0439" unicode="&#x439;" horiz-adv-x="1157" 
d="M350 -25q-133 0 -193.5 72t-41.5 203l104 741h131l-102 -712q-14 -100 19.5 -145.5t125.5 -45.5t186.5 58.5t243.5 193.5l90 651h129l-139 -991h-100l20 231q-262 -256 -473 -256zM661 1163q-140 0 -215 74t-53 193h105q-31 -190 172 -191q190 1 215 191h102
q-12 -119 -99 -193t-227 -74z" />
    <glyph glyph-name="uni043A" unicode="&#x43a;" horiz-adv-x="1075" 
d="M272 465q0 -68 -6 -109l-51 -356h-129l141 991h129l-43 -309q-12 -59 -26 -115h159q167 1 291 173q68 94 154 253l139 -2q-68 -125 -105.5 -189.5t-96 -137t-118 -105.5t-135.5 -41l-4 -4q141 -12 203 -113.5t131 -355.5q8 -31 13 -47l-132 4q-76 256 -106 317
q-72 146 -231 146h-177z" />
    <glyph glyph-name="uni043B" unicode="&#x43b;" horiz-adv-x="1132" 
d="M629 889q-68 0 -105 -31t-55 -106q-86 -373 -184 -557q-88 -186 -303 -205l-13 108q145 41 203 150q74 135 176 534q29 111 87.5 160t166.5 49h416l-141 -991h-129l126 889h-245z" />
    <glyph glyph-name="uni043C" unicode="&#x43c;" horiz-adv-x="1503" 
d="M1165 991h144q55 0 49 -53l-86 -938h-121l82 891h-37l-395 -750q-20 -39 -56 -39h-118q-39 0 -49 45l-189 744h-39l-166 -891h-121l177 942q8 49 57 49h141q39 0 49 -45l154 -608q27 -113 33 -148l37 3q45 96 69 143l330 616q18 39 55 39z" />
    <glyph glyph-name="uni043D" unicode="&#x43d;" horiz-adv-x="1175" 
d="M1061 991l-141 -991h-127l67 477h-577l-68 -477h-129l141 991h127l-57 -411h577l58 411h129z" />
    <glyph glyph-name="uni043E" unicode="&#x43e;" horiz-adv-x="1155" 
d="M627 905q-180 0 -265.5 -89.5t-119.5 -323.5t23 -320t237 -86t265 90t118 324t-22.5 319.5t-235.5 85.5zM629 1018q248 0 338 -121t51 -406t-155.5 -400.5t-364.5 -115.5t-338 120t-51 405t155.5 401.5t364.5 116.5z" />
    <glyph glyph-name="uni043F" unicode="&#x43f;" horiz-adv-x="1179" 
d="M801 1018q131 0 192.5 -72t42.5 -205l-106 -741h-129l100 715q14 104 -17.5 147t-122.5 43t-192.5 -56t-259.5 -181l-92 -668h-131l141 991h103l-21 -225q287 252 492 252z" />
    <glyph glyph-name="uni0440" unicode="&#x440;" horiz-adv-x="1171" 
d="M498 84q104 0 168.5 13.5t112.5 61.5t70.5 123.5t50.5 261.5t-1 271.5t-147 85.5q-84 0 -205 -65.5t-238 -180.5l-78 -565q163 -6 267 -6zM776 1016q180 0 234.5 -118t13.5 -411q-25 -162 -61.5 -263t-99 -155.5t-139 -74t-212.5 -19.5t-303 23q-2 -96 -16 -191l-37 -235
h-129l200 1419h103l-21 -231q102 109 233.5 182.5t233.5 73.5z" />
    <glyph glyph-name="uni0441" unicode="&#x441;" horiz-adv-x="989" 
d="M508 -25q-258 0 -349 121t-50 406q39 285 157.5 400.5t370.5 115.5q182 0 303 -45l-22 -84q-110 16 -286 16t-267 -86.5t-123 -326.5t30 -322t245 -82t306 23l11 -91q-147 -45 -326 -45z" />
    <glyph glyph-name="uni0442" unicode="&#x442;" horiz-adv-x="1794" 
d="M752 1018q121 0 181 -62.5t54 -175.5q248 238 430 238q131 0 190.5 -73t41.5 -204l-105 -741h-129l101 715q14 102 -21 146t-120 44t-171 -53t-231 -186l-94 -666h-125l100 715q14 100 -19.5 145t-120.5 45t-172 -53t-233 -184l-94 -668h-129l141 991h99l-19 -223
q260 250 445 250z" />
    <glyph glyph-name="uni0443" unicode="&#x443;" horiz-adv-x="1085" 
d="M406 0q-41 0 -71 23.5t-38 62.5l-197 905h138l170 -844q10 -43 51 -43h106l41 76q104 195 190 423t117 388h134q-37 -166 -126.5 -402.5t-193.5 -440.5q-103 -204 -205 -332t-189 -178q-181 -103 -343 -62l14 107q82 -12 151.5 2t163 92t185.5 223h-98z" />
    <glyph glyph-name="uni0444" unicode="&#x444;" horiz-adv-x="1449" 
d="M596 88l115 817q-233 -10 -341 -102.5t-139 -312.5t50.5 -308t314.5 -94zM825 905l-114 -817q233 10 340.5 102.5t136.5 311.5q31 219 -49.5 307t-313.5 96zM903 1434l-57 -418q291 -12 399.5 -134t70.5 -392t-178.5 -388t-439.5 -127l-55 -393h-121l53 395
q-293 10 -400 132.5t-69 392.5t178 388t439 126l59 418h121z" />
    <glyph glyph-name="uni0445" unicode="&#x445;" horiz-adv-x="1058" 
d="M647 514l275 -514h-134l-243 465h-53l-373 -465h-150l422 516l-254 475h133l219 -422h60l344 422h143z" />
    <glyph glyph-name="uni0446" unicode="&#x446;" horiz-adv-x="1202" 
d="M952 0q-70 0 -108.5 42t-30.5 124l4 47q-256 -238 -467 -238q-133 0 -193.5 72t-41.5 203l104 741h131l-102 -712q-14 -100 19.5 -145.5t125.5 -45.5t187.5 55.5t240.5 182.5l92 665h129l-114 -825q-8 -66 55 -66h82l-12 -100l-45 -305h-113l61 305h-4z" />
    <glyph glyph-name="uni0447" unicode="&#x447;" horiz-adv-x="1083" 
d="M387 465q168 0 395 127l56 399h131l-140 -991h-131l68 477q-229 -121 -420 -121q-264 -4 -233 217l59 418h129l-53 -383q-10 -82 19.5 -112.5t119.5 -30.5z" />
    <glyph glyph-name="uni0448" unicode="&#x448;" horiz-adv-x="1757" 
d="M983 -25q-113 0 -171 60.5t-52 171.5q-233 -231 -424 -232q-125 0 -182.5 72t-38.5 203l104 741h129l-100 -712q-14 -98 19.5 -141.5t117.5 -43.5t163 49.5t226 182.5l94 665h125l-100 -712q-14 -96 18.5 -140.5t118.5 -44.5t166 50.5t225 179.5l92 667h129l-139 -991
h-100l18 219q-242 -244 -438 -244z" />
    <glyph glyph-name="uni0449" unicode="&#x449;" horiz-adv-x="1802" 
d="M1552 0q-70 0 -109.5 42t-31.5 124l6 49q-240 -240 -434 -240q-113 0 -171 60.5t-52 171.5q-233 -231 -424 -232q-125 0 -182.5 72t-38.5 203l104 741h129l-100 -712q-14 -98 19.5 -141.5t117.5 -43.5t163 49.5t226 182.5l94 665h125l-100 -712q-14 -96 18.5 -140.5
t118.5 -44.5t166 50.5t225 179.5l92 667h129l-114 -825q-10 -66 53 -66h84l-59 -405h-113l66 305h-7z" />
    <glyph glyph-name="uni044A" unicode="&#x44a;" horiz-adv-x="1280" 
d="M794 496q-142 0 -257 -45l-45 -162q-28 -126 45.5 -164.5t202.5 -38.5t189.5 43t78.5 164t-27 162t-187 41zM791 594q225 0 299 -68.5t50 -243.5t-114 -237.5t-272 -62.5t-309.5 57.5t-73.5 269.5l161 578h-444l14 104h582l-121 -440q109 43 228 43z" />
    <glyph glyph-name="uni044B" unicode="&#x44b;" horiz-adv-x="1427" 
d="M688.5 130q61.5 44 78.5 164t-29 161t-194 41t-276 -54l-28 -194q-16 -105 55.5 -133.5t201.5 -28.5t191.5 44zM1313 991l-142 -991h-131l142 991h131zM547 594q223 0 299 -68.5t52 -242.5t-112 -237.5t-303 -63.5t-274 45t-82 97t-14 126l108 741h127l-67 -454
q129 57 266 57z" />
    <glyph glyph-name="uni044C" unicode="&#x44c;" horiz-adv-x="1036" 
d="M688.5 130q61.5 44 78.5 164t-29 161t-194 41t-276 -54l-28 -194q-16 -105 55.5 -133.5t201.5 -28.5t191.5 44zM547 594q223 0 299 -68.5t52 -242.5t-112 -237.5t-303 -63.5t-274 45t-82 97t-14 126l108 741h127l-67 -454q129 57 266 57z" />
    <glyph glyph-name="uni044D" unicode="&#x44d;" horiz-adv-x="1015" 
d="M451 1004q270 0 366 -114t58 -403t-158.5 -399.5t-386.5 -105.5q-188 0 -322 34l21 93q129 -14 288 -15q207 -4 298.5 72t123.5 293h-512l15 96h510q18 203 -47.5 270.5t-234.5 67.5t-314 -14l-9 94q121 31 304 31z" />
    <glyph glyph-name="uni044E" unicode="&#x44e;" horiz-adv-x="1603" 
d="M1068 905q-179 0 -262 -88t-116 -320t20.5 -317.5t234.5 -85.5t267 91t119 320.5t-25.5 314.5t-237.5 85zM1084 1018q240 0 331.5 -116t50.5 -406t-156.5 -401t-361.5 -111t-333 104.5t-54 372.5h-280l-64 -461h-129l139 991h129l-59 -428h278q43 256 156 355.5t353 99.5
z" />
    <glyph glyph-name="uni044F" unicode="&#x44f;" horiz-adv-x="1089" 
d="M588 893q-172 0 -231.5 -36.5t-73.5 -148.5t25.5 -170.5t164.5 -58.5h303l58 412q-74 2 -246 2zM475 381q-186 0 -227 -115l-96 -266h-134l105 289q27 72 86 104.5t123 34.5l2 6q-106 16 -148.5 97t-27.5 186q20 174 120.5 229t309.5 55t387 -14l-139 -987h-127l53 381
h-287z" />
    <glyph glyph-name="uni0451" unicode="&#x451;" horiz-adv-x="1091" 
d="M656 907q-122 0 -182 -14t-108.5 -57t-76 -120t-47.5 -206v-8l395 39q113 12 162 48t67 126q27 121 -30.5 156.5t-179.5 35.5zM620 1018q236 0 323 -75t57 -223t-110.5 -205.5t-252.5 -74.5l-408 -39q-12 -184 55.5 -249.5t225.5 -65.5t375 27l10 -88q-141 -49 -395 -49
t-343 125.5t-48 416.5t158 395.5t353 104.5zM856 1208h-43q-41 0 -35 39l17 113q6 41 45 41h41q43 0 37 -41l-19 -111q-2 -41 -43 -41zM504 1208h-43q-41 0 -35 39l16 113q6 41 47 41h39q43 0 37 -41l-18 -111q-2 -41 -43 -41z" />
    <glyph glyph-name="uni0452" unicode="&#x452;" horiz-adv-x="1169" 
d="M805 817q276 0 239 -276l-77 -541h-129l73 514q12 100 -24.5 142t-131.5 42t-191.5 -49t-241.5 -160l-68 -489h-131l145 1028h-153l12 78h152l47 328h129l-45 -328h411l-12 -78h-410l-37 -260q-12 -90 -32 -172q268 221 475 221z" />
    <glyph glyph-name="uni0453" unicode="&#x453;" horiz-adv-x="1052" 
d="M164 850l-4 102q188 55 413 66q287 14 331 -68t35 -157q-17 -145 -108 -204t-169 -87l-314 -115q-76 -29 -111.5 -63.5t-45.5 -107.5t44 -100.5t177 -27.5q236 2 473 80l6 -102q-213 -90 -479 -91q-182 0 -274.5 55.5t-76.5 198.5q12 100 73 162t185 111l302 106
q96 33 139 73.5t53 112.5t-46 95.5t-217 16.5t-386 -56zM889 1389l-400 -263l-45 64l377 299z" />
    <glyph glyph-name="uni0454" unicode="&#x454;" horiz-adv-x="1011" 
d="M634 893q-174 0 -260.5 -69.5t-123.5 -270.5h512l-12 -94h-514q-27 -215 54.5 -307.5t551.5 -42.5l10 -93q-143 -35 -334 -34q-252 0 -350 116.5t-59 401.5t160.5 394.5t383.5 109.5q189 0 310 -33l-21 -92q-134 14 -308 14z" />
    <glyph glyph-name="uni0455" unicode="&#x455;" horiz-adv-x="1034" 
d="M53 4l17 96q126 -14 326 -12t269.5 28.5t82.5 112.5q8 47 -9.5 79t-41.5 45t-83 38l-295 123q-109 47 -154.5 105.5t-28.5 184.5t111.5 172t301.5 42t399 -31l-16 -92q-509 27 -584.5 -1t-86.5 -107t17.5 -110.5t106.5 -64.5l297 -123q119 -49 164 -105t31 -167
q-22 -184 -211.5 -225t-612.5 12z" />
    <glyph glyph-name="uni0456" unicode="&#x456;" horiz-adv-x="487" 
d="M225 0h-129l140 991h129zM324 1409h61q45 0 39 -45l-16 -121q-6 -39 -46 -39h-59q-47 0 -41 45l19 121q2 39 43 39z" />
    <glyph glyph-name="uni0457" unicode="&#x457;" horiz-adv-x="483" 
d="M223 0h-131l141 991h129zM510 1401h41q43 0 37 -41l-19 -111q-2 -41 -43 -41h-43q-39 0 -37 39l19 113q6 41 45 41zM158 1401h41q43 0 37 -41l-19 -111q-2 -41 -43 -41h-43q-41 0 -35 39l17 113q6 41 45 41z" />
    <glyph glyph-name="uni0458" unicode="&#x458;" horiz-adv-x="487" 
d="M365 991l-148 -1044q-31 -219 -219 -369l-70 60q135 145 160 317l148 1036h129zM324 1409h61q45 0 39 -45l-16 -121q-6 -39 -46 -39h-59q-47 0 -41 45l19 121q2 39 43 39z" />
    <glyph glyph-name="uni0459" unicode="&#x459;" horiz-adv-x="1613" 
d="M1080 86q130 0 189 43t75 164t-26 162t-184 41t-264 -56l-28 -192q-14 -96 47 -129t191 -33zM612 893q-117 0 -143 -125q-66 -276 -100.5 -384t-100.5 -202q-102 -162 -286 -186l-11 106q106 29 185 127q63 84 95 181.5t103 392.5q43 188 221 188h375l-67 -459
q121 62 299 62t247 -71.5t45 -244.5t-107 -233.5t-265 -61.5t-290.5 48.5t-88.5 218.5l94 643h-205z" />
    <glyph glyph-name="uni045A" unicode="&#x45a;" horiz-adv-x="1640" 
d="M1127 86q112 0 170.5 44t73.5 164t-26 161t-181 41t-263 -54l-29 -194q-16 -117 63.5 -139.5t191.5 -22.5zM1167 594q213 0 285 -68.5t49 -242.5t-106.5 -237.5t-288.5 -63.5t-263.5 45t-80 97t-12.5 126l36 250h-507l-72 -500h-121l141 991h121l-55 -395h508l57 395h123
l-66 -454q121 57 252 57z" />
    <glyph glyph-name="uni045B" unicode="&#x45b;" horiz-adv-x="1169" 
d="M805 817q276 0 239 -276l-81 -594q-33 -223 -222 -369l-67 60q135 150 160 317l77 559q14 98 -23.5 141t-132.5 43t-191.5 -48t-244.5 -161l-65 -489h-131l145 1028h-153l12 78h152l47 328h129l-45 -328h411l-12 -78h-412l-32 -237q-16 -117 -37 -195q272 221 477 221z
" />
    <glyph glyph-name="uni045C" unicode="&#x45c;" horiz-adv-x="1075" 
d="M272 465q0 -68 -6 -109l-51 -356h-129l141 991h129l-43 -309q-12 -59 -26 -115h159q167 0 263 133.5t182 292.5l139 -2q-68 -125 -105.5 -189.5t-96 -137t-118 -105.5t-135.5 -41l-4 -4q141 -12 203 -113.5t131 -355.5q8 -31 13 -47l-132 4q-76 256 -106 317
q-72 146 -231 146h-177zM563 1126l-45 64l375 299l68 -100z" />
    <glyph glyph-name="uni045D" unicode="&#x45d;" horiz-adv-x="1157" 
d="M350 -25q-133 0 -193.5 72t-41.5 203l104 741h131l-102 -712q-14 -100 19.5 -145.5t125.5 -45.5t186.5 58.5t243.5 193.5l90 651h129l-139 -991h-100l20 231q-262 -256 -473 -256zM700 1126l-342 269l76 92l318 -301z" />
    <glyph glyph-name="uni045E" unicode="&#x45e;" horiz-adv-x="1085" 
d="M406 0q-41 0 -71 23.5t-38 62.5l-197 905h138l170 -844q10 -43 51 -43h106l41 76q104 195 190 423t117 388h134q-37 -166 -126.5 -402.5t-193.5 -440.5t-205.5 -332.5t-235.5 -205t-296 -34.5l14 107q82 -12 151.5 2t163 92t185.5 223h-98zM596 1163q-139 0 -214 74
t-54 193h104q-31 -190 172 -191q190 1 215 191h103q-10 -119 -98.5 -193t-227.5 -74z" />
    <glyph glyph-name="uni045F" unicode="&#x45f;" horiz-adv-x="1157" 
d="M489 -82h86l-36 -364h-113zM350 -25q-133 0 -193.5 72t-41.5 203l104 741h131l-102 -712q-14 -100 19.5 -145.5t125.5 -45.5t186.5 58.5t243.5 193.5l90 651h129l-139 -991h-100l20 231q-262 -256 -473 -256z" />
    <glyph glyph-name="uni0490" unicode="&#x490;" horiz-adv-x="1060" 
d="M569 1300q-78 0 -119.5 -34.5t-54.5 -122.5l-159 -1143h-136l164 1171q18 121 89 182.5t179 61.5q332 0 490 -12l63 319h93l-70 -422h-539z" />
    <glyph glyph-name="uni0491" unicode="&#x491;" horiz-adv-x="913" 
d="M469 889q-70 0 -106.5 -31t-47.5 -106l-104 -752h-129l111 791q29 205 231 204q260 0 389 -6l59 301h91l-62 -401h-432z" />
    <glyph glyph-name="uni04B0" unicode="&#x4b0;" horiz-adv-x="1165" 
d="M672 555h289l-15 -86h-313l-66 -469h-135l66 469h-318l13 86h294l-329 858h139l235 -631q25 -74 46 -151l16 4q70 125 88 153l412 625h145z" />
    <glyph glyph-name="uni04B1" unicode="&#x4b1;" horiz-adv-x="1173" 
d="M612 137h291l-12 -86h-318l-67 -473h-135l67 473h-315l12 86h291l-328 854h138l235 -629q35 -104 47 -153h14q31 70 89 158l411 624h148z" />
    <glyph glyph-name="uni04B6" unicode="&#x4b6;" horiz-adv-x="1316" 
d="M434 526q-317 0 -274 316l82 571h133l-76 -553q-16 -115 25.5 -165t161.5 -50t231.5 42t263.5 134l82 592h135l-186 -1317h174l-58 -405h-102l29 309h-191l99 700q-272 -174 -529 -174z" />
    <glyph glyph-name="uni04B7" unicode="&#x4b7;" horiz-adv-x="1124" 
d="M387 465q170 0 395 129l58 397h129l-127 -885h127l-56 -399h-114l51 293h-152l68 477q-229 -121 -420 -121q-264 -4 -233 217l59 418h129l-53 -383q-10 -82 19.5 -112.5t119.5 -30.5z" />
    <glyph glyph-name="uni04BA" unicode="&#x4ba;" horiz-adv-x="1271" 
d="M868 887q322 0 273 -316l-80 -571h-135l80 553q16 117 -27 166t-161 49t-229.5 -41t-264.5 -135l-84 -592h-136l199 1413h135l-98 -700q283 174 528 174z" />
    <glyph glyph-name="uni04C0" unicode="&#x4c0;" horiz-adv-x="514" 
d="M242 0h-136l199 1413h135z" />
    <glyph glyph-name="Wgrave" unicode="&#x1e80;" horiz-adv-x="1918" 
d="M1399 0h-160q-47 0 -51 47l-109 1262h-47l-459 -1268q-16 -41 -59 -41h-160q-20 0 -35.5 13.5t-17.5 31.5l-129 1368h137l99 -1149q4 -51 8 -162h53l57 166l402 1102q16 43 59 43h154q20 0 33.5 -14.5t15.5 -34.5l104 -1100q8 -113 11 -162h53l55 166l416 1145h141
l-512 -1374q-14 -39 -59 -39zM1182 1554l-52 -59l-342 268l76 92z" />
    <glyph glyph-name="wgrave" unicode="&#x1e81;" horiz-adv-x="1714" 
d="M416 104q51 0 88 62q66 100 140 301t134 491q4 37 39 33h141q31 0 39 -33l113 -854h25q45 0 82 58q104 158 161 297q98 217 160 532h135q-76 -335 -188 -573t-195 -338q-61 -80 -147 -80h-88q-41 0 -45 37l-113 866h-23q-34 -229 -118 -457t-170 -348q-59 -98 -174 -98
h-80q-37 0 -45 37l-185 954h134l153 -887h27zM1032 1186l-51 -60l-342 269l76 92z" />
    <glyph glyph-name="Wacute" unicode="&#x1e82;" horiz-adv-x="1918" 
d="M1399 0h-160q-47 0 -51 47l-109 1262h-47l-459 -1268q-16 -41 -59 -41h-160q-20 0 -35.5 13.5t-17.5 31.5l-129 1368h137l99 -1149q4 -51 8 -162h53l57 166l402 1102q16 43 59 43h154q20 0 33.5 -14.5t15.5 -34.5l104 -1100q8 -113 11 -162h53l55 166l416 1145h141
l-512 -1374q-14 -39 -59 -39zM1411 1757l-397 -262l-45 64l374 299z" />
    <glyph glyph-name="wacute" unicode="&#x1e83;" horiz-adv-x="1714" 
d="M416 104q51 0 88 62q66 100 140 301t134 491q4 37 39 33h141q31 0 39 -33l113 -854h25q45 0 82 58q104 158 161 297q98 217 160 532h135q-76 -335 -188 -573t-195 -338q-61 -80 -147 -80h-88q-41 0 -45 37l-113 866h-23q-34 -229 -118 -457t-170 -348q-59 -98 -174 -98
h-80q-37 0 -45 37l-185 954h134l153 -887h27zM1262 1389l-398 -263l-45 64l375 299z" />
    <glyph glyph-name="Wdieresis" unicode="&#x1e84;" horiz-adv-x="1918" 
d="M1399 0h-160q-47 0 -51 47l-109 1262h-47l-459 -1268q-16 -41 -59 -41h-160q-20 0 -35.5 13.5t-17.5 31.5l-129 1368h137l99 -1149q4 -51 8 -162h53l57 166l402 1102q16 43 59 43h154q20 0 33.5 -14.5t15.5 -34.5l104 -1100q8 -113 11 -162h53l55 166l416 1145h141
l-512 -1374q-14 -39 -59 -39zM1278 1769h39q43 0 37 -40l-19 -109q-2 -43 -43 -43h-43q-41 0 -35 41l17 111q6 40 47 40zM926 1769h41q41 0 34 -40l-16 -109q-6 -43 -45 -43h-43q-41 0 -35 41l17 111q6 40 47 40z" />
    <glyph glyph-name="wdieresis" unicode="&#x1e85;" horiz-adv-x="1714" 
d="M416 104q51 0 88 62q66 100 140 301t134 491q4 37 39 33h141q31 0 39 -33l113 -854h25q45 0 82 58q104 158 161 297q98 217 160 532h135q-76 -335 -188 -573t-195 -338q-61 -80 -147 -80h-88q-41 0 -45 37l-113 866h-23q-34 -229 -118 -457t-170 -348q-59 -98 -174 -98
h-80q-37 0 -45 37l-185 954h134l153 -887h27zM1128 1401h39q43 0 37 -41l-18 -111q-2 -41 -43 -41h-43q-41 0 -35 39l16 113q6 41 47 41zM776 1401h41q41 0 35 -41l-16 -111q-6 -41 -45 -41h-41q-39 0 -37 39l16 113q6 41 47 41z" />
    <glyph glyph-name="Ygrave" unicode="&#x1ef2;" horiz-adv-x="1134" 
d="M616 506l-69 -506h-135l71 510l-346 903h137l236 -631q25 -66 47 -151h14q25 53 88 157l412 625h148zM737 1497l-342 266l76 95l315 -302z" />
    <glyph glyph-name="ygrave" unicode="&#x1ef3;" horiz-adv-x="1083" 
d="M403 0q-41 0 -70.5 23.5t-37.5 62.5l-197 905h138l170 -844q10 -43 51 -43h96l47 82q207 367 311 805h136q-115 -473 -332 -841q-158 -276 -298.5 -407.5t-318.5 -166.5l-22 90q229 63 411 334h-84zM633 1126l-342 269l76 92l317 -301z" />
    <glyph glyph-name="endash" unicode="&#x2013;" horiz-adv-x="1232" 
d="M1057 465h-920l15 102h919z" />
    <glyph glyph-name="emdash" unicode="&#x2014;" horiz-adv-x="1859" 
d="M1683 465h-1546l15 102h1546z" />
    <glyph glyph-name="quoteleft" unicode="&#x2018;" horiz-adv-x="428" 
d="M293 1030h-41q-49 0 -41 49l18 129q14 119 99 281l63 -23q-39 -121 -59 -229q20 2 30.5 -10.5t8.5 -30.5l-19 -119q-4 -27 -16 -37t-43 -10z" />
    <glyph glyph-name="quoteright" unicode="&#x2019;" horiz-adv-x="423" 
d="M315 1470h43q47 0 41 -49l-18 -127q-18 -127 -98 -280l-66 20q45 143 59 232q-20 -2 -30 9t-6 32l18 118q4 27 15 36t42 9z" />
    <glyph glyph-name="quotesinglbase" unicode="&#x201a;" horiz-adv-x="450" 
d="M154 209h43q49 0 41 -49l-19 -129q-16 -121 -100 -281l-68 23q45 135 62 229q-18 -2 -29.5 10.5t-9.5 30.5l18 119q6 29 18.5 38t43.5 9z" />
    <glyph glyph-name="quotedblleft" unicode="&#x201c;" horiz-adv-x="712" 
d="M578 1030h-43q-47 0 -39 49l18 129q14 119 98 281l64 -23q-39 -121 -60 -229q18 2 29.5 -10.5t9.5 -30.5l-18 -119q-6 -27 -18 -37t-41 -10zM293 1030h-41q-49 0 -41 49l18 129q14 119 99 281l63 -23q-39 -121 -59 -229q20 2 30.5 -10.5t8.5 -30.5l-19 -119
q-4 -27 -16 -37t-43 -10z" />
    <glyph glyph-name="quotedblright" unicode="&#x201d;" horiz-adv-x="708" 
d="M600 1470h43q47 0 41 -49l-18 -127q-18 -127 -99 -280l-65 20q43 143 59 232q-20 -2 -30.5 9t-6.5 32l17 118q6 27 17 36t42 9zM315 1470h43q47 0 41 -49l-18 -127q-18 -127 -98 -280l-66 20q45 143 59 232q-20 -2 -30 9t-6 32l18 118q4 27 15 36t42 9z" />
    <glyph glyph-name="quotedblbase" unicode="&#x201e;" horiz-adv-x="731" 
d="M434 207h43q49 0 41 -49l-18 -127q-18 -127 -99 -281l-65 21q45 143 59 229q-43 0 -37 43l19 119q4 27 15 36t42 9zM152 207h41q49 0 40 -49l-18 -127q-18 -127 -98 -281l-66 21q45 143 60 229q-43 0 -37 43l18 119q4 27 16.5 36t43.5 9z" />
    <glyph glyph-name="dagger" unicode="&#x2020;" horiz-adv-x="901" 
d="M866 991l-16 -117l-268 17l14 100h270zM129 874l16 117h271l-15 -100zM393 -225h-119l164 1136l66 504h121l-66 -432z" />
    <glyph glyph-name="daggerdbl" unicode="&#x2021;" horiz-adv-x="983" 
d="M795 199h-271l15 100l272 16zM358 299l-14 -100h-270l16 116zM440 891l-270 -17l16 117h271zM889 874l-266 17l14 100h270zM666 1415l-177 -1214l-53 -426h-121l66 426l111 788l53 426h121z" />
    <glyph glyph-name="bullet" unicode="&#x2022;" horiz-adv-x="733" 
d="M371 719h22q86 0 118 -37t19 -123l-4 -29q-10 -90 -47 -121.5t-127 -31.5h-22q-90 0 -123 37t-19 127l5 28q12 88 49 119t129 31z" />
    <glyph glyph-name="ellipsis" unicode="&#x2026;" horiz-adv-x="1671" 
d="M1395 219h45q51 0 45 -53l-17 -119q-6 -47 -53 -47h-45q-57 0 -47 53l16 117q7 49 56 49zM782 219h45q55 0 45 -53l-16 -119q-6 -47 -53 -47h-45q-57 0 -47 53l16 117q6 49 55 49zM170 219h45q55 0 45 -53l-16 -119q-6 -47 -54 -47h-45q-53 0 -47 53l17 117q6 49 55 49z
" />
    <glyph glyph-name="perthousand" unicode="&#x2030;" horiz-adv-x="2572" 
d="M2166 735q-128 0 -184.5 -74.5t-82.5 -260.5t9.5 -260t161.5 -74t184 76t83 262t-9 258.5t-162 72.5zM1416 735q-128 0 -184 -74.5t-82 -260.5t9 -260t161 -74t185 76t83 262t-10 258.5t-162 72.5zM2170 819q177 0 238.5 -99.5t29.5 -323.5t-116 -319t-259 -95t-235.5 99
t-29.5 325t113 319.5t259 93.5zM1421 819q178 0 238.5 -99.5t28.5 -323.5t-115.5 -319t-258.5 -95t-235.5 99t-29.5 325t112.5 319.5t259.5 93.5zM530 1354q-128 0 -184.5 -75t-82.5 -260t9 -259t161 -74t184.5 76t82.5 262t-9 258t-161 72zM406 0h-107l1139 1413h104z
M533 1438q177 0 239 -99.5t30 -323.5t-116 -318.5t-259 -94.5t-235.5 99.5t-29.5 323.5t112.5 318.5t258.5 94.5z" />
    <glyph glyph-name="guilsinglleft" unicode="&#x2039;" horiz-adv-x="604" 
d="M524 887l-329 -375l231 -381l-66 -45l-280 418l4 33l385 399z" />
    <glyph glyph-name="guilsinglright" unicode="&#x203a;" horiz-adv-x="604" 
d="M500 520l-2 -33l-389 -401l-54 49l332 377l-231 381l65 43z" />
    <glyph glyph-name="fraction" unicode="&#x2044;" horiz-adv-x="327" 
d="M-334 0h-106l1130 1413h107z" />
    <glyph glyph-name="Euro" unicode="&#x20ac;" horiz-adv-x="1304" 
d="M465 819q0 -16 -21 -121l-8 -67h490l-29 -86h-467q-12 -240 70 -342.5t271 -106.5t339 25l10 -103q-147 -43 -340 -43q-274 0 -389 139.5t-100 430.5h-185l13 86h180l10 82q6 47 17 106h-179l13 86h184q66 276 212 404.5t415 128.5q178 0 315 -39l-24 -103
q-136 25 -314 21t-291.5 -97.5t-171.5 -314.5h549l-28 -86h-541z" />
    <glyph glyph-name="trademark" unicode="&#x2122;" horiz-adv-x="1947" 
d="M893 1343h-279l-98 -696h-96l96 696h-276l10 82h653zM1720 1425h109q18 0 28.5 -12t8.5 -31l-70 -735h-90l63 703h-24l-295 -588q-12 -29 -43 -29h-82q-35 0 -39 35l-137 582h-25l-129 -703h-92l137 742q6 37 39 36h105q35 0 39 -34l112 -486q4 -16 10.5 -53t10.5 -55h28
q20 55 50 110l245 490q14 28 41 28z" />
    <glyph glyph-name="partialdiff" unicode="&#x2202;" horiz-adv-x="1165" 
d="M459 92q184 0 285.5 146.5t152.5 414.5q-113 150 -297 150q-295 0 -373 -352q-37 -172 21.5 -265.5t210.5 -93.5zM466 -25q-234 0 -323.5 136.5t-44.5 349.5t166 333.5t314 118.5q229 0 333 -184q25 152 25 252t-26.5 173t-127 130t-397.5 53l6 101q435 6 556.5 -122.5
t118.5 -299t-30 -332.5q-59 -358 -197.5 -533.5t-372.5 -175.5z" />
    <glyph glyph-name="emptyset" unicode="&#x2205;" horiz-adv-x="1402" 
d="M750 350h-80q-14 0 -15 -16v-76q0 -14 15 -14h80q16 0 16 14v76q0 16 -16 16zM653 494h111q0 72 29.5 132t66.5 95t66.5 89t29.5 116q0 190 -239 190q-102 0 -250 -22l6 -93q123 19 251 19t128 -94q0 -78 -68.5 -147.5t-99.5 -137t-31 -147.5zM717 1296q248 0 423 -175
t175 -422.5t-175 -424t-424 -176.5t-424 176.5t-175 424t176 422.5t424 175z" />
    <glyph glyph-name="product" unicode="&#x220f;" horiz-adv-x="1478" 
d="M1491 1303h-225l-213 -1520h-131l215 1520h-607l-213 -1520h-129l213 1520h-225l14 110h1315z" />
    <glyph glyph-name="summation" unicode="&#x2211;" horiz-adv-x="1193" 
d="M1165 1303h-798l280 -584l-493 -813h835l-16 -111h-983l16 111l498 817l-277 580l15 110h938z" />
    <glyph glyph-name="minus" unicode="&#x2212;" horiz-adv-x="1202" 
d="M1034 555h-880l14 100h883z" />
    <glyph glyph-name="radical" unicode="&#x221a;" horiz-adv-x="1140" 
d="M430 0h-149q-10 0 -19.5 5t-7.5 13l-123 973h109l110 -899h29l760 1702h114l-800 -1780q-6 -14 -23 -14z" />
    <glyph glyph-name="infinity" unicode="&#x221e;" horiz-adv-x="1599" 
d="M1208 809q-68 0 -107.5 -19.5t-59 -28.5t-50 -35t-51 -42t-76.5 -72q72 -96 121 -131t142 -35t156 50.5t75 146.5q27 166 -150 166zM400 446q76 0 137 29t98 59.5t108 98.5q-70 92 -126 134t-148 42q-194 0 -221 -178q-14 -90 31 -137.5t121 -47.5zM1231 907
q123 0 190 -70.5t49 -205.5t-110 -209t-219 -74q-84 0 -153.5 35t-102.5 70.5t-82 101.5q-111 -98 -204 -152.5t-213 -54.5t-193.5 78t-55.5 214t104.5 201.5t205.5 65.5t194.5 -54t163.5 -163q236 217 426 217z" />
    <glyph glyph-name="integral" unicode="&#x222b;" horiz-adv-x="770" 
d="M623 1462q109 0 188 -8l-16 -94h-131q-86 0 -130.5 -44t-52.5 -147l-102 -1353q-12 -139 -73.5 -205t-188.5 -66t-185 9l19 94h129q86 0 131 45t53 149l103 1350q23 270 256 270z" />
    <glyph glyph-name="approxequal" unicode="&#x2248;" horiz-adv-x="1204" 
d="M209 289l-88 6q8 227 205 219q80 -2 246 -62.5t232 -62.5t95 22.5t39 94.5l90 -4q-6 -113 -55 -165t-147 -50t-261.5 63.5t-225.5 62.5t-91 -25.5t-39 -98.5zM264 680l-88 6q10 223 205 219q80 -2 246 -62.5t232 -62.5t95 22.5t39 94.5l90 -6q-6 -111 -55.5 -163
t-147.5 -51t-261 63.5t-225 63.5t-91 -25.5t-39 -98.5z" />
    <glyph glyph-name="notequal" unicode="&#x2260;" horiz-adv-x="1253" 
d="M766 764l-248 -332h524l-12 -100h-588l-188 -254l-47 24l172 230h-232l15 100h291l249 332h-495l14 100h555l166 221l47 -24l-147 -197h260l-12 -100h-324z" />
    <glyph glyph-name="lessequal" unicode="&#x2264;" horiz-adv-x="1171" 
d="M965 180h-871l15 99h870zM1049 969l-746 -242l680 -221l-16 -103l-787 271l15 106l868 297z" />
    <glyph glyph-name="greaterequal" unicode="&#x2265;" horiz-adv-x="1167" 
d="M961 180h-869l14 99h869zM1022 780l-14 -106l-865 -271l17 109l739 225l-674 242l15 98z" />
    <glyph glyph-name="lozenge" unicode="&#x25ca;" horiz-adv-x="1183" 
d="M205 707l319 -572l490 578l-320 567zM96 727l594 692q16 16 31 -4l399 -694q6 -16 0 -31l-594 -696q-18 -18 -30 4l-402 698q-6 17 2 31z" />
    <glyph glyph-name="fi" unicode="&#xfb01;" horiz-adv-x="1191" 
d="M1032 1409h60q47 0 41 -45l-17 -121q-6 -39 -45 -39h-61q-47 0 -41 45l18 121q2 39 45 39zM-35 -418q-96 0 -217 12l19 97h157q102 0 150.5 42t62.5 150l142 1004h-179l13 94l180 10l26 180q20 150 94.5 222.5t216.5 72.5t247 -12l-9 -96h-194q-109 0 -161 -46t-67 -159
l-22 -162h649l-141 -991h-129l125 887h-518l-144 -1022q-41 -283 -301 -283z" />
    <glyph glyph-name="fl" unicode="&#xfb02;" horiz-adv-x="1318" 
d="M1066 -16q-112 0 -167 60t-41 167l162 1147h-346q-106 2 -158.5 -45t-69.5 -160l-22 -162h315l-14 -104h-315l-144 -1022q-41 -283 -301 -283q-96 0 -217 12l19 97h157q102 0 150.5 42t62.5 150l142 1004h-179l13 94l180 10l26 180q20 150 94 222.5t220 72.5
q414 -4 526 -20l-168 -1217q-18 -141 121 -141h109l6 -84q-49 -20 -161 -20z" />
    <glyph glyph-name="brevecy" horiz-adv-x="751" 
d="M476 1151q-140 0 -215 73.5t-52 192.5h104q-31 -190 172 -190q190 0 215 190h103q-12 -119 -99.5 -192.5t-227.5 -73.5z" />
    </font>
</defs>
</svg>
